<?xml version="1.0" encoding="utf-8"?>
<!-- Generator: Adobe Illustrator 16.0.3, SVG Export Plug-In . SVG Version: 6.00 Build 0)  -->
<!DOCTYPE svg PUBLIC "-//W3C//DTD SVG 1.0//EN" "http://www.w3.org/TR/2001/REC-SVG-20010904/DTD/svg10.dtd">
<svg version="1.0" id="Layer_1" xmlns="http://www.w3.org/2000/svg" xmlns:xlink="http://www.w3.org/1999/xlink" x="0px" y="0px"
	 width="15312px" height="918px" viewBox="50 0 15312px 918px" enable-background="new 0 0 15312 918" xml:space="preserve">
<polyline fill="none" stroke="#000000" stroke-width="8.9501" stroke-miterlimit="10" points="1619.6,1383.2 1619.6,1334.6 
	1571,1334.6 1571,1286.1 1522.4,1286.1 "/>
<polyline fill="none" stroke="#000000" stroke-width="8.9501" stroke-miterlimit="10" points="1716.8,1480.4 1716.8,1431.8 
	1668.2,1431.8 1668.2,1383.2 1619.6,1383.2 "/>
<polyline fill="none" stroke="#000000" stroke-width="8.9501" stroke-miterlimit="10" points="1522.4,1286.1 1522.4,1237.5 
	1473.8,1237.5 1473.8,1188.9 1425.3,1188.9 1425.3,1140.3 1376.7,1140.3 1376.7,1091.7 1328.1,1091.7 "/>
<path fill="none" stroke="#000000" stroke-width="2.8638" stroke-miterlimit="10" d="M15339.2,273.2c156,0,81.8,110,0,202
	c-81.8,92.1-212.2-10.2-189.2-99.7c23-89.5,38.2-102.3-46-102.3s-81.8,17.9-38.4,104.8c43.5,86.9-135.5,102.3-107.4,2.6
	c28.1-99.7-148.3-73.9-148.3-73.9h-46l-20.5,38.1l-25.6-38.1l-81.8,25.9l-94.6-133.6l-69,194.3l-30.7-46v35.8l-51.1-50.5l-43.5,140
	l-20.5-60.1l-9,42.2l-11.5-52.4l0,105.5l-20.5-68.4l-17.9,43.5l-19.2-101l-10.2,66.5l-46-244.2l-25.6,104.8l-34.5-15.3l-12.8,74.2
	l-30.7-51.1l-48.6,94.6l-28.1-61.4l-19.2,111.2l-19.2-57.5l-38.4-83.1l-20.5,66.5l-106.1-199.5l-89.5,158.5l-88.2,194.3V124.9h-65.2
	v387.4h-48.6V135.1h-47.3v349.1h-46V169.6h-48.6v253.2h-66.5V273.2v0l-135.5,0v102.3h-163.7V222h-117.6v84.7h-143.2V201.6
	l-117.6,15.3c0,0,153.4,35.8-61.4,89.8S12406.1,176,12406.1,176l-66.5,199.5c0,0-76.7-209.7-403.1-173.9
	c-326.4,35.8-289.9,375.9-139,225c150.9-150.9-20.5-179-122.7-148.3s-189.2-363.1-184.1-161.7c5.1,201.4-81.8,120.8-117.6,190.2
	c-35.8,69.3-5.1-43.8-173.9-74.5c-168.8-30.7-46,10.2-122.7,112.5c-76.7,102.3-122.7,15.3-138.1-38.1
	c-15.3-53.4-20.5-59.1-66.5-89.8s10.2,122.7-133,56.3s-20.5,30.7-92.1,97.2c-71.6,66.5-199.5,71.6-133-63.6
	c66.5-135.2-97.2-190.2-102.3-79.6c-5.1,110.6-148.3,117.6-168.8,20.5c-20.5-97.2-142.9-71.8-501.2,107.4
	c-358.3,179.2-240.4-15.3-240.4-15.3s112.5-61.4,0-138.1s-98.3,19.3-184.1,105.1c-85.8,85.8-135.5,32.8-225,0
	c-89.5-32.8-153.4,0-153.4,0c-434.7,0-419.4-126.5-245.5-126.5c173.9,0,0,149.3,0,149.3c-40.9,48.9-324.5,222.2-557.5-10.7
	C7635.7-181.1,7706-182,7706,298.8s-286.4,516.5-281.3-3s-419.4-339.6-373.3-53.2c46,286.4-199.5,184.1-199.5,184.1l-327.3-167
	c-225-133-198.8,5.7-198.8,5.7c-68.8,74.3-147.4,73.1-108,0c39.3-73.1-73.6-103.8-152.2,0c-78.6,103.8-113-89-167,0
	c-54,89-147.4,161.4-103.1-3.8c44.2-165.2-4.9-65.6-113,3.8c-108,69.4-24.5,181.1-39.3,0c-14.7-181.1-29.5-93.9-39.3,0
	c-9.8,93.9-58.9,151.6-98.2-3.8c-39.3-155.4-49.1-104.9-78.6,0c-29.5,104.9-73.7,184.9-78.6,0s-24.5-80.3-44.2,0
	c-19.7,80.3-63.9,91.6-63.9,0s-54-36.1-93.3,0c-39.3,36.1-221,160.3-260.3,0s-309.4-65.6-486.2,0c-176.8,65.6-196.5,71.9-260.3,0
	s-113-55.8-147.3,0c-34.4,55.8-83.5,165.2-73.7,0c9.8-165.2-132.6-99.9-68.8-3.4c63.9,96.5,49.1,128.6-44.2,0
	c-93.3-128.6-211.2-81.8-152.2,0c59,81.8-412.6,104.9-618.8,3.4c-206.3-101.4-470.3-145.6-707.2-3.4c-54,37.6-388,128.6-604.1,0
	c-79.1-47.1-272.5-74.9-225,51.1c15.4,40.9-89-36.5-108-91.6c-14.7-42.6-36.6,21.3-11.6,67.7c25,46.3-315.5,46.6-205.8-29.2
	c9.6-6.7,84.6,18.5,39.1,62.7c-104.7,101.8-155-18.4-63.8-101.2c30.9-22.9,76.5,0.8,91.6-5.7c21.8-9.3,28.2-30.7,27-42.5
	c-4.5-46.2-184.9-27-223.6,122.3c-21.1,81.5-210.9-232.7-164.2-15.9C906.4,395.9,697,372.2,806.6,175
	c13.1-54.8-77.5,105.9-114.6,90.3c-73.3-30.8-118.4-97.2-142-3.8c-27.3,77.9-134.1,61.8-134.1,61.8c-31.5-3.5-46.6-29.9-47-44.4
	c-0.8-31.9-76.2-30.4-93.1-25.6c-16.9,4.8-555.3,8.2-555.3,8.2"/>
</svg>
