<?xml version="1.0" encoding="utf-8"?>
<!-- Generator: Adobe Illustrator 16.0.3, SVG Export Plug-In . SVG Version: 6.00 Build 0)  -->
<!DOCTYPE svg PUBLIC "-//W3C//DTD SVG 1.0//EN" "http://www.w3.org/TR/2001/REC-SVG-20010904/DTD/svg10.dtd">
<svg version="1.0" id="Layer_1" xmlns="http://www.w3.org/2000/svg" xmlns:xlink="http://www.w3.org/1999/xlink" x="0px" y="0px"
	 width="300px" height="291px" viewBox="0 0 300 291" enable-background="new 0 0 300 291" xml:space="preserve">
<g enable-background="new    ">
	<g enable-background="new    ">
		<g>
			<defs>
				<path id="SVGID_1_" d="M53.8,191.6c0.3-0.6,0.7-1.1,1-1.7c0.3-0.5,0.6-1,0.9-1.5c0.1-0.2,0.2-0.4,0.3-0.6
					c0.8-1.2,1.6-2.4,2.6-3.5l-2.7,4.2C55.2,189.5,54.5,190.5,53.8,191.6z"/>
			</defs>
			<clipPath id="SVGID_2_">
				<use xlink:href="#SVGID_1_"  overflow="visible"/>
			</clipPath>
			<g clip-path="url(#SVGID_2_)" enable-background="new    ">
				<path fill="#85211F" d="M53.8,191.6l2.3-3.7c0.8-1.2,1.6-2.4,2.6-3.5l-2.7,4.2C55.2,189.5,54.5,190.5,53.8,191.6"/>
			</g>
		</g>
	</g>
	<path fill="#85211F" d="M242.6,82.8c0-0.2,0-0.4,0-0.6c0-0.2,0-0.4,0-0.6c0-0.2,0-0.4,0-0.6c0-0.7-0.1-1.4-0.1-2.1l0,0l0,0v-0.1
		c-0.1-0.8-0.2-1.5-0.3-2.3c0-0.3-0.1-0.6-0.2-0.8c-0.1-0.5-0.2-1-0.3-1.5v-0.1c-0.2-0.7-0.4-1.3-0.6-2c0-0.2-0.1-0.3-0.2-0.4
		c-0.2-0.5-0.4-1.1-0.6-1.6c-0.1-0.2-0.2-0.5-0.3-0.7c-0.2-0.4-0.4-0.9-0.6-1.3c-0.1-0.3-0.2-0.5-0.4-0.8c-0.1-0.2-0.2-0.4-0.3-0.6
		c-0.1-0.2-0.3-0.5-0.4-0.7c-0.1-0.2-0.2-0.4-0.3-0.6c-0.4-0.6-0.7-1.2-1.1-1.8l-4.5-6.4c-0.2-0.3-0.4-0.6-0.6-0.8
		c-0.3-0.4-0.6-0.8-0.9-1.2c0,0,0,0-0.1-0.1c-0.3-0.3-0.6-0.7-0.9-1c-0.2-0.3-0.5-0.5-0.7-0.8c-1-1-2.1-2-3.2-3.2
		c0.3,0.3,0.6,0.6,0.9,1c0.4,0.4,0.7,0.8,1.1,1.2c0.1,0.1,0.1,0.1,0.2,0.2c0.3,0.3,0.6,0.7,0.8,1.1c0.3,0.4,0.5,0.7,0.8,1.1l4.5,6.4
		c0.5,0.7,0.9,1.4,1.3,2.1c0.1,0.2,0.2,0.4,0.4,0.6c0.3,0.5,0.6,1,0.8,1.5c0.1,0.3,0.3,0.6,0.4,0.9c0.2,0.5,0.5,1,0.7,1.5
		c0.1,0.3,0.2,0.6,0.3,0.8c0.2,0.6,0.5,1.2,0.7,1.9c0.1,0.2,0.1,0.4,0.2,0.6c0.3,0.8,0.5,1.6,0.7,2.6c0.2,0.6,0.3,1.2,0.4,1.8
		c0.1,0.3,0.1,0.6,0.2,0.9c0.2,0.9,0.3,1.7,0.4,2.7c0,0.1,0,0.1,0,0.2l0,0c0.1,0.8,0.1,1.6,0.2,2.4c0,0.2,0,0.4,0,0.6
		c0,0.5,0,0.9,0,1.4c0,0.7,0,1.3-0.1,2c0,0.4,0,0.8-0.1,1.2c0,0.6-0.1,1.1-0.2,1.7c-0.1,0.4-0.1,0.8-0.2,1.2c-0.1,0.5-0.2,1-0.3,1.5
		c-0.1,0.4-0.2,0.8-0.2,1.2c-0.1,0.6-0.3,1.1-0.4,1.6c-0.1,0.3-0.2,0.7-0.3,1c-0.3,0.9-0.6,1.8-0.9,2.7c0,0,0,0,0,0.1l0,0
		c-0.3,0.7-0.6,1.4-0.9,2.1c-0.1,0.2-0.2,0.4-0.3,0.5c-0.3,0.7-0.7,1.3-1.1,2c0.8-1.2,1.5-2.6,2.3-3.8l0,0c0.2-0.4,0.4-0.7,0.7-1.1
		c0.1-0.2,0.2-0.3,0.3-0.5c0.1-0.2,0.2-0.3,0.2-0.5c0.3-0.6,0.6-1.2,0.8-1.7l0,0l0,0l0,0c0.3-0.7,0.6-1.5,0.8-2.2
		c0-0.1,0-0.1,0.1-0.2c0.1-0.2,0.1-0.5,0.2-0.7c0.1-0.5,0.3-0.9,0.4-1.4c0-0.1,0-0.2,0.1-0.3c0.1-0.2,0.1-0.5,0.1-0.7
		c0.1-0.4,0.2-0.9,0.2-1.3c0-0.1,0-0.2,0.1-0.3c0-0.2,0-0.5,0.1-0.7c0.1-0.5,0.1-0.9,0.1-1.4c0-0.1,0-0.3,0-0.4c0-0.2,0-0.4,0-0.5
		C242.6,84,242.6,83.4,242.6,82.8z"/>
	<g enable-background="new    ">
		<g>
			<defs>
				<path id="SVGID_3_" d="M185.9,46.4c7.5-0.9,15.1-1.8,22.6-2.8c1.5-0.2,3-0.2,4.5,0l-22.6,2.8C188.9,46.2,187.4,46.2,185.9,46.4z
					"/>
			</defs>
			<clipPath id="SVGID_4_">
				<use xlink:href="#SVGID_3_"  overflow="visible"/>
			</clipPath>
			<g clip-path="url(#SVGID_4_)" enable-background="new    ">
				<path fill="#8C2423" d="M185.9,46.4l22.6-2.8c0.6-0.1,1.2-0.1,1.8-0.1l-22.6,2.8C187.1,46.2,186.5,46.3,185.9,46.4"/>
				<path fill="#8F2524" d="M187.7,46.2l22.6-2.8c0.5,0,1,0,1.6,0l-22.6,2.8C188.7,46.2,188.2,46.2,187.7,46.2"/>
				<path fill="#932726" d="M189.3,46.3l22.6-2.8c0.4,0,0.8,0.1,1.1,0.1l-22.6,2.8C190,46.3,189.6,46.3,189.3,46.3"/>
			</g>
		</g>
	</g>
	<path fill="#55615B" d="M241.2,81.5c0-0.1,0-0.1,0-0.2c0-0.2,0-0.4,0-0.5c0-0.5-0.1-1-0.1-1.5c0-0.2-0.1-0.4-0.1-0.6
		c0-0.4-0.1-0.8-0.2-1.2c0-0.3-0.1-0.6-0.1-0.9c-0.1-0.4-0.1-0.8-0.2-1.2c0-0.2-0.1-0.3-0.1-0.5c-0.2-0.7-0.3-1.5-0.5-2.2
		c0-0.1-0.1-0.2-0.1-0.4c-0.1-0.2-0.1-0.4-0.2-0.6c-0.2-0.8-0.5-1.5-0.7-2.2c-0.1-0.1-0.1-0.3-0.2-0.4c-0.3-0.8-0.7-1.7-1-2.5
		c-0.1-0.2-0.2-0.4-0.3-0.6c-0.1-0.3-0.3-0.6-0.4-0.8c-0.3-0.5-0.5-1-0.8-1.5c0,0,0,0,0-0.1c-0.3-0.5-0.6-1.1-1-1.6
		c-0.2-0.3-0.4-0.7-0.7-1l-4.4-6.3c-0.3-0.4-0.5-0.8-0.8-1.1c0,0,0,0,0-0.1c-0.4-0.5-0.7-0.9-1.1-1.4l-0.1-0.1
		c-0.1-0.1-0.2-0.2-0.3-0.3c-0.2-0.3-0.5-0.5-0.7-0.8c-0.1-0.1-0.1-0.1-0.2-0.2c-0.1-0.1-0.2-0.2-0.2-0.2c-0.2-0.2-0.4-0.4-0.6-0.6
		c-0.1-0.1-0.2-0.2-0.3-0.3c-0.1-0.1-0.1-0.1-0.2-0.2c-0.2-0.2-0.4-0.3-0.6-0.5c-0.1-0.1-0.2-0.2-0.3-0.3c-0.1-0.1-0.1-0.1-0.2-0.2
		c-0.2-0.1-0.3-0.3-0.5-0.4c-0.1-0.1-0.2-0.2-0.3-0.3c-0.1,0-0.1-0.1-0.2-0.1c-0.2-0.1-0.4-0.3-0.5-0.4c-0.1-0.1-0.2-0.2-0.3-0.2
		c-0.1,0-0.1-0.1-0.2-0.1c-0.2-0.1-0.3-0.2-0.5-0.3c-0.1-0.1-0.2-0.1-0.3-0.2c-0.1,0-0.2-0.1-0.2-0.1c-0.2-0.1-0.4-0.2-0.5-0.3
		s-0.2-0.1-0.3-0.2c-0.1,0-0.2-0.1-0.2-0.1c-0.2-0.1-0.4-0.2-0.5-0.3s-0.2-0.1-0.3-0.2c-0.1,0-0.2-0.1-0.3-0.1
		c-0.2-0.1-0.4-0.2-0.5-0.2c-0.1,0-0.2-0.1-0.3-0.1c-0.1,0-0.2-0.1-0.3-0.1c-0.2-0.1-0.4-0.1-0.6-0.2c-0.1,0-0.2-0.1-0.3-0.1
		c-0.1,0-0.2-0.1-0.3-0.1c-0.2-0.1-0.4-0.1-0.6-0.2c-0.1,0-0.2-0.1-0.3-0.1c-0.1,0-0.2,0-0.2-0.1c-0.2-0.1-0.5-0.1-0.7-0.2
		c-0.1,0-0.2-0.1-0.3-0.1s-0.1,0-0.2,0c-0.3,0-0.5-0.1-0.8-0.1c-0.1,0-0.2,0-0.4-0.1c-0.1,0-0.2,0-0.3,0l-22.6,2.8
		c0.2,0,0.4,0.1,0.7,0.1c0.3,0,0.5,0.1,0.8,0.1c0.2,0,0.4,0.1,0.5,0.1c0.2,0,0.4,0.1,0.7,0.2c0.2,0,0.4,0.1,0.6,0.2
		c0.2,0.1,0.4,0.1,0.6,0.2c0.2,0.1,0.4,0.1,0.6,0.2c0.2,0.1,0.4,0.1,0.6,0.2s0.4,0.1,0.6,0.2c0.2,0.1,0.4,0.2,0.6,0.2
		c0.2,0.1,0.4,0.2,0.6,0.3c0.2,0.1,0.4,0.2,0.5,0.3c0.2,0.1,0.4,0.2,0.6,0.3c0.2,0.1,0.4,0.2,0.5,0.3c0.2,0.1,0.4,0.2,0.6,0.3
		s0.4,0.2,0.5,0.3c0.2,0.1,0.4,0.2,0.6,0.4c0.2,0.1,0.3,0.2,0.5,0.4c0.2,0.1,0.4,0.3,0.5,0.4c0.2,0.1,0.4,0.3,0.5,0.4
		c0.2,0.1,0.3,0.3,0.5,0.4c0.2,0.2,0.4,0.3,0.6,0.5c0.2,0.1,0.3,0.3,0.5,0.4c0.2,0.2,0.4,0.4,0.6,0.6c0.1,0.1,0.3,0.3,0.4,0.4
		c0.2,0.3,0.5,0.5,0.7,0.8c0.1,0.1,0.2,0.3,0.4,0.4c0.4,0.4,0.8,0.9,1.1,1.4c0.3,0.4,0.6,0.8,0.8,1.2l4.4,6.3
		c0.6,0.8,1.1,1.7,1.6,2.6v0.1c0.4,0.8,0.8,1.5,1.2,2.3c0.1,0.2,0.2,0.4,0.3,0.6c0.4,0.8,0.7,1.6,1,2.5c0.1,0.1,0.1,0.3,0.2,0.4
		c0.3,0.7,0.5,1.5,0.7,2.2c0.1,0.2,0.1,0.4,0.2,0.6c0.2,0.9,0.5,1.7,0.6,2.6c0,0.2,0.1,0.3,0.1,0.5c0.1,0.7,0.2,1.4,0.3,2
		c0.1,0.4,0.1,0.8,0.2,1.2c0.1,0.7,0.1,1.4,0.2,2.1c0,0.2,0,0.4,0,0.5c0,0.9,0.1,1.8,0,2.7c0,0.2,0,0.3,0,0.5c0,0.9-0.1,1.8-0.1,2.6
		c0,0.1,0,0.2,0,0.3c-0.1,0.9-0.2,1.8-0.4,2.7c0,0.1,0,0.1,0,0.2c-0.2,0.9-0.3,1.8-0.6,2.7c0,0.1,0,0.1-0.1,0.2
		c-0.2,0.9-0.5,1.7-0.8,2.6c0,0.1-0.1,0.2-0.1,0.3c-0.3,0.8-0.6,1.6-1,2.4c0,0.1-0.1,0.2-0.1,0.3c-0.4,0.8-0.7,1.6-1.2,2.3
		c0,0.1-0.1,0.2-0.1,0.2c-0.4,0.7-0.8,1.4-1.3,2c-0.1,0.1-0.1,0.2-0.2,0.3c-0.5,0.7-1.1,1.4-1.7,2.1l-114.4,131
		c-0.5,0.5-0.9,1-1.4,1.5c-0.1,0.1-0.2,0.1-0.2,0.2c-0.4,0.4-0.8,0.7-1.2,1.1c-0.2,0.1-0.3,0.3-0.5,0.4c-0.3,0.3-0.6,0.5-1,0.7
		c-0.2,0.1-0.4,0.3-0.6,0.4c-0.3,0.2-0.6,0.4-0.9,0.6c-0.2,0.1-0.4,0.2-0.6,0.3c-0.3,0.2-0.6,0.3-1,0.5c-0.2,0.1-0.4,0.2-0.6,0.3
		c-0.3,0.1-0.7,0.3-1,0.4c-0.2,0.1-0.4,0.1-0.6,0.2c-0.4,0.1-0.7,0.2-1.1,0.3c-0.2,0-0.4,0.1-0.5,0.1c-0.6,0.1-1.1,0.2-1.7,0.3
		c7.5-0.9,15.1-1.8,22.6-2.8c0.6-0.1,1.1-0.2,1.7-0.3c0.2,0,0.4-0.1,0.5-0.1c0.4-0.1,0.7-0.2,1.1-0.3c0.2-0.1,0.4-0.1,0.6-0.2
		c0.3-0.1,0.7-0.2,1-0.4c0.2-0.1,0.4-0.2,0.6-0.3c0.3-0.1,0.6-0.3,1-0.5c0.2-0.1,0.4-0.2,0.6-0.3c0.3-0.2,0.6-0.4,0.9-0.6
		c0.2-0.1,0.4-0.3,0.6-0.4c0.3-0.2,0.6-0.5,1-0.7c0.2-0.1,0.3-0.3,0.5-0.4c0.4-0.3,0.8-0.7,1.2-1.1c0.1-0.1,0.2-0.1,0.2-0.2l0,0
		c0.5-0.5,0.9-0.9,1.4-1.5l114.2-130.8c0.1-0.1,0.2-0.2,0.3-0.3c0.4-0.5,0.9-1.1,1.2-1.6c0-0.1,0.1-0.1,0.1-0.2
		c0.1-0.1,0.2-0.2,0.2-0.3c0.2-0.3,0.4-0.6,0.6-1c0.2-0.3,0.4-0.7,0.6-1c0-0.1,0.1-0.2,0.1-0.2l0.1-0.1c0.2-0.4,0.5-0.9,0.7-1.4
		c0.1-0.3,0.2-0.5,0.4-0.8c0-0.1,0.1-0.2,0.1-0.3s0.1-0.2,0.1-0.2c0.2-0.4,0.4-0.9,0.5-1.3c0.1-0.3,0.2-0.5,0.3-0.8
		c0-0.1,0.1-0.2,0.1-0.3s0.1-0.2,0.1-0.2c0.1-0.4,0.3-0.9,0.4-1.3c0.1-0.3,0.2-0.6,0.3-1c0-0.1,0-0.2,0.1-0.2c0-0.1,0-0.1,0-0.2
		c0.1-0.5,0.2-0.9,0.3-1.4c0.1-0.4,0.1-0.7,0.2-1.1c0-0.1,0-0.1,0-0.2c0-0.1,0-0.1,0-0.2c0.1-0.5,0.3-1,0.3-1.5
		c0-0.5,0.1-0.4,0.2-1.1c0-0.1,0-0.2,0-0.3c0-0.1,0-0.2,0-0.2c0-0.6,0.1-1.1,0.1-1.7c0-0.2,0-0.5,0-0.7c0-0.2,0-0.3,0-0.5
		c0-0.2,0-0.4,0-0.5C241.3,82.5,241.3,82.2,241.2,81.5z"/>
	<g>
		<path fill="#9A2A29" d="M186.1,50.7c5.3,0.6,10.6,3.8,14.6,9.5l4.4,6.3c7.9,11.4,7.6,28.5-0.7,38L89.2,236.3
			c-4.2,4.8-9.6,6.8-14.9,6.1c-5.3-0.6-10.6-3.8-14.6-9.5l-4.4-6.3c-7.9-11.4-7.6-28.5,0.7-38L171.2,56.8
			C175.4,52,180.8,50,186.1,50.7z"/>
	</g>
	<g>
		<polygon fill="#C63434" points="173.2,53.2 59,184 56.4,188.2 170.6,57.5 		"/>
		<path fill="#C63434" d="M219.6,84.3c0-0.3,0-0.5,0-0.8c0-0.2,0-0.5,0-0.7c0-0.4-0.1-0.8-0.1-1.2c0-0.3-0.1-0.7-0.1-1
			c0-0.1,0-0.2,0-0.4c-0.1-0.7-0.2-1.5-0.4-2.2c0-0.2-0.1-0.3-0.1-0.5c-0.1-0.3-0.1-0.6-0.2-1c-0.1-0.4-0.2-0.7-0.3-1
			c-0.1-0.3-0.2-0.7-0.3-1c-0.2-0.7-0.4-1.4-0.7-2.1c-0.1-0.2-0.1-0.4-0.2-0.6c-0.3-0.9-0.7-1.8-1.1-2.6c-0.1-0.2-0.2-0.4-0.3-0.6
			c-0.2-0.5-0.5-1-0.7-1.5c-0.1-0.2-0.2-0.3-0.3-0.5c-0.1-0.2-0.2-0.3-0.3-0.5c-0.4-0.7-0.8-1.4-1.3-2.1c-0.1-0.1-0.1-0.2-0.2-0.2
			l-4.4-6.3c-0.4-0.5-0.8-1-1.1-1.5c0-0.1-0.1-0.1-0.1-0.2c-0.1-0.1-0.1-0.1-0.2-0.2c-0.3-0.4-0.6-0.7-0.9-1.1
			c-0.1-0.1-0.1-0.2-0.2-0.2l-0.1-0.1c-0.4-0.4-0.7-0.8-1.1-1.2l-0.1-0.1c-0.3-0.3-0.6-0.6-1-0.9c0,0,0,0-0.1-0.1
			c-0.1-0.1-0.2-0.2-0.4-0.3c-0.2-0.2-0.4-0.4-0.7-0.5l-0.1-0.1c-0.1-0.1-0.3-0.2-0.4-0.3c-0.2-0.1-0.4-0.3-0.6-0.4l-0.1-0.1
			c-0.1-0.1-0.4-0.3-0.4-0.3c-0.2-0.1-0.4-0.2-0.6-0.4l-0.1-0.1c-0.1-0.1-0.3-0.2-0.4-0.3c-0.2-0.1-0.4-0.2-0.5-0.3
			c0,0-0.1,0-0.1-0.1c-0.2-0.1-0.3-0.2-0.5-0.2c-0.2-0.1-0.3-0.2-0.5-0.3c0,0-0.1,0-0.1-0.1c-0.2-0.1-0.3-0.2-0.5-0.2
			c-0.2-0.1-0.3-0.2-0.5-0.2h-0.1c-0.2-0.1-0.4-0.2-0.6-0.2c-0.2-0.1-0.3-0.1-0.5-0.2c0,0,0,0-0.1,0c-0.2-0.1-0.4-0.1-0.6-0.2
			s-0.3-0.1-0.5-0.2s-0.4-0.1-0.6-0.2c-0.2,0-0.4-0.1-0.5-0.1c-0.2,0-0.4-0.1-0.5-0.1c-0.2,0-0.4-0.1-0.6-0.1
			c-0.4-0.1-0.7-0.1-1.1-0.2h-0.1c-0.1,0-0.3,0-0.4,0c-0.2,0-0.5,0-0.8-0.1h-0.1c-0.1,0-0.2,0-0.4,0c-0.3,0-0.5,0-0.8,0
			c-0.1,0-0.1,0-0.2,0c-0.1,0-0.2,0-0.3,0c-0.3,0-1.6,0-1.8,0.1c-0.1,0-0.2,0-0.2,0c-0.1,0-0.1,0-0.2,0c-0.3,0-0.7,0.1-1,0.1
			c-0.1,0-0.2,0-0.3,0h-0.1c-0.5,0.1-1,0.2-1.4,0.3h-0.1c-0.1,0-0.1,0-0.2,0.1c-0.5,0.1-1,0.3-1.5,0.5c0,0-0.1,0-0.1,0.1
			c0,0,0,0-0.1,0c-0.2,0.1-0.5,0.2-0.7,0.3c-0.1,0.1-0.3,0.1-0.4,0.2c-0.4,0.2-0.7,0.3-1,0.5c0,0,0,0-0.1,0c-0.5,0.3-1,0.6-1.4,0.9
			c-0.1,0.1-0.2,0.2-0.3,0.2c-0.5,0.3-0.9,0.6-1.4,1c-0.4,0.4-0.9,0.8-1.3,1.2c-0.1,0.1-0.2,0.2-0.3,0.3c-0.4,0.4-0.8,0.9-1.3,1.3
			l-2.6,4.3c0.5-0.5,1-1,1.5-1.5c0.1-0.1,0.3-0.3,0.4-0.4c0.4-0.3,0.8-0.7,1.1-1c0.2-0.1,0.3-0.2,0.5-0.3c0.5-0.4,1-0.7,1.6-1
			c0.6-0.3,1.2-0.6,1.8-0.8c0,0,0.1,0,0.1-0.1c0.6-0.2,1.2-0.4,1.8-0.6c0.1,0,0.2-0.1,0.4-0.1c0.5-0.1,1-0.2,1.5-0.3
			c0.1,0,0.3,0,0.4-0.1c0.6-0.1,1.2-0.1,1.7-0.1c0.1,0,0.2,0,0.3,0c0.6,0,1.2,0,1.8,0.1c0.7,0.1,1.3,0.2,2,0.3c0,0,0,0,0.1,0
			c0.6,0.2,1.3,0.3,1.9,0.6h0.1c0.6,0.2,1.2,0.5,1.8,0.8l0.1,0.1c0.6,0.3,1.2,0.6,1.7,1c0.1,0,0.1,0.1,0.2,0.1
			c0.6,0.4,1.1,0.8,1.7,1.2c0.1,0,0.1,0.1,0.2,0.1c0.6,0.5,1.1,0.9,1.6,1.5c0.5,0.5,1,1,1.4,1.5c0.1,0.1,0.2,0.3,0.4,0.4
			c0.5,0.6,0.9,1.2,1.4,1.8l4.4,6.3c0.2,0.2,0.3,0.5,0.5,0.8c0.4,0.6,0.8,1.2,1.1,1.8c0.3,0.5,0.5,1,0.8,1.5
			c0.1,0.2,0.2,0.4,0.3,0.5c0.3,0.7,0.6,1.5,0.9,2.2c0.1,0.2,0.1,0.4,0.2,0.5c0.2,0.6,0.4,1.2,0.6,1.8c0.1,0.3,0.1,0.5,0.2,0.8
			c0.2,0.6,0.3,1.1,0.4,1.7c0,0.1,0.1,0.3,0.1,0.4c0.1,0.7,0.3,1.4,0.4,2.2c0,0.3,0.1,0.6,0.1,0.9c0.1,0.5,0.1,1.1,0.1,1.6
			c0,0.2,0,0.5,0,0.7c0,0.7,0,1.4,0,2.1c0,0.1,0,0.1,0,0.2c0,0.8-0.1,1.5-0.1,2.3c0,0.1,0,0.3,0,0.4c-0.1,0.7-0.2,1.5-0.3,2.2
			c0,0.1,0,0.2-0.1,0.3c-0.1,0.7-0.3,1.4-0.5,2.2c0,0.1,0,0.2-0.1,0.3c-0.2,0.7-0.4,1.4-0.6,2.1c0,0.1-0.1,0.2-0.1,0.3
			c-0.2,0.7-0.5,1.4-0.8,2.1c0,0.1-0.1,0.1-0.1,0.2c-0.3,0.7-0.6,1.3-1,2c0,0.1-0.1,0.1-0.1,0.2c-0.4,0.6-0.7,1.2-1.2,1.8
			c0,0.1-0.1,0.1-0.1,0.2c-0.4,0.6-0.9,1.2-1.4,1.8L89.2,236.3c-0.5,0.6-1,1.1-1.6,1.6c-0.1,0.1-0.2,0.1-0.2,0.2
			c-0.5,0.4-0.9,0.8-1.4,1.1c-0.1,0.1-0.2,0.1-0.2,0.2c-0.5,0.4-1,0.7-1.5,1c-0.1,0.1-0.2,0.1-0.4,0.2c-0.5,0.3-1,0.5-1.5,0.7
			c-0.1,0-0.2,0.1-0.2,0.1c-0.6,0.2-1.1,0.4-1.7,0.6c-0.1,0-0.3,0.1-0.4,0.1c-0.5,0.1-1.1,0.2-1.6,0.3c-0.1,0-0.1,0-0.2,0
			c-0.6,0.1-1.2,0.1-1.8,0.1c-0.1,0-0.3,0-0.4,0c-0.6,0-1.2,0-1.8-0.1c-4-0.5-8-2.4-11.4-5.7c1,1,2.1,2,3.1,3.1
			c3.5,3.4,7.5,5.6,11.6,6.4c0.6,0.1,1.2,0.2,1.8,0.3c0.5,0.1,0.9,0.1,1.4,0.1c0.1,0,0.3,0,0.4,0c0.3,0,0.7,0,1,0c0.1,0,0.3,0,0.4,0
			c0.4,0,0.8-0.1,1.2-0.1c0.1,0,0.2,0,0.2,0c0.5-0.1,0.9-0.1,1.4-0.2c0.1,0,0.2-0.1,0.4-0.1c0.3-0.1,0.7-0.2,1-0.3
			c0.1,0,0.3-0.1,0.4-0.1c0.3-0.1,0.7-0.2,1-0.3c0.1,0,0.2-0.1,0.3-0.1c0.4-0.2,0.9-0.4,1.3-0.6c0.1,0,0.2-0.1,0.3-0.1
			c0.3-0.2,0.7-0.3,1-0.5c0.1,0,0.1-0.1,0.2-0.1c0.1-0.1,0.2-0.1,0.3-0.2c0.2-0.1,0.4-0.2,0.6-0.3c0.2-0.1,0.3-0.2,0.5-0.4
			c0.2-0.1,0.4-0.3,0.5-0.4c0.1-0.1,0.2-0.1,0.3-0.2c0.1,0,0.1-0.1,0.2-0.1c0.5-0.4,0.9-0.8,1.4-1.2l0.1-0.1c0.3-0.3,0.7-0.6,1-1
			c0.1-0.1,0.1-0.1,0.2-0.2c0.2-0.2,0.3-0.4,0.5-0.6l115.2-130.8c0.2-0.2,0.4-0.4,0.6-0.7c0.3-0.4,0.7-0.8,1-1.3
			c0-0.1,0.1-0.1,0.1-0.2c0.1-0.1,0.1-0.2,0.2-0.2c0.2-0.3,0.4-0.5,0.5-0.8c0.3-0.4,0.5-0.8,0.7-1.2l0.1-0.1c0-0.1,0.1-0.1,0.1-0.2
			c0.2-0.3,0.3-0.6,0.5-0.9c0.2-0.4,0.4-0.8,0.6-1.2c0-0.1,0.1-0.1,0.1-0.2s0.1-0.1,0.1-0.2c0.1-0.3,0.2-0.5,0.4-0.8
			c0.2-0.4,0.3-0.8,0.5-1.3c0-0.1,0.1-0.2,0.1-0.3s0.1-0.2,0.1-0.3c0.1-0.2,0.2-0.5,0.2-0.7c0.1-0.4,0.3-0.9,0.4-1.3
			c0-0.2,0.1-0.3,0.1-0.5c0-0.1,0.1-0.2,0.1-0.3c0.1-0.2,0.1-0.4,0.2-0.6c0.1-0.5,0.2-1,0.3-1.4c0-0.2,0.1-0.3,0.1-0.5
			c0-0.1,0-0.2,0.1-0.3c0-0.2,0.1-0.4,0.1-0.6c0.1-0.5,0.1-1.1,0.2-1.6c0-0.1,0-0.3,0-0.4s0-0.3,0-0.4c0-0.3,0.1-0.6,0.1-0.8
			c0-0.6,0.1-1.2,0.1-1.8c0,0,0,0,0-0.1L219.6,84.3z"/>
	</g>
</g>
</svg>
