<?xml version="1.0" encoding="utf-8"?>
<!-- Generator: Adobe Illustrator 16.0.3, SVG Export Plug-In . SVG Version: 6.00 Build 0)  -->
<!DOCTYPE svg PUBLIC "-//W3C//DTD SVG 1.0//EN" "http://www.w3.org/TR/2001/REC-SVG-20010904/DTD/svg10.dtd">
<svg version="1.0" id="Layer_1" xmlns="http://www.w3.org/2000/svg" xmlns:xlink="http://www.w3.org/1999/xlink" x="0px" y="0px"
	 width="300px" height="291px" viewBox="0 0 300 291" enable-background="new 0 0 300 291" xml:space="preserve">
<g>
	<g>
		<g>
			<g enable-background="new    ">
				<g enable-background="new    ">
					<defs>
						<path id="SVGID_427_" enable-background="new    " d="M155,52.4l1.5,2.6c-3.4-1.9-8-0.8-10.4,2.6l-1.5-2.6
							C147,51.6,151.7,50.4,155,52.4z"/>
					</defs>
					<clipPath id="SVGID_2_">
						<use xlink:href="#SVGID_427_"  overflow="visible"/>
					</clipPath>
					<g clip-path="url(#SVGID_2_)" enable-background="new    ">
						<path fill="#49674B" d="M155,52.4l1.5,2.6c-2-1.2-4.5-1.2-6.7-0.3l-1.5-2.6C150.5,51.2,153,51.2,155,52.4"/>
						<path fill="#4C694D" d="M148.3,52.1l1.5,2.6c-0.4,0.2-0.7,0.3-1.1,0.5l-1.5-2.6C147.6,52.4,148,52.2,148.3,52.1"/>
						<path fill="#4E6C4F" d="M147.3,52.6l1.5,2.6c-0.3,0.2-0.6,0.3-0.8,0.5l-1.5-2.6C146.7,52.9,147,52.8,147.3,52.6"/>
						<path fill="#506F51" d="M146.4,53.1l1.5,2.6c-0.2,0.2-0.5,0.4-0.7,0.6l-1.5-2.6C146,53.5,146.2,53.3,146.4,53.1"/>
						<path fill="#527153" d="M145.7,53.7l1.5,2.6c-0.2,0.2-0.4,0.4-0.6,0.7l-1.5-2.6C145.3,54.1,145.5,53.9,145.7,53.7"/>
						<path fill="#557456" d="M145.1,54.4l1.5,2.6c-0.2,0.2-0.3,0.4-0.5,0.6l-1.5-2.6C144.8,54.8,145,54.6,145.1,54.4"/>
					</g>
				</g>
				<g>
					<polygon fill="#476449" points="180.5,67.1 182,69.7 156.6,55 155,52.4 					"/>
				</g>
				<g enable-background="new    ">
					<defs>
						<path id="SVGID_429_" enable-background="new    " d="M182.8,69.3c0.5,0.9,1,1.8,1.5,2.6c-0.5-0.9-1.3-1.7-2.3-2.3l-1.5-2.6
							C181.5,67.6,182.2,68.4,182.8,69.3z"/>
					</defs>
					<clipPath id="SVGID_4_">
						<use xlink:href="#SVGID_429_"  overflow="visible"/>
					</clipPath>
					<g clip-path="url(#SVGID_4_)" enable-background="new    ">
						<path fill="#49674B" d="M182.8,69.3l1.5,2.6c-0.5-0.9-1.3-1.7-2.3-2.3l-1.5-2.6C181.5,67.6,182.2,68.4,182.8,69.3"/>
					</g>
				</g>
				<g enable-background="new    ">
					<defs>
						<path id="SVGID_431_" enable-background="new    " d="M182.8,69.3c0.5,0.9,1,1.8,1.5,2.6c1.3,2.2,1.2,5-0.4,7.4l-1.5-2.6
							C184,74.4,184,71.5,182.8,69.3z"/>
					</defs>
					<clipPath id="SVGID_6_">
						<use xlink:href="#SVGID_431_"  overflow="visible"/>
					</clipPath>
					<g clip-path="url(#SVGID_6_)" enable-background="new    ">
						<path fill="#1F261A" d="M182.8,69.3l1.5,2.6c0.1,0.2,0.2,0.3,0.3,0.5l-1.5-2.6C183,69.7,182.9,69.5,182.8,69.3"/>
						<path fill="#1F261A" d="M183,69.9l1.5,2.6c0.2,0.4,0.3,0.9,0.5,1.3l-1.5-2.6C183.4,70.7,183.2,70.3,183,69.9"/>
						<path fill="#1F261A" d="M183.5,71.2l1.5,2.6c0.2,1,0.2,2.1-0.1,3.1l-1.5-2.6C183.7,73.3,183.7,72.2,183.5,71.2"/>
						<path fill="#1F261A" d="M183.4,74.3l1.5,2.6c-0.1,0.5-0.3,0.9-0.5,1.4l-1.5-2.6C183.2,75.2,183.3,74.8,183.4,74.3"/>
						<path fill="#1F261A" d="M183,75.7l1.5,2.6c-0.1,0.3-0.3,0.6-0.5,0.9l-1.5-2.6C182.6,76.3,182.8,76,183,75.7"/>
						<path fill="#1F261A" d="M182.4,76.6l1.5,2.6c0,0-0.1,0.1-0.1,0.1l-1.5-2.6C182.4,76.7,182.4,76.6,182.4,76.6"/>
					</g>
				</g>
				<g enable-background="new    ">
					<defs>
						<path id="SVGID_433_" enable-background="new    " d="M183.4,69c0,0,0.1,0.1,0.1,0.1c0.5,0.8,1,1.7,1.5,2.5
							c1.4,2.4,1.3,5.5-0.5,8.1l-1.5-2.6C184.7,74.5,184.8,71.3,183.4,69z"/>
					</defs>
					<clipPath id="SVGID_8_">
						<use xlink:href="#SVGID_433_"  overflow="visible"/>
					</clipPath>
					<g clip-path="url(#SVGID_8_)" enable-background="new    ">
						<path fill="#577758" d="M183.4,69l1.5,2.6c0.1,0.2,0.2,0.4,0.3,0.6l-1.5-2.6C183.6,69.3,183.5,69.2,183.4,69"/>
						<path fill="#59795A" d="M183.7,69.5l1.5,2.6c0.2,0.5,0.4,0.9,0.5,1.4l-1.5-2.6C184.1,70.5,183.9,70,183.7,69.5"/>
						<path fill="#5B7C5C" d="M184.2,71l1.5,2.6c0.2,1.1,0.2,2.3-0.1,3.4l-1.5-2.6C184.4,73.3,184.4,72.1,184.2,71"/>
						<path fill="#59795A" d="M184.1,74.4l1.5,2.6c-0.1,0.5-0.3,1-0.5,1.5l-1.5-2.6C183.8,75.4,184,74.9,184.1,74.4"/>
						<path fill="#577758" d="M183.6,75.9l1.5,2.6c-0.2,0.3-0.3,0.7-0.6,1l-1.5-2.6C183.2,76.6,183.4,76.2,183.6,75.9"/>
						<path fill="#557456" d="M183,76.9l1.5,2.6c0,0.1-0.1,0.1-0.1,0.2l-1.5-2.6C183,77,183,77,183,76.9"/>
					</g>
				</g>
				<g>
					<polygon fill="#1F261A" points="182.3,76.7 183.9,79.4 169,100.9 167.5,98.3 					"/>
				</g>
				<g>
					<polygon fill="#5B7B5B" points="182.9,77.1 184.5,79.7 169.6,101.3 168.1,98.6 					"/>
				</g>
				<g enable-background="new    ">
					<defs>
						<path id="SVGID_435_" enable-background="new    " d="M169,100.9c-1.8,2.6-1.9,5.7-0.5,8.1l-1.5-2.6c-0.4-0.7-0.7-1.4-0.8-2.2
							c0.5,0.9,1,1.8,1.5,2.6c-0.5-0.9-1-1.8-1.5-2.6c-0.4-1.9,0-4,1.3-5.9C168,99.1,168.6,100.1,169,100.9z"/>
					</defs>
					<clipPath id="SVGID_10_">
						<use xlink:href="#SVGID_435_"  overflow="visible"/>
					</clipPath>
					<g clip-path="url(#SVGID_10_)" enable-background="new    ">
						<path fill="#1F261A" d="M167.5,98.3l1.5,2.6c0,0.1-0.1,0.1-0.1,0.2l-1.5-2.6C167.4,98.4,167.5,98.3,167.5,98.3"/>
						<path fill="#1F261A" d="M167.4,98.4l1.5,2.6c-0.2,0.3-0.4,0.7-0.6,1l-1.5-2.6C167,99.1,167.2,98.8,167.4,98.4"/>
						<path fill="#1F261A" d="M166.8,99.5l1.5,2.6c-0.2,0.5-0.4,1-0.5,1.5l-1.5-2.6C166.4,100.4,166.6,99.9,166.8,99.5"/>
						<path fill="#1F261A" d="M166.3,100.9l1.5,2.6c-0.3,1.2-0.3,2.3-0.1,3.4l-1.5-2.6C166,103.3,166,102.1,166.3,100.9"/>
						<path fill="#1F261A" d="M166.2,104.4l1.5,2.6c0.1,0.5,0.3,1,0.5,1.4l-1.5-2.6C166.5,105.4,166.3,104.9,166.2,104.4"/>
						<path fill="#1F261A" d="M166.7,105.8l1.5,2.6c0.1,0.2,0.2,0.4,0.3,0.6l-1.5-2.6C166.9,106.2,166.8,106,166.7,105.8"/>
					</g>
				</g>
				<g enable-background="new    ">
					<defs>
						<path id="SVGID_437_" enable-background="new    " d="M169.2,108.7c-0.5-0.9-1-1.8-1.5-2.6c-1.3-2.2-1.2-5,0.4-7.4l1.5,2.6
							C168,103.6,167.9,106.5,169.2,108.7z"/>
					</defs>
					<clipPath id="SVGID_12_">
						<use xlink:href="#SVGID_437_"  overflow="visible"/>
					</clipPath>
					<g clip-path="url(#SVGID_12_)" enable-background="new    ">
						<path fill="#557456" d="M168.1,98.6l1.5,2.6c0,0-0.1,0.1-0.1,0.1l-1.5-2.6C168,98.7,168,98.7,168.1,98.6"/>
						<path fill="#577758" d="M168,98.8l1.5,2.6c-0.2,0.3-0.4,0.6-0.5,0.9l-1.5-2.6C167.6,99.4,167.8,99.1,168,98.8"/>
						<path fill="#59795A" d="M167.5,99.7l1.5,2.6c-0.2,0.4-0.4,0.9-0.5,1.4L167,101C167.1,100.6,167.2,100.1,167.5,99.7"/>
						<path fill="#5B7C5C" d="M167,101l1.5,2.6c-0.3,1.1-0.3,2.1-0.1,3.1l-1.5-2.6C166.7,103.2,166.7,102.1,167,101"/>
						<path fill="#59795A" d="M166.9,104.2l1.5,2.6c0.1,0.5,0.3,0.9,0.5,1.3l-1.5-2.6C167.2,105.1,167,104.6,166.9,104.2"/>
						<path fill="#577758" d="M167.4,105.5l1.5,2.6c0.1,0.2,0.2,0.3,0.3,0.5l-1.5-2.6C167.5,105.9,167.4,105.7,167.4,105.5"/>
					</g>
				</g>
				<g enable-background="new    ">
					<defs>
						<path id="SVGID_439_" enable-background="new    " d="M168.6,109c-0.5-0.9-1-1.8-1.5-2.6c0.6,1,1.4,1.9,2.5,2.5l1.5,2.6
							C170,110.9,169.1,110,168.6,109z"/>
					</defs>
					<clipPath id="SVGID_14_">
						<use xlink:href="#SVGID_439_"  overflow="visible"/>
					</clipPath>
					<g clip-path="url(#SVGID_14_)" enable-background="new    ">
						<path fill="#49674B" d="M169.5,108.9l1.5,2.6c-1.1-0.6-2-1.5-2.5-2.5l-1.5-2.6C167.6,107.4,168.5,108.3,169.5,108.9"/>
					</g>
				</g>
				<g enable-background="new    ">
					<defs>
						<path id="SVGID_441_" enable-background="new    " d="M220.4,90.1l1.5,2.6c-3.4-1.9-8-0.8-10.4,2.6l-1.5-2.6
							C212.4,89.4,217.1,88.2,220.4,90.1z"/>
					</defs>
					<clipPath id="SVGID_16_">
						<use xlink:href="#SVGID_441_"  overflow="visible"/>
					</clipPath>
					<g clip-path="url(#SVGID_16_)" enable-background="new    ">
						<path fill="#49674B" d="M220.4,90.1l1.5,2.6c-2-1.2-4.5-1.2-6.7-0.3l-1.5-2.6C215.9,88.9,218.4,89,220.4,90.1"/>
						<path fill="#4C694D" d="M213.8,89.8l1.5,2.6c-0.4,0.2-0.7,0.3-1.1,0.5l-1.5-2.6C213,90.2,213.4,90,213.8,89.8"/>
						<path fill="#4E6C4F" d="M212.7,90.4l1.5,2.6c-0.3,0.2-0.6,0.3-0.8,0.5l-1.5-2.6C212.1,90.7,212.4,90.5,212.7,90.4"/>
						<path fill="#506F51" d="M211.9,90.9l1.5,2.6c-0.2,0.2-0.5,0.4-0.7,0.6l-1.5-2.6C211.4,91.3,211.6,91.1,211.9,90.9"/>
						<path fill="#527153" d="M211.2,91.5l1.5,2.6c-0.2,0.2-0.4,0.4-0.6,0.7l-1.5-2.6C210.8,91.9,211,91.7,211.2,91.5"/>
						<path fill="#557456" d="M210.6,92.2l1.5,2.6c-0.2,0.2-0.3,0.4-0.5,0.6l-1.5-2.6C210.2,92.6,210.4,92.3,210.6,92.2"/>
					</g>
				</g>
				<g>
					<polygon fill="#5B7B5B" points="144.7,55 146.2,57.6 52.3,194 50.7,191.4 					"/>
				</g>
				<g>
					<polygon fill="#476449" points="183.9,117.2 185.5,119.8 171.1,111.5 169.5,108.9 					"/>
				</g>
				<g enable-background="new    ">
					<defs>
						<path id="SVGID_443_" enable-background="new    " d="M51.8,201.4c-0.5-0.9-1-1.8-1.5-2.6c-1.3-2.2-1.2-5,0.4-7.4l1.5,2.6
							C50.6,196.4,50.6,199.3,51.8,201.4z"/>
					</defs>
					<clipPath id="SVGID_18_">
						<use xlink:href="#SVGID_443_"  overflow="visible"/>
					</clipPath>
					<g clip-path="url(#SVGID_18_)" enable-background="new    ">
						<path fill="#557456" d="M50.7,191.4l1.5,2.6c0,0-0.1,0.1-0.1,0.1l-1.5-2.6C50.7,191.5,50.7,191.5,50.7,191.4"/>
						<path fill="#577758" d="M50.6,191.6l1.5,2.6c-0.2,0.3-0.4,0.6-0.5,0.9l-1.5-2.6C50.3,192.2,50.4,191.9,50.6,191.6"/>
						<path fill="#59795A" d="M50.1,192.5l1.5,2.6c-0.2,0.4-0.4,0.9-0.5,1.4l-1.5-2.6C49.7,193.4,49.9,192.9,50.1,192.5"/>
						<path fill="#5B7C5C" d="M49.6,193.8l1.5,2.6c-0.3,1.1-0.3,2.1-0.1,3.1l-1.5-2.6C49.3,196,49.4,194.9,49.6,193.8"/>
						<path fill="#59795A" d="M49.6,197l1.5,2.6c0.1,0.5,0.3,0.9,0.5,1.3l-1.5-2.6C49.8,197.9,49.7,197.4,49.6,197"/>
						<path fill="#577758" d="M50,198.3l1.5,2.6c0.1,0.2,0.2,0.3,0.3,0.5l-1.5-2.6C50.2,198.6,50.1,198.5,50,198.3"/>
					</g>
				</g>
				<g>
					<polygon fill="#5B7B5B" points="210.1,92.8 211.6,95.4 196.8,116.9 195.3,114.3 					"/>
				</g>
				<g enable-background="new    ">
					<defs>
						<path id="SVGID_445_" enable-background="new    " d="M195.3,114.3l1.5,2.6c-2.6,3.7-7.6,5-11.3,2.9l-1.5-2.6
							C187.6,119.3,192.7,118,195.3,114.3z"/>
					</defs>
					<clipPath id="SVGID_20_">
						<use xlink:href="#SVGID_445_"  overflow="visible"/>
					</clipPath>
					<g clip-path="url(#SVGID_20_)" enable-background="new    ">
						<path fill="#557456" d="M195.3,114.3l1.5,2.6c-0.2,0.2-0.3,0.5-0.5,0.7l-1.5-2.6C194.9,114.8,195.1,114.5,195.3,114.3"/>
						<path fill="#527153" d="M194.7,115l1.5,2.6c-0.2,0.3-0.4,0.5-0.7,0.7l-1.5-2.6C194.3,115.5,194.5,115.2,194.7,115"/>
						<path fill="#506F51" d="M194.1,115.7l1.5,2.6c-0.2,0.2-0.5,0.4-0.8,0.6l-1.5-2.6C193.6,116.1,193.8,115.9,194.1,115.7"/>
						<path fill="#4E6C4F" d="M193.3,116.3l1.5,2.6c-0.3,0.2-0.6,0.4-0.9,0.6l-1.5-2.6C192.7,116.8,193,116.6,193.3,116.3"/>
						<path fill="#4C694D" d="M192.4,116.9l1.5,2.6c-0.4,0.2-0.8,0.4-1.2,0.6l-1.5-2.6C191.6,117.4,192,117.2,192.4,116.9"/>
						<path fill="#49674B" d="M191.2,117.5l1.5,2.6c-2.4,1-5.1,0.9-7.3-0.3l-1.5-2.6C186.1,118.5,188.9,118.5,191.2,117.5"/>
					</g>
				</g>
				<g enable-background="new    ">
					<defs>
						<path id="SVGID_447_" enable-background="new    " d="M54.2,203.7c-1-0.6-1.8-1.4-2.3-2.3l-1.5-2.6c0.5,0.9,1.3,1.7,2.3,2.3
							C53.1,201.9,53.7,202.9,54.2,203.7z"/>
					</defs>
					<clipPath id="SVGID_22_">
						<use xlink:href="#SVGID_447_"  overflow="visible"/>
					</clipPath>
					<g clip-path="url(#SVGID_22_)" enable-background="new    ">
						<path fill="#1F261A" d="M52.6,201.1l1.5,2.6c-1-0.6-1.8-1.4-2.3-2.3l-1.5-2.6C50.8,199.7,51.6,200.5,52.6,201.1"/>
					</g>
				</g>
				<g enable-background="new    ">
					<defs>
						<path id="SVGID_449_" enable-background="new    " d="M51.2,201.8c-0.5-0.9-1-1.8-1.5-2.6c0.6,1,1.4,1.9,2.5,2.5l1.5,2.6
							C52.7,203.7,51.8,202.8,51.2,201.8z"/>
					</defs>
					<clipPath id="SVGID_24_">
						<use xlink:href="#SVGID_449_"  overflow="visible"/>
					</clipPath>
					<g clip-path="url(#SVGID_24_)" enable-background="new    ">
						<path fill="#49674B" d="M52.2,201.7l1.5,2.6c-1.1-0.6-2-1.5-2.5-2.5l-1.5-2.6C50.2,200.2,51.1,201,52.2,201.7"/>
					</g>
				</g>
				<g>
					<polygon fill="#476449" points="245.9,104.8 247.4,107.5 222,92.8 220.4,90.1 					"/>
				</g>
				<g enable-background="new    ">
					<defs>
						<path id="SVGID_451_" enable-background="new    " d="M248.2,107.1c0.5,0.9,1,1.8,1.5,2.6c-0.5-0.9-1.3-1.7-2.3-2.3l-1.5-2.6
							C246.9,105.4,247.7,106.2,248.2,107.1z"/>
					</defs>
					<clipPath id="SVGID_26_">
						<use xlink:href="#SVGID_451_"  overflow="visible"/>
					</clipPath>
					<g clip-path="url(#SVGID_26_)" enable-background="new    ">
						<path fill="#49674B" d="M248.2,107.1l1.5,2.6c-0.5-0.9-1.3-1.7-2.3-2.3l-1.5-2.6C246.9,105.4,247.7,106.2,248.2,107.1"/>
					</g>
				</g>
				<g enable-background="new    ">
					<defs>
						<path id="SVGID_453_" enable-background="new    " d="M248.2,107.1c0.5,0.9,1,1.8,1.5,2.6c1.3,2.2,1.2,5-0.4,7.4l-1.5-2.6
							C249.4,112.1,249.5,109.3,248.2,107.1z"/>
					</defs>
					<clipPath id="SVGID_28_">
						<use xlink:href="#SVGID_453_"  overflow="visible"/>
					</clipPath>
					<g clip-path="url(#SVGID_28_)" enable-background="new    ">
						<path fill="#1F261A" d="M248.2,107.1l1.5,2.6c0.1,0.2,0.2,0.3,0.3,0.5l-1.5-2.6C248.4,107.4,248.3,107.3,248.2,107.1"/>
						<path fill="#1F261A" d="M248.5,107.6l1.5,2.6c0.2,0.4,0.3,0.9,0.4,1.3l-1.5-2.6C248.8,108.5,248.7,108,248.5,107.6"/>
						<path fill="#1F261A" d="M248.9,108.9l1.5,2.6c0.2,1,0.2,2.1-0.1,3.1l-1.5-2.6C249.1,111,249.1,109.9,248.9,108.9"/>
						<path fill="#1F261A" d="M248.9,112.1l1.5,2.6c-0.1,0.5-0.3,0.9-0.5,1.4l-1.5-2.6C248.6,113,248.7,112.5,248.9,112.1"/>
						<path fill="#1F261A" d="M248.4,113.4l1.5,2.6c-0.1,0.3-0.3,0.6-0.5,0.9l-1.5-2.6C248.1,114.1,248.2,113.8,248.4,113.4"/>
						<path fill="#1F261A" d="M247.9,114.4l1.5,2.6c0,0-0.1,0.1-0.1,0.1l-1.5-2.6C247.8,114.5,247.8,114.4,247.9,114.4"/>
					</g>
				</g>
				<g enable-background="new    ">
					<defs>
						<path id="SVGID_455_" enable-background="new    " d="M248.8,106.7c0.5,0.9,1,1.8,1.5,2.6c1.4,2.4,1.3,5.5-0.5,8.1l-1.5-2.6
							C250.1,112.2,250.2,109.1,248.8,106.7z"/>
					</defs>
					<clipPath id="SVGID_30_">
						<use xlink:href="#SVGID_455_"  overflow="visible"/>
					</clipPath>
					<g clip-path="url(#SVGID_30_)" enable-background="new    ">
						<path fill="#577758" d="M248.8,106.7l1.5,2.6c0.1,0.2,0.2,0.4,0.3,0.6l-1.5-2.6C249,107.1,248.9,106.9,248.8,106.7"/>
						<path fill="#59795A" d="M249.1,107.3l1.5,2.6c0.2,0.5,0.4,0.9,0.5,1.4l-1.5-2.6C249.5,108.2,249.3,107.8,249.1,107.3"/>
						<path fill="#5B7C5C" d="M249.6,108.7l1.5,2.6c0.2,1.1,0.2,2.3-0.1,3.4l-1.5-2.6C249.8,111,249.9,109.8,249.6,108.7"/>
						<path fill="#59795A" d="M249.6,112.2l1.5,2.6c-0.1,0.5-0.3,1-0.5,1.5l-1.5-2.6C249.2,113.2,249.4,112.7,249.6,112.2"/>
						<path fill="#577758" d="M249,113.7l1.5,2.6c-0.2,0.3-0.3,0.7-0.6,1l-1.5-2.6C248.7,114.4,248.8,114,249,113.7"/>
						<path fill="#557456" d="M248.4,114.7l1.5,2.6c0,0.1-0.1,0.1-0.1,0.2l-1.5-2.6C248.4,114.8,248.4,114.7,248.4,114.7"/>
					</g>
				</g>
				<g>
					<polygon fill="#1F261A" points="143.5,253.5 145,256.2 54.2,203.7 52.6,201.1 					"/>
				</g>
				<g>
					<polygon fill="#476449" points="143.1,254.1 144.6,256.8 53.8,204.3 52.2,201.7 					"/>
				</g>
				<g>
					<polygon fill="#1F261A" points="247.8,114.5 249.3,117.1 155.4,253.6 153.8,250.9 					"/>
				</g>
				<g>
					<polygon fill="#5B7B5B" points="248.3,114.8 249.9,117.5 155.9,253.9 154.4,251.3 					"/>
				</g>
				<g enable-background="new    ">
					<defs>
						<path id="SVGID_457_" enable-background="new    " d="M155.4,253.6c-2.3,3.4-7,4.6-10.4,2.6l-1.5-2.6c2.5,1.5,5.8,1.2,8.2-0.5
							c0,0,0,0,0,0c0,0,0,0,0,0c0,0,0,0,0.1,0c0.8-0.5,1.5-1.2,2.1-2.1c0,0,0,0,0,0C154.3,251.7,154.9,252.8,155.4,253.6z
							 M151.8,253.1L151.8,253.1L151.8,253.1L151.8,253.1L151.8,253.1L151.8,253.1L151.8,253.1L151.8,253.1L151.8,253.1L151.8,253.1
							L151.8,253.1L151.8,253.1L151.8,253.1L151.8,253.1L151.8,253.1L151.8,253.1L151.8,253.1L151.8,253.1L151.8,253.1L151.8,253.1
							L151.8,253.1L151.8,253.1L151.8,253.1L151.8,253.1L151.8,253.1L151.8,253.1L151.8,253.1L151.8,253.1L151.8,253.1L151.8,253.1
							L151.8,253.1L151.8,253.1L151.8,253.1 M151.7,253.1L151.7,253.1L151.7,253.1L151.7,253.1L151.7,253.1L151.7,253.1L151.7,253.1
							L151.7,253.1L151.7,253.1L151.7,253.1L151.7,253.1L151.7,253.1L151.7,253.1L151.7,253.1L151.7,253.1L151.7,253.1L151.7,253.1
							L151.7,253.1L151.7,253.1L151.7,253.1L151.7,253.1L151.7,253.1L151.7,253.1L151.7,253.1L151.7,253.1L151.7,253.1L151.7,253.1
							L151.7,253.1L151.7,253.1L151.7,253.1L151.7,253.1L151.7,253.1L151.7,253.1 M151.7,253.1L151.7,253.1L151.7,253.1L151.7,253.1
							L151.7,253.1L151.7,253.1L151.7,253.1L151.7,253.1L151.7,253.1L151.7,253.1L151.7,253.1L151.7,253.1L151.7,253.1L151.7,253.1
							L151.7,253.1L151.7,253.1L151.7,253.1L151.7,253.1L151.7,253.1L151.7,253.1L151.7,253.1L151.7,253.1L151.7,253.1L151.7,253.1
							L151.7,253.1L151.7,253.1L151.7,253.1L151.7,253.1L151.7,253.1L151.7,253.1L151.7,253.1L151.7,253.1L151.7,253.1"/>
					</defs>
					<clipPath id="SVGID_32_">
						<use xlink:href="#SVGID_457_"  overflow="visible"/>
					</clipPath>
					<g clip-path="url(#SVGID_32_)" enable-background="new    ">
						<path fill="#1F261A" d="M153.8,250.9l1.5,2.6c-0.1,0.2-0.3,0.4-0.5,0.6l-1.5-2.6C153.5,251.3,153.7,251.1,153.8,250.9"/>
						<path fill="#1F261A" d="M153.3,251.5l1.5,2.6c-0.2,0.2-0.4,0.4-0.6,0.7l-1.5-2.6C153,252,153.2,251.8,153.3,251.5"/>
						<path fill="#1F261A" d="M152.7,252.2l1.5,2.6c-0.2,0.2-0.5,0.4-0.7,0.6l-1.5-2.6C152.3,252.6,152.5,252.4,152.7,252.2"/>
						<path fill="#1F261A" d="M152,252.8l1.5,2.6c-0.3,0.2-0.5,0.4-0.8,0.6l-1.5-2.6C151.5,253.2,151.8,253,152,252.8"/>
						<path fill="#1F261A" d="M151.2,253.3l1.5,2.6c-0.3,0.2-0.7,0.4-1.1,0.5l-1.5-2.6C150.5,253.7,150.9,253.5,151.2,253.3"/>
						<path fill="#1F261A" d="M150.2,253.9l1.5,2.6c-2.2,0.9-4.7,0.9-6.7-0.3l-1.5-2.6C145.5,254.7,148,254.8,150.2,253.9"/>
					</g>
				</g>
				<g>
					<path fill="#1F261A" d="M245.9,104.8c3.4,1.9,4.2,6.3,1.9,9.7l-93.9,136.4c-2.3,3.4-7,4.6-10.4,2.6l-90.8-52.5
						c-3.4-1.9-4.2-6.3-1.9-9.7L144.7,55c2.3-3.4,7-4.6,10.4-2.6l25.4,14.7c3.4,1.9,4.2,6.3,1.9,9.7l-14.8,21.5
						c-2.6,3.7-1.6,8.5,2.1,10.6l14.4,8.3c3.7,2.1,8.8,0.8,11.3-2.9l14.8-21.5c2.3-3.4,7-4.6,10.4-2.6L245.9,104.8z"/>
				</g>
				<g>
					<path fill="#6F936D" d="M246.3,104.2c3.7,2.1,4.6,6.9,2.1,10.6l-93.9,136.4c-2.6,3.7-7.6,5-11.3,2.9l-90.9-52.5
						c-3.7-2.1-4.6-6.9-2.1-10.6l93.9-136.4c2.6-3.7,7.6-5,11.3-2.9l25.4,14.7c3.7,2.1,4.6,6.9,2.1,10.6l-14.8,21.5
						c-2.3,3.4-1.5,7.7,1.9,9.7l14.4,8.3c3.4,1.9,8,0.8,10.4-2.6l14.8-21.5c2.6-3.7,7.6-5,11.3-2.9L246.3,104.2z M153.8,250.9
						l93.9-136.4c2.3-3.4,1.5-7.7-1.9-9.7l-25.4-14.7c-3.4-1.9-8-0.8-10.4,2.6l-14.8,21.5c-2.6,3.7-7.6,5-11.3,2.9l-14.4-8.3
						c-3.7-2.1-4.6-6.9-2.1-10.6l14.8-21.5c2.3-3.4,1.5-7.7-1.9-9.7L155,52.4c-3.4-1.9-8-0.8-10.4,2.6L50.7,191.4
						c-2.3,3.4-1.5,7.7,1.9,9.7l90.9,52.5C146.8,255.5,151.5,254.3,153.8,250.9"/>
				</g>
				<g enable-background="new    ">
					<defs>
						<path id="SVGID_459_" enable-background="new    " d="M154.4,251.3l1.5,2.6c-2.6,3.7-7.6,5-11.3,2.9l-1.5-2.6
							C146.8,256.3,151.8,255,154.4,251.3z"/>
					</defs>
					<clipPath id="SVGID_34_">
						<use xlink:href="#SVGID_459_"  overflow="visible"/>
					</clipPath>
					<g clip-path="url(#SVGID_34_)" enable-background="new    ">
						<path fill="#557456" d="M154.4,251.3l1.5,2.6c-0.2,0.2-0.3,0.5-0.5,0.7l-1.5-2.6C154.1,251.7,154.2,251.5,154.4,251.3"/>
						<path fill="#527153" d="M153.9,251.9l1.5,2.6c-0.2,0.3-0.4,0.5-0.7,0.7l-1.5-2.6C153.4,252.4,153.7,252.2,153.9,251.9"/>
						<path fill="#506F51" d="M153.2,252.6l1.5,2.6c-0.2,0.2-0.5,0.4-0.8,0.6l-1.5-2.6C152.7,253.1,153,252.9,153.2,252.6"/>
						<path fill="#4E6C4F" d="M152.5,253.3l1.5,2.6c-0.3,0.2-0.6,0.4-0.9,0.6l-1.5-2.6C151.9,253.7,152.2,253.5,152.5,253.3"/>
						<path fill="#4C694D" d="M151.6,253.9l1.5,2.6c-0.4,0.2-0.8,0.4-1.2,0.6l-1.5-2.6C150.8,254.3,151.2,254.1,151.6,253.9"/>
						<path fill="#49674B" d="M150.4,254.5l1.5,2.6c-2.4,1-5.1,0.9-7.3-0.3l-1.5-2.6C145.3,255.4,148,255.5,150.4,254.5"/>
					</g>
				</g>
			</g>
		</g>
		<g>
			<path fill="none" d="M209.1,93.6C209,93.6,209,93.6,209.1,93.6C209,93.6,209,93.6,209.1,93.6C209.1,93.6,209.1,93.6,209.1,93.6
				L209.1,93.6z"/>
			<path fill="none" d="M204.2,33.7c0,0-0.1,0-0.1,0c-0.1,0-0.1,0-0.2,0c0,0-0.1,0-0.1,0c0.1,0,0.2,0,0.3,0
				C204.1,33.7,204.2,33.7,204.2,33.7C204.2,33.7,204.2,33.7,204.2,33.7z"/>
			<path fill="none" d="M209.1,93.5c-0.1,0.1-0.2,0.2-0.3,0.2C208.9,93.7,208.9,93.7,209.1,93.5C209,93.6,209,93.6,209.1,93.5
				L209.1,93.5z"/>
			<path fill="none" d="M232.1,48.1c0,0,0.1,0.1,0.1,0.1C232.2,48.2,232.2,48.2,232.1,48.1z"/>
			<path fill="none" d="M231.9,47.8C232,47.9,232,47.9,231.9,47.8C232,47.9,232,47.9,231.9,47.8z"/>
			<path fill="none" d="M207.5,33.9C207.5,33.9,207.5,33.9,207.5,33.9C207.5,33.9,207.5,33.9,207.5,33.9z"/>
			<path fill="none" d="M203.8,33.6C203.8,33.6,203.8,33.6,203.8,33.6C203.8,33.6,203.8,33.6,203.8,33.6
				C203.8,33.6,203.8,33.6,203.8,33.6z"/>
			<path fill="none" d="M171.8,71.3c0-0.1,0-0.1,0-0.2C171.7,71.2,171.7,71.2,171.8,71.3C171.8,71.3,171.8,71.3,171.8,71.3z"/>
			<path fill="none" d="M204.2,33.7C204.2,33.7,204.2,33.7,204.2,33.7C204.2,33.7,204.3,33.7,204.2,33.7
				C204.2,33.7,204.2,33.7,204.2,33.7z"/>
			<path fill="none" d="M204.2,33.7c0,0-0.1,0-0.1,0C204.1,33.7,204.2,33.7,204.2,33.7C204.2,33.7,204.2,33.7,204.2,33.7
				C204.2,33.7,204.2,33.7,204.2,33.7z"/>
			<path fill="none" d="M204.5,33.8c0,0-0.1,0-0.1-0.1c0,0,0,0-0.1,0c0.1,0,0.3,0.1,0.4,0.2c0,0-0.1,0-0.1,0
				C204.6,33.8,204.5,33.8,204.5,33.8z"/>
			<rect x="229.1" y="50.3" fill="none" width="0" height="0"/>
			<path fill="none" d="M208.3,94C208.3,94,208.3,94,208.3,94C208.3,94,208.3,94,208.3,94C208.3,94,208.3,94,208.3,94z"/>
			<path fill="none" d="M208.4,93.9c0.1,0,0.1-0.1,0.2-0.1c0,0,0.1,0,0.1,0C208.6,93.9,208.5,93.9,208.4,93.9z"/>
			<path fill="none" d="M208.6,93.8c0,0,0.1,0,0.1-0.1C208.7,93.8,208.7,93.8,208.6,93.8C208.7,93.8,208.7,93.8,208.6,93.8z"/>
			<path fill="none" d="M208,94.1C208,94.1,208,94.1,208,94.1C208,94.1,208,94.1,208,94.1C208,94.1,208,94.1,208,94.1z"/>
			<path fill="none" d="M208,94.1C208,94.1,208,94.1,208,94.1c0.1,0,0.2,0,0.3-0.1c0,0,0,0,0,0C208.2,94,208.1,94,208,94.1z"/>
			<path fill="none" d="M232.3,48.4c0.1,0.1,0.1,0.2,0.1,0.4C232.4,48.6,232.3,48.5,232.3,48.4z"/>
			<path fill="none" d="M232.5,48.9c0,0.1,0,0.1,0,0.2C232.5,49.1,232.5,49,232.5,48.9z"/>
			<path fill="none" d="M232.5,50.3C232.5,50.3,232.5,50.3,232.5,50.3C232.5,50.3,232.5,50.3,232.5,50.3z"/>
			<path fill="none" d="M171.2,72.3L171.2,72.3C171.2,72.3,171.2,72.3,171.2,72.3C171.2,72.3,171.2,72.3,171.2,72.3
				C171.2,72.3,171.2,72.3,171.2,72.3z"/>
			<path fill="none" d="M232.5,49.4C232.5,49.4,232.5,49.4,232.5,49.4C232.5,49.4,232.5,49.4,232.5,49.4z"/>
			<path fill="none" d="M232.5,49.9C232.5,49.9,232.5,49.9,232.5,49.9C232.5,49.9,232.5,49.9,232.5,49.9z"/>
			<path fill="none" d="M170.3,69.5c0-0.1-0.1-0.1-0.1-0.2C170.2,69.4,170.2,69.5,170.3,69.5C170.3,69.5,170.3,69.5,170.3,69.5z"/>
			<polygon fill="none" points="249.4,109.7 249.4,109.7 249.4,109.7 249.4,109.7 			"/>
			<path fill="none" d="M49.8,194.6L49.8,194.6c0,0.1,0,0.2,0,0.4C49.8,194.9,49.8,194.7,49.8,194.6z"/>
			<path fill="none" d="M169.8,68.9C169.8,68.9,169.8,68.9,169.8,68.9C169.8,68.9,169.8,68.9,169.8,68.9L169.8,68.9z"/>
			<path fill="none" d="M249.2,108.7C249.2,108.7,249.2,108.7,249.2,108.7C249.2,108.7,249.2,108.7,249.2,108.7c0,0.1,0,0.1,0.1,0.2
				c0,0,0,0,0,0C249.3,108.8,249.3,108.7,249.2,108.7z"/>
			<path fill="none" d="M247.5,105.7C247.5,105.7,247.5,105.7,247.5,105.7C247.5,105.7,247.5,105.7,247.5,105.7
				C247.5,105.7,247.5,105.7,247.5,105.7z"/>
			<path fill="none" d="M249.7,107.7C249.7,107.7,249.7,107.7,249.7,107.7C249.7,107.7,249.7,107.7,249.7,107.7
				C249.7,107.7,249.7,107.7,249.7,107.7z"/>
			<path fill="none" d="M50,193.9L50,193.9c0,0.1,0,0.1,0,0.2C49.9,194,50,194,50,193.9z"/>
			<path fill="none" d="M50.3,192.9c0-0.1,0-0.1,0.1-0.2C50.3,192.7,50.3,192.8,50.3,192.9L50.3,192.9z"/>
			<path fill="none" d="M49.9,194.3L49.9,194.3C49.9,194.3,49.9,194.3,49.9,194.3C49.9,194.3,49.9,194.3,49.9,194.3z"/>
			<path fill="none" d="M248.5,106.9C248.5,106.9,248.5,106.9,248.5,106.9c0-0.1-0.1-0.1-0.1-0.2
				C248.4,106.8,248.4,106.8,248.5,106.9z"/>
			<path fill="none" d="M249.9,108.4C249.9,108.4,249.9,108.4,249.9,108.4c0,0.1,0,0.2,0.1,0.2c0,0,0,0,0-0.1
				C250,108.6,249.9,108.5,249.9,108.4z"/>
			<polygon fill="none" points="250.1,109.6 250.1,109.6 250.1,109.6 			"/>
			<path fill="none" d="M248,106.3C248,106.3,248,106.3,248,106.3c-0.1-0.1-0.2-0.2-0.3-0.3C247.8,106,247.9,106.1,248,106.3z"/>
			<path fill="none" d="M170.9,75.2C170.9,75.2,170.9,75.2,170.9,75.2c0,0,0,0.1-0.1,0.1c0,0,0,0,0,0
				C170.8,75.3,170.8,75.3,170.9,75.2z"/>
			<path fill="none" d="M170.5,76C170.5,76,170.5,76,170.5,76c0,0,0,0.1-0.1,0.1c0,0,0,0,0,0C170.5,76.1,170.5,76.1,170.5,76z"/>
			<path fill="none" d="M171.1,71.5c0-0.1,0-0.1,0-0.2C171,71.4,171.1,71.5,171.1,71.5C171.1,71.5,171.1,71.5,171.1,71.5z"/>
			<path fill="#506F51" d="M203.8,33.6C203.9,33.6,203.9,33.6,203.8,33.6l3.3,0.2c0,0,0,0-0.1,0C206,33.7,204.9,33.7,203.8,33.6
				C203.8,33.6,203.8,33.6,203.8,33.6C203.8,33.6,203.8,33.6,203.8,33.6z"/>
			<path fill="#527153" d="M204.1,33.7l3.2,0.1c0,0-0.1,0-0.1,0l-3.2-0.1C204,33.7,204,33.7,204.1,33.7z"/>
			<path fill="#557456" d="M204.2,33.7l3.3,0.1c-0.1,0-0.2,0-0.2,0l-3.2-0.1C204.1,33.7,204.2,33.7,204.2,33.7z"/>
			<path fill="#577758" d="M204.2,33.7C204.2,33.7,204.2,33.7,204.2,33.7C204.2,33.7,204.2,33.7,204.2,33.7
				C204.3,33.7,204.3,33.7,204.2,33.7c0.1,0,0.1,0,0.1,0l3.3,0.1c0,0-0.1,0-0.1,0c0,0,0,0,0,0c0,0,0,0,0,0L204.2,33.7
				C204.2,33.7,204.2,33.7,204.2,33.7z"/>
			<path fill="#59795A" d="M204.5,33.8l3.2,0.1c0,0-0.1,0-0.1,0l-3.3-0.1C204.4,33.8,204.4,33.8,204.5,33.8z"/>
			<path fill="#5B7C5C" d="M204.6,33.9l3.3,0.1c0,0-0.1,0-0.1-0.1l-3.2-0.1C204.5,33.8,204.6,33.8,204.6,33.9z"/>
			<path fill="#5E7F5E" d="M204.7,33.9l3.3,0.1c0,0-0.1,0-0.1,0L204.7,33.9C204.6,33.9,204.7,33.9,204.7,33.9z"/>
			<polygon fill="#4C694D" points="209.1,93.6 209.1,93.6 209.1,93.6 			"/>
			<path fill="#1F261A" d="M228.4,47.4c0,0-0.1-0.1-0.1-0.1c0,0-0.1-0.1-0.1-0.1c0,0,0,0-0.1,0C228.2,47.3,228.3,47.3,228.4,47.4
				C228.4,47.4,228.4,47.4,228.4,47.4z"/>
			<path fill="#1F261A" d="M228.8,47.9C228.8,47.9,228.8,47.9,228.8,47.9c0-0.1-0.1-0.1-0.1-0.1C228.7,47.8,228.8,47.8,228.8,47.9
				L228.8,47.9z"/>
			<path fill="#1F261A" d="M228.6,47.7c0,0-0.1-0.1-0.1-0.1c0,0-0.1-0.1-0.1-0.1C228.5,47.5,228.6,47.6,228.6,47.7
				C228.6,47.7,228.6,47.7,228.6,47.7z"/>
			<path fill="#1F261A" d="M228.8,47.9L228.8,47.9C228.8,47.9,228.8,47.9,228.8,47.9L228.8,47.9C228.8,47.9,228.8,47.9,228.8,47.9z"
				/>
			<path fill="#1F261A" d="M228.8,47.9L228.8,47.9C228.8,47.9,228.8,47.9,228.8,47.9L228.8,47.9C228.8,47.9,228.8,47.9,228.8,47.9z"
				/>
			<path fill="#1F261A" d="M228.9,48C228.8,48,228.8,48,228.9,48L228.9,48C228.8,48,228.8,48,228.9,48z"/>
			<path fill="#618361" d="M205.6,34.4c0.5,0,0.9,0,1.4,0.1c0,0,0,0,0,0c0,0,0,0,0,0c0,0,0,0,0,0c0,0,0.1,0,0.1,0c0.1,0,0.1,0,0.2,0
				c0,0,0,0,0,0c0,0,0,0,0,0c0,0,0,0,0.1,0c0,0,0.1,0,0.1,0c0,0,0.1,0,0.1,0c0,0,0,0,0.1,0l22.1,12.6l1.6,0.1L208,34.1l-3.3-0.1
				L205.6,34.4z"/>
			<polygon fill="#618361" points="207,34.5 207,34.5 207,34.5 			"/>
			<path fill="#618361" d="M207.4,34.6C207.4,34.6,207.4,34.6,207.4,34.6C207.4,34.6,207.4,34.6,207.4,34.6z"/>
			<path fill="#618361" d="M207,34.5C207,34.5,207,34.5,207,34.5c-0.5,0-0.9,0-1.4-0.1l0,0C206.1,34.5,206.6,34.5,207,34.5z"/>
			<path fill="#618361" d="M207,34.5L207,34.5C207,34.5,207,34.5,207,34.5C207,34.5,207,34.5,207,34.5C207,34.5,207,34.5,207,34.5z"
				/>
			<path fill="#618361" d="M207,34.5C207,34.5,207,34.5,207,34.5C207,34.5,207,34.5,207,34.5C207,34.5,207,34.5,207,34.5L207,34.5z"
				/>
			<path fill="#618361" d="M207,34.5c-0.5,0-0.9,0-1.4-0.1l0,0L207,34.5C207,34.5,207,34.5,207,34.5z"/>
			<path fill="#618361" d="M206.9,34.5C206.9,34.5,207,34.5,206.9,34.5L206.9,34.5C206.9,34.5,206.9,34.5,206.9,34.5L206.9,34.5z"/>
			<path fill="#618361" d="M206.9,34.5l0.3,0c0,0-0.1,0-0.1,0L206.9,34.5C207,34.5,206.9,34.5,206.9,34.5z"/>
			<path fill="#618361" d="M206.8,34.5c0,0,0.1,0,0.1,0l-1.3-0.1l0,0L206.8,34.5z"/>
			<path fill="#618361" d="M206.7,34.5L206.7,34.5c0.1,0,0.2,0,0.2,0l-0.1,0C206.8,34.5,206.7,34.5,206.7,34.5z"/>
			<path fill="#618361" d="M206.8,34.5l0.5,0c-0.1,0-0.1,0-0.2,0l-0.3,0C206.9,34.5,206.8,34.5,206.8,34.5z"/>
			<path fill="#618361" d="M206.7,34.5c0,0,0.1,0,0.1,0l-1.2-0.1l0,0L206.7,34.5z"/>
			<path fill="#618361" d="M206.6,34.6l0.8,0c0,0,0,0-0.1,0c0,0,0,0,0,0c0,0,0,0,0,0l-0.5,0C206.7,34.5,206.7,34.5,206.6,34.6z"/>
			<path fill="#618361" d="M206.6,34.6L206.6,34.6c0.1,0,0.1,0,0.2,0L206.6,34.6C206.7,34.5,206.6,34.5,206.6,34.6z"/>
			<path fill="#618361" d="M205.8,34.5l0.9,0c0,0,0.1,0,0.1,0L205.8,34.5L205.8,34.5z"/>
			<path fill="#618361" d="M206.6,34.6C206.6,34.6,206.6,34.6,206.6,34.6C206.5,34.6,206.5,34.6,206.6,34.6l0.9,0.1c0,0-0.1,0-0.1,0
				L206.6,34.6L206.6,34.6z"/>
			<path fill="#618361" d="M206.5,34.6C206.5,34.6,206.5,34.6,206.5,34.6C206.5,34.6,206.5,34.6,206.5,34.6L206.5,34.6z"/>
			<polygon fill="#618361" points="206.6,34.6 206.6,34.6 206.6,34.6 			"/>
			<path fill="#618361" d="M205.8,34.5L205.8,34.5l0.8,0.1c0,0,0,0,0,0c0,0,0.1,0,0.1,0l0,0L205.8,34.5z"/>
			<path fill="#618361" d="M206.4,34.6l1.2,0.1c0,0-0.1,0-0.1,0L206.4,34.6C206.5,34.6,206.5,34.6,206.4,34.6z"/>
			<path fill="#618361" d="M206.4,34.6L206.4,34.6c0.1,0,0.1,0,0.1,0L206.4,34.6C206.5,34.6,206.4,34.6,206.4,34.6z"/>
			<path fill="#618361" d="M206.5,34.6l-0.7,0l0.1,0L206.5,34.6C206.4,34.6,206.5,34.6,206.5,34.6z"/>
			<path fill="#618361" d="M206.4,34.6l1.3,0.1c0,0,0,0-0.1,0L206.4,34.6C206.4,34.6,206.4,34.6,206.4,34.6z"/>
			<path fill="#618361" d="M206.4,34.6L206.4,34.6C206.4,34.6,206.4,34.6,206.4,34.6L206.4,34.6C206.4,34.6,206.4,34.6,206.4,34.6z"
				/>
			<path fill="#618361" d="M206.4,34.6l-0.5,0l0.1,0L206.4,34.6C206.4,34.6,206.4,34.6,206.4,34.6z"/>
			<path fill="#618361" d="M206.2,34.7C206.2,34.7,206.2,34.7,206.2,34.7L228,47.2l1.7,0.1l-22.1-12.6l-1.3-0.1
				C206.3,34.7,206.2,34.7,206.2,34.7z"/>
			<path fill="#618361" d="M206.2,34.7c0.1,0,0.1-0.1,0.2-0.1l0,0C206.3,34.7,206.2,34.7,206.2,34.7z"/>
			<path fill="#618361" d="M205.9,34.6l0.2,0.1c0,0,0,0,0,0c0.1,0,0.1-0.1,0.2-0.1L205.9,34.6z"/>
			<path fill="#1F261A" d="M229,50.6C229,50.6,229,50.6,229,50.6c0-0.1,0.1-0.1,0.1-0.2c0,0,0-0.1,0-0.1h0
				C229.1,50.4,229.1,50.5,229,50.6z"/>
			<path fill="#1F261A" d="M183.2,79.5C183.1,79.5,183.1,79.5,183.2,79.5C183.1,79.5,183.1,79.5,183.2,79.5z"/>
			<path fill="#1F261A" d="M203.3,34.4c0.1,0,0.2,0,0.3,0C203.6,34.4,203.4,34.4,203.3,34.4z"/>
			<path fill="#1F261A" d="M183,79.3c0,0,0-0.1-0.1-0.1C183,79.3,183,79.3,183,79.3z"/>
			<path fill="#1F261A" d="M182.7,78.1C182.7,78.1,182.7,78.1,182.7,78.1C182.7,78.1,182.7,78.1,182.7,78.1z"/>
			<path fill="#1F261A" d="M202.9,34.6C202.9,34.6,202.9,34.6,202.9,34.6C202.8,34.6,202.8,34.6,202.9,34.6
				C202.8,34.6,202.8,34.6,202.9,34.6C202.8,34.6,202.9,34.6,202.9,34.6z"/>
			<path fill="#1F261A" d="M203.2,34.4c-0.1,0-0.3,0.1-0.4,0.2c0,0,0,0,0,0C203,34.5,203.1,34.5,203.2,34.4z"/>
			<path fill="#1F261A" d="M182.8,78.8c0,0,0-0.1,0-0.1C182.8,78.7,182.8,78.7,182.8,78.8z"/>
			<path fill="#1F261A" d="M182.9,79.1c0-0.1-0.1-0.2-0.1-0.3C182.8,79,182.9,79,182.9,79.1z"/>
			<path fill="#1F261A" d="M182.7,78.4C182.7,78.4,182.7,78.4,182.7,78.4C182.7,78.4,182.7,78.4,182.7,78.4z"/>
			<path fill="#1F261A" d="M186,78.7C186,78.7,186,78.7,186,78.7C186,78.7,186,78.6,186,78.7C186,78.6,186,78.6,186,78.7z"/>
			<path fill="#1F261A" d="M186,78.3c0,0,0,0.1,0,0.1c0,0,0,0,0,0C186,78.4,186,78.3,186,78.3C186,78.3,186,78.3,186,78.3z"/>
			<path fill="#1F261A" d="M209.1,92.4c0,0.1-0.1,0.2-0.1,0.2l0,0C209,92.5,209.1,92.5,209.1,92.4z"/>
			<path fill="#1F261A" d="M186.7,79.9C186.7,79.9,186.7,79.9,186.7,79.9c0.1,0.1,0.2,0.1,0.2,0.1c0,0,0,0,0,0
				C186.8,80,186.7,79.9,186.7,79.9C186.6,79.9,186.7,79.9,186.7,79.9z"/>
			<path fill="#1F261A" d="M228.4,50.3c0-0.1,0.1-0.2,0.1-0.3c0,0,0,0,0,0c0-0.1,0-0.2,0.1-0.3c0,0,0,0,0,0c0-0.1,0-0.2,0-0.3
				c0,0,0,0,0-0.1c0-0.1,0-0.1,0-0.2c0,0,0-0.1,0-0.1c0,0,0-0.1,0-0.1c0-0.1-0.1-0.2-0.1-0.3c0,0,0-0.1,0-0.1c0,0,0-0.1-0.1-0.1
				c0-0.1-0.1-0.1-0.1-0.2c0,0,0,0,0,0c-0.1-0.1-0.1-0.1-0.2-0.2c-0.1-0.1-0.1-0.1-0.2-0.2l-22.1-12.6c-0.1,0.1-0.1,0.1-0.1,0.2
				l-19.3,42.1c0,0.1-0.1,0.2-0.1,0.3c0,0,0,0,0,0c0,0.1,0,0.2-0.1,0.3c0,0,0,0,0,0c0,0.1,0,0.2,0,0.3c0,0,0,0,0,0
				c0,0.1,0,0.1,0,0.2c0,0,0,0.1,0,0.1c0,0,0,0.1,0,0.1c0,0.1,0.1,0.2,0.1,0.3c0,0,0,0.1,0.1,0.1c0,0,0,0.1,0.1,0.1
				c0,0.1,0.1,0.1,0.1,0.2c0,0,0,0,0,0c0.1,0.1,0.1,0.1,0.2,0.2c0.1,0.1,0.2,0.1,0.2,0.2L209,92.6c0.1-0.1,0.1-0.1,0.1-0.2
				L228.4,50.3z"/>
			<path fill="#1F261A" d="M186.2,77.6c0,0,0,0.1,0,0.1c0,0,0,0.1,0,0.1c0,0,0,0,0,0.1C186.1,77.8,186.1,77.7,186.2,77.6
				C186.2,77.6,186.2,77.6,186.2,77.6z"/>
			<path fill="#1F261A" d="M205.6,35.3C205.6,35.3,205.6,35.3,205.6,35.3c-0.1,0.1-0.1,0.1-0.1,0.2c0,0,0,0,0,0.1
				C205.5,35.4,205.6,35.3,205.6,35.3L205.6,35.3z"/>
			<path fill="#1F261A" d="M186.1,78c0,0,0,0.1,0,0.1c0,0,0,0.1,0,0.1c0,0,0,0,0,0C186,78.1,186,78,186.1,78
				C186.1,77.9,186.1,78,186.1,78z"/>
			<path fill="#1F261A" d="M186.4,79.6C186.4,79.6,186.4,79.6,186.4,79.6C186.4,79.6,186.3,79.5,186.4,79.6
				C186.3,79.5,186.3,79.6,186.4,79.6z"/>
			<path fill="#1F261A" d="M186.5,79.7c0,0,0.1,0.1,0.1,0.1c0,0,0.1,0,0.1,0.1C186.6,79.8,186.5,79.8,186.5,79.7
				C186.5,79.7,186.5,79.7,186.5,79.7z"/>
			<path fill="#1F261A" d="M186.2,79.3C186.2,79.4,186.2,79.4,186.2,79.3C186.2,79.3,186.2,79.3,186.2,79.3
				C186.2,79.3,186.2,79.3,186.2,79.3z"/>
			<path fill="#1F261A" d="M202.7,34.7c0,0,0.1-0.1,0.1-0.1c0,0,0,0,0,0c-0.1,0.1-0.2,0.2-0.3,0.3c0,0,0,0,0,0
				C202.6,34.8,202.6,34.8,202.7,34.7z"/>
			<path fill="#1F261A" d="M186.1,79C186.1,79,186.1,79,186.1,79C186.1,79,186.1,78.9,186.1,79C186.1,78.9,186.1,78.9,186.1,79z"/>
			<path fill="#1F261A" d="M182.8,77.8C182.8,77.8,182.8,77.8,182.8,77.8C182.8,77.8,182.8,77.8,182.8,77.8z"/>
			<path fill="#1F261A" d="M207.5,93.3C207.4,93.3,207.4,93.3,207.5,93.3c0,0,0.1,0,0.1,0c0,0,0,0,0,0
				C207.5,93.4,207.5,93.3,207.5,93.3z"/>
			<path fill="#1F261A" d="M202.3,35.2c0,0,0-0.1,0.1-0.1c0,0,0-0.1,0.1-0.1c0,0,0,0,0,0c-0.1,0.1-0.2,0.2-0.2,0.4c0,0,0,0,0-0.1
				C202.3,35.3,202.3,35.2,202.3,35.2z"/>
			<path fill="#1F261A" d="M207.1,93.2c0,0-0.1,0-0.1,0c0,0,0,0-0.1,0c0.1,0.1,0.2,0.1,0.3,0.1C207.2,93.3,207.2,93.3,207.1,93.2
				C207.2,93.3,207.2,93.3,207.1,93.2z"/>
			<path fill="#1F261A" d="M186.2,77.6l-3.3-0.1c0,0,0,0,0,0L186.2,77.6C186.2,77.6,186.2,77.6,186.2,77.6z"/>
			<path fill="#1F261A" d="M186.2,77.6l-3.3-0.1c0,0,0,0.1,0,0.1l3.3,0.1C186.1,77.7,186.2,77.7,186.2,77.6z"/>
			<path fill="#1F261A" d="M186.1,77.8l-3.3-0.1c0,0,0,0.1,0,0.1l3.3,0.1C186.1,77.8,186.1,77.8,186.1,77.8z"/>
			<path fill="#1F261A" d="M186.1,77.9C186.1,77.9,186.1,77.9,186.1,77.9C186.1,77.9,186.1,77.9,186.1,77.9l-3.3-0.2c0,0,0,0,0,0.1
				c0,0,0,0,0,0c0,0,0,0,0,0L186.1,77.9C186.1,78,186.1,77.9,186.1,77.9z"/>
			<path fill="#1F261A" d="M186.1,78l-3.3-0.1c0,0,0,0.1,0,0.1l3.3,0.1C186,78,186.1,78,186.1,78z"/>
			<path fill="#1F261A" d="M186,78.1l-3.3-0.1c0,0,0,0.1,0,0.1l3.3,0.1C186,78.2,186,78.1,186,78.1z"/>
			<path fill="#1F261A" d="M186,78.2C186,78.2,186,78.2,186,78.2C186,78.2,186,78.2,186,78.2l-3.3-0.2c0,0,0,0,0,0c0,0,0,0,0,0
				c0,0,0,0.1,0,0.1L186,78.2C186,78.3,186,78.3,186,78.2z"/>
			<path fill="#1F261A" d="M186,78.3l-3.3-0.1c0,0,0,0.1,0,0.1l3.3,0.1C186,78.4,186,78.4,186,78.3z"/>
			<path fill="#1F261A" d="M186,78.6C186,78.6,186,78.5,186,78.6C186,78.5,186,78.5,186,78.6l-3.3-0.2c0,0,0,0,0,0c0,0,0,0,0,0
				c0,0,0,0.1,0,0.1L186,78.6C186,78.6,186,78.6,186,78.6z"/>
			<path fill="#1F261A" d="M186.1,78.9c0,0,0-0.1,0-0.1c0,0,0-0.1,0-0.1l-3.3-0.1c0,0,0,0.1,0,0.1c0,0,0,0.1,0,0.1c0,0,0,0,0,0.1
				L186.1,78.9C186.1,78.9,186.1,78.9,186.1,78.9z"/>
			<path fill="#1F261A" d="M186.2,79.3c0-0.1-0.1-0.2-0.1-0.3c0,0,0,0,0-0.1l-3.3-0.1c0,0,0,0,0,0.1c0,0.1,0.1,0.2,0.1,0.3
				c0,0,0,0,0,0.1L186.2,79.3C186.2,79.3,186.2,79.3,186.2,79.3z"/>
			<path fill="#1F261A" d="M186.3,79.5c0,0,0-0.1-0.1-0.1c0,0,0,0,0,0l-3.3-0.1c0,0,0,0,0,0c0,0,0,0.1,0.1,0.1c0,0,0,0.1,0.1,0.1
				L186.3,79.5C186.3,79.6,186.3,79.5,186.3,79.5z"/>
			<path fill="#1F261A" d="M186.4,79.7C186.4,79.7,186.4,79.7,186.4,79.7c-0.1-0.1-0.1-0.1-0.1-0.1l-3.3-0.1c0,0,0,0,0,0.1
				c0,0,0,0,0,0c0,0,0,0,0,0L186.4,79.7C186.5,79.7,186.5,79.7,186.4,79.7z"/>
			<path fill="#1F261A" d="M186.5,79.7l-3.3-0.1c0,0,0.1,0.1,0.1,0.1l3.3,0.1C186.5,79.8,186.5,79.8,186.5,79.7z"/>
			<path fill="#1F261A" d="M186.6,79.9C186.6,79.9,186.6,79.8,186.6,79.9l-3.4-0.2c0,0,0,0,0.1,0.1c0,0,0,0,0,0L186.6,79.9
				C186.7,79.9,186.6,79.9,186.6,79.9z"/>
			<path fill="#1F261A" d="M186.7,79.9l-3.3-0.1c0,0,0.1,0,0.1,0.1L186.7,79.9C186.7,79.9,186.7,79.9,186.7,79.9z"/>
			<path fill="#1F261A" d="M186.8,80l-3.3-0.1c0,0,0.1,0,0.1,0.1L186.8,80C186.8,80,186.8,80,186.8,80z"/>
			<path fill="#1F261A" d="M186.8,80l-3.3-0.1c0,0,0,0,0,0L186.8,80C186.9,80,186.9,80,186.8,80z"/>
			<polygon fill="#1F261A" points="205.5,35.5 202.2,35.4 182.9,77.5 186.2,77.6 			"/>
			<path fill="#1F261A" d="M203.8,34.4C203.8,34.4,203.8,34.4,203.8,34.4c0.1,0,0.1,0,0.2,0C203.9,34.4,203.8,34.4,203.8,34.4
				C203.8,34.4,203.8,34.4,203.8,34.4z"/>
			<path fill="#1F261A" d="M202.8,34.6c0,0-0.1,0.1-0.1,0.1l2.2,0.1l-0.5-0.3c-0.1-0.1-0.2-0.1-0.3-0.1c0,0-0.1,0-0.1,0
				c-0.1,0-0.1,0-0.2,0c0,0,0,0-0.1,0c-0.1,0-0.2,0-0.3,0c0,0-0.1,0-0.1,0C203.1,34.5,203,34.5,202.8,34.6
				C202.9,34.6,202.8,34.6,202.8,34.6z"/>
			<path fill="#1F261A" d="M204.1,34.4C204.1,34.4,204.1,34.4,204.1,34.4c0.1,0,0.2,0.1,0.3,0.1C204.3,34.5,204.2,34.5,204.1,34.4
				C204.1,34.4,204.1,34.4,204.1,34.4z"/>
			<path fill="#1F261A" d="M202.7,34.7c-0.1,0-0.1,0.1-0.2,0.1l2.6,0.1l-0.3-0.1L202.7,34.7z"/>
			<path fill="#1F261A" d="M205.4,35.1l-0.2-0.1l-2.6-0.1c0,0,0,0,0,0c0,0-0.1,0.1-0.1,0.1c0,0,0,0,0,0L205.4,35.1z"/>
			<path fill="#1F261A" d="M205.4,35.1l-2.9-0.1c0,0,0,0.1-0.1,0.1l3.2,0.1L205.4,35.1z"/>
			<path fill="#1F261A" d="M205.6,35.3L205.6,35.3l-3.2-0.2c0,0,0,0.1-0.1,0.1L205.6,35.3C205.6,35.3,205.6,35.3,205.6,35.3z"/>
			<path fill="#1F261A" d="M202.3,35.2c0,0,0,0.1-0.1,0.1l3.3,0.1c0,0,0-0.1,0.1-0.1L202.3,35.2z"/>
			<path fill="#1F261A" d="M205.5,35.4l-3.3-0.1c0,0,0,0,0,0.1L205.5,35.4C205.5,35.5,205.5,35.5,205.5,35.4z"/>
			<path fill="#1F261A" d="M203.8,34.4C203.8,34.4,203.8,34.4,203.8,34.4C203.8,34.4,203.8,34.4,203.8,34.4z"/>
			<path fill="#1F261A" d="M204.1,34.4C204.1,34.4,204.1,34.4,204.1,34.4C204.1,34.4,204.1,34.4,204.1,34.4z"/>
			<path fill="#1F261A" d="M208.7,93C208.7,92.9,208.7,92.9,208.7,93c0.1-0.1,0.1-0.1,0.1-0.1c-0.1,0.1-0.2,0.2-0.3,0.2c0,0,0,0,0,0
				C208.6,93,208.7,93,208.7,93z"/>
			<path fill="#1F261A" d="M208.4,93.1C208.5,93.1,208.5,93.1,208.4,93.1c-0.1,0-0.1,0.1-0.2,0.1l0,0
				C208.3,93.2,208.4,93.2,208.4,93.1z"/>
			<path fill="#1F261A" d="M208.5,93.1C208.5,93.1,208.5,93.1,208.5,93.1C208.5,93.1,208.5,93.1,208.5,93.1
				C208.5,93.1,208.5,93.1,208.5,93.1c0.2-0.1,0.3-0.2,0.3-0.3c0,0,0-0.1,0.1-0.1c0,0,0.1-0.1,0.1-0.2L186.9,80l-3.3-0.1l23.4,13.3
				l1.3,0.1C208.3,93.2,208.4,93.2,208.5,93.1z"/>
			<path fill="#1F261A" d="M209,92.7C209,92.7,209,92.6,209,92.7L209,92.7C208.9,92.7,208.9,92.7,209,92.7
				C208.9,92.7,208.9,92.7,209,92.7C208.9,92.7,208.9,92.7,209,92.7z"/>
			<path fill="#1F261A" d="M208.2,93.3C208.2,93.2,208.2,93.2,208.2,93.3l-1.2-0.1c0,0,0,0,0.1,0L208.2,93.3z"/>
			<path fill="#1F261A" d="M208.2,93.2C208.2,93.2,208.3,93.2,208.2,93.2L208.2,93.2C208.2,93.2,208.2,93.2,208.2,93.2L208.2,93.2
				C208.2,93.3,208.2,93.3,208.2,93.2z"/>
			<path fill="#1F261A" d="M208.1,93.3C208.1,93.3,208.2,93.3,208.1,93.3c0.1,0,0.1,0,0.1,0L208.1,93.3
				C208.2,93.3,208.1,93.3,208.1,93.3L208.1,93.3z"/>
			<path fill="#1F261A" d="M208.2,93.3l-1.2-0.1c0,0,0.1,0,0.1,0L208.2,93.3C208.1,93.3,208.2,93.3,208.2,93.3z"/>
			<path fill="#1F261A" d="M208.1,93.3l-1,0c0,0,0.1,0,0.1,0l0.8,0C208,93.3,208.1,93.3,208.1,93.3
				C208.1,93.3,208.1,93.3,208.1,93.3z"/>
			<path fill="#1F261A" d="M208.1,93.3C208.1,93.3,208.1,93.3,208.1,93.3C208.1,93.3,208.1,93.3,208.1,93.3L208.1,93.3z"/>
			<path fill="#1F261A" d="M208,93.3c-0.1,0-0.1,0-0.2,0L208,93.3C207.9,93.3,208,93.3,208,93.3z"/>
			<path fill="#1F261A" d="M207.8,93.3c0.1,0,0.1,0,0.2,0c0,0,0,0,0,0l-0.8,0c0,0,0,0,0.1,0c0,0,0,0,0,0L207.8,93.3z"/>
			<path fill="#1F261A" d="M207.8,93.4C207.8,93.4,207.9,93.4,207.8,93.4C207.9,93.4,207.9,93.3,207.8,93.4L207.8,93.4
				c0,0-0.1,0-0.1,0L207.8,93.4C207.8,93.4,207.8,93.4,207.8,93.4z"/>
			<path fill="#1F261A" d="M207.7,93.4c0,0,0.1,0,0.1,0l-0.5,0c0,0,0,0,0.1,0c0,0,0.1,0,0.1,0L207.7,93.4z"/>
			<path fill="#1F261A" d="M207.8,93.4L207.8,93.4c-0.1,0-0.1,0-0.1,0C207.7,93.4,207.7,93.4,207.8,93.4z"/>
			<path fill="#1F261A" d="M207.7,93.4l-0.3,0c0,0,0.1,0,0.1,0l0,0C207.6,93.4,207.6,93.4,207.7,93.4
				C207.7,93.4,207.7,93.4,207.7,93.4z"/>
			<path fill="#1F261A" d="M207.6,93.4C207.6,93.4,207.6,93.4,207.6,93.4C207.6,93.4,207.6,93.4,207.6,93.4L207.6,93.4z"/>
			<path fill="#1F261A" d="M208.9,92.7C208.9,92.7,208.9,92.7,208.9,92.7C208.9,92.7,208.9,92.7,208.9,92.7z"/>
			<path fill="#1F261A" d="M208.7,92.9C208.7,92.9,208.7,92.9,208.7,92.9C208.7,92.9,208.7,92.9,208.7,92.9z"/>
			<path fill="#1F261A" d="M208.5,93.1C208.5,93.1,208.5,93.1,208.5,93.1C208.5,93.1,208.5,93.1,208.5,93.1
				C208.5,93.1,208.5,93.1,208.5,93.1z"/>
			<path fill="#1F261A" d="M208.5,93.1C208.5,93.1,208.5,93.1,208.5,93.1C208.5,93.1,208.5,93.1,208.5,93.1
				C208.5,93.1,208.5,93.1,208.5,93.1z"/>
			<path fill="#1F261A" d="M208.2,93.2C208.2,93.3,208.2,93.3,208.2,93.2L208.2,93.2C208.2,93.3,208.2,93.3,208.2,93.2z"/>
			<path fill="#1F261A" d="M208.2,93.3C208.2,93.3,208.2,93.3,208.2,93.3C208.2,93.3,208.2,93.3,208.2,93.3L208.2,93.3z"/>
			<path fill="#1F261A" d="M207.8,93.4C207.8,93.4,207.9,93.4,207.8,93.4C207.9,93.4,207.8,93.4,207.8,93.4z"/>
			<path fill="#1F261A" d="M229,48.2C229,48.2,229,48.2,229,48.2C229,48.2,229,48.1,229,48.2C229,48.1,229,48.2,229,48.2L229,48.2z"
				/>
			<path fill="#1F261A" d="M229,48.3C229,48.2,229,48.2,229,48.3L229,48.3C229,48.2,229,48.2,229,48.3z"/>
			<path fill="#1F261A" d="M229.2,48.7C229.2,48.7,229.2,48.7,229.2,48.7C229.2,48.7,229.2,48.7,229.2,48.7
				C229.2,48.8,229.2,48.7,229.2,48.7z"/>
			<path fill="#1F261A" d="M229.3,49.2c0,0,0-0.1,0-0.1c0,0,0-0.1,0-0.1C229.2,49.1,229.3,49.2,229.3,49.2L229.3,49.2z"/>
			<path fill="#1F261A" d="M229.3,49.3C229.3,49.2,229.3,49.2,229.3,49.3L229.3,49.3C229.3,49.2,229.3,49.2,229.3,49.3z"/>
			<path fill="#1F261A" d="M229.3,49.4C229.3,49.4,229.3,49.4,229.3,49.4c0-0.1,0-0.1,0-0.1C229.3,49.4,229.3,49.4,229.3,49.4
				L229.3,49.4z"/>
			<path fill="#1F261A" d="M229.3,49.6L229.3,49.6c0,0,0-0.1,0-0.1l0,0C229.3,49.5,229.3,49.5,229.3,49.6z"/>
			<path fill="#1F261A" d="M229.3,49.7L229.3,49.7c0,0,0-0.1,0-0.1c0,0,0,0,0,0l0,0C229.3,49.6,229.3,49.7,229.3,49.7z"/>
			<polygon fill="#1F261A" points="229.3,49.7 229.3,49.7 229.3,49.7 			"/>
			<path fill="#1F261A" d="M229.2,49.8C229.2,49.8,229.2,49.8,229.2,49.8C229.2,49.8,229.2,49.7,229.2,49.8
				C229.2,49.8,229.2,49.8,229.2,49.8L229.2,49.8z"/>
			<path fill="#1F261A" d="M229.2,49.9L229.2,49.9L229.2,49.9c0,0,0-0.1,0-0.1h0C229.2,49.9,229.2,49.9,229.2,49.9z"/>
			<path fill="#1F261A" d="M229.2,50L229.2,50c0,0,0-0.1,0-0.1h0C229.2,50,229.2,50,229.2,50z"/>
			<path fill="#1F261A" d="M229.2,50.2L229.2,50.2C229.2,50.1,229.2,50.1,229.2,50.2c0-0.1,0-0.1,0-0.1h0
				C229.2,50.1,229.2,50.1,229.2,50.2z"/>
			<path fill="#1F261A" d="M229.1,50.3C229.1,50.3,229.1,50.2,229.1,50.3C229.2,50.2,229.2,50.2,229.1,50.3
				C229.2,50.2,229.1,50.2,229.1,50.3L229.1,50.3z"/>
			<polygon fill="#1F261A" points="229.2,50.2 229.2,50.2 229.2,50.2 			"/>
			<path fill="#1F261A" d="M229.1,50.3L229.1,50.3C229.1,50.3,229.1,50.3,229.1,50.3L229.1,50.3C229.1,50.3,229.1,50.3,229.1,50.3z"
				/>
			<path fill="#5D7E5D" d="M214,89.1c0.3-0.1,0.6-0.2,0.9-0.3l17.5-38.1l-0.7,0L214,89.1z"/>
			<polygon fill="#5D7E5D" points="209.8,92.5 209.9,92.4 209.8,92.4 209.8,92.5 			"/>
			<polygon fill="#5D7E5D" points="209.8,92.5 209.8,92.5 209.8,92.5 			"/>
			<path fill="#5D7E5D" d="M209.8,92.4L209.8,92.4L209.8,92.4c1.1-1.5,2.5-2.6,4.1-3.3l17.6-38.4l-2.6-0.1L209.8,92.4z"/>
			<path fill="#5E7F5E" d="M229.8,47.3l1.5,0.1c0,0,0,0-0.1,0L229.8,47.3L229.8,47.3z"/>
			<path fill="#5E7F5E" d="M228.1,47.2l1.7,0.1l-0.1,0L228.1,47.2C228.1,47.2,228.1,47.2,228.1,47.2z"/>
			<path fill="#608160" d="M230,47.4l1.5,0.1c0,0-0.1-0.1-0.1-0.1l-1.5-0.1L230,47.4z"/>
			<path fill="#608160" d="M228.2,47.3l1.8,0.1l-0.1-0.1l-1.7-0.1C228.2,47.2,228.2,47.3,228.2,47.3z"/>
			<path fill="#628462" d="M230.2,47.5l1.5,0.1c0,0-0.1-0.1-0.1-0.1l-1.5-0.1L230.2,47.5z"/>
			<path fill="#628462" d="M228.4,47.4l1.8,0.1l-0.2-0.1l-1.8-0.1C228.3,47.3,228.3,47.4,228.4,47.4z"/>
			<path fill="#648764" d="M230.4,47.6l1.4,0.1c0,0-0.1-0.1-0.1-0.1c0,0,0,0,0,0l-1.5-0.1L230.4,47.6z"/>
			<path fill="#648764" d="M228.4,47.4c0,0,0.1,0.1,0.1,0.1l1.9,0.1l-0.2-0.1L228.4,47.4C228.4,47.4,228.4,47.4,228.4,47.4z"/>
			<path fill="#678966" d="M230.6,47.7l1.3,0.1c0,0-0.1-0.1-0.1-0.1l-1.4-0.1L230.6,47.7z"/>
			<path fill="#678966" d="M228.6,47.7l2,0.1l-0.3-0.1l-1.9-0.1C228.5,47.6,228.6,47.6,228.6,47.7z"/>
			<path fill="#698C68" d="M231,47.9l1.1,0c0,0,0-0.1-0.1-0.1c0,0,0,0,0-0.1c0,0,0,0,0,0l-1.3-0.1L231,47.9z"/>
			<path fill="#698C68" d="M228.7,47.7C228.7,47.7,228.7,47.7,228.7,47.7c0.1,0.1,0.1,0.1,0.1,0.1l2.2,0.1l-0.3-0.2L228.7,47.7
				C228.6,47.7,228.6,47.7,228.7,47.7z"/>
			<path fill="#6B8E6A" d="M231,48C231,48,231.1,48,231,48c0.1,0,0.1,0.1,0.1,0.1c0,0,0.1,0,0.1,0.1c0,0,0,0,0,0c0,0,0,0,0.1,0.1
				c0,0,0.1,0,0.1,0.1l0.8,0c0,0,0,0,0-0.1c0-0.1-0.1-0.1-0.1-0.1c0,0-0.1-0.1-0.1-0.1L231,48L231,48z"/>
			<path fill="#6B8E6A" d="M228.8,47.9L231,48l-0.1,0L228.8,47.9C228.8,47.9,228.8,47.9,228.8,47.9z"/>
			<path fill="#6B8E6A" d="M228.8,47.9l2.3,0.1c0,0,0,0,0,0L228.8,47.9C228.8,47.9,228.8,47.9,228.8,47.9z"/>
			<path fill="#6B8E6A" d="M228.8,47.9l2.3,0.1c0,0,0,0-0.1,0L228.8,47.9C228.8,47.9,228.8,47.9,228.8,47.9z"/>
			<path fill="#6B8E6A" d="M228.9,48C228.9,48,228.9,48,228.9,48l2.4,0.2c0,0-0.1,0-0.1-0.1L228.9,48C228.8,48,228.8,48,228.9,48z"
				/>
			<path fill="#6B8E6A" d="M228.9,48l2.4,0.1c0,0,0,0,0,0L228.9,48C228.9,48,228.9,48,228.9,48z"/>
			<path fill="#6B8E6A" d="M228.9,48.1l2.4,0.1c0,0,0,0-0.1-0.1L228.9,48.1C228.9,48.1,228.9,48.1,228.9,48.1z"/>
			<path fill="#6B8E6A" d="M228.9,48.1C229,48.1,229,48.2,228.9,48.1l2.5,0.2c0,0-0.1-0.1-0.1-0.1L228.9,48.1
				C228.9,48.1,228.9,48.1,228.9,48.1z"/>
			<path fill="#6D916C" d="M231.8,48.8C231.7,48.8,231.7,48.8,231.8,48.8C231.7,48.8,231.7,48.8,231.8,48.8L231.8,48.8z"/>
			<path fill="#6D916C" d="M231.4,48.3C231.4,48.3,231.4,48.3,231.4,48.3C231.4,48.3,231.5,48.3,231.4,48.3
				C231.5,48.4,231.5,48.4,231.4,48.3c0.1,0.1,0.1,0.1,0.1,0.2c0,0,0,0.1,0.1,0.1c0,0,0,0.1,0.1,0.1c0,0,0,0,0,0c0,0,0,0,0,0.1
				s0,0,0,0.1l0.7,0c0,0,0-0.1,0-0.1c0-0.1-0.1-0.2-0.1-0.4c0,0,0-0.1,0-0.1L231.4,48.3z"/>
			<path fill="#6D916C" d="M231.5,48.3C231.5,48.4,231.5,48.4,231.5,48.3C231.5,48.4,231.5,48.4,231.5,48.3z"/>
			<path fill="#6D916C" d="M231.6,48.5c0,0,0,0.1,0.1,0.1C231.7,48.6,231.6,48.6,231.6,48.5z"/>
			<path fill="#6D916C" d="M229,48.2l2.5,0.1c0,0,0,0,0,0L229,48.2C229,48.2,229,48.2,229,48.2z"/>
			<path fill="#6D916C" d="M229,48.3C229,48.3,229,48.3,229,48.3l2.5,0.2c0,0,0,0,0-0.1c0,0,0,0,0,0c0,0,0,0,0,0L229,48.3
				C229,48.2,229,48.2,229,48.3z"/>
			<path fill="#6D916C" d="M229.1,48.6l2.6,0.1c0,0,0,0,0,0c0,0,0-0.1-0.1-0.1c0,0,0-0.1-0.1-0.1l-2.5-0.1
				C229.1,48.4,229.1,48.5,229.1,48.6z"/>
			<path fill="#6D916C" d="M229.1,48.6C229.2,48.7,229.2,48.7,229.1,48.6l2.6,0.2c0,0,0,0,0-0.1c0,0,0,0,0-0.1L229.1,48.6
				C229.1,48.6,229.1,48.6,229.1,48.6z"/>
			<path fill="#6B8E6A" d="M231.8,49C231.8,49,231.8,49,231.8,49c0,0.1,0,0.1,0,0.1c0,0,0,0.1,0,0.1l0.7,0c0,0,0-0.1,0-0.1
				c0-0.1,0-0.1,0-0.2c0,0,0-0.1,0-0.1l-0.7,0C231.8,48.9,231.8,48.9,231.8,49z"/>
			<path fill="#6B8E6A" d="M231.9,49.2c0,0,0-0.1,0-0.1C231.9,49.2,231.9,49.2,231.9,49.2L231.9,49.2z"/>
			<path fill="#6B8E6A" d="M231.8,49c0-0.1,0-0.1-0.1-0.2h0C231.8,48.9,231.8,48.9,231.8,49z"/>
			<path fill="#6B8E6A" d="M229.2,48.7C229.2,48.7,229.2,48.8,229.2,48.7c0,0.1,0,0.2,0,0.2l2.6,0.1c0,0,0,0,0-0.1
				c0-0.1,0-0.1-0.1-0.2L229.2,48.7z"/>
			<path fill="#6B8E6A" d="M229.2,49c0,0,0,0.1,0,0.1l2.6,0.1c0,0,0-0.1,0-0.1c0,0,0,0,0-0.1L229.2,49C229.2,49,229.2,49,229.2,49z"
				/>
			<path fill="#698C68" d="M231.9,49.3C231.9,49.3,231.9,49.2,231.9,49.3L231.9,49.3C231.9,49.2,231.9,49.3,231.9,49.3z"/>
			<path fill="#698C68" d="M231.9,49.3C231.9,49.3,231.9,49.3,231.9,49.3c0,0.1,0,0.2,0,0.2c0,0,0,0,0,0l0.6,0c0,0,0,0,0-0.1
				c0,0,0,0,0-0.1c0,0,0-0.1,0-0.1L231.9,49.3C231.9,49.2,231.9,49.3,231.9,49.3z"/>
			<path fill="#698C68" d="M231.9,49.5C231.9,49.5,231.9,49.5,231.9,49.5C231.9,49.5,231.9,49.5,231.9,49.5L231.9,49.5z"/>
			<path fill="#698C68" d="M229.2,49.1c0,0,0,0.1,0,0.1l2.6,0.1c0,0,0-0.1,0-0.1c0,0,0,0,0,0L229.2,49.1z"/>
			<path fill="#698C68" d="M229.3,49.3C229.3,49.3,229.3,49.3,229.3,49.3c0,0.1,0,0.1,0,0.1l2.6,0.1c0,0,0,0,0,0c0,0,0-0.1,0-0.1
				L229.3,49.3C229.3,49.2,229.3,49.2,229.3,49.3z"/>
			<path fill="#678966" d="M231.9,49.5C231.9,49.5,231.9,49.5,231.9,49.5L231.9,49.5C231.9,49.5,231.9,49.5,231.9,49.5z"/>
			<path fill="#678966" d="M231.9,49.5C231.9,49.5,231.9,49.5,231.9,49.5c0,0.1,0,0.1,0,0.2c0,0,0,0,0,0l0.6,0c0-0.1,0-0.1,0-0.2
				L231.9,49.5C231.9,49.5,231.9,49.5,231.9,49.5z"/>
			<path fill="#678966" d="M229.3,49.4C229.3,49.4,229.3,49.4,229.3,49.4l2.6,0.2c0,0,0,0,0,0c0,0,0,0,0,0L229.3,49.4z"/>
			<path fill="#678966" d="M229.3,49.6l2.6,0.1c0,0,0-0.1,0-0.1l-2.6-0.1C229.3,49.5,229.3,49.5,229.3,49.6z"/>
			
				<rect x="229.3" y="49.6" transform="matrix(-0.999 -4.513914e-02 4.513914e-02 -0.999 458.6886 109.6253)" fill="#678966" width="2.6" height="0"/>
			<path fill="#648764" d="M231.9,49.7C231.9,49.7,231.9,49.8,231.9,49.7c0,0.1,0,0.1,0,0.1c0,0,0,0,0,0c0,0,0,0,0,0.1l0.6,0
				c0,0,0,0,0,0c0,0,0,0,0,0c0,0,0-0.1,0-0.1L231.9,49.7z"/>
			<path fill="#648764" d="M231.9,49.8C231.9,49.8,231.9,49.8,231.9,49.8C231.9,49.8,231.9,49.8,231.9,49.8z"/>
			<path fill="#648764" d="M229.3,49.7l2.6,0.1c0,0,0,0,0,0c0,0,0,0,0,0c0,0,0-0.1,0-0.1l-2.6-0.1C229.3,49.6,229.3,49.7,229.3,49.7
				z"/>
			<path fill="#648764" d="M229.3,49.7C229.2,49.7,229.2,49.7,229.3,49.7C229.2,49.7,229.2,49.8,229.3,49.7l2.6,0.2c0,0,0,0,0-0.1
				L229.3,49.7C229.3,49.7,229.3,49.7,229.3,49.7z"/>
			<path fill="#628462" d="M231.9,49.9C231.9,49.9,231.9,49.9,231.9,49.9c0,0.1,0,0.1,0,0.2l0.6,0c0-0.1,0-0.1,0-0.2L231.9,49.9z"/>
			<path fill="#628462" d="M229.2,49.8l2.6,0.1c0,0,0,0,0-0.1L229.2,49.8C229.2,49.8,229.2,49.8,229.2,49.8z"/>
			<path fill="#628462" d="M229.2,49.9l2.6,0.1c0,0,0-0.1,0-0.1l-2.6-0.1C229.2,49.9,229.2,49.9,229.2,49.9z"/>
			<path fill="#608160" d="M231.8,50.1C231.8,50.1,231.8,50.1,231.8,50.1C231.8,50.1,231.8,50.1,231.8,50.1
				C231.8,50.1,231.8,50.1,231.8,50.1c0,0.1,0,0.1,0,0.1c0,0,0,0,0,0l0.7,0c0-0.1,0-0.1,0-0.2L231.8,50.1z"/>
			<path fill="#608160" d="M231.8,50.1C231.8,50.1,231.8,50.1,231.8,50.1C231.8,50.1,231.8,50.1,231.8,50.1z"/>
			
				<rect x="229.2" y="50" transform="matrix(-0.999 -4.493598e-02 4.493598e-02 -0.999 458.5909 110.2981)" fill="#608160" width="2.6" height="0"/>
			<path fill="#608160" d="M229.2,50l2.6,0.1c0,0,0,0,0,0c0,0,0,0,0,0c0,0,0,0,0,0l-2.6-0.1C229.2,50,229.2,50,229.2,50z"/>
			<path fill="#608160" d="M229.2,50.1l2.6,0.1c0,0,0,0,0,0L229.2,50.1C229.2,50.1,229.2,50.1,229.2,50.1z"/>
			<path fill="#5E7F5E" d="M231.8,50.2C231.8,50.2,231.8,50.2,231.8,50.2c0,0.1,0,0.1-0.1,0.2l0.7,0c0,0,0,0,0-0.1c0,0,0,0,0,0
				c0,0,0,0,0-0.1L231.8,50.2z"/>
			<path fill="#5E7F5E" d="M229.2,50.2l2.6,0.1c0,0,0,0,0-0.1L229.2,50.2C229.2,50.1,229.2,50.1,229.2,50.2z"/>
			<path fill="#5E7F5E" d="M229.2,50.2C229.2,50.2,229.2,50.2,229.2,50.2C229.2,50.2,229.2,50.2,229.2,50.2l2.6,0.2c0,0,0-0.1,0-0.1
				L229.2,50.2C229.2,50.2,229.2,50.2,229.2,50.2z"/>
			<path fill="#5B7C5C" d="M231.7,50.4C231.7,50.4,231.7,50.4,231.7,50.4C231.7,50.4,231.7,50.4,231.7,50.4
				C231.7,50.4,231.7,50.4,231.7,50.4l-0.1,0.1l0.7,0c0,0,0-0.1,0.1-0.1L231.7,50.4z"/>
			
				<rect x="229.1" y="50.3" transform="matrix(-0.999 -4.540756e-02 4.540756e-02 -0.999 458.3625 111.0379)" fill="#5B7C5C" width="2.6" height="0"/>
			<path fill="#5B7C5C" d="M229.1,50.4l2.6,0.1l0-0.1L229.1,50.4C229.1,50.3,229.1,50.4,229.1,50.4z"/>
			
				<rect x="229.1" y="50.3" transform="matrix(-0.999 -4.465874e-02 4.465874e-02 -0.999 458.412 110.8574)" fill="#5B7C5C" width="2.6" height="0"/>
			<path fill="#5B7C5C" d="M229.1,50.3l2.6,0.1c0,0,0,0,0,0L229.1,50.3C229.1,50.3,229.1,50.3,229.1,50.3z"/>
			<path fill="#59795A" d="M231.6,50.7l0.7,0c0,0,0-0.1,0.1-0.1l-0.7,0L231.6,50.7z"/>
			<path fill="#59795A" d="M229,50.5l2.6,0.1l0.1-0.1l-2.6-0.1C229.1,50.4,229.1,50.5,229,50.5z"/>
			<path fill="#577758" d="M231.6,50.7l0.7,0c0,0,0,0,0-0.1L231.6,50.7L231.6,50.7z"/>
			<path fill="#577758" d="M229,50.6l2.6,0.1l0-0.1L229,50.6C229,50.6,229,50.6,229,50.6z"/>
			<path fill="#628462" d="M209,92.5c0,0,0-0.1,0.1-0.1c0,0,0,0,0-0.1C209.1,92.5,209,92.5,209,92.5L209,92.5
				C209,92.6,209,92.6,209,92.5z"/>
			<path fill="#628462" d="M208.7,93.8C208.7,93.8,208.7,93.8,208.7,93.8C208.8,93.8,208.8,93.8,208.7,93.8
				C208.7,93.8,208.7,93.8,208.7,93.8z"/>
			<path fill="#628462" d="M208.3,94C208.3,94,208.3,94,208.3,94c0.1,0,0.1,0,0.1,0C208.4,94,208.3,94,208.3,94z"/>
			<path fill="#628462" d="M202.5,34.9C202.5,34.9,202.5,34.9,202.5,34.9C202.5,34.9,202.5,34.9,202.5,34.9z"/>
			<path fill="#628462" d="M228.4,48.5c0,0,0,0.1,0,0.1C228.4,48.6,228.4,48.6,228.4,48.5C228.4,48.5,228.4,48.5,228.4,48.5z"/>
			<path fill="#628462" d="M207.3,93.3C207.3,93.3,207.3,93.3,207.3,93.3C207.3,93.3,207.3,93.3,207.3,93.3z"/>
			<path fill="#628462" d="M228.6,49.4C228.6,49.4,228.6,49.4,228.6,49.4c0,0.1,0,0.2,0,0.2c0,0,0-0.1,0-0.1
				C228.6,49.5,228.6,49.4,228.6,49.4z"/>
			<path fill="#628462" d="M228.6,49.1c0,0.1,0,0.1,0,0.2C228.6,49.3,228.6,49.2,228.6,49.1C228.6,49.2,228.6,49.2,228.6,49.1z"/>
			<path fill="#628462" d="M228.5,48.9c0,0,0,0.1,0,0.1C228.6,49,228.6,48.9,228.5,48.9C228.6,48.9,228.5,48.9,228.5,48.9z"/>
			<path fill="#628462" d="M228.1,48.1C228,48,228,48,228.1,48.1c0,0,0.1,0.1,0.1,0.1c0,0,0,0,0,0C228.1,48.1,228.1,48.1,228.1,48.1
				z"/>
			<path fill="#628462" d="M228.2,48.2c0,0,0.1,0.1,0.1,0.2C228.3,48.4,228.3,48.3,228.2,48.2C228.3,48.3,228.2,48.3,228.2,48.2z"/>
			<path fill="#628462" d="M227.9,47.9C227.8,47.9,227.8,47.9,227.9,47.9c-0.1-0.1-0.1-0.1-0.1-0.1c0.1,0,0.2,0.1,0.2,0.2
				C228,48,228,48,227.9,47.9C227.9,47.9,227.9,47.9,227.9,47.9z"/>
			<polygon fill="#628462" points="229.1,50.3 228.5,50.2 229.1,50.3 			"/>
			<path fill="#628462" d="M208,94.1c0.1,0,0.2,0,0.3-0.1c0,0,0.1,0,0.1,0c0,0,0,0,0,0c0.1,0,0.2-0.1,0.3-0.2c0,0,0,0,0,0
				c0,0,0,0,0,0c0.1-0.1,0.2-0.1,0.3-0.2l0.1-0.1c-0.5,0-1,0-1.5-0.1c0,0,0,0,0,0c-0.1,0-0.1,0-0.2,0c0,0,0,0-0.1,0c0,0,0,0,0,0
				c0,0,0,0,0,0c0,0,0,0,0,0c-0.1,0-0.2-0.1-0.3-0.1l-23.4-13.3c0,0,0,0,0,0c0,0-0.1,0-0.1-0.1c0,0-0.1,0-0.1-0.1c0,0,0,0,0,0
				c0,0,0,0-0.1-0.1c0,0-0.1-0.1-0.1-0.1c0,0,0,0,0,0c0,0,0,0,0,0c0,0,0,0,0-0.1c0,0,0-0.1-0.1-0.1c0,0,0-0.1-0.1-0.1c0,0,0,0,0,0
				c0,0,0,0,0-0.1c0-0.1-0.1-0.2-0.1-0.3c0,0,0,0,0-0.1c0,0,0,0,0-0.1c0,0,0-0.1,0-0.1c0,0,0-0.1,0-0.1s0-0.1,0-0.1c0,0,0,0,0,0
				c0,0,0,0,0,0c0,0,0-0.1,0-0.1c0,0,0-0.1,0-0.1c0,0,0,0,0,0c0,0,0,0,0,0c0,0,0-0.1,0-0.1c0,0,0-0.1,0-0.1c0,0,0,0,0,0c0,0,0,0,0,0
				c0,0,0,0,0-0.1c0,0,0-0.1,0-0.1c0,0,0-0.1,0-0.1c0,0,0,0,0,0l19.3-42.1c0.1-0.1,0.2-0.3,0.2-0.4c0,0,0,0,0,0c0,0,0,0,0,0
				c0,0,0,0,0,0c0.1-0.1,0.2-0.2,0.3-0.3c0,0,0,0,0,0c0.1-0.1,0.2-0.1,0.4-0.2c0,0,0,0,0,0c0,0,0.1,0,0.1,0c0,0,0,0,0,0
				c0.1,0,0.2,0,0.3,0c0,0,0,0,0.1,0c0.6,0,1.3,0.1,1.9,0.1l-0.9-0.5c-0.1-0.1-0.3-0.1-0.4-0.2c-0.1,0-0.1,0-0.2,0
				c-0.1,0-0.2,0-0.3,0c-0.9-0.1-1.7,0.5-2.2,1.4l-19.3,42.1c-0.5,1.1-0.2,2.4,0.6,3.2c0.1,0.1,0.2,0.2,0.3,0.2l23.4,13.3
				C207.1,94.1,207.5,94.1,208,94.1C207.9,94.1,207.9,94.1,208,94.1C208,94.1,208,94.1,208,94.1z"/>
			<path fill="#628462" d="M228.5,50.1c0,0,0-0.1,0-0.1c0,0,0,0,0,0c0,0.1-0.1,0.2-0.1,0.3c0,0,0,0,0,0
				C228.5,50.2,228.5,50.2,228.5,50.1z"/>
			<path fill="#628462" d="M228.6,49.8c0,0,0-0.1,0-0.1c0,0,0,0,0,0c0,0.1,0,0.2-0.1,0.3c0,0,0,0,0,0
				C228.6,49.9,228.6,49.8,228.6,49.8z"/>
			<path fill="#628462" d="M207.9,94.1C207.9,94.1,208,94.1,207.9,94.1C208,94.1,208,94.1,207.9,94.1C208,94.1,208,94.1,207.9,94.1z
				"/>
			<path fill="#628462" d="M203.2,34.4C203.3,34.4,203.3,34.4,203.2,34.4C203.3,34.4,203.3,34.4,203.2,34.4z"/>
			<path fill="#628462" d="M204.3,33.7C204.3,33.7,204.2,33.7,204.3,33.7c0.1,0,0.3,0.1,0.4,0.2C204.6,33.8,204.4,33.8,204.3,33.7
				C204.3,33.7,204.3,33.7,204.3,33.7z"/>
			<path fill="#628462" d="M203.8,33.6C203.8,33.6,203.8,33.6,203.8,33.6C203.8,33.6,203.8,33.6,203.8,33.6c0.1,0,0.2,0,0.3,0
				C204,33.7,203.9,33.6,203.8,33.6z"/>
			<path fill="#628462" d="M202.8,34.6C202.8,34.6,202.8,34.6,202.8,34.6C202.8,34.6,202.8,34.6,202.8,34.6z"/>
			<path fill="#628462" d="M205.6,34.4c-0.6,0-1.3-0.1-1.9-0.1C204.4,34.4,205,34.4,205.6,34.4L205.6,34.4z"/>
			<path fill="#628462" d="M203.8,34.4C203.8,34.4,203.7,34.4,203.8,34.4C203.7,34.4,203.7,34.4,203.8,34.4
				C203.8,34.4,203.8,34.4,203.8,34.4z"/>
			<path fill="#628462" d="M204.2,34.5C204.2,34.5,204.2,34.5,204.2,34.5c-0.1,0-0.1,0-0.1-0.1c0.1,0,0.2,0.1,0.3,0.1
				C204.4,34.5,204.4,34.5,204.2,34.5C204.3,34.5,204.3,34.5,204.2,34.5z"/>
			<path fill="#628462" d="M204.1,34.4c0,0-0.1,0-0.1,0c0,0-0.1,0-0.1,0c0,0,0,0-0.1,0C203.8,34.4,203.9,34.4,204.1,34.4
				C204,34.4,204,34.4,204.1,34.4C204.1,34.4,204.1,34.4,204.1,34.4z"/>
			<path fill="#628462" d="M203.7,34.4C203.7,34.4,203.7,34.4,203.7,34.4C203.7,34.4,203.7,34.4,203.7,34.4
				C203.7,34.4,203.7,34.4,203.7,34.4z"/>
			<path fill="#628462" d="M204.1,34.4C204,34.4,204,34.4,204.1,34.4C204,34.4,204,34.4,204.1,34.4
				C204.1,34.4,204.1,34.4,204.1,34.4C204.1,34.4,204.1,34.4,204.1,34.4z"/>
			<path fill="#628462" d="M203.3,34.4C203.3,34.4,203.3,34.4,203.3,34.4C203.2,34.4,203.2,34.4,203.3,34.4
				C203.3,34.4,203.3,34.4,203.3,34.4C203.3,34.4,203.3,34.4,203.3,34.4z"/>
			<path fill="#628462" d="M204.1,34.4C204.1,34.4,204.1,34.4,204.1,34.4C204.1,34.4,204.1,34.4,204.1,34.4
				C204.1,34.4,204.1,34.4,204.1,34.4z"/>
			<path fill="#628462" d="M202.5,34.9C202.5,34.9,202.5,34.9,202.5,34.9C202.5,34.9,202.5,35,202.5,34.9
				C202.5,34.9,202.5,34.9,202.5,34.9C202.5,34.9,202.5,34.9,202.5,34.9z"/>
			<path fill="#628462" d="M203.8,34.4C203.8,34.4,203.8,34.4,203.8,34.4l1.9,0.1l0,0C205,34.4,204.4,34.4,203.8,34.4
				C203.7,34.4,203.8,34.4,203.8,34.4C203.8,34.4,203.8,34.4,203.8,34.4z"/>
			<path fill="#628462" d="M205.7,34.5L205.7,34.5l-1.8-0.1c0,0,0.1,0,0.1,0L205.7,34.5z"/>
			<path fill="#628462" d="M205.7,34.5l-1.7-0.1c0,0,0.1,0,0.1,0L205.7,34.5L205.7,34.5z"/>
			<path fill="#628462" d="M205.7,34.5l-1.6-0.1c0,0,0,0,0,0c0,0,0,0,0,0c0,0,0,0,0,0c0,0,0,0,0,0c0,0,0,0,0.1,0L205.7,34.5
				L205.7,34.5z"/>
			<path fill="#628462" d="M205.8,34.5l-1.6-0.1c0,0,0.1,0,0.1,0L205.8,34.5L205.8,34.5z"/>
			<path fill="#628462" d="M204.2,34.5C204.3,34.5,204.3,34.5,204.2,34.5l1.6,0.1l-0.1,0L204.2,34.5z"/>
			<path fill="#628462" d="M205.9,34.6l-1.6-0.1c0,0,0,0,0.1,0L205.9,34.6L205.9,34.6z"/>
			<path fill="#628462" d="M203.8,33.6C203.8,33.6,203.8,33.6,203.8,33.6C203.8,33.6,203.8,33.6,203.8,33.6z"/>
			<path fill="#628462" d="M204.3,33.7C204.3,33.7,204.3,33.7,204.3,33.7C204.3,33.7,204.3,33.7,204.3,33.7z"/>
			<path fill="#628462" d="M208.4,93.1c-0.1,0-0.1,0.1-0.2,0.1h0C208.3,93.2,208.4,93.2,208.4,93.1z"/>
			<path fill="#628462" d="M209,92.6L209,92.6C209,92.6,209,92.7,209,92.6C209,92.7,209,92.7,209,92.6C209,92.6,209,92.6,209,92.6z"
				/>
			<path fill="#628462" d="M208.5,93.1C208.5,93.1,208.5,93.1,208.5,93.1C208.5,93.1,208.5,93.1,208.5,93.1z"/>
			<path fill="#628462" d="M208.5,93.1c0,0,0.1-0.1,0.1-0.1c0,0,0,0,0,0C208.7,93,208.6,93,208.5,93.1z"/>
			<path fill="#628462" d="M208.9,92.8C208.9,92.8,208.9,92.8,208.9,92.8C208.9,92.8,208.8,92.8,208.9,92.8
				C208.8,92.8,208.8,92.8,208.9,92.8C208.8,92.8,208.8,92.8,208.9,92.8z"/>
			<path fill="#628462" d="M208.8,92.9C208.8,92.8,208.8,92.8,208.8,92.9C208.8,92.8,208.8,92.8,208.8,92.9
				C208.8,92.9,208.8,92.9,208.8,92.9C208.8,92.9,208.8,92.9,208.8,92.9z"/>
			<path fill="#628462" d="M208.9,92.8C208.9,92.7,208.9,92.7,208.9,92.8C208.9,92.7,208.9,92.7,208.9,92.8
				C208.9,92.8,208.9,92.8,208.9,92.8C208.9,92.8,208.9,92.8,208.9,92.8z"/>
			<path fill="#628462" d="M208.3,93.2C208.3,93.2,208.2,93.2,208.3,93.2C208.2,93.2,208.3,93.2,208.3,93.2L208.3,93.2z"/>
			<path fill="#628462" d="M208.2,93.3C208.2,93.3,208.1,93.3,208.2,93.3L208.2,93.3C208.1,93.3,208.2,93.3,208.2,93.3z"/>
			<path fill="#628462" d="M208.1,93.3C208.1,93.3,208.1,93.3,208.1,93.3C208.1,93.3,208.1,93.3,208.1,93.3
				C208.1,93.3,208.1,93.3,208.1,93.3L208.1,93.3z"/>
			<path fill="#628462" d="M208,93.3C208,93.3,208.1,93.3,208,93.3C208.1,93.3,208.1,93.3,208,93.3C208.1,93.3,208,93.3,208,93.3
				L208,93.3C208,93.3,208,93.3,208,93.3z"/>
			<polygon fill="#628462" points="208,93.3 208,93.3 208,93.3 			"/>
			<path fill="#628462" d="M207.3,93.3C207.3,93.3,207.3,93.3,207.3,93.3C207.3,93.3,207.3,93.3,207.3,93.3
				C207.3,93.3,207.3,93.3,207.3,93.3L207.3,93.3C207.3,93.3,207.3,93.3,207.3,93.3z"/>
			<polygon fill="#628462" points="208,93.3 208,93.3 208,93.3 			"/>
			<path fill="#628462" d="M207.9,93.3C208,93.3,208,93.3,207.9,93.3L207.9,93.3C208,93.3,208,93.3,207.9,93.3
				C208,93.3,207.9,93.3,207.9,93.3L207.9,93.3z"/>
			<path fill="#628462" d="M207.8,93.4L207.8,93.4C207.8,93.4,207.8,93.4,207.8,93.4C207.8,93.4,207.8,93.4,207.8,93.4z"/>
			<path fill="#628462" d="M207.9,93.3C207.9,93.3,207.9,93.4,207.9,93.3C207.9,93.4,207.9,93.3,207.9,93.3L207.9,93.3z"/>
			<path fill="#628462" d="M207.3,93.3C207.3,93.3,207.3,93.3,207.3,93.3C207.3,93.3,207.3,93.3,207.3,93.3L207.3,93.3z"/>
			<path fill="#628462" d="M207.6,93.4L207.6,93.4C207.6,93.4,207.7,93.4,207.6,93.4C207.6,93.4,207.6,93.4,207.6,93.4z"/>
			<path fill="#628462" d="M207.8,93.4c0,0-0.1,0-0.1,0c0,0,0,0,0,0l0,0C207.7,93.4,207.7,93.4,207.8,93.4L207.8,93.4z"/>
			<path fill="#628462" d="M207.6,93.4C207.6,93.4,207.6,93.4,207.6,93.4C207.6,93.4,207.6,93.4,207.6,93.4L207.6,93.4z"/>
			<path fill="#628462" d="M207.6,93.4C207.6,93.4,207.6,93.4,207.6,93.4C207.6,93.4,207.6,93.4,207.6,93.4
				C207.6,93.4,207.6,93.4,207.6,93.4L207.6,93.4z"/>
			<path fill="#628462" d="M209.1,92.4l0.7,0l0-0.1L209.1,92.4C209.1,92.4,209.1,92.4,209.1,92.4z"/>
			<path fill="#628462" d="M209.1,92.4c0,0,0,0.1-0.1,0.1l0.7,0l0-0.1l0,0L209.1,92.4z"/>
			<path fill="#628462" d="M209.1,92.7l0.6,0l0.1-0.1l-0.7,0C209,92.6,209,92.6,209.1,92.7L209.1,92.7z"/>
			<path fill="#628462" d="M209,92.6L209,92.6L209,92.6C209,92.6,209,92.6,209,92.6z"/>
			<polygon fill="#628462" points="209.3,92.8 209.6,92.8 209.7,92.7 209.1,92.7 			"/>
			<path fill="#628462" d="M209.1,92.7L209.1,92.7c-0.1,0-0.1,0-0.1,0c0,0,0,0,0,0c0,0,0,0,0,0.1l0.4,0L209.1,92.7z"/>
			<polygon fill="#628462" points="209.5,92.9 209.5,92.9 209.6,92.8 209.3,92.8 			"/>
			<path fill="#628462" d="M209.3,92.8l-0.4,0c0,0,0,0,0,0c0,0,0,0,0,0c0,0,0,0,0,0l0.7,0L209.3,92.8z"/>
			<polygon fill="#628462" points="209.5,92.9 209.5,92.9 209.5,92.9 			"/>
			<path fill="#628462" d="M209.5,92.9l-0.7,0c0,0,0,0-0.1,0.1c0,0,0,0,0,0c0,0,0,0,0,0l0.8,0L209.5,92.9L209.5,92.9z"/>
			<path fill="#628462" d="M208.3,93.2l1,0l0.2-0.3l-0.8,0c0,0-0.1,0.1-0.1,0.1c0,0,0,0,0,0c0,0,0,0,0,0c0,0,0,0,0,0
				C208.4,93.2,208.3,93.2,208.3,93.2z"/>
			<path fill="#628462" d="M209.2,93.3L209.2,93.3l-1-0.1c0,0,0,0,0,0c0,0,0,0,0,0L209.2,93.3z"/>
			<path fill="#628462" d="M209.2,93.3L209.2,93.3l-1-0.1c0,0,0,0,0,0c0,0,0,0,0,0L209.2,93.3z"/>
			<path fill="#628462" d="M209.2,93.3l-1.1,0c0,0,0,0,0,0c0,0-0.1,0-0.1,0c0,0,0,0,0,0L209.2,93.3L209.2,93.3z"/>
			<path fill="#628462" d="M209.2,93.4l-1.2-0.1c0,0-0.1,0-0.1,0L209.2,93.4L209.2,93.4z"/>
			<path fill="#628462" d="M207.9,93.3C207.9,93.3,207.9,93.4,207.9,93.3c-0.1,0-0.1,0-0.1,0c0,0,0,0,0,0l1.4,0.1l0,0L207.9,93.3z"
				/>
			<path fill="#628462" d="M207.8,93.4c0,0-0.1,0-0.1,0l1.5,0.1l0,0L207.8,93.4z"/>
			<path fill="#628462" d="M207.7,93.4C207.6,93.4,207.6,93.4,207.7,93.4c0.5,0,1,0,1.5,0.1l0,0L207.7,93.4z"/>
			<path fill="#628462" d="M208.8,93.8C208.8,93.8,208.8,93.8,208.8,93.8C208.8,93.8,208.8,93.8,208.8,93.8
				C208.8,93.8,208.8,93.8,208.8,93.8z"/>
			<path fill="#628462" d="M207.9,94.1C207.9,94.1,207.9,94.1,207.9,94.1C207.9,94.1,207.9,94.1,207.9,94.1
				C208,94.1,207.9,94.1,207.9,94.1z"/>
			<path fill="#628462" d="M208.4,94C208.4,94,208.4,94,208.4,94C208.4,93.9,208.4,93.9,208.4,94C208.4,94,208.4,94,208.4,94z"/>
			<path fill="#628462" d="M206,34.9c0,0-0.1,0.1-0.1,0.1c0,0,0,0,0,0c0.1-0.1,0.2-0.2,0.3-0.3C206.1,34.8,206,34.8,206,34.9z"/>
			<path fill="#628462" d="M205.7,35.1c0,0-0.1,0.1-0.1,0.1c0,0,0,0,0,0l0,0C205.7,35.2,205.7,35.1,205.7,35.1
				C205.8,35.1,205.7,35.1,205.7,35.1z"/>
			<path fill="#628462" d="M205.8,35.1C205.8,35.1,205.8,35.1,205.8,35.1c-0.1,0.1-0.1,0.1-0.1,0.2l22.1,12.6l1,0
				c0,0-0.1-0.1-0.1-0.1c0,0,0,0,0-0.1c-0.1-0.1-0.2-0.2-0.3-0.3c-0.1-0.1-0.2-0.2-0.3-0.2l-21.9-12.4c0,0,0,0-0.1,0
				C206,34.9,205.9,34.9,205.8,35.1z"/>
			<path fill="#628462" d="M206.1,34.8C206.1,34.8,206.1,34.8,206.1,34.8l-0.2-0.2l-1.6-0.1l0.5,0.3l1.1,0
				C206,34.8,206.1,34.8,206.1,34.8z"/>
			<path fill="#628462" d="M206,34.9l-1.1,0l0.3,0.1l0.7,0C205.9,35,205.9,34.9,206,34.9z"/>
			<path fill="#628462" d="M205.8,35.1C205.8,35.1,205.8,35.1,205.8,35.1C205.8,35,205.8,35,205.8,35.1l-0.6-0.1l0.2,0.1L205.8,35.1
				C205.7,35.1,205.8,35.1,205.8,35.1z"/>
			<path fill="#628462" d="M205.6,35.2c0,0,0-0.1,0.1-0.1l-0.3,0L205.6,35.2L205.6,35.2z"/>
			<path fill="#628462" d="M205.6,35.2L205.6,35.2C205.6,35.2,205.6,35.2,205.6,35.2L205.6,35.2z"/>
			<path fill="#628462" d="M228.8,47.9C228.8,47.9,228.8,47.9,228.8,47.9l-1.1-0.1c0,0,0,0,0,0L228.8,47.9z"/>
			<path fill="#628462" d="M227.9,47.9l1,0c0,0,0,0,0,0L227.9,47.9C227.8,47.9,227.8,47.9,227.9,47.9z"/>
			<path fill="#628462" d="M227.9,47.9C227.9,47.9,227.9,47.9,227.9,47.9l1,0.1c0,0,0,0,0,0c0,0,0,0,0,0L227.9,47.9z"/>
			<path fill="#628462" d="M228,48C228,48,228,48,228,48l0.9,0.1c0,0,0,0,0,0L228,48z"/>
			<path fill="#628462" d="M228.4,50.3l-19.3,42.1l0.7,0L229,50.6c0-0.1,0.1-0.2,0.1-0.3L228.4,50.3z"/>
			<path fill="#628462" d="M228,48C228,48,228,48,228,48l1,0.1c0,0,0,0,0-0.1L228,48z"/>
			<path fill="#628462" d="M228.1,48.1c0,0,0.1,0.1,0.1,0.1l0.8,0c0,0,0-0.1,0-0.1c0,0,0,0,0,0L228.1,48.1z"/>
			<path fill="#628462" d="M228.2,48.2C228.2,48.2,228.2,48.2,228.2,48.2C228.2,48.2,228.2,48.2,228.2,48.2c0.1,0.1,0.1,0.1,0.1,0.1
				l0.8,0c0,0,0,0,0-0.1c0,0,0,0,0-0.1L228.2,48.2z"/>
			<path fill="#628462" d="M228.3,48.3C228.3,48.3,228.3,48.4,228.3,48.3c0.1,0.1,0.1,0.2,0.1,0.2c0,0,0,0,0,0l0.7,0
				c0-0.1-0.1-0.2-0.1-0.2L228.3,48.3z"/>
			<path fill="#628462" d="M228.4,48.5C228.4,48.6,228.4,48.6,228.4,48.5c0.1,0.1,0.1,0.2,0.1,0.3c0,0,0,0,0,0.1l0.7,0
				c0-0.1,0-0.1,0-0.2c0-0.1,0-0.1,0-0.2c0,0,0,0,0,0L228.4,48.5z"/>
			<path fill="#628462" d="M228.6,48.9C228.6,48.9,228.6,49,228.6,48.9c0,0.1,0,0.1,0,0.2c0,0,0,0.1,0,0.1l0.6,0c0-0.1,0-0.2,0-0.3
				c0,0,0,0,0,0L228.6,48.9z"/>
			<path fill="#628462" d="M228.6,49.2C228.6,49.2,228.6,49.3,228.6,49.2c0,0.1,0,0.1,0,0.2c0,0,0,0,0,0l0.6,0c0,0,0-0.1,0-0.1
				c0,0,0,0,0-0.1c0,0,0,0,0,0L228.6,49.2z"/>
			<path fill="#628462" d="M229.3,49.6c0,0,0-0.1,0-0.1l-0.6,0c0,0,0,0.1,0,0.1L229.3,49.6z"/>
			<path fill="#628462" d="M229.3,49.7c0,0,0-0.1,0-0.1l-0.6,0c0,0,0,0.1,0,0.1c0,0,0,0,0,0c0,0,0,0,0,0L229.3,49.7z"/>
			<path fill="#628462" d="M228.6,49.7c0,0,0,0.1,0,0.1l0.6,0c0,0,0-0.1,0-0.1c0,0,0,0,0,0c0,0,0,0,0,0L228.6,49.7z"/>
			<path fill="#628462" d="M229.2,49.9c0,0,0-0.1,0-0.1l-0.6,0c0,0,0,0.1,0,0.1L229.2,49.9z"/>
			<path fill="#628462" d="M229.2,50c0,0,0-0.1,0-0.1l-0.6,0c0,0,0,0,0,0c0,0,0,0,0,0c0,0,0,0,0,0L229.2,50z"/>
			<path fill="#628462" d="M228.5,50.1l0.7,0c0,0,0-0.1,0-0.1l-0.7,0C228.5,50.1,228.5,50.1,228.5,50.1z"/>
			<path fill="#628462" d="M228.5,50.1c0,0,0,0.1,0,0.1l0.7,0c0,0,0-0.1,0-0.1c0,0,0,0,0,0c0,0,0,0,0,0L228.5,50.1z"/>
			<path fill="#628462" d="M229.1,50.3l-0.7,0c0,0,0,0,0,0L229.1,50.3C229.1,50.3,229.1,50.3,229.1,50.3z"/>
			<polygon fill="#49674B" points="209.1,93.6 209.1,93.6 209.1,93.6 			"/>
			<path fill="#49674B" d="M209.2,93.5C209.2,93.5,209.2,93.4,209.2,93.5C209.2,93.4,209.2,93.4,209.2,93.5
				C209.2,93.4,209.2,93.5,209.2,93.5z"/>
			<path fill="#49674B" d="M209.1,93.6C209.1,93.6,209.1,93.6,209.1,93.6C209.1,93.5,209.1,93.5,209.1,93.6
				C209.1,93.5,209.1,93.5,209.1,93.6L209.1,93.6L209.1,93.6z"/>
			<path fill="#49674B" d="M209.1,93.5C209.1,93.5,209.1,93.5,209.1,93.5C209.1,93.5,209.1,93.5,209.1,93.5
				C209.1,93.5,209.1,93.5,209.1,93.5z"/>
			<path fill="#49674B" d="M209.7,92.8C209.7,92.8,209.7,92.7,209.7,92.8C209.7,92.7,209.7,92.8,209.7,92.8L209.7,92.8z"/>
			<path fill="#49674B" d="M209.7,92.8C209.7,92.8,209.7,92.7,209.7,92.8C209.7,92.7,209.7,92.8,209.7,92.8L209.7,92.8z"/>
			<path fill="#49674B" d="M209.3,93.3C209.3,93.3,209.3,93.3,209.3,93.3L209.3,93.3C209.3,93.3,209.3,93.3,209.3,93.3
				C209.3,93.3,209.3,93.3,209.3,93.3L209.3,93.3z"/>
			<polygon fill="#49674B" points="209.3,93.3 209.3,93.3 209.3,93.3 			"/>
			<path fill="#49674B" d="M209.3,93.3C209.3,93.3,209.3,93.3,209.3,93.3L209.3,93.3C209.3,93.3,209.3,93.3,209.3,93.3z"/>
			<path fill="#49674B" d="M209.3,93.3C209.3,93.3,209.3,93.3,209.3,93.3L209.3,93.3C209.3,93.3,209.3,93.3,209.3,93.3
				C209.3,93.3,209.3,93.3,209.3,93.3L209.3,93.3z"/>
			<path fill="#49674B" d="M209.2,93.4C209.2,93.4,209.2,93.4,209.2,93.4L209.2,93.4C209.2,93.4,209.2,93.4,209.2,93.4L209.2,93.4z"
				/>
			<path fill="#49674B" d="M209.2,93.4C209.2,93.4,209.2,93.4,209.2,93.4L209.2,93.4C209.2,93.4,209.2,93.4,209.2,93.4L209.2,93.4z"
				/>
			<path fill="#49674B" d="M209.2,93.4L209.2,93.4C209.2,93.4,209.2,93.4,209.2,93.4L209.2,93.4C209.2,93.4,209.2,93.4,209.2,93.4z"
				/>
			<path fill="#49674B" d="M209.2,93.4C209.2,93.4,209.2,93.4,209.2,93.4L209.2,93.4C209.2,93.4,209.2,93.4,209.2,93.4L209.2,93.4z"
				/>
			<path fill="#49674B" d="M209.2,93.4L209.2,93.4C209.2,93.4,209.2,93.4,209.2,93.4L209.2,93.4C209.2,93.4,209.2,93.4,209.2,93.4z"
				/>
			<polygon fill="#49674B" points="209.2,93.4 209.2,93.4 209.2,93.4 			"/>
			<polygon fill="#49674B" points="209.2,93.4 209.2,93.4 209.2,93.4 209.2,93.4 209.2,93.4 			"/>
			<path fill="#49674B" d="M209.2,93.4C209.2,93.4,209.2,93.4,209.2,93.4L209.2,93.4C209.1,93.5,209.1,93.5,209.2,93.4
				C209.1,93.5,209.2,93.5,209.2,93.4z"/>
			<path fill="#49674B" d="M209.2,93.4C209.2,93.5,209.1,93.5,209.2,93.4C209.1,93.5,209.1,93.5,209.2,93.4
				C209.1,93.5,209.1,93.5,209.2,93.4C209.2,93.5,209.2,93.4,209.2,93.4L209.2,93.4z"/>
			<polygon fill="#49674B" points="209.8,92.6 209.8,92.5 209.7,92.6 			"/>
			<polygon fill="#49674B" points="209.7,92.7 209.7,92.7 209.8,92.6 209.7,92.6 			"/>
			<path fill="#49674B" d="M209.2,93.4L209.2,93.4L209.2,93.4C209.2,93.4,209.2,93.4,209.2,93.4L209.2,93.4z"/>
			<path fill="#49674B" d="M209.2,93.4L209.2,93.4L209.2,93.4C209.2,93.4,209.2,93.4,209.2,93.4L209.2,93.4z"/>
			<polygon fill="#49674B" points="209.2,93.4 209.2,93.4 209.2,93.4 			"/>
			<path fill="#49674B" d="M209.2,93.5C209.1,93.5,209.1,93.5,209.2,93.5C209.1,93.5,209.1,93.5,209.2,93.5z"/>
		</g>
	</g>
	<polygon fill="#F3CB50" points="192.3,62.2 204.9,34.5 211.4,38.2 198.8,65.9 	"/>
	<polygon fill="#F3CB50" points="200,66.6 212.6,38.9 219.1,42.6 206.5,70.3 	"/>
	<polygon fill="#F3CB50" points="207.8,71 220.4,43.3 226.9,47 214.3,74.7 	"/>
</g>
</svg>
