<?xml version="1.0" encoding="utf-8"?>
<!-- Generator: Adobe Illustrator 16.0.3, SVG Export Plug-In . SVG Version: 6.00 Build 0)  -->
<!DOCTYPE svg PUBLIC "-//W3C//DTD SVG 1.0//EN" "http://www.w3.org/TR/2001/REC-SVG-20010904/DTD/svg10.dtd">
<svg version="1.0" id="Layer_1" xmlns="http://www.w3.org/2000/svg" xmlns:xlink="http://www.w3.org/1999/xlink" x="0px" y="0px"
	 width="300px" height="291px" viewBox="0 0 300 291" enable-background="new 0 0 300 291" xml:space="preserve">
<g>
	<g>
		<g enable-background="new    ">
			<g>
				<path fill="#E7E2D9" d="M168.8,87l22-52.8c-0.2,0.5,0.1,1.2,1,2c2.1,1.9,6.5,3.9,9.8,4.5l-22,52.8c-3.3-0.5-7.7-2.5-9.8-4.5
					C168.9,88.1,168.6,87.4,168.8,87z"/>
			</g>
			<g>
				<path fill="#E7E2D9" d="M204.9,40.1l-22,52.8c-0.3,0.6-1.4,0.9-3.3,0.6l22-52.8C203.5,40.9,204.7,40.7,204.9,40.1z"/>
			</g>
			<g>
				<path fill="#A59E9D" d="M190.8,34.2c0.3-0.6,1.4-0.9,3.3-0.6c-7.3,17.6-14.7,35.2-22,52.8c0.2-2.7,0.5-4.7,1-7.2
					c-0.5,2.4-0.8,4.5-1,7.2c-0.8-0.1-1.5-0.2-2-0.1c5.2-12.3,10.3-24.7,15.4-37c-5.2,12.3-10.3,24.7-15.4,37l0,0
					c-0.7,0.1-1.1,0.3-1.2,0.7C175.4,71.1,184.2,50,190.8,34.2z"/>
			</g>
			<g>
				<path fill="#E7E2D9" d="M168,86.6l22-52.8c0.3-0.7,1.6-0.9,3.7-0.6l-22,52.8C169.5,85.7,168.3,86,168,86.6z"/>
			</g>
			<g>
				<path fill="#A59E9D" d="M203.9,38.1c0.9,0.8,1.2,1.5,1,2l-22,52.8c0.2-0.5-0.1-1.2-1-2c-1-1-2.7-1.9-4.4-2.8
					c7.3-17.6,14.7-35.2,22-52.8C201.2,36.1,202.8,37.1,203.9,38.1z M193,60.9l-0.1,0.3l-0.1,0.3l-0.1,0.3l-0.1,0.3l-0.1,0.3
					l-0.1,0.4l-0.1,0.4l-0.1,0.4l-0.1,0.4l-0.1,0.4l-0.1,0.4l-0.1,0.3l-0.1,0.3l-0.1,0.3l-0.1,0.3l-0.1,0.3l0.1-0.3l0.1-0.3l0.1-0.3
					l0.1-0.3l0.1-0.3l0.1-0.4l0.1-0.4l0.1-0.4l0.1-0.4l0.1-0.4l0.1-0.4l0.1-0.3l0.1-0.3l0.1-0.3l0.1-0.3L193,60.9 M190.3,68.2
					l0.2-0.5l0.2-0.5l0.2-0.5l0.2-0.6l0.2-0.6l0.2-0.6l0.2-0.6l0.2-0.6l0.2-0.6l0.2-0.6l0.2-0.6l0.2-0.6l0.2-0.6l0.2-0.5l0.2-0.5
					l0.2-0.5l-0.2,0.5l-0.2,0.5l-0.2,0.5l-0.2,0.6l-0.2,0.6l-0.2,0.6l-0.2,0.6l-0.2,0.6l-0.2,0.6l-0.2,0.6l-0.2,0.6l-0.2,0.6
					l-0.2,0.6l-0.2,0.5l-0.2,0.5L190.3,68.2"/>
			</g>
			<g>
				<path fill="#A59E9D" d="M194.1,33.6c1.7,0.3,3.6,0.9,5.4,1.7c-7.3,17.6-14.7,35.2-22,52.8c-1.8-0.8-3.7-1.4-5.4-1.7
					C178.7,70.6,187.5,49.5,194.1,33.6z"/>
			</g>
			<g>
				<path fill="#A59E9D" d="M172,86.4c3.3,0.5,7.7,2.5,9.8,4.5c2.1,1.9,1.1,3.1-2.3,2.5c-3.3-0.5-7.7-2.5-9.8-4.5
					C167.7,87,168.7,85.9,172,86.4z"/>
			</g>
			<g>
				<path fill="#E7E2D9" d="M205.7,40.4l-22,52.8c0.2-0.5-0.1-1.3-1.1-2.2c-2.3-2.1-7.2-4.4-10.9-4.9l22-52.8
					c3.7,0.6,8.6,2.8,10.9,4.9C205.6,39.1,205.9,39.9,205.7,40.4z"/>
			</g>
			<g>
				<path fill="#E7E2D9" d="M171.6,86c3.7,0.6,8.6,2.8,10.9,4.9c2.3,2.1,1.2,3.4-2.5,2.8c-3.7-0.6-8.6-2.8-10.9-5
					C166.8,86.7,167.9,85.4,171.6,86z M179.6,93.4c3.3,0.5,4.3-0.6,2.3-2.5c-2.1-1.9-6.5-3.9-9.8-4.5c-3.3-0.5-4.3,0.6-2.3,2.5
					C171.9,90.9,176.3,92.9,179.6,93.4"/>
			</g>
		</g>
	</g>
	<path fill="#E7E2D9" d="M198.7,39.7c0-0.1-0.1-0.3-0.3-0.5c-0.6-0.5-1.8-1.1-2.6-1.2c-0.5-0.1-0.8,0-0.9,0.1
		c-6,10.2-11.9,20.4-17.9,30.6c0,0,0,0,0.1-0.1c0,0-0.1,0.1-0.1,0.1l-59.1,141.6c0,0,0,0,0-0.1c0,0-0.1,0.1-0.1,0.1
		c-3.1,11.4-6.1,22.8-9.2,34.2c0,0,0,0,0,0c-0.1,0.1,0,0.3,0.3,0.5c0.6,0.5,1.8,1.1,2.7,1.2c0.5,0.1,0.8,0,0.9-0.2c0,0,0,0,0,0
		c6-10.2,11.9-20.4,17.9-30.6c0,0,0-0.1,0-0.1c0,0,0,0,0,0L189.5,74c0-0.1,0-0.2,0-0.2c0,0.1,0,0.1,0,0.2
		C192.6,62.5,195.6,51.1,198.7,39.7z M179.2,68.2c-0.1,0-0.3,0-0.4,0C178.9,68.2,179,68.2,179.2,68.2z M177.2,68.5
		c0,0-0.1,0.1-0.1,0.1C177.2,68.6,177.2,68.5,177.2,68.5z M178.6,68.2c-0.1,0-0.2,0-0.3,0C178.4,68.2,178.5,68.2,178.6,68.2z
		 M178.2,68.2c-0.1,0-0.2,0-0.2,0C178,68.2,178.1,68.2,178.2,68.2z M177.8,68.3c-0.1,0-0.1,0-0.2,0
		C177.7,68.3,177.7,68.3,177.8,68.3z M177.5,68.4c-0.1,0-0.1,0-0.1,0.1C177.4,68.4,177.4,68.4,177.5,68.4z M120,209.8
		c-0.1,0-0.3,0-0.4,0C119.7,209.8,119.9,209.8,120,209.8z M118,210.2C118,210.2,118,210.2,118,210.2C118,210.2,118,210.2,118,210.2z
		 M119.4,209.8c-0.1,0-0.2,0-0.3,0C119.2,209.8,119.3,209.8,119.4,209.8z M119,209.8c-0.1,0-0.2,0-0.2,0
		C118.8,209.9,118.9,209.9,119,209.8z M118.6,209.9c-0.1,0-0.1,0-0.2,0.1C118.5,209.9,118.5,209.9,118.6,209.9z M118.3,210
		c0,0-0.1,0-0.1,0.1C118.2,210.1,118.2,210,118.3,210z M109.2,244.5C109.1,244.5,109.1,244.5,109.2,244.5
		C109.1,244.5,109.1,244.5,109.2,244.5z M108.7,244.6C108.7,244.6,108.7,244.6,108.7,244.6C108.7,244.6,108.7,244.6,108.7,244.6z
		 M108.8,244.6C108.9,244.5,108.9,244.5,108.8,244.6C108.9,244.5,108.9,244.5,108.8,244.6z M112.3,246c0,0,0,0.1,0.1,0.1
		C112.4,246.1,112.4,246,112.3,246z M112.1,245.8c0.1,0.1,0.1,0.1,0.2,0.2C112.3,245.9,112.2,245.8,112.1,245.8z M112.4,246.2
		C112.4,246.2,112.4,246.2,112.4,246.2C112.4,246.2,112.4,246.2,112.4,246.2z M120.1,209.8c0.2,0,0.4,0,0.6,0.1
		C120.5,209.9,120.3,209.9,120.1,209.8z M129.9,214.4C129.9,214.4,129.9,214.4,129.9,214.4C129.9,214.4,129.9,214.4,129.9,214.4z
		 M130.2,214.8C130.2,214.8,130.2,214.9,130.2,214.8C130.2,214.9,130.2,214.8,130.2,214.8z M130.4,215.2
		C130.4,215.3,130.4,215.3,130.4,215.2C130.4,215.3,130.4,215.3,130.4,215.2z M179.3,68.2c0.2,0,0.4,0,0.6,0.1
		C179.7,68.3,179.5,68.2,179.3,68.2z M189.4,73.4c0,0.1,0.1,0.2,0.1,0.2C189.5,73.5,189.5,73.5,189.4,73.4z M188.6,72.2
		c0.2,0.2,0.4,0.4,0.5,0.5C188.9,72.6,188.8,72.4,188.6,72.2z M189.2,72.9c0.1,0.1,0.2,0.2,0.2,0.3C189.3,73.1,189.2,73,189.2,72.9z
		"/>
	<path d="M109,244.8c0,0,2.3-0.5,3,1.6c-0.1,0-2.2,6-2.2,6l-2.4-3.6L109,244.8z"/>
</g>
</svg>
