<?xml version="1.0" encoding="utf-8"?>
<!-- Generator: Adobe Illustrator 16.0.3, SVG Export Plug-In . SVG Version: 6.00 Build 0)  -->
<!DOCTYPE svg PUBLIC "-//W3C//DTD SVG 1.0//EN" "http://www.w3.org/TR/2001/REC-SVG-20010904/DTD/svg10.dtd">
<svg version="1.0" id="Layer_1" xmlns="http://www.w3.org/2000/svg" xmlns:xlink="http://www.w3.org/1999/xlink" x="0px" y="0px"
	 width="300px" height="291px" viewBox="0 0 300 291" enable-background="new 0 0 300 291" xml:space="preserve">
<g>
	<g>
		<g>
			<path fill="#010101" d="M226.4,210l-4-4l-51.8,0c0-0.6-0.2-1-0.6-1.4c-0.4-0.4-0.9-0.6-1.4-0.6l-13.9,0c-0.9,0-1.9-0.5-2.5-1.1
				c-0.2-0.2-0.3-0.4-0.5-0.6l-6-10.5c-0.1-0.2-0.3-0.4-0.5-0.6c-0.7-0.7-1.7-1.1-2.5-1.1h-27.9c-1.1,0-2.3,0.9-2.6,1.9
				c0,0-3.4,11.2-3.4,22c0,10.8,3.4,22,3.4,22c0.1,0.4,0.3,0.7,0.7,1c0.5,0.5,1.2,0.9,1.9,0.9h27.9c1.1,0,2.4-0.8,3-1.7l6-10.5
				c0.5-1,1.9-1.7,3-1.7h13.9c1.1,0,2-0.9,2-2l0-1h2v1h4l1-1l1,1h4l1-1l1,1h23.9l1-1l1,1h12l4-4V210z M154.7,222
				c-1.8,0-3.8,1.2-4.7,2.7l-6,10.5c-0.2,0.3-0.9,0.7-1.2,0.7h-27.9c-0.1,0-0.3-0.1-0.5-0.3c-0.1-0.1-0.1-0.2-0.2-0.2
				c0-0.1-3.3-11-3.3-21.4s3.3-21.3,3.3-21.4c0.1-0.2,0.4-0.5,0.7-0.5h27.9c0.2,0,0.7,0.2,1.1,0.5c0.1,0.1,0.1,0.2,0.1,0.2l6,10.5
				c0.2,0.4,0.5,0.7,0.8,1c1.1,1.1,2.6,1.7,3.9,1.7l13.9,0v2l53,0l0.7,0.7l-61.6,0v2l63.6,0l0.2,0.2l0,1.2h-63.7v2h63.7l0,2h-64.7
				l0,2.4l2.6,2.6h6.4l0,1L154.7,222z M221.6,220h-10.3l-1.8-1.8l-1.8,1.8l-22.2,0l-1.8-1.8l-1.8,1.8h-2.3l-1.8-1.8l-1.8,1.8h-1.2
				l0-1h-6v0h-5.6l-1-1h61.5L221.6,220z M149.7,204.8l-6.7-11.7h-27.8c0,0.1,0,0.2-0.1,0.2c-1.1,4.3-3.3,12.4-3.3,20.7
				c0,8.3,2.1,16.3,3.3,20.7c0,0.1,0,0.2,0.1,0.2l27.8,0l6.7-11.7V204.8z M116.8,232.9c-1.2-4.4-2.9-11.6-2.9-18.9
				c0-7.3,1.7-14.5,2.9-18.9h25.1l5.9,10.3v17.3l-5.9,10.3H116.8z M127.1,209.8c-1.1-1.1-2.6-1.8-4.2-1.7c-3.3,0-6,2.7-6,6
				c0,1.6,0.7,3.1,1.8,4.2s2.6,1.8,4.2,1.8c3.3,0,6-2.7,6-6C128.8,212.4,128.2,210.9,127.1,209.8z M122.9,218
				c-1.1,0-2.1-0.4-2.8-1.2c-0.8-0.8-1.2-1.7-1.2-2.8s0.4-2.1,1.2-2.8s1.7-1.2,2.8-1.2c1.1,0,2.1,0.4,2.8,1.2
				c0.8,0.8,1.2,1.8,1.2,2.8s-0.4,2.1-1.2,2.8C124.9,217.6,123.9,218,122.9,218z"/>
		</g>
	</g>
	<g>
		<g>
			<path fill="#010101" d="M86.7,120c1.1-1.1,1.7-2.6,1.7-4.2c0-3.3-2.7-6-6-6c-1.6,0-3.1,0.7-4.2,1.7c-1.1,1.1-1.7,2.6-1.7,4.2
				c0,3.3,2.7,6,6,6C84.1,121.7,85.6,121,86.7,120z M78.6,115.7c0-1,0.4-2,1.1-2.7s1.7-1.1,2.7-1.1c1,0,2,0.4,2.7,1.1
				c0.7,0.7,1.1,1.7,1.1,2.7c0,1-0.4,2-1.1,2.7s-1.7,1.1-2.7,1.1c-1,0-2-0.4-2.7-1.1C79,117.7,78.6,116.8,78.6,115.7z M82.7,127.7
				c-1.2,0-2.2,0.5-3,1.2c-0.8,0.8-1.2,1.8-1.2,3l0,28.8c0,2.3,1.9,4.2,4.2,4.2h19.4c1.2,0,2.2-0.5,3-1.2c0.8-0.8,1.2-1.8,1.2-3
				v-28.8c0-2.3-1.9-4.2-4.2-4.2H82.7z M104.2,160.7c0,0.6-0.2,1.1-0.6,1.5s-0.9,0.6-1.5,0.6l-19.4,0c-0.6,0-1.1-0.2-1.5-0.6
				c-0.4-0.4-0.6-0.9-0.6-1.5v-13.3h3.8l0,1.4h15.9l0-1.4l3.9,0L104.2,160.7z M86.6,146.6v-0.8l11.7,0l0,0.8H86.6z M104.2,131.9
				l0,13.3h-3.8l0-1.4H84.5v1.4h-3.8v-13.3c0-0.6,0.2-1.1,0.6-1.5s0.9-0.6,1.5-0.6l19.4,0C103.3,129.8,104.2,130.7,104.2,131.9z
				 M97.2,48.3l-6.7,0c-0.6,0-1.1,0.2-1.5,0.6c-0.4,0.4-0.6,0.9-0.6,1.5v47.4c0,0,0,0.1,0,0.1l-3,0l0,7.9h-2.4
				c-2.9,0-5.5,1.2-7.4,3.1c-1.9,1.9-3.1,4.5-3.1,7.4l0,43.5c0,5.8,4.7,10.5,10.5,10.5l18.6,0c2.9,0,5.5-1.2,7.4-3.1
				c1.9-1.9,3.1-4.5,3.1-7.4v-43.4c0-5.8-4.7-10.5-10.5-10.5h-2.4v-7.9l0,0c0,0,0-0.1,0-0.1l0-47.4C99.4,49.2,98.4,48.3,97.2,48.3z
				 M101.7,107.9c4.6,0,8.4,3.8,8.4,8.4v43.4c0,2.2-0.9,4.3-2.5,5.9c-1.6,1.6-3.7,2.5-5.9,2.5H83.1c-2.2,0-4.3-0.9-5.9-2.5
				c-1.6-1.6-2.5-3.7-2.5-5.9v-43.4c0-2.2,0.9-4.3,2.5-5.9s3.7-2.5,5.9-2.5L101.7,107.9z M97.2,105.7h-9.7l0-5.7l9.7,0V105.7z
				 M97.2,97.8l-6.7,0l0-47.4c0,0,0,0,0,0l0,0l2.8,0l0,8.8h-2v5.5l2,2v7.1l-2,2l0,2.9l2,2v12.4h-0.9l0,2.1l3,0V79.6l-2-2v-1.1l2-2
				v-8.8l-2-2v-2.5h2l0-10.9h1.8L97.2,97.8z M87.4,155.4c0,2.7,2.2,5,5,5c1.4,0,2.6-0.6,3.5-1.5c0.9-0.9,1.5-2.1,1.5-3.5h-8.3
				c0-1.8,1.5-3.3,3.3-3.3s3.3,1.5,3.3,3.3l1.7,0c0-2.7-2.2-5-5-5C89.7,150.5,87.4,152.7,87.4,155.4z M94.3,157.5
				c-0.5,0.5-1.2,0.8-1.9,0.8c-0.7,0-1.4-0.3-1.9-0.8L94.3,157.5z M87.4,136.1h1.7c0-1.8,1.5-3.3,3.3-3.3c1.8,0,3.3,1.5,3.3,3.3l0,1
				h-8.3c0,2.7,2.2,5,5,5c1.4,0,2.6-0.6,3.5-1.5c0.8-0.7,1.2-1.7,1.4-2.8h0.1l0-0.7c0,0,0,0,0,0v-1c0-2.7-2.2-5-5-5
				C89.7,131.1,87.4,133.3,87.4,136.1z M92.4,139.9c-0.7,0-1.4-0.3-1.9-0.8h3.9C93.8,139.7,93.1,139.9,92.4,139.9z"/>
		</g>
	</g>
	<g>
		<path fill="#010101" d="M205.7,98.4l1.4-1.4l-5.7-5.7l-51.8,51.8l-2.8-2.8l-5,5l2.8,2.8l-1.5,1.5c-0.6-1.6-1.5-3.1-2.8-4.3
			c-2.3-2.3-5.4-3.5-8.5-3.5c-3.1,0-6.3,1.2-8.7,3.6c-4.1,4.1-4.8,10.5-1.7,15.2c-1.1,0.6-2.2,1.3-3.1,2.3
			c-4.8,4.8-4.8,12.5-0.1,17.2c2.3,2.3,5.4,3.5,8.5,3.5c3.1,0,6.3-1.2,8.7-3.6c0.9-0.9,1.7-2,2.3-3.1c2,1.3,4.3,2,6.6,2
			c3.1,0,6.3-1.2,8.7-3.6c4.8-4.8,4.8-12.5,0.1-17.2c-1.2-1.2-2.7-2.1-4.3-2.7l1.5-1.5l2.8,2.8l5-5l-2.8-2.8l36.2-36.2l9.2,9.2l5-5
			l-2.8-2.8l1.4-1.4l1.4,1.4l2.8-2.8l1.4,1.4l5-5L205.7,98.4z M212.1,107.6l-2.1,2.1l-7.8-7.8l2.1-2.1L212.1,107.6z M155.3,140.2
			l0.7-0.7l2.8,2.8l-0.7,0.7L155.3,140.2z M156.7,144.5l-0.7,0.7l-2.8-2.8l0.7-0.7L156.7,144.5z M157.4,138.1l0.7-0.7l2.8,2.8
			l-0.7,0.7L157.4,138.1z M151.6,173.7c-2,2-4.5,3-7.2,3c-2,0-3.8-0.6-5.5-1.6l-1.9-1.2l-1,2c-0.5,1-1.1,1.8-1.9,2.6
			c-1.9,1.9-4.5,3-7.2,3c-2.7,0-5.2-1-7.1-2.9c-1.9-1.9-2.9-4.4-2.9-7.1c0-2.7,1.1-5.3,3-7.2c0.8-0.8,1.6-1.4,2.6-1.9l2-1l-1.2-1.9
			c-2.6-4-2.1-9.3,1.4-12.7c1.9-1.9,4.5-3,7.2-3c2.7,0,5.2,1,7.1,2.9c2,2,3.1,4.8,2.9,7.7l-0.1,2.3l2.3-0.1c0.2,0,0.4,0,0.6,0
			c2.7,0,5.2,1.1,7.1,2.9C155.6,163.3,155.6,169.7,151.6,173.7z M146.8,154.4l-2.5-0.3l-0.3-2.5l2.1-2.1l2.8,2.8L146.8,154.4z
			 M155.3,151.6l-2.1,2.1l-1.4-1.4l0,0l-5.7-5.7l0,0l-1.4-1.4l2.1-2.1l1.4,1.4l0,0l5.7,5.7l0,0L155.3,151.6z M151,144.5l0.7-0.7
			l2.8,2.8l-0.7,0.7L151,144.5z M162.4,138.8l-2.8-2.8l41.9-41.9l2.8,2.8l0,0l0,0l-14.2,14.2l0,0L162.4,138.8z M192.9,111.2l2.1-2.1
			l7.8,7.8l-2.1,2.1L192.9,111.2z M201.4,112.6L201.4,112.6l-5-5l1.4-1.4l5,5l0,0L201.4,112.6z M205.7,111.2L205.7,111.2l-0.7-0.7
			l0,0l-5.7-5.7l1.4-1.4l6.4,6.4h0L205.7,111.2z"/>
		<path fill="#010101" d="M126.9,163.4c-2.1,0-4.1,0.8-5.7,2.3c-3.1,3.1-3.1,8.2,0,11.4c1.6,1.6,3.6,2.3,5.7,2.3
			c2.1,0,4.1-0.8,5.7-2.3c3.1-3.1,3.1-8.2,0-11.4C131,164.2,129,163.4,126.9,163.4z M131.2,175.7c-1.1,1.1-2.6,1.8-4.3,1.8
			c-1.6,0-3.1-0.6-4.3-1.8c-2.3-2.4-2.3-6.2,0-8.5c1.1-1.1,2.7-1.8,4.3-1.8c1.6,0,3.1,0.6,4.3,1.8
			C133.5,169.5,133.5,173.4,131.2,175.7z"/>
		<path fill="#010101" d="M139,172.2c1.6,1.6,3.6,2.3,5.7,2.3s4.1-0.8,5.7-2.3c3.1-3.1,3.1-8.2,0-11.4c-1.6-1.6-3.6-2.3-5.7-2.3
			s-4.1,0.8-5.7,2.3C135.8,163.9,135.8,169,139,172.2z M144.6,160.5c1.6,0,3.1,0.6,4.3,1.8c2.3,2.4,2.3,6.2,0,8.5
			c-1.1,1.1-2.6,1.8-4.3,1.8c-1.6,0-3.1-0.6-4.3-1.8s-1.8-2.7-1.8-4.3c0-1.6,0.6-3.1,1.8-4.3C141.5,161.1,143,160.5,144.6,160.5z"/>
		<path fill="#010101" d="M137.5,148c-1.6-1.6-3.6-2.3-5.7-2.3c-2.1,0-4.1,0.8-5.7,2.3c-3.1,3.1-3.1,8.2,0,11.4
			c1.6,1.6,3.6,2.3,5.7,2.3c2.1,0,4.1-0.8,5.7-2.3C140.7,156.3,140.7,151.2,137.5,148z M131.9,159.7c-1.6,0-3.1-0.6-4.3-1.8
			c-2.3-2.3-2.3-6.2,0-8.5c1.1-1.1,2.6-1.8,4.3-1.8c1.6,0,3.1,0.6,4.3,1.8c2.3,2.3,2.3,6.2,0,8.5C135,159.1,133.5,159.7,131.9,159.7
			z"/>
	</g>
</g>
</svg>
