<?xml version="1.0" encoding="utf-8"?>
<!-- Generator: Adobe Illustrator 16.0.3, SVG Export Plug-In . SVG Version: 6.00 Build 0)  -->
<!DOCTYPE svg PUBLIC "-//W3C//DTD SVG 1.0//EN" "http://www.w3.org/TR/2001/REC-SVG-20010904/DTD/svg10.dtd">
<svg version="1.0" id="Layer_1" xmlns="http://www.w3.org/2000/svg" xmlns:xlink="http://www.w3.org/1999/xlink" x="0px" y="0px"
	 width="200px" height="200px" viewBox="0 0 200 200" enable-background="new 0 0 200 200" xml:space="preserve">
<g>
	<path fill="none" d="M3677,1926.9L3677,1926.9c0,0.2,0,0.2,0,0.3l0,0c0,0.1,0,0.1,0.1,0.2l0,0l0,0v-0.1
		C3677,1927.2,3677,1927.1,3677,1926.9z"/>
	<path fill="none" d="M3782.5,1931.8L3782.5,1931.8L3782.5,1931.8z"/>
	<path fill="none" d="M3734.1,1930.1c0-0.1,0-0.1,0-0.2c-0.2-0.4-0.4-0.7-0.7-1.1v0.1c0.3,0.4,0.6,0.9,0.8,1.4L3734.1,1930.1
		C3734.1,1930.2,3734.1,1930.1,3734.1,1930.1L3734.1,1930.1z"/>
	<path fill="none" d="M3733.2,1928.6L3733.2,1928.6c-0.8-0.8-1.9-1.3-3.1-1.3l0,0l-26.1,0.8l-23.4,0.8l0,0h-0.2c0,0-0.1,0-0.2,0
		h-0.1c-1-0.1-1.9-0.4-2.4-0.8l-0.1-0.1l-0.1-0.1c-0.1-0.1-0.1-0.1-0.2-0.2l0,0l0,0c0.4,0.8,1.7,1.4,3.2,1.4l49.7-1.6
		c1.2,0,2.3,0.5,3.1,1.3l0,0L3733.2,1928.6C3733.2,1928.7,3733.2,1928.7,3733.2,1928.6C3733.2,1928.7,3733.2,1928.7,3733.2,1928.6z"
		/>
	<path fill="none" d="M3677.2,1927.6C3677.2,1927.6,3677.2,1927.5,3677.2,1927.6L3677.2,1927.6z"/>
	<path fill="none" d="M3783.5,1928.9L3783.5,1928.9c-0.3,0.3-0.6,0.8-0.7,1.2v0.1C3782.9,1929.8,3783.2,1929.3,3783.5,1928.9z"/>
	<path fill="none" d="M3734.4,1931.8L3734.4,1931.8C3734.4,1931.9,3734.4,1931.9,3734.4,1931.8L3734.4,1931.8L3734.4,1931.8z"/>
	<path fill="none" d="M3786.1,1927.3L3786.1,1927.3c0.2,0,0.5,0,0.7,0c-0.1,0-0.2,0-0.3,0v-0.1c-0.1,0-0.2,0-0.2,0
		C3786.2,1927.3,3786.1,1927.3,3786.1,1927.3z"/>
	<path fill="none" d="M3840.8,1879.8L3840.8,1879.8L3840.8,1879.8L3840.8,1879.8z"/>
	<path fill="none" d="M3785.1,1927.6L3785.1,1927.6c-0.1,0-0.1,0-0.2,0.1c-0.1,0.1-0.3,0.2-0.4,0.2l0,0l0,0
		c-0.1,0.1-0.2,0.1-0.3,0.2c-0.1,0.1-0.3,0.2-0.4,0.3c0,0-0.1,0-0.1,0.1l0,0v0.1l0,0c0.5-0.5,1.2-0.9,1.9-1.1v-0.1l0,0
		C3785.4,1927.6,3785.2,1927.6,3785.1,1927.6z"/>
	<path fill="#4F4F4F" d="M3784.9,1927.7c-0.1,0.1-0.3,0.1-0.4,0.2l0,0C3784.6,1927.9,3784.8,1927.8,3784.9,1927.7z"/>
	<polygon fill="#4F4F4F" points="3733.2,1928.7 3733.2,1928.6 3733.2,1928.6 3733.2,1928.6 	"/>
	<path fill="#4F4F4F" d="M3680.2,1928.9c0.1,0,0.2,0,0.2,0h0.2c-1.2,0-2.3-0.3-2.9-0.9C3678.3,1928.5,3679.2,1928.8,3680.2,1928.9
		C3680.1,1928.9,3680.1,1928.9,3680.2,1928.9z"/>
	<path fill="#4F4F4F" d="M3785.6,1927.5c-0.2,0-0.3,0.1-0.5,0.1l0,0C3785.2,1927.6,3785.4,1927.6,3785.6,1927.5z"/>
	<path fill="#4F4F4F" d="M3734.1,1930.1C3734.1,1930,3734.1,1930,3734.1,1930.1C3734.1,1930,3734.1,1930.1,3734.1,1930.1
		L3734.1,1930.1z"/>
	<path fill="#4F4F4F" d="M3730.1,1927.3L3730.1,1927.3l-26.1,0.8L3730.1,1927.3L3730.1,1927.3z"/>
	<path fill="#4F4F4F" d="M3677.5,1928L3677.5,1928C3677.4,1927.9,3677.4,1927.9,3677.5,1928z"/>
	<path fill="#4F4F4F" d="M3784.2,1928.1c0.1-0.1,0.2-0.1,0.3-0.2C3784.4,1928,3784.3,1928.1,3784.2,1928.1z"/>
	<path fill="#4F4F4F" d="M3731.9,1980.3c-0.1,1.5,0.4,2.9,1.2,3.7c0.5,0.5,1.1,0.8,1.8,0.8h47.3c0.6,0,1.2-0.3,1.7-0.8
		c0.9-0.8,1.4-2.3,1.3-3.7l-0.1-3v-5.5v-0.1v-0.1l-1.3-40.9c0.1-0.5,0.4-1,0.7-1.4c0.6-0.7,1.5-1,2.4-1l49.7,1.6
		c2.4,0,4.3-1.3,4.3-3v-46.6v-0.2v-0.3v-8.2v-0.2v-0.3c0,0-0.1,0-0.1-0.1l0,0v-0.1v0.1l0,0c0-0.1-0.1-0.2-0.1-0.3v0.1
		c-0.4-0.9-1.5-1.7-2.9-2c0,0,0,0-0.1,0c-0.3-0.1-0.7-0.1-1.1-0.1l0,0c-0.1,0-0.2,0-0.3,0v0.1l-49.5,1.6v-0.1c-0.9,0-1.8-0.4-2.4-1
		c-0.1-0.1-0.2-0.2-0.3-0.4c-0.1-0.1-0.1-0.2-0.2-0.3l0,0c0,0,0-0.1-0.1-0.1l1.4-41.4c0-0.5,0-0.9-0.1-1.4v-7.7v-0.1v-0.7
		c0-0.2-0.1-0.4-0.1-0.6v0.1c-0.1-0.2-0.1-0.3-0.2-0.5v-0.1v-0.1c0-0.1-0.1-0.3-0.2-0.5c-0.1-0.2-0.3-0.4-0.4-0.6
		c-0.1-0.1-0.2-0.2-0.3-0.3c-0.3-0.3-0.5-0.5-0.8-0.6c-0.1,0-0.2,0-0.2-0.1c-0.1,0-0.1-0.1-0.2-0.1l-0.1-0.1l0,0c-0.1,0-0.2,0-0.3,0
		h-0.1h-47.3c-0.1,0-0.1,0-0.2,0c-0.1,0-0.1,0-0.2,0c0,0,0,0,0,0.1h-0.1l0,0l0,0c-0.1,0-0.2,0.1-0.3,0.1v-0.1
		c-0.1,0.1-0.2,0.1-0.3,0.2v0.1c0,0,0,0-0.1,0.1c-0.1,0.1-0.3,0.2-0.4,0.4c-0.8,0.8-1.3,2.2-1.3,3.5v8.7l0.1,0.3l1.3,40.9
		c-0.1,0.5-0.4,0.9-0.7,1.4c-0.2,0.2-0.4,0.4-0.7,0.5l0,0c-0.1,0.1-0.3,0.1-0.4,0.2l0,0c-0.1,0-0.2,0.1-0.3,0.1
		c-0.2,0.1-0.3,0.1-0.4,0.1s-0.2,0-0.3,0h-0.1c-0.1,0-0.1,0-0.2,0v0.1l-49.7-1.6v-0.1c-0.2,0-0.3,0-0.5,0l0,0
		c-0.3,0-0.5,0.1-0.7,0.1l0,0c-0.9,0.2-1.7,0.5-2.2,1c-0.1,0.1-0.1,0.1-0.2,0.2l-0.1,0.1c-0.3,0.3-0.5,0.6-0.6,1
		c-0.1,0.2-0.1,0.4-0.1,0.6l0.1,55.4c0,1.7,1.9,3,4.6,3l49.5-1.6c0.9,0,1.8,0.4,2.4,1c0.2,0.2,0.4,0.5,0.6,0.9l-1.4,41.3
		c0,0.1,0,0.2,0,0.3L3731.9,1980.3 M3677.1,1927.5C3677.2,1927.6,3677.2,1927.6,3677.1,1927.5L3677.1,1927.5z M3839.9,1880.3v37.8
		v8.7c0,1.1-1.5,2-3.3,2l-49.6-1.6c-0.2,0-0.3,0-0.5,0v0.1c0.1,0,0.2,0,0.3,0c-0.2,0-0.5,0-0.7,0.1v-0.1c0.1,0,0.1,0,0.2,0
		c-0.2,0-0.5,0.1-0.7,0.1v0.1c-0.7,0.2-1.4,0.6-1.9,1.1l0,0v-0.1l0,0c0,0,0.1,0,0.1-0.1c0,0-0.1,0-0.1,0.1c-0.4,0.4-0.7,1-0.9,1.6
		c0.2-0.5,0.4-0.9,0.7-1.3v0.1c-0.3,0.4-0.6,0.8-0.8,1.3c-0.2,0.5-0.2,1-0.2,1.5l0,0l0,0l0,0l1.6,48.5c0.1,1.2-0.3,2.3-1,3
		c-0.2,0.2-0.6,0.5-1,0.5h-47.3c-0.4,0-0.8-0.2-1.1-0.5c-0.6-0.6-1-1.8-0.9-3l1.6-48.4l0,0v-0.1c0-0.5-0.1-1.1-0.2-1.6v0.2
		c-0.2-0.5-0.4-1-0.8-1.4v-0.1c-0.1-0.1-0.1-0.2-0.2-0.2v0.1l0,0c-0.8-0.8-1.9-1.3-3.1-1.3l-49.7,1.6c-1.5,0-2.8-0.6-3.2-1.4l0,0
		l0,0c0-0.1-0.1-0.1-0.1-0.2l0,0l0,0c0-0.1-0.1-0.1-0.1-0.2l0,0c0-0.1,0-0.1,0-0.2v-0.1c0,0.1,0,0.2,0.1,0.3c0-0.1-0.1-0.2-0.1-0.3
		v-8.7v-37.8v-0.1c0-1.1,1.5-2,3.3-2l49.6,1.6c1.4,0,2.5-0.5,3.3-1.3c0.8-0.8,1.2-2,1.2-3.2l-1.6-48.6c-0.1-1.2,0.3-2.3,1-3
		c0.2-0.2,0.6-0.5,1-0.5h47.3c0.4,0,0.8,0.2,1.1,0.5c0.6,0.6,1,1.8,0.9,3l-1.6,48.5c-0.1,1.2,0.4,2.3,1.2,3.2
		c0.8,0.8,1.9,1.3,3.1,1.3l49.5-1.6C3838.4,1878.2,3839.9,1879.2,3839.9,1880.3L3839.9,1880.3L3839.9,1880.3z M3840.8,1879.8
		L3840.8,1879.8L3840.8,1879.8L3840.8,1879.8z"/>
	<path d="M3836.3,1878.2l-49.5,1.6c-1.2,0-2.3-0.5-3.1-1.3c-0.8-0.9-1.3-2-1.2-3.2l1.6-48.5c0.1-1.2-0.3-2.4-0.9-3
		c-0.3-0.3-0.7-0.5-1.1-0.5h-47.3c-0.4,0-0.8,0.3-1,0.5c-0.7,0.7-1.1,1.8-1,3l1.6,48.6c0,1.2-0.4,2.4-1.2,3.2
		c-0.8,0.8-1.9,1.3-3.3,1.3l-49.6-1.6c-1.8,0-3.3,0.9-3.3,2v0.1v37.8v8.7c0,0.1,0,0.2,0.1,0.3v0.1c0,0.1,0.1,0.1,0.1,0.2
		s0.1,0.1,0.2,0.2l0.1,0.1l0.1,0.1c0.6,0.5,1.7,0.9,2.9,0.9l0,0l23.4-0.8l26.1-0.8l0,0c1.2,0,2.3,0.5,3,1.3l0,0l0,0l0,0
		c0.1,0.1,0.1,0.2,0.2,0.2c0.3,0.3,0.5,0.7,0.7,1.1c0,0,0,0,0,0.1s0,0.1,0.1,0.2c0.2,0.5,0.3,1,0.2,1.6l0,0v0.1l-1.6,48.4
		c-0.1,1.2,0.3,2.4,0.9,3c0.3,0.3,0.7,0.5,1.1,0.5h47.3c0.4,0,0.8-0.3,1-0.5c0.7-0.7,1.1-1.8,1-3l-1.6-48.5l0,0l0,0
		c0-0.5,0.1-1,0.2-1.5v-0.1c0.2-0.6,0.5-1.2,0.9-1.6c0,0,0.1,0,0.1-0.1c0.1-0.1,0.3-0.2,0.4-0.3c0.1-0.1,0.2-0.1,0.3-0.2l0,0
		c0.1-0.1,0.3-0.2,0.4-0.2s0.1-0.1,0.2-0.1c0.1-0.1,0.3-0.1,0.5-0.1l0,0c0.2-0.1,0.4-0.1,0.7-0.1c0.1,0,0.1,0,0.2,0
		c0.2,0,0.3,0,0.5,0l49.6,1.6c1.8,0,3.3-0.9,3.3-2v-8.7v-37.8v-0.1C3839.9,1879.2,3838.4,1878.2,3836.3,1878.2z"/>
</g>
</svg>
