<?xml version="1.0" encoding="utf-8"?>
<!-- Generator: Adobe Illustrator 16.0.3, SVG Export Plug-In . SVG Version: 6.00 Build 0)  -->
<!DOCTYPE svg PUBLIC "-//W3C//DTD SVG 1.0//EN" "http://www.w3.org/TR/2001/REC-SVG-20010904/DTD/svg10.dtd">
<svg version="1.0" id="Layer_1" xmlns="http://www.w3.org/2000/svg" xmlns:xlink="http://www.w3.org/1999/xlink" x="0px" y="0px"
	 width="200px" height="200px" viewBox="0 0 200 200" enable-background="new 0 0 200 200" xml:space="preserve">
<g>
	<path fill="none" d="M3786.2,1980.8L3786.2,1980.8c0.2,0,0.2,0,0.3,0l0,0c0.1,0,0.1,0,0.2-0.1l0,0l0,0h-0.1
		C3786.5,1980.8,3786.4,1980.8,3786.2,1980.8z"/>
	<path fill="none" d="M3791.1,1875.3L3791.1,1875.3L3791.1,1875.3z"/>
	<path fill="none" d="M3789.4,1923.7c-0.1,0-0.1,0-0.2,0c-0.4,0.2-0.7,0.4-1.1,0.7h0.1c0.4-0.3,0.9-0.6,1.4-0.8L3789.4,1923.7
		C3789.5,1923.7,3789.4,1923.7,3789.4,1923.7L3789.4,1923.7z"/>
	<path fill="none" d="M3787.9,1924.6L3787.9,1924.6c-0.8,0.8-1.3,1.9-1.3,3.1l0,0l0.8,26.1l0.8,23.4l0,0v0.2c0,0,0,0.1,0,0.2v0.1
		c-0.1,1-0.4,1.9-0.8,2.4l-0.1,0.1l-0.1,0.1c-0.1,0.1-0.1,0.1-0.2,0.2l0,0l0,0c0.8-0.4,1.4-1.7,1.4-3.2l-1.6-49.7
		c0-1.2,0.5-2.3,1.3-3.1l0,0L3787.9,1924.6C3788,1924.6,3788,1924.6,3787.9,1924.6C3788,1924.6,3788,1924.6,3787.9,1924.6z"/>
	<path fill="none" d="M3786.9,1980.6C3786.9,1980.6,3786.8,1980.6,3786.9,1980.6L3786.9,1980.6z"/>
	<path fill="none" d="M3788.2,1874.3L3788.2,1874.3c0.3,0.3,0.8,0.6,1.2,0.7h0.1C3789.1,1874.9,3788.6,1874.6,3788.2,1874.3z"/>
	<path fill="none" d="M3791.1,1923.4L3791.1,1923.4C3791.2,1923.4,3791.2,1923.4,3791.1,1923.4L3791.1,1923.4L3791.1,1923.4z"/>
	<path fill="none" d="M3786.6,1871.7L3786.6,1871.7c0-0.2,0-0.5,0-0.7c0,0.1,0,0.2,0,0.3h-0.1c0,0.1,0,0.2,0,0.2
		C3786.6,1871.6,3786.6,1871.7,3786.6,1871.7z"/>
	<path fill="none" d="M3739.1,1817L3739.1,1817L3739.1,1817L3739.1,1817z"/>
	<path fill="none" d="M3786.9,1872.7L3786.9,1872.7c0,0.1,0,0.1,0.1,0.2c0.1,0.1,0.2,0.3,0.2,0.4l0,0l0,0c0.1,0.1,0.1,0.2,0.2,0.3
		s0.2,0.3,0.3,0.4c0,0,0,0.1,0.1,0.1l0,0h0.1l0,0c-0.5-0.5-0.9-1.2-1.1-1.9h-0.1l0,0C3786.9,1872.4,3786.9,1872.6,3786.9,1872.7z"/>
	<path fill="#4F4F4F" d="M3787,1872.9c0.1,0.1,0.1,0.3,0.2,0.4l0,0C3787.2,1873.2,3787.1,1873,3787,1872.9z"/>
	<polygon fill="#4F4F4F" points="3788,1924.6 3787.9,1924.6 3787.9,1924.6 3787.9,1924.6 	"/>
	<path fill="#4F4F4F" d="M3788.2,1977.6c0-0.1,0-0.2,0-0.2v-0.2c0,1.2-0.3,2.3-0.9,2.9C3787.8,1979.5,3788.1,1978.6,3788.2,1977.6
		C3788.2,1977.7,3788.2,1977.7,3788.2,1977.6z"/>
	<path fill="#4F4F4F" d="M3786.8,1872.2c0,0.2,0.1,0.3,0.1,0.5l0,0C3786.9,1872.6,3786.9,1872.4,3786.8,1872.2z"/>
	<path fill="#4F4F4F" d="M3789.4,1923.7C3789.3,1923.7,3789.3,1923.7,3789.4,1923.7C3789.3,1923.7,3789.4,1923.7,3789.4,1923.7
		L3789.4,1923.7z"/>
	<path fill="#4F4F4F" d="M3786.6,1927.7L3786.6,1927.7l0.8,26.1L3786.6,1927.7L3786.6,1927.7z"/>
	<path fill="#4F4F4F" d="M3787.3,1980.3l-0.1,0.1C3787.2,1980.4,3787.2,1980.4,3787.3,1980.3z"/>
	<path fill="#4F4F4F" d="M3787.4,1873.6c-0.1-0.1-0.1-0.2-0.2-0.3C3787.3,1873.4,3787.4,1873.5,3787.4,1873.6z"/>
	<path fill="#4F4F4F" d="M3839.6,1925.9c1.5,0.1,2.9-0.4,3.7-1.2c0.5-0.5,0.8-1.1,0.8-1.8v-47.3c0-0.6-0.3-1.2-0.8-1.7
		c-0.8-0.9-2.3-1.4-3.7-1.3l-3,0.1h-5.5h-0.1h-0.1l-40.9,1.3c-0.5-0.1-1-0.4-1.4-0.7c-0.7-0.6-1-1.5-1-2.4l1.6-49.7
		c0-2.4-1.3-4.3-3-4.3h-46.6h-0.2h-0.3h-8.2h-0.2h-0.3c0,0,0,0.1-0.1,0.1l0,0h-0.1h0.1l0,0c-0.1,0-0.2,0.1-0.3,0.1h0.1
		c-0.9,0.4-1.7,1.5-2,2.9c0,0,0,0,0,0.1c-0.1,0.3-0.1,0.7-0.1,1.1l0,0c0,0.1,0,0.2,0,0.3h0.1l1.6,49.5h-0.1c0,0.9-0.4,1.8-1,2.4
		c-0.1,0.1-0.2,0.2-0.4,0.3c-0.1,0.1-0.2,0.1-0.3,0.2l0,0c0,0-0.1,0-0.1,0.1l-41.4-1.4c-0.5,0-0.9,0-1.4,0.1h-7.7h-0.1h-0.7
		c-0.2,0-0.4,0.1-0.6,0.1h0.1c-0.2,0.1-0.3,0.1-0.5,0.2h-0.1h-0.1c-0.1,0-0.3,0.1-0.5,0.2c-0.2,0.1-0.4,0.3-0.6,0.4
		c-0.1,0.1-0.2,0.2-0.3,0.3c-0.3,0.3-0.5,0.5-0.6,0.8c0,0.1,0,0.2-0.1,0.2c0,0.1-0.1,0.1-0.1,0.2l-0.1,0.1l0,0c0,0.1,0,0.2,0,0.3
		v0.1v47.3c0,0.1,0,0.1,0,0.2c0,0.1,0,0.1,0,0.2c0,0,0,0,0.1,0v0.1l0,0l0,0c0,0.1,0.1,0.2,0.1,0.3h-0.1c0.1,0.1,0.1,0.2,0.2,0.3h0.1
		c0,0,0,0,0.1,0.1c0.1,0.1,0.2,0.3,0.4,0.4c0.8,0.8,2.2,1.3,3.5,1.3h8.7l0.3-0.1l40.9-1.3c0.5,0.1,0.9,0.4,1.4,0.7
		c0.2,0.2,0.4,0.4,0.5,0.7l0,0c0.1,0.1,0.1,0.3,0.2,0.4l0,0c0,0.1,0.1,0.2,0.1,0.3c0.1,0.2,0.1,0.3,0.1,0.4s0,0.2,0,0.3v0.1
		c0,0.1,0,0.1,0,0.2h0.1l-1.6,49.7h-0.1c0,0.2,0,0.3,0,0.5l0,0c0,0.3,0.1,0.5,0.1,0.7l0,0c0.2,0.9,0.5,1.7,1,2.2
		c0.1,0.1,0.1,0.1,0.2,0.2l0.1,0.1c0.3,0.3,0.6,0.5,1,0.6c0.2,0.1,0.4,0.1,0.6,0.1l55.4-0.1c1.7,0,3-1.9,3-4.6l-1.6-49.5
		c0-0.9,0.4-1.8,1-2.4c0.2-0.2,0.5-0.4,0.9-0.6l41.3,1.4c0.1,0,0.2,0,0.3,0L3839.6,1925.9 M3786.8,1980.7
		C3786.9,1980.6,3786.9,1980.6,3786.8,1980.7L3786.8,1980.7z M3739.6,1817.9h37.8h8.7c1.1,0,2,1.5,2,3.3l-1.6,49.6
		c0,0.2,0,0.3,0,0.5h0.1c0-0.1,0-0.2,0-0.3c0,0.2,0,0.5,0.1,0.7h-0.1c0-0.1,0-0.1,0-0.2c0,0.2,0.1,0.5,0.1,0.7h0.1
		c0.2,0.7,0.6,1.4,1.1,1.9l0,0h-0.1l0,0c0,0,0-0.1-0.1-0.1c0,0,0,0.1,0.1,0.1c0.4,0.4,1,0.7,1.6,0.9c-0.5-0.2-0.9-0.4-1.3-0.7h0.1
		c0.4,0.3,0.8,0.6,1.3,0.8s1,0.2,1.5,0.2l0,0l0,0l0,0l48.5-1.6c1.2-0.1,2.3,0.3,3,1c0.2,0.2,0.5,0.6,0.5,1v47.3
		c0,0.4-0.2,0.8-0.5,1.1c-0.6,0.6-1.8,1-3,0.9l-48.4-1.6l0,0h-0.1c-0.5,0-1.1,0.1-1.6,0.2h0.2c-0.5,0.2-1,0.4-1.4,0.8h-0.1
		c-0.1,0.1-0.2,0.1-0.2,0.2h0.1l0,0c-0.8,0.8-1.3,1.9-1.3,3.1l1.6,49.7c0,1.5-0.6,2.8-1.4,3.2l0,0l0,0c-0.1,0-0.1,0.1-0.2,0.1l0,0
		l0,0c-0.1,0-0.1,0.1-0.2,0.1l0,0c-0.1,0-0.1,0-0.2,0h-0.1c0.1,0,0.2,0,0.3-0.1c-0.1,0-0.2,0.1-0.3,0.1h-8.7h-37.8h-0.1
		c-1.1,0-2-1.5-2-3.3l1.6-49.6c0-1.4-0.5-2.5-1.3-3.3c-0.8-0.8-2-1.2-3.2-1.2l-48.6,1.6c-1.2,0.1-2.3-0.3-3-1
		c-0.2-0.2-0.5-0.6-0.5-1v-47.3c0-0.4,0.2-0.8,0.5-1.1c0.6-0.6,1.8-1,3-0.9l48.5,1.6c1.2,0.1,2.3-0.4,3.2-1.2
		c0.8-0.8,1.3-1.9,1.3-3.1l-1.6-49.5C3737.5,1819.4,3738.5,1817.9,3739.6,1817.9L3739.6,1817.9L3739.6,1817.9z M3739.1,1817
		L3739.1,1817L3739.1,1817L3739.1,1817z"/>
	<path d="M3737.5,1821.5l1.6,49.5c0,1.2-0.5,2.3-1.3,3.1c-0.9,0.8-2,1.3-3.2,1.2l-48.5-1.6c-1.2-0.1-2.4,0.3-3,0.9
		c-0.3,0.3-0.5,0.7-0.5,1.1v47.3c0,0.4,0.3,0.8,0.5,1c0.7,0.7,1.8,1.1,3,1l48.6-1.6c1.2,0,2.4,0.4,3.2,1.2s1.3,1.9,1.3,3.3
		l-1.6,49.6c0,1.8,0.9,3.3,2,3.3h0.1h37.8h8.7c0.1,0,0.2,0,0.3-0.1h0.1c0.1,0,0.1-0.1,0.2-0.1s0.1-0.1,0.2-0.2l0.1-0.1l0.1-0.1
		c0.5-0.6,0.9-1.7,0.9-2.9l0,0l-0.8-23.4l-0.8-26.1l0,0c0-1.2,0.5-2.3,1.3-3l0,0l0,0l0,0c0.1-0.1,0.2-0.1,0.2-0.2
		c0.3-0.3,0.7-0.5,1.1-0.7c0,0,0,0,0.1,0c0.1,0,0.1,0,0.2-0.1c0.5-0.2,1-0.3,1.6-0.2l0,0h0.1l48.4,1.6c1.2,0.1,2.4-0.3,3-0.9
		c0.3-0.3,0.5-0.7,0.5-1.1v-47.3c0-0.4-0.3-0.8-0.5-1c-0.7-0.7-1.8-1.1-3-1l-48.5,1.6l0,0l0,0c-0.5,0-1-0.1-1.5-0.2h-0.1
		c-0.6-0.2-1.2-0.5-1.6-0.9c0,0,0-0.1-0.1-0.1c-0.1-0.1-0.2-0.3-0.3-0.4c-0.1-0.1-0.1-0.2-0.2-0.3l0,0c-0.1-0.1-0.2-0.3-0.2-0.4
		s-0.1-0.1-0.1-0.2c-0.1-0.1-0.1-0.3-0.1-0.5l0,0c-0.1-0.2-0.1-0.4-0.1-0.7c0-0.1,0-0.1,0-0.2c0-0.2,0-0.3,0-0.5l1.6-49.6
		c0-1.8-0.9-3.3-2-3.3h-8.7h-37.8h-0.1C3738.5,1817.9,3737.5,1819.4,3737.5,1821.5z"/>
</g>
</svg>
