<?xml version="1.0" encoding="utf-8"?>
<!-- Generator: Adobe Illustrator 16.0.3, SVG Export Plug-In . SVG Version: 6.00 Build 0)  -->
<!DOCTYPE svg PUBLIC "-//W3C//DTD SVG 1.0//EN" "http://www.w3.org/TR/2001/REC-SVG-20010904/DTD/svg10.dtd">
<svg version="1.0" id="Layer_1" xmlns="http://www.w3.org/2000/svg" xmlns:xlink="http://www.w3.org/1999/xlink" x="0px" y="0px"
	 width="200px" height="200px" viewBox="3658.5 1799.5 200 200" enable-background="new 3658.5 1799.5 200 200"
	 xml:space="preserve">
<g>
	<path fill="none" d="M3730.9,1817.7h-0.1c-0.1,0-0.1,0-0.2,0c0,0,0,0,0,0c-0.1,0-0.1,0-0.2,0.1h0c0,0,0,0,0,0c0,0,0.1,0,0.1,0
		C3730.6,1817.7,3730.7,1817.7,3730.9,1817.7z"/>
	<polygon fill="none" points="3726,1923.2 3726,1923.2 3726,1923.2 	"/>
	<path fill="none" d="M3727.7,1874.8c0.1,0,0.1,0,0.2,0c0.4-0.2,0.7-0.4,1.1-0.7h-0.1c-0.4,0.3-0.9,0.6-1.4,0.8L3727.7,1874.8
		C3727.6,1874.8,3727.7,1874.8,3727.7,1874.8L3727.7,1874.8z"/>
	<path fill="none" d="M3729.2,1873.9C3729.2,1873.9,3729.2,1873.9,3729.2,1873.9c0.8-0.8,1.3-1.9,1.3-3.1c0,0,0,0,0,0l-0.8-26.1
		l-0.8-23.4c0,0,0,0,0,0l0-0.2c0,0,0-0.1,0-0.2c0,0,0-0.1,0-0.1c0.1-1,0.4-1.9,0.8-2.4c0,0,0.1-0.1,0.1-0.1c0,0,0.1-0.1,0.1-0.1
		c0.1-0.1,0.1-0.1,0.2-0.2c0,0,0,0,0,0h0c-0.8,0.4-1.4,1.7-1.4,3.2l1.6,49.7c0,1.2-0.5,2.3-1.3,3.1c0,0,0,0,0,0L3729.2,1873.9
		C3729.1,1873.9,3729.1,1873.9,3729.2,1873.9C3729.1,1873.9,3729.1,1873.9,3729.2,1873.9z"/>
	<path fill="none" d="M3730.2,1817.9c0,0,0.1,0,0.1-0.1C3730.3,1817.8,3730.2,1817.9,3730.2,1817.9z"/>
	<path fill="none" d="M3728.9,1924.2L3728.9,1924.2c-0.3-0.3-0.8-0.6-1.2-0.7c0,0-0.1,0-0.1,0
		C3728,1923.6,3728.5,1923.9,3728.9,1924.2z"/>
	<path fill="none" d="M3726,1875.1L3726,1875.1c-0.1,0-0.1,0-0.1,0L3726,1875.1C3726,1875.1,3726,1875.1,3726,1875.1z"/>
	<path fill="none" d="M3730.5,1926.8L3730.5,1926.8c0,0.2,0,0.5,0,0.7c0-0.1,0-0.2,0-0.3h0.1c0-0.1,0-0.2,0-0.2
		C3730.5,1926.9,3730.5,1926.8,3730.5,1926.8z"/>
	<path fill="none" d="M3778,1981.5C3778,1981.5,3778,1981.5,3778,1981.5C3778,1981.5,3778,1981.5,3778,1981.5
		C3778,1981.5,3778,1981.5,3778,1981.5z"/>
	<path fill="none" d="M3730.2,1925.8L3730.2,1925.8c0-0.1,0-0.1-0.1-0.2c-0.1-0.1-0.2-0.3-0.2-0.4h0c0,0,0,0,0,0
		c-0.1-0.1-0.1-0.2-0.2-0.3c-0.1-0.1-0.2-0.3-0.3-0.4c0,0,0-0.1-0.1-0.1c0,0,0,0,0,0l-0.1,0c0,0,0,0,0,0c0.5,0.5,0.9,1.2,1.1,1.9
		h0.1c0,0,0,0,0,0C3730.2,1926.1,3730.2,1925.9,3730.2,1925.8z"/>
	<path fill="#4F4F4F" d="M3730.1,1925.6c-0.1-0.1-0.1-0.3-0.2-0.4h0C3729.9,1925.3,3730,1925.5,3730.1,1925.6z"/>
	<polygon fill="#4F4F4F" points="3729.1,1873.9 3729.2,1873.9 3729.2,1873.9 3729.2,1873.9 	"/>
	<path fill="#4F4F4F" d="M3728.9,1820.9c0,0.1,0,0.2,0,0.2l0,0.2c0-1.2,0.3-2.3,0.9-2.9c-0.5,0.6-0.8,1.5-0.8,2.4
		C3728.9,1820.8,3728.9,1820.8,3728.9,1820.9z"/>
	<path fill="#4F4F4F" d="M3730.3,1926.3c0-0.2-0.1-0.3-0.1-0.5h0C3730.2,1925.9,3730.2,1926.1,3730.3,1926.3z"/>
	<path fill="#4F4F4F" d="M3727.7,1874.8C3727.8,1874.8,3727.8,1874.8,3727.7,1874.8C3727.8,1874.8,3727.7,1874.8,3727.7,1874.8
		L3727.7,1874.8z"/>
	<path fill="#4F4F4F" d="M3730.5,1870.8C3730.5,1870.8,3730.5,1870.8,3730.5,1870.8l-0.8-26.1L3730.5,1870.8
		C3730.5,1870.8,3730.5,1870.8,3730.5,1870.8z"/>
	<path fill="#4F4F4F" d="M3729.8,1818.2c0,0,0.1-0.1,0.1-0.1C3729.9,1818.1,3729.9,1818.1,3729.8,1818.2z"/>
	<path fill="#4F4F4F" d="M3729.7,1924.9c0.1,0.1,0.1,0.2,0.2,0.3C3729.8,1925.1,3729.7,1925,3729.7,1924.9z"/>
	<path fill="#4F4F4F" d="M3677.5,1872.6c-1.5-0.1-2.9,0.4-3.7,1.2c-0.5,0.5-0.8,1.1-0.8,1.8v47.3c0,0.6,0.3,1.2,0.8,1.7
		c0.8,0.9,2.3,1.4,3.7,1.3l3-0.1h5.5h0.1h0.1l40.9-1.3c0.5,0.1,1,0.4,1.4,0.7c0.7,0.6,1,1.5,1,2.4l-1.6,49.7c0,2.4,1.3,4.3,3,4.3
		h46.6h0.2h0.3h8.2h0.2h0.3c0,0,0-0.1,0.1-0.1c0,0,0,0,0,0c0,0,0.1,0,0.1,0h-0.1c0,0,0,0,0,0c0.1,0,0.2-0.1,0.3-0.1h-0.1
		c0.9-0.4,1.7-1.5,2-2.9c0,0,0,0,0-0.1c0.1-0.3,0.1-0.7,0.1-1.1h0c0-0.1,0-0.2,0-0.3h-0.1l-1.6-49.5h0.1c0-0.9,0.4-1.8,1-2.4
		c0.1-0.1,0.2-0.2,0.4-0.3c0.1-0.1,0.2-0.1,0.3-0.2c0,0,0,0,0,0c0,0,0.1,0,0.1-0.1l41.4,1.4c0.5,0,0.9,0,1.4-0.1h7.7h0.1h0.7
		c0.2,0,0.4-0.1,0.6-0.1h-0.1c0.2-0.1,0.3-0.1,0.5-0.2c0,0,0.1,0,0.1,0h0.1c0.1,0,0.3-0.1,0.5-0.2c0.2-0.1,0.4-0.3,0.6-0.4
		c0.1-0.1,0.2-0.2,0.3-0.3c0.3-0.3,0.5-0.5,0.6-0.8c0-0.1,0-0.2,0.1-0.2c0-0.1,0.1-0.1,0.1-0.2c0,0,0.1-0.1,0.1-0.1h0
		c0-0.1,0-0.2,0-0.3v-0.1v-47.3c0-0.1,0-0.1,0-0.2c0-0.1,0-0.1,0-0.2c0,0,0,0-0.1,0c0,0,0-0.1,0-0.1c0,0,0,0,0,0c0,0,0,0,0,0
		c0-0.1-0.1-0.2-0.1-0.3h0.1c-0.1-0.1-0.1-0.2-0.2-0.3h-0.1c0,0,0,0-0.1-0.1c-0.1-0.1-0.2-0.3-0.4-0.4c-0.8-0.8-2.2-1.3-3.5-1.3
		h-8.7l-0.3,0.1l-40.9,1.3c-0.5-0.1-0.9-0.4-1.4-0.7c-0.2-0.2-0.4-0.4-0.5-0.7h0c-0.1-0.1-0.1-0.3-0.2-0.4h0c0-0.1-0.1-0.2-0.1-0.3
		c-0.1-0.2-0.1-0.3-0.1-0.4c0-0.1,0-0.2,0-0.3c0,0,0-0.1,0-0.1c0-0.1,0-0.1,0-0.2h-0.1l1.6-49.7h0.1c0-0.2,0-0.3,0-0.5h0
		c0-0.3-0.1-0.5-0.1-0.7h0c-0.2-0.9-0.5-1.7-1-2.2c-0.1-0.1-0.1-0.1-0.2-0.2c0,0-0.1-0.1-0.1-0.1c-0.3-0.3-0.6-0.5-1-0.6
		c-0.2-0.1-0.4-0.1-0.6-0.1l-55.4,0.1c-1.7,0-3,1.9-3,4.6l1.6,49.5c0,0.9-0.4,1.8-1,2.4c-0.2,0.2-0.5,0.4-0.9,0.6l-41.3-1.4
		c-0.1,0-0.2,0-0.3,0h-8.3 M3730.3,1817.8c-0.1,0.1-0.1,0.1-0.1,0.1C3730.2,1817.9,3730.3,1817.8,3730.3,1817.8z M3777.5,1980.6
		h-37.8h-8.7c-1.1,0-2-1.5-2-3.3l1.6-49.6c0-0.2,0-0.3,0-0.5h-0.1c0,0.1,0,0.2,0,0.3c0-0.2,0-0.5-0.1-0.7h0.1c0,0.1,0,0.1,0,0.2
		c0-0.2-0.1-0.5-0.1-0.7h-0.1c-0.2-0.7-0.6-1.4-1.1-1.9c0,0,0,0,0,0l0.1,0c0,0,0,0,0,0c0,0,0,0.1,0.1,0.1c0,0,0-0.1-0.1-0.1
		c-0.4-0.4-1-0.7-1.6-0.9c0.5,0.2,0.9,0.4,1.3,0.7h-0.1c-0.4-0.3-0.8-0.6-1.3-0.8c-0.5-0.2-1-0.2-1.5-0.2l0,0l0,0h0l-48.5,1.6
		c-1.2,0.1-2.3-0.3-3-1c-0.2-0.2-0.5-0.6-0.5-1v-47.3c0-0.4,0.2-0.8,0.5-1.1c0.6-0.6,1.8-1,3-0.9l48.4,1.6c0,0,0,0,0,0l0.1,0
		c0.5,0,1.1-0.1,1.6-0.2l-0.2,0c0.5-0.2,1-0.4,1.4-0.8h0.1c0.1-0.1,0.2-0.1,0.2-0.2l-0.1,0c0,0,0,0,0,0c0.8-0.8,1.3-1.9,1.3-3.1
		l-1.6-49.7c0-1.5,0.6-2.8,1.4-3.2h0c0,0,0,0,0,0c0.1,0,0.1-0.1,0.2-0.1c0,0,0,0,0,0h0c0.1,0,0.1-0.1,0.2-0.1c0,0,0,0,0,0
		c0.1,0,0.1,0,0.2,0h0.1c-0.1,0-0.2,0-0.3,0.1c0.1,0,0.2-0.1,0.3-0.1h8.7h37.8h0.1c1.1,0,2,1.5,2,3.3l-1.6,49.6
		c0,1.4,0.5,2.5,1.3,3.3c0.8,0.8,2,1.2,3.2,1.2l48.6-1.6c1.2-0.1,2.3,0.3,3,1c0.2,0.2,0.5,0.6,0.5,1v47.3c0,0.4-0.2,0.8-0.5,1.1
		c-0.6,0.6-1.8,1-3,0.9l-48.5-1.6c-1.2-0.1-2.3,0.4-3.2,1.2c-0.8,0.8-1.3,1.9-1.3,3.1l1.6,49.5c0,2.1-1,3.6-2,3.6H3777.5z
		 M3778,1981.5C3778,1981.5,3778,1981.5,3778,1981.5C3778,1981.5,3778,1981.5,3778,1981.5C3778,1981.5,3778,1981.5,3778,1981.5z"/>
	<path d="M3779.6,1977l-1.6-49.5c0-1.2,0.5-2.3,1.3-3.1c0.9-0.8,2-1.3,3.2-1.2l48.5,1.6c1.2,0.1,2.4-0.3,3-0.9
		c0.3-0.3,0.5-0.7,0.5-1.1v-47.3c0-0.4-0.3-0.8-0.5-1c-0.7-0.7-1.8-1.1-3-1l-48.6,1.6c-1.2,0-2.4-0.4-3.2-1.2
		c-0.8-0.8-1.3-1.9-1.3-3.3l1.6-49.6c0-1.8-0.9-3.3-2-3.3h-0.1h-37.8h-8.7c-0.1,0-0.2,0-0.3,0.1c0,0-0.1,0-0.1,0
		c-0.1,0-0.1,0.1-0.2,0.1c-0.1,0-0.1,0.1-0.2,0.2c0,0-0.1,0.1-0.1,0.1c0,0-0.1,0.1-0.1,0.1c-0.5,0.6-0.9,1.7-0.9,2.9c0,0,0,0,0,0
		l0.8,23.4l0.8,26.1c0,0,0,0,0,0c0,1.2-0.5,2.3-1.3,3c0,0,0,0,0,0c0,0,0,0,0,0c0,0,0,0,0,0c-0.1,0.1-0.2,0.1-0.2,0.2
		c-0.3,0.3-0.7,0.5-1.1,0.7c0,0,0,0-0.1,0c-0.1,0-0.1,0-0.2,0.1c-0.5,0.2-1,0.3-1.6,0.2c0,0,0,0,0,0l-0.1,0l-48.4-1.6
		c-1.2-0.1-2.4,0.3-3,0.9c-0.3,0.3-0.5,0.7-0.5,1.1v47.3c0,0.4,0.3,0.8,0.5,1c0.7,0.7,1.8,1.1,3,1l48.5-1.6l0,0l0,0
		c0.5,0,1,0.1,1.5,0.2c0,0,0.1,0,0.1,0c0.6,0.2,1.2,0.5,1.6,0.9c0,0,0,0.1,0.1,0.1c0.1,0.1,0.2,0.3,0.3,0.4c0.1,0.1,0.1,0.2,0.2,0.3
		c0,0,0,0,0,0c0.1,0.1,0.2,0.3,0.2,0.4c0,0.1,0.1,0.1,0.1,0.2c0.1,0.1,0.1,0.3,0.1,0.5c0,0,0,0,0,0c0.1,0.2,0.1,0.4,0.1,0.7
		c0,0.1,0,0.1,0,0.2c0,0.2,0,0.3,0,0.5l-1.6,49.6c0,1.8,0.9,3.3,2,3.3h8.7h37.8h0.1C3778.6,1980.6,3779.6,1979.1,3779.6,1977z"/>
</g>
</svg>
