<?xml version="1.0" encoding="utf-8"?>
<!-- Generator: Adobe Illustrator 16.0.3, SVG Export Plug-In . SVG Version: 6.00 Build 0)  -->
<!DOCTYPE svg PUBLIC "-//W3C//DTD SVG 1.0//EN" "http://www.w3.org/TR/2001/REC-SVG-20010904/DTD/svg10.dtd">
<svg version="1.0" id="Layer_1" xmlns="http://www.w3.org/2000/svg" xmlns:xlink="http://www.w3.org/1999/xlink" x="0px" y="0px"
	 width="200px" height="200px" viewBox="0 0 200 200" enable-background="new 0 0 200 200" xml:space="preserve">
<g>
	<path fill="none" d="M3840.1,1871.6L3840.1,1871.6c0-0.2,0-0.2,0-0.3l0,0c0-0.1,0-0.1-0.1-0.2l0,0l0,0v0.1
		C3840.1,1871.3,3840.1,1871.4,3840.1,1871.6z"/>
	<path fill="none" d="M3734.6,1866.7L3734.6,1866.7L3734.6,1866.7z"/>
	<path fill="none" d="M3783,1868.4c0,0.1,0,0.1,0,0.2c0.2,0.4,0.4,0.7,0.7,1.1v-0.1c-0.3-0.4-0.6-0.9-0.8-1.4L3783,1868.4
		C3783,1868.3,3783,1868.4,3783,1868.4L3783,1868.4z"/>
	<path fill="none" d="M3783.9,1869.9L3783.9,1869.9c0.8,0.8,1.9,1.3,3.1,1.3l0,0l26.1-0.8l23.4-0.8l0,0h0.2c0,0,0.1,0,0.2,0h0.1
		c1,0.1,1.9,0.4,2.4,0.8l0.1,0.1l0.1,0.1c0.1,0.1,0.1,0.1,0.2,0.2l0,0l0,0c-0.4-0.8-1.7-1.4-3.2-1.4l-49.7,1.6
		c-1.2,0-2.3-0.5-3.1-1.3l0,0L3783.9,1869.9C3783.9,1869.8,3783.9,1869.8,3783.9,1869.9C3783.9,1869.8,3783.9,1869.8,3783.9,1869.9z
		"/>
	<path fill="none" d="M3839.9,1870.9C3839.9,1870.9,3839.9,1871,3839.9,1870.9L3839.9,1870.9z"/>
	<path fill="none" d="M3733.6,1869.6L3733.6,1869.6c0.3-0.3,0.6-0.8,0.7-1.2v-0.1C3734.2,1868.7,3733.9,1869.2,3733.6,1869.6z"/>
	<path fill="none" d="M3782.7,1866.7L3782.7,1866.7C3782.7,1866.6,3782.7,1866.6,3782.7,1866.7L3782.7,1866.7L3782.7,1866.7z"/>
	<path fill="none" d="M3731,1871.2L3731,1871.2c-0.2,0-0.5,0-0.7,0c0.1,0,0.2,0,0.3,0v0.1c0.1,0,0.2,0,0.2,0
		C3730.9,1871.2,3731,1871.2,3731,1871.2z"/>
	<path fill="none" d="M3676.3,1918.7L3676.3,1918.7L3676.3,1918.7L3676.3,1918.7z"/>
	<path fill="none" d="M3732,1870.9L3732,1870.9c0.1,0,0.1,0,0.2-0.1c0.1-0.1,0.3-0.2,0.4-0.2l0,0l0,0c0.1-0.1,0.2-0.1,0.3-0.2
		s0.3-0.2,0.4-0.3c0,0,0.1,0,0.1-0.1l0,0v-0.1l0,0c-0.5,0.5-1.2,0.9-1.9,1.1v0.1l0,0C3731.7,1870.9,3731.9,1870.9,3732,1870.9z"/>
	<path fill="#4F4F4F" d="M3732.2,1870.8c0.1-0.1,0.3-0.1,0.4-0.2l0,0C3732.5,1870.6,3732.3,1870.7,3732.2,1870.8z"/>
	<polygon fill="#4F4F4F" points="3783.9,1869.8 3783.9,1869.9 3783.9,1869.9 3783.9,1869.9 	"/>
	<path fill="#4F4F4F" d="M3836.9,1869.6c-0.1,0-0.2,0-0.2,0h-0.2c1.2,0,2.3,0.3,2.9,0.9C3838.8,1870,3837.9,1869.7,3836.9,1869.6
		C3837,1869.6,3837,1869.6,3836.9,1869.6z"/>
	<path fill="#4F4F4F" d="M3731.5,1871c0.2,0,0.3-0.1,0.5-0.1l0,0C3731.9,1870.9,3731.7,1870.9,3731.5,1871z"/>
	<path fill="#4F4F4F" d="M3783,1868.4C3783,1868.5,3783,1868.5,3783,1868.4C3783,1868.5,3783,1868.4,3783,1868.4L3783,1868.4z"/>
	<path fill="#4F4F4F" d="M3787,1871.2L3787,1871.2l26.1-0.8L3787,1871.2L3787,1871.2z"/>
	<path fill="#4F4F4F" d="M3839.6,1870.5l0.1,0.1C3839.7,1870.6,3839.7,1870.6,3839.6,1870.5z"/>
	<path fill="#4F4F4F" d="M3732.9,1870.4c-0.1,0.1-0.2,0.1-0.3,0.2C3732.7,1870.5,3732.8,1870.4,3732.9,1870.4z"/>
	<path fill="#4F4F4F" d="M3785.2,1818.2c0.1-1.5-0.4-2.9-1.2-3.7c-0.5-0.5-1.1-0.8-1.8-0.8h-47.3c-0.6,0-1.2,0.3-1.7,0.8
		c-0.9,0.8-1.4,2.3-1.3,3.7l0.1,3v5.5v0.1v0.1l1.3,40.9c-0.1,0.5-0.4,1-0.7,1.4c-0.6,0.7-1.5,1-2.4,1l-49.7-1.6
		c-2.4,0-4.3,1.3-4.3,3v46.6v0.2v0.3v8.2v0.2v0.3c0,0,0.1,0,0.1,0.1l0,0v0.1v-0.1l0,0c0,0.1,0.1,0.2,0.1,0.3v-0.1
		c0.4,0.9,1.5,1.7,2.9,2c0,0,0,0,0.1,0c0.3,0.1,0.7,0.1,1.1,0.1l0,0c0.1,0,0.2,0,0.3,0v-0.1l49.5-1.6v0.1c0.9,0,1.8,0.4,2.4,1
		c0.1,0.1,0.2,0.2,0.3,0.4c0.1,0.1,0.1,0.2,0.2,0.3l0,0c0,0,0,0.1,0.1,0.1l-1.4,41.4c0,0.5,0,0.9,0.1,1.4v7.7v0.1v0.7
		c0,0.2,0.1,0.4,0.1,0.6v-0.1c0.1,0.2,0.1,0.3,0.2,0.5v0.1v0.1c0,0.1,0.1,0.3,0.2,0.5c0.1,0.2,0.3,0.4,0.4,0.6
		c0.1,0.1,0.2,0.2,0.3,0.3c0.3,0.3,0.5,0.5,0.8,0.6c0.1,0,0.2,0,0.2,0.1c0.1,0,0.1,0.1,0.2,0.1l0.1,0.1l0,0c0.1,0,0.2,0,0.3,0h0.1
		h47.3c0.1,0,0.1,0,0.2,0c0.1,0,0.1,0,0.2,0c0,0,0,0,0-0.1h0.1l0,0l0,0c0.1,0,0.2-0.1,0.3-0.1v0.1c0.1-0.1,0.2-0.1,0.3-0.2v-0.1
		c0,0,0,0,0.1-0.1c0.1-0.1,0.3-0.2,0.4-0.4c0.8-0.8,1.3-2.2,1.3-3.5v-8.7l-0.1-0.3l-1.3-40.9c0.1-0.5,0.4-0.9,0.7-1.4
		c0.2-0.2,0.4-0.4,0.7-0.5l0,0c0.1-0.1,0.3-0.1,0.4-0.2l0,0c0.1,0,0.2-0.1,0.3-0.1c0.2-0.1,0.3-0.1,0.4-0.1s0.2,0,0.3,0h0.1
		c0.1,0,0.1,0,0.2,0v-0.1l49.7,1.6v0.1c0.2,0,0.3,0,0.5,0l0,0c0.3,0,0.5-0.1,0.7-0.1l0,0c0.9-0.2,1.7-0.5,2.2-1
		c0.1-0.1,0.1-0.1,0.2-0.2l0.1-0.1c0.3-0.3,0.5-0.6,0.6-1c0.1-0.2,0.1-0.4,0.1-0.6l-0.1-55.4c0-1.7-1.9-3-4.6-3l-49.5,1.6
		c-0.9,0-1.8-0.4-2.4-1c-0.2-0.2-0.4-0.5-0.6-0.9l1.4-41.3c0-0.1,0-0.2,0-0.3L3785.2,1818.2 M3840,1871
		C3839.9,1870.9,3839.9,1870.9,3840,1871L3840,1871z M3677.2,1918.2v-37.8v-8.7c0-1.1,1.5-2,3.3-2l49.6,1.6c0.2,0,0.3,0,0.5,0v-0.1
		c-0.1,0-0.2,0-0.3,0c0.2,0,0.5,0,0.7-0.1v0.1c-0.1,0-0.1,0-0.2,0c0.2,0,0.5-0.1,0.7-0.1v-0.1c0.7-0.2,1.4-0.6,1.9-1.1l0,0v0.1l0,0
		c0,0-0.1,0-0.1,0.1c0,0,0.1,0,0.1-0.1c0.4-0.4,0.7-1,0.9-1.6c-0.2,0.5-0.4,0.9-0.7,1.3v-0.1c0.3-0.4,0.6-0.8,0.8-1.3s0.2-1,0.2-1.5
		l0,0l0,0l0,0l-1.6-48.5c-0.1-1.2,0.3-2.3,1-3c0.2-0.2,0.6-0.5,1-0.5h47.3c0.4,0,0.8,0.2,1.1,0.5c0.6,0.6,1,1.8,0.9,3l-1.6,48.4l0,0
		v0.1c0,0.5,0.1,1.1,0.2,1.6v-0.2c0.2,0.5,0.4,1,0.8,1.4v0.1c0.1,0.1,0.1,0.2,0.2,0.2v-0.1l0,0c0.8,0.8,1.9,1.3,3.1,1.3l49.7-1.6
		c1.5,0,2.8,0.6,3.2,1.4l0,0l0,0c0,0.1,0.1,0.1,0.1,0.2l0,0l0,0c0,0.1,0.1,0.1,0.1,0.2l0,0c0,0.1,0,0.1,0,0.2v0.1
		c0-0.1,0-0.2-0.1-0.3c0,0.1,0.1,0.2,0.1,0.3v8.7v37.8v0.1c0,1.1-1.5,2-3.3,2l-49.6-1.6c-1.4,0-2.5,0.5-3.3,1.3
		c-0.8,0.8-1.2,2-1.2,3.2l1.6,48.6c0.1,1.2-0.3,2.3-1,3c-0.2,0.2-0.6,0.5-1,0.5H3735c-0.4,0-0.8-0.2-1.1-0.5c-0.6-0.6-1-1.8-0.9-3
		l1.6-48.5c0.1-1.2-0.4-2.3-1.2-3.2c-0.8-0.8-1.9-1.3-3.1-1.3l-49.5,1.6C3678.7,1920.3,3677.2,1919.3,3677.2,1918.2L3677.2,1918.2
		L3677.2,1918.2z M3676.3,1918.7L3676.3,1918.7L3676.3,1918.7L3676.3,1918.7z"/>
	<path d="M3680.8,1920.3l49.5-1.6c1.2,0,2.3,0.5,3.1,1.3c0.8,0.9,1.3,2,1.2,3.2l-1.6,48.5c-0.1,1.2,0.3,2.4,0.9,3
		c0.3,0.3,0.7,0.5,1.1,0.5h47.3c0.4,0,0.8-0.3,1-0.5c0.7-0.7,1.1-1.8,1-3l-1.6-48.6c0-1.2,0.4-2.4,1.2-3.2s1.9-1.3,3.3-1.3l49.6,1.6
		c1.8,0,3.3-0.9,3.3-2v-0.1v-37.8v-8.7c0-0.1,0-0.2-0.1-0.3v-0.1c0-0.1-0.1-0.1-0.1-0.2s-0.1-0.1-0.2-0.2l-0.1-0.1l-0.1-0.1
		c-0.6-0.5-1.7-0.9-2.9-0.9l0,0l-23.4,0.8l-26.1,0.8l0,0c-1.2,0-2.3-0.5-3-1.3l0,0l0,0l0,0c-0.1-0.1-0.1-0.2-0.2-0.2
		c-0.3-0.3-0.5-0.7-0.7-1.1c0,0,0,0,0-0.1c0-0.1,0-0.1-0.1-0.2c-0.2-0.5-0.3-1-0.2-1.6l0,0v-0.1l1.6-48.4c0.1-1.2-0.3-2.4-0.9-3
		c-0.3-0.3-0.7-0.5-1.1-0.5h-47.3c-0.4,0-0.8,0.3-1,0.5c-0.7,0.7-1.1,1.8-1,3l1.6,48.5l0,0l0,0c0,0.5-0.1,1-0.2,1.5v0.1
		c-0.2,0.6-0.5,1.2-0.9,1.6c0,0-0.1,0-0.1,0.1c-0.1,0.1-0.3,0.2-0.4,0.3c-0.1,0.1-0.2,0.1-0.3,0.2l0,0c-0.1,0.1-0.3,0.2-0.4,0.2
		s-0.1,0.1-0.2,0.1c-0.1,0.1-0.3,0.1-0.5,0.1l0,0c-0.2,0.1-0.4,0.1-0.7,0.1c-0.1,0-0.1,0-0.2,0c-0.2,0-0.3,0-0.5,0l-49.6-1.6
		c-1.8,0-3.3,0.9-3.3,2v8.7v37.8v0.1C3677.2,1919.3,3678.7,1920.3,3680.8,1920.3z"/>
</g>
</svg>
