<svg xmlns="http://www.w3.org/2000/svg" xmlns:xlink="http://www.w3.org/1999/xlink" version="1.1" id="Calque_1" x="0px" y="0px" width="100px" height="100px" viewBox="0 0 100 100" enable-background="new 0 0 100 100" xml:space="preserve">
<g>
	<g>
		<path d="M94.038,0.327h-5.633l-36.62,36.62c-0.388-0.388-0.897-0.581-1.409-0.581c-0.511,0-1.021,0.193-1.408,0.581l-9.86,9.859    c-0.603,0.604-1.646,0.979-2.577,0.979c-0.264,0-0.519-0.03-0.752-0.094l-11.65-3.178c-0.233-0.063-0.488-0.094-0.752-0.094    c-0.931,0-1.974,0.375-2.578,0.979L1.081,65.116c-0.774,0.774-0.987,2.2-0.473,3.167c0,0,5.48,10.292,13.149,17.961    c7.668,7.667,17.959,13.147,17.959,13.147c0.357,0.19,0.777,0.281,1.203,0.281c0.728,0,1.476-0.266,1.964-0.754l19.719-19.718    c0.773-0.774,1.172-2.272,0.884-3.33L52.31,64.222c-0.289-1.058,0.109-2.557,0.885-3.33l9.859-9.859    c0.773-0.775,0.773-2.042,0-2.817l-0.705-0.704l1.408-1.408l0.705,0.704l2.816-2.816v-1.409h1.408l2.817-2.817v-1.408h1.408    l16.901-16.901v-1.408h1.408l8.451-8.451V5.962L94.038,0.327z M51.78,59.477c-1.293,1.291-1.881,3.508-1.401,5.271l3.177,11.649    c0.101,0.367-0.1,1.12-0.368,1.39L33.469,97.505c-0.068,0.067-0.289,0.168-0.55,0.168c-0.139,0-0.231-0.029-0.263-0.046    c-0.101-0.054-10.128-5.44-17.486-12.797C7.813,77.472,2.427,67.443,2.374,67.344c-0.101-0.19-0.031-0.661,0.121-0.813    l19.718-19.718c0.165-0.164,0.661-0.393,1.164-0.393c0.127,0,0.201,0.017,0.226,0.023l11.65,3.178    c0.4,0.108,0.83,0.164,1.278,0.164c1.498,0,3.027-0.6,3.991-1.564l9.848-9.859l1.415,1.414L89.233,2.327h0.923L46.617,45.865    l1.415,1.414L92.984,2.327h0.226l0.82,0.82L48.965,48.212l1.414,1.414L95.444,4.562l1.403,1.403L51.075,51.736l1.705,1.704h3.645    l4.513-4.514l0.702,0.691L51.78,59.477z M97.673,10.767l-7.279,7.279h-2.58v2.58l-15.73,15.729h-2.579v2.58l-1.646,1.646h-2.58    v2.581l-0.816,0.816l-0.705-0.704l-4.236,4.236l0.003,0.003l-3.927,3.927h-1.397L97.673,7.968V10.767z M36.142,50.899    l-13.044-3.557L3.454,66.985c0.041,0.069,0.082,0.141,0.124,0.213c2.256,3.872,6.456,11.08,12.3,16.925    c5.845,5.844,13.053,10.043,16.926,12.3c0.071,0.042,0.142,0.082,0.21,0.122l19.644-19.643L49.1,63.857L36.142,50.899z     M32.69,94.04c-3.953-2.321-10.255-6.189-15.398-11.331c-5.143-5.144-9.01-11.444-11.333-15.4l17.732-17.731l11.412,3.112    l12.207,12.207l3.112,11.412L32.69,94.04z M23.616,70.407c-1.529,0-3.059,0.584-4.226,1.753c-2.334,2.334-2.333,6.115,0,8.449    c1.167,1.167,2.696,1.751,4.226,1.751c1.529,0,3.058-0.584,4.225-1.751c2.333-2.332,2.333-6.116,0-8.45    C26.674,70.991,25.146,70.407,23.616,70.407z M26.427,79.195c-0.751,0.751-1.749,1.165-2.811,1.165    c-1.062,0-2.06-0.414-2.812-1.165c-0.751-0.751-1.165-1.75-1.165-2.811c0-1.062,0.414-2.06,1.166-2.812    c0.751-0.752,1.749-1.166,2.811-1.166c1.062,0,2.06,0.414,2.811,1.166c0.751,0.751,1.165,1.75,1.165,2.812    S27.178,78.444,26.427,79.195z"/>
	</g>
</g>
</svg>