<?xml version="1.0" encoding="utf-8"?>
<!-- Generator: Adobe Illustrator 16.0.3, SVG Export Plug-In . SVG Version: 6.00 Build 0)  -->
<!DOCTYPE svg PUBLIC "-//W3C//DTD SVG 1.0//EN" "http://www.w3.org/TR/2001/REC-SVG-20010904/DTD/svg10.dtd">
<svg version="1.0" id="Layer_1" xmlns="http://www.w3.org/2000/svg" xmlns:xlink="http://www.w3.org/1999/xlink" x="0px" y="0px"
	 width="1167.4px" height="780.4px" viewBox="0 0 1167.4 780.4" enable-background="new 0 0 1167.4 780.4" xml:space="preserve">
<g>
	<g>
		<g>
			<path fill="#DEDEDE" d="M53.2,57.9L53.2,57.9v375.6l0,0l89.1,74.1l0,0h424.4l0,0V57.9l0,0H53.2z M537.3,415.7L537.3,415.7H82.7
				l0,0V118.2l0,0h454.6l0,0V415.7z"/>
		</g>
	</g>
</g>
<g>
	<path fill="none" stroke="#DC0A2D" stroke-miterlimit="10" d="M588.5,743.9c0,7-5.8,12.8-12.8,12.8H40.3c-7,0-12.8-5.8-12.8-12.8
		V44.1c0-7,5.8-12.8,12.8-12.8h535.4c7,0,12.8,5.8,12.8,12.8V743.9z"/>
</g>
<g>
	<path fill="none" stroke="#DC0A2D" stroke-miterlimit="10" d="M1139.1,744c0,7-5.7,12.7-12.7,12.7H601.2c-7,0-12.7-5.7-12.7-12.7
		V44c0-7,5.7-12.7,12.7-12.7h525.3c7,0,12.7,5.7,12.7,12.7L1139.1,744L1139.1,744z"/>
</g>
<g>
	<rect x="631.5" y="500.4" fill="#DEDEDE" width="119.1" height="107.3"/>
	<rect x="750.6" y="500.4" fill="#DEDEDE" width="119.1" height="107.3"/>
</g>
<circle fill="#FF002B" cx="172.6" cy="459.1" r="17.6"/>
<path fill="#FF002B" d="M286.2,92.1c0,4.5-3.7,8.2-8.2,8.2s-8.2-3.7-8.2-8.2s3.7-8.2,8.2-8.2S286.2,87.6,286.2,92.1z"/>
<path fill="#FF002B" d="M350.1,92.1c0,4.5-3.7,8.2-8.2,8.2s-8.2-3.7-8.2-8.2s3.7-8.2,8.2-8.2C346.5,83.9,350.1,87.6,350.1,92.1z"/>
<line fill="none" stroke="#231F20" stroke-width="3.4067" stroke-linecap="round" stroke-miterlimit="10" x1="447" y1="438.6" x2="520.8" y2="438.6"/>
<line fill="none" stroke="#231F20" stroke-width="3.4067" stroke-linecap="round" stroke-miterlimit="10" x1="447" y1="455.1" x2="520.8" y2="455.1"/>
<line fill="none" stroke="#231F20" stroke-width="3.4067" stroke-linecap="round" stroke-miterlimit="10" x1="447" y1="471.5" x2="520.8" y2="471.5"/>
<line fill="none" stroke="#231F20" stroke-width="3.4067" stroke-linecap="round" stroke-miterlimit="10" x1="447" y1="488" x2="520.8" y2="488"/>
<g>
	<g>
		<path fill="#E9667C" d="M986.4,488.1c0,3.5-3.5,6.4-7.8,6.4h-73.7c-4.3,0-7.8-2.9-7.8-6.4s3.5-6.4,7.8-6.4h73.7
			C982.8,481.7,986.4,484.6,986.4,488.1z"/>
	</g>
	<g>
		<path fill="#036592" d="M1091.5,488.1c0,3.5-3.5,6.4-7.8,6.4H1010c-4.3,0-7.8-2.9-7.8-6.4s3.5-6.4,7.8-6.4h73.7
			C1088,481.7,1091.5,484.6,1091.5,488.1z"/>
	</g>
</g>
<g>
	<path fill="#51AE5F" d="M537.3,694.3c0,6.6-5.4,12-12,12H323.8c-6.6,0-12-5.4-12-12V576.2c0-6.6,5.4-12,12-12h201.4
		c6.6,0,12,5.4,12,12L537.3,694.3L537.3,694.3z"/>
</g>
<g>
	<g>
		<g>
			<path fill="#BFBFBF" d="M1028.7,588.9c-2.3,0.1-4.1-1.7-4-4l1.6-49.3c0.1-2.3-1-4.1-2.5-4.1s-4.5,0-6.7,0h-33.9
				c-2.3,0-5.3,0-6.7,0s-2.6,1.9-2.5,4.1l1.6,49.3c0.1,2.3-1.7,4.1-4,4l-49.3-1.6c-2.3-0.1-4.1,1-4.1,2.5s0,4.5,0,6.7v33.9
				c0,2.3,0,5.3,0,6.7c0,1.4,1.9,2.6,4.1,2.5l49.3-1.6c2.3-0.1,4.1,1.7,4,4l-1.6,49.3c-0.1,2.3,1,4.1,2.5,4.1s4.5,0,6.7,0h33.9
				c2.3,0,5.3,0,6.7,0c1.4,0,2.6-1.9,2.5-4.1l-1.6-49.3c-0.1-2.3,1.7-4.1,4-4l49.3,1.6c2.3,0.1,4.1-1,4.1-2.5s0-4.5,0-6.7v-33.9
				c0-2.3,0-5.3,0-6.7c0-1.4-1.9-2.6-4.1-2.5L1028.7,588.9z"/>
		</g>
	</g>
</g>
<g>
	<circle fill="#D8B716" cx="681.5" cy="681" r="33.6"/>
	<circle fill="#FFE024" cx="679.4" cy="677.7" r="26.4"/>
</g>
<g>
	<circle fill="#F3CD33" cx="163.8" cy="577.7" r="27.6"/>
	<circle fill="#47BA78" cx="163.8" cy="692.7" r="27.6"/>
	<circle fill="#4993C3" cx="106.3" cy="635.2" r="27.6"/>
	<circle fill="#C9574B" cx="221.3" cy="635.2" r="27.6"/>
	<path fill="#EFC20F" d="M183.4,597.3c-10.8,10.8-28.3,10.8-39.1,0s-10.8-28.3,0-39.1L183.4,597.3z"/>
	<path fill="#27AE60" d="M183.4,712.3c-10.8,10.8-28.3,10.8-39.1,0s-10.8-28.3,0-39.1L183.4,712.3z"/>
	<path fill="#2980B9" d="M125.8,654.6c-10.8,10.8-28.3,10.8-39.1,0c-10.8-10.8-10.8-28.3,0-39.1L125.8,654.6z"/>
	<path fill="#C0392B" d="M240.8,654.6c-10.8,10.8-28.3,10.8-39.1,0c-10.8-10.8-10.8-28.3,0-39.1L240.8,654.6z"/>
</g>
<g>
	<path fill="#62D16F" d="M322.4,570.6c-5.6-3.5-4.8-6.4,1.8-6.4h201.4c6.6,0,12,5.4,12,12v118.1c0,6.6-4.6,9.1-10.2,5.6L322.4,570.6
		z"/>
</g>
<g>
	<polygon points="1000.4,613.2 1025.2,637.9 1082.7,639.8 1082.7,634.6 1082.7,592.4 1082.7,587.2 1025.2,589 1025.2,588.5 	"/>
	<polygon points="1000.7,613.7 976,589 918.4,587.2 918.4,592.4 918.4,634.5 918.4,639.8 976,637.9 976,638.5 	"/>
	<polygon points="1000.2,613.6 1024.9,588.9 1026.8,531.3 1021.5,531.3 979.4,531.3 974.1,531.3 976,588.9 975.5,588.9 	"/>
	<polygon points="1000.7,613.3 976,638.1 974.1,695.6 979.4,695.6 1021.5,695.6 1026.8,695.6 1024.9,638.1 1025.4,638.1 	"/>
</g>
<g>
	<circle fill="#F3CD33" cx="164.3" cy="577.7" r="27.6"/>
	<circle fill="#47BA78" cx="164.3" cy="692.7" r="27.6"/>
	<circle fill="#4993C3" cx="106.8" cy="635.2" r="27.6"/>
	<path fill="#EFC20F" d="M183.8,597.3c-10.8,10.8-28.3,10.8-39.1,0s-10.8-28.3,0-39.1L183.8,597.3z"/>
	<path fill="#27AE60" d="M183.8,712.3c-10.8,10.8-28.3,10.8-39.1,0s-10.8-28.3,0-39.1L183.8,712.3z"/>
	<path fill="#2980B9" d="M126.3,654.6c-10.8,10.8-28.3,10.8-39.1,0c-10.8-10.8-10.8-28.3,0-39.1L126.3,654.6z"/>
	<g>
		<circle fill="#C9574B" cx="221.8" cy="635.2" r="27.6"/>
		<path fill="#C0392B" d="M241.3,654.6c-10.8,10.8-28.3,10.8-39.1,0c-10.8-10.8-10.8-28.3,0-39.1L241.3,654.6z"/>
	</g>
	<g opacity="0.23">
		<g>
			<path fill="#FFFFFF" d="M233.2,635.2c2.5,0,4.2,0.5,5.3,1.6c1.1,1.1,1.5,2.7,1.5,4.7c0,2.9-0.9,5-2.7,6.2s-5,1.9-9.4,1.9h-22.2
				V622h21.5c4.1,0,7.1,0.5,9,1.5c1.9,1,2.9,2.9,2.9,5.5c0,1.8-0.4,3.2-1.1,4C237.3,634,235.7,634.7,233.2,635.2z M223.9,632.9
				c0.6,0,1.1,0,1.6,0s1,0,1.5,0c1.3,0,2.2-0.2,2.7-0.5c0.5-0.3,0.7-1,0.7-2.1c0-1.1-0.3-1.8-0.9-2.1c-0.6-0.2-1.9-0.4-3.8-0.4
				h-11.5v5h9.7V632.9z M224,644.3h2c2.1,0,3.5-0.2,4.3-0.5s1.2-1.2,1.2-2.6c0-1.6-0.5-2.4-1.6-2.6c-1.1-0.2-2.6-0.2-4.6-0.2h-11.1
				v5.9H224L224,644.3z"/>
		</g>
		<g>
			<path fill="#FFFFFF" d="M169.8,562.1l14.3,27.6h-8.8l-2.7-5.1h-17.4l-2.5,5.1h-9l14.1-27.6H169.8z M157.9,578.6H170l-6.1-11.5
				L157.9,578.6z"/>
		</g>
		<g>
			<g>
				<path fill="#FFFFFF" d="M173.6,680.8h9.9L168,697.9v10.5h-8.5v-10.5l-15.1-17.1h9.8l9.7,11.3L173.6,680.8z"/>
			</g>
			<g>
				<path fill="#FFFFFF" d="M113.6,634.1l13.3,14.2H117l-10.1-11.1l-10.2,11.1H86.6l13.7-14.2l-12.7-13.4h10.1l9.2,10.5l9.2-10.5
					h9.8L113.6,634.1z"/>
			</g>
		</g>
	</g>
</g>
<g id="down">
	<g>
		<g>
			<g enable-background="new    ">
				<g>
					<rect x="976.5" y="531.2" fill="#303030" width="47.3" height="7.8"/>
				</g>
				<g enable-background="new    ">
					<g>
						<defs>
							<path id="SVGID_517_" d="M1025.8,534.5v7.8c0-1.2-0.3-2.2-0.9-2.8c-0.3-0.3-0.7-0.5-1.1-0.5v-7.8c0.4,0,0.8,0.2,1.1,0.5
								C1025.5,532.3,1025.8,533.3,1025.8,534.5z"/>
						</defs>
						<clipPath id="SVGID_2_">
							<use xlink:href="#SVGID_517_"  overflow="visible"/>
						</clipPath>
						<g clip-path="url(#SVGID_2_)" enable-background="new    ">
							<path fill="#323232" d="M1025.8,534.5v7.8c0-1.2-0.3-2.2-0.9-2.8c-0.3-0.3-0.7-0.5-1.1-0.5v-7.8c0.4,0,0.8,0.2,1.1,0.5
								C1025.5,532.3,1025.8,533.3,1025.8,534.5"/>
						</g>
					</g>
				</g>
				<g enable-background="new    ">
					<g>
						<defs>
							<path id="SVGID_519_" d="M974.5,542.3v-7.8c0-1.1,0.4-2.2,1-2.8c0.2-0.2,0.6-0.5,1-0.5v7.8c-0.4,0-0.8,0.3-1,0.5
								C974.9,540.2,974.5,541.2,974.5,542.3z"/>
						</defs>
						<clipPath id="SVGID_4_">
							<use xlink:href="#SVGID_519_"  overflow="visible"/>
						</clipPath>
						<g clip-path="url(#SVGID_4_)" enable-background="new    ">
							<path fill="#323232" d="M976.5,531.2v7.8c-0.4,0-0.8,0.3-1,0.5c-0.1,0.1-0.1,0.2-0.2,0.3V532c0.1-0.1,0.1-0.2,0.2-0.3
								C975.7,531.5,976.1,531.2,976.5,531.2"/>
							<path fill="#343434" d="M975.3,532v7.8c-0.1,0.2-0.3,0.4-0.4,0.7v-7.8C975,532.4,975.1,532.2,975.3,532"/>
							<path fill="#363636" d="M974.9,532.6v7.8c-0.1,0.3-0.2,0.6-0.3,0.9v-7.8C974.7,533.2,974.8,532.9,974.9,532.6"/>
							<path fill="#383838" d="M974.6,533.5v7.8c-0.1,0.3-0.1,0.7-0.1,1v-7.8C974.5,534.2,974.6,533.8,974.6,533.5"/>
						</g>
					</g>
				</g>
				<g enable-background="new    ">
					<g>
						<defs>
							<path id="SVGID_521_" d="M974.5,542.3v-7.8c0,0.1,0,0.2,0,0.2v7.8C974.5,542.5,974.5,542.4,974.5,542.3z"/>
						</defs>
						<clipPath id="SVGID_6_">
							<use xlink:href="#SVGID_521_"  overflow="visible"/>
						</clipPath>
						<g clip-path="url(#SVGID_6_)" enable-background="new    ">
							<path d="M974.5,534.7v7.8c0-0.1,0-0.2,0-0.2v-7.8C974.5,534.6,974.5,534.6,974.5,534.7"/>
						</g>
					</g>
				</g>
				<g enable-background="new    ">
					<g>
						<defs>
							<path id="SVGID_523_" d="M1025.8,534.5v7.8c0,0.1,0,0.2,0,0.3v-7.8C1025.8,534.6,1025.8,534.6,1025.8,534.5z"/>
						</defs>
						<clipPath id="SVGID_8_">
							<use xlink:href="#SVGID_523_"  overflow="visible"/>
						</clipPath>
						<g clip-path="url(#SVGID_8_)" enable-background="new    ">
							<path d="M1025.8,534.5v7.8c0,0.1,0,0.2,0,0.3v-7.8C1025.8,534.6,1025.8,534.6,1025.8,534.5"/>
						</g>
					</g>
				</g>
				<g enable-background="new    ">
					<g>
						<defs>
							<path id="SVGID_525_" d="M1026.8,534.5v7.8c0,0.1,0,0.2,0,0.3v-7.8C1026.8,534.7,1026.8,534.6,1026.8,534.5z"/>
						</defs>
						<clipPath id="SVGID_10_">
							<use xlink:href="#SVGID_525_"  overflow="visible"/>
						</clipPath>
						<g clip-path="url(#SVGID_10_)" enable-background="new    ">
							<path fill="#383838" d="M1026.8,534.5v7.8c0,0.1,0,0.2,0,0.3v-7.8C1026.8,534.7,1026.8,534.6,1026.8,534.5"/>
						</g>
					</g>
				</g>
				<g enable-background="new    ">
					<g>
						<defs>
							<path id="SVGID_527_" d="M973.5,542.3v-7.8c0,0.1,0,0.2,0,0.3v7.8C973.5,542.5,973.5,542.4,973.5,542.3z"/>
						</defs>
						<clipPath id="SVGID_12_">
							<use xlink:href="#SVGID_527_"  overflow="visible"/>
						</clipPath>
						<g clip-path="url(#SVGID_12_)" enable-background="new    ">
							<path fill="#323232" d="M973.5,534.8v7.8c0-0.1,0-0.2,0-0.3v-7.8C973.5,534.6,973.5,534.7,973.5,534.8"/>
						</g>
					</g>
				</g>
				<g>
					<polygon points="1025.8,534.7 1025.8,542.6 1024.2,591.2 1024.2,583.4 					"/>
				</g>
				<g>
					<polygon points="976.1,583.4 976.1,591.3 974.5,542.5 974.5,534.7 					"/>
				</g>
				<g>
					<polygon fill="#373737" points="1026.8,534.8 1026.8,542.6 1025.2,591.3 1025.2,583.5 					"/>
				</g>
				<g>
					<polygon fill="#303030" points="975.1,583.5 975.1,591.3 973.5,542.6 973.5,534.8 					"/>
				</g>
				<g enable-background="new    ">
					<g>
						<defs>
							<path id="SVGID_529_" d="M976.1,591.4c0-0.1,0-0.1,0-0.2v-7.8c0,0.1,0,0.1,0,0.2C976.1,586,976.1,589.1,976.1,591.4z"/>
						</defs>
						<clipPath id="SVGID_14_">
							<use xlink:href="#SVGID_529_"  overflow="visible"/>
						</clipPath>
						<g clip-path="url(#SVGID_14_)" enable-background="new    ">
							<path d="M976.1,583.6v7.8c0-0.1,0-0.1,0-0.2v-7.8C976.1,583.5,976.1,583.5,976.1,583.6"/>
						</g>
					</g>
				</g>
				<g enable-background="new    ">
					<g>
						<defs>
							<path id="SVGID_531_" d="M1025.2,591.5v-7.8c0-0.1,0-0.1,0-0.2v7.8C1025.2,591.3,1025.2,591.4,1025.2,591.5z"/>
						</defs>
						<clipPath id="SVGID_16_">
							<use xlink:href="#SVGID_531_"  overflow="visible"/>
						</clipPath>
						<g clip-path="url(#SVGID_16_)" enable-background="new    ">
							<path fill="#383838" d="M1025.2,583.5v7.8c0,0.1,0,0.1,0,0.2v-7.8C1025.2,583.6,1025.2,583.5,1025.2,583.5"/>
						</g>
					</g>
				</g>
				<g enable-background="new    ">
					<g>
						<defs>
							<path id="SVGID_533_" d="M1024.2,591.4v-7.8c0,1.1,0.4,2.2,1.2,3s1.9,1.3,3.1,1.3v7.8c-1.2,0-2.3-0.5-3.1-1.3
								S1024.2,592.6,1024.2,591.4z"/>
						</defs>
						<clipPath id="SVGID_18_">
							<use xlink:href="#SVGID_533_"  overflow="visible"/>
						</clipPath>
						<g clip-path="url(#SVGID_18_)" enable-background="new    ">
							<path fill="#323232" d="M1028.5,587.9v7.8c-1.2,0-2.3-0.5-3.1-1.3s-1.2-1.8-1.2-3v-7.8c0,1.1,0.4,2.2,1.2,3
								S1027.3,587.9,1028.5,587.9"/>
						</g>
					</g>
				</g>
				<g enable-background="new    ">
					<g>
						<defs>
							<path id="SVGID_535_" d="M1024.2,591.2c0,0.1,0,0.1,0,0.2v-7.8c0-0.1,0-0.1,0-0.2c0,1.3,0,2.6,0,3.9c0,0.3,0,0.7,0,1
								c0,0.2,0,0.4,0,0.5C1024.2,589.7,1024.2,590.5,1024.2,591.2z"/>
						</defs>
						<clipPath id="SVGID_20_">
							<use xlink:href="#SVGID_535_"  overflow="visible"/>
						</clipPath>
						<g clip-path="url(#SVGID_20_)" enable-background="new    ">
							<path d="M1024.2,583.4v7.8c0,0.1,0,0.1,0,0.2v-7.8C1024.2,583.6,1024.2,583.5,1024.2,583.4"/>
						</g>
					</g>
				</g>
				<g>
					<polygon fill="#303030" points="971.8,587.9 971.8,595.7 922.3,594.1 922.3,586.3 					"/>
				</g>
				<g>
					<polygon fill="#303030" points="1078.3,586.3 1078.3,594.1 1028.5,595.7 1028.5,587.9 					"/>
				</g>
				<g enable-background="new    ">
					<g>
						<defs>
							<path id="SVGID_537_" d="M976.1,583.6v7.8c0,1.1-0.4,2.2-1.2,3s-1.9,1.3-3.1,1.3v-7.8c1.2,0,2.3-0.5,3.1-1.3
								S976.1,584.7,976.1,583.6z"/>
						</defs>
						<clipPath id="SVGID_22_">
							<use xlink:href="#SVGID_537_"  overflow="visible"/>
						</clipPath>
						<g clip-path="url(#SVGID_22_)" enable-background="new    ">
							<path fill="#383838" d="M976.1,583.6v7.8c0,0.3,0,0.6-0.1,0.9v-7.8C976.1,584.2,976.1,583.9,976.1,583.6"/>
							<path fill="#363636" d="M976,584.5v7.8c-0.1,0.3-0.2,0.6-0.3,0.9v-7.8C975.9,585.1,976,584.8,976,584.5"/>
							<path fill="#343434" d="M975.8,585.4v7.8c-0.1,0.3-0.3,0.6-0.5,0.8v-7.8C975.5,585.9,975.6,585.7,975.8,585.4"/>
							<path fill="#323232" d="M975.3,586.2v7.8c-0.1,0.1-0.2,0.3-0.3,0.4c-0.8,0.8-1.9,1.3-3.1,1.3v-7.8c1.2,0,2.3-0.5,3.1-1.3
								C975.1,586.5,975.2,586.3,975.3,586.2"/>
						</g>
					</g>
				</g>
				<g enable-background="new    ">
					<g>
						<defs>
							<path id="SVGID_539_" d="M922.3,586.3v7.8c-2.1,0-3.6,0.9-3.6,2v-7.8C918.7,587.2,920.2,586.3,922.3,586.3z"/>
						</defs>
						<clipPath id="SVGID_24_">
							<use xlink:href="#SVGID_539_"  overflow="visible"/>
						</clipPath>
						<g clip-path="url(#SVGID_24_)" enable-background="new    ">
							<path fill="#323232" d="M922.3,586.3v7.8c-1.6,0-2.8,0.5-3.3,1.2v-7.8C919.5,586.8,920.7,586.3,922.3,586.3"/>
							<path fill="#343434" d="M919,587.5v7.8c-0.1,0.1-0.1,0.2-0.2,0.3v-7.8C918.9,587.7,918.9,587.6,919,587.5"/>
							<path fill="#363636" d="M918.8,587.8v7.8c0,0.1-0.1,0.2-0.1,0.3v-7.8C918.8,587.9,918.8,587.9,918.8,587.8"/>
							<path fill="#383838" d="M918.8,588v7.8c0,0.1,0,0.2,0,0.3v-7.8C918.7,588.2,918.7,588.1,918.8,588"/>
						</g>
					</g>
				</g>
				<g enable-background="new    ">
					<g>
						<defs>
							<path id="SVGID_541_" d="M1081.6,588.3v7.8c0-0.9-1.5-2-3.4-2v-7.8C1080.2,586.3,1081.6,587.3,1081.6,588.3z"/>
						</defs>
						<clipPath id="SVGID_26_">
							<use xlink:href="#SVGID_541_"  overflow="visible"/>
						</clipPath>
						<g clip-path="url(#SVGID_26_)" enable-background="new    ">
							<path fill="#323232" d="M1081.6,588.3v7.8c0-0.9-1.5-2-3.4-2v-7.8C1080.2,586.3,1081.6,587.3,1081.6,588.3"/>
						</g>
					</g>
				</g>
				<g enable-background="new    ">
					<g>
						<defs>
							<path id="SVGID_543_" d="M1078.6,644.8c0,0,0-0.1,0-0.2c0,0,0-0.1,0-0.2c0-0.1,0-0.1,0-0.2c0-0.1,0-0.1,0-0.2
								c0-0.1,0-0.1,0-0.2c0,0,0-0.1,0-0.2c0,0,0-0.1,0-0.2c0,0,0-0.1,0-0.2c0-0.2,0-0.5,0-0.8c0-0.2,0-0.6,0-0.8s0-0.6,0-0.8
								c0-0.3,0-0.6,0-0.9s0-0.6,0-0.9c0-0.3,0-0.6,0-0.8c0-0.2,0-0.6,0-0.8s0-0.5,0-0.8c1.7-0.1,3-0.9,3-2v7.8
								C1081.6,643.9,1080.3,644.7,1078.6,644.8z"/>
						</defs>
						<clipPath id="SVGID_28_">
							<use xlink:href="#SVGID_543_"  overflow="visible"/>
						</clipPath>
						<g clip-path="url(#SVGID_28_)" enable-background="new    ">
							<path d="M1081.6,635v7.8c0,0.1,0,0.2,0,0.3v-7.8C1081.6,635.2,1081.6,635.1,1081.6,635"/>
							<path d="M1081.6,635.3v7.8c0,0.1,0,0.2-0.1,0.3v-7.8C1081.6,635.4,1081.6,635.3,1081.6,635.3"/>
							<path d="M1081.5,635.5v7.8c0,0.1-0.1,0.2-0.2,0.3v-7.8C1081.4,635.7,1081.5,635.6,1081.5,635.5"/>
							<path d="M1081.3,635.8v7.8c-0.5,0.7-1.7,1.1-3,1.1v-7.8C1079.7,637,1080.8,636.5,1081.3,635.8"/>
						</g>
					</g>
				</g>
				<g>
					<polygon points="971.8,635.4 971.8,643.2 922.3,644.8 922.3,637 					"/>
				</g>
				<g>
					<polygon points="1078.3,637 1078.3,644.8 1028.7,643.2 1028.7,635.4 					"/>
				</g>
				<g enable-background="new    ">
					<g>
						<defs>
							<path id="SVGID_545_" d="M922.3,637v7.8c-2,0-3.6-0.9-3.6-2V635C918.7,636.1,920.3,637,922.3,637z"/>
						</defs>
						<clipPath id="SVGID_30_">
							<use xlink:href="#SVGID_545_"  overflow="visible"/>
						</clipPath>
						<g clip-path="url(#SVGID_30_)" enable-background="new    ">
							<path d="M922.3,637v7.8c-2,0-3.6-0.9-3.6-2V635C918.7,636.1,920.3,637,922.3,637"/>
						</g>
					</g>
				</g>
				<g>
					<polygon fill="#303030" points="971.8,636.4 971.8,644.2 922.3,645.8 922.3,638 					"/>
				</g>
				<g enable-background="new    ">
					<g>
						<defs>
							<path id="SVGID_547_" d="M1082.6,635v7.8c0,1.7-1.9,3-4.3,3V638C1080.8,638,1082.6,636.7,1082.6,635z"/>
						</defs>
						<clipPath id="SVGID_32_">
							<use xlink:href="#SVGID_547_"  overflow="visible"/>
						</clipPath>
						<g clip-path="url(#SVGID_32_)" enable-background="new    ">
							<path fill="#383838" d="M1082.6,635v7.8c0,0.2,0,0.3,0,0.5v-7.8C1082.6,635.3,1082.6,635.2,1082.6,635"/>
							<path fill="#363636" d="M1082.6,635.5v7.8c0,0.2-0.1,0.3-0.1,0.5V636C1082.5,635.8,1082.5,635.6,1082.6,635.5"/>
							<path fill="#343434" d="M1082.4,635.9v7.8c-0.1,0.2-0.2,0.3-0.3,0.5v-7.8C1082.3,636.3,1082.4,636.1,1082.4,635.9"/>
							<path fill="#323232" d="M1082.1,636.4v7.8c-0.7,0.9-2.1,1.6-3.8,1.6V638C1080,638,1081.4,637.4,1082.1,636.4"/>
						</g>
					</g>
				</g>
				<g enable-background="new    ">
					<g>
						<defs>
							<path id="SVGID_549_" d="M1025.4,644.5c-0.8,0.8-1.2,1.8-1.2,3v-7.8c0-1.1,0.4-2.2,1.2-3l0,0c0,0.3,0,0.6,0,0.9s0,0.7,0,1
								s0,0.7,0,1s0,0.7,0,1s0,0.7,0,1s0,0.7,0,1s0,0.7,0,1S1025.4,644.2,1025.4,644.5c0-0.3,0-0.7,0-0.9c0-0.3,0-0.7,0-1s0-0.7,0-1
								s0-0.7,0-1s0-0.7,0-1s0-0.7,0-1s0-0.7,0-1s0-0.6,0-0.9c0.8-0.8,1.9-1.3,3.3-1.3v7.8C1027.3,643.2,1026.2,643.7,1025.4,644.5z
								"/>
						</defs>
						<clipPath id="SVGID_34_">
							<use xlink:href="#SVGID_549_"  overflow="visible"/>
						</clipPath>
						<g clip-path="url(#SVGID_34_)" enable-background="new    ">
							<path d="M1028.7,635.4v7.8c-1.4,0-2.5,0.5-3.3,1.3c-0.1,0.1-0.2,0.3-0.3,0.4v-7.8c0.1-0.1,0.2-0.3,0.3-0.4
								C1026.2,635.9,1027.3,635.4,1028.7,635.4"/>
							<path d="M1025.1,637.1v7.8c-0.2,0.3-0.4,0.5-0.5,0.8v-7.8C1024.7,637.6,1024.9,637.3,1025.1,637.1"/>
							<path d="M1024.6,637.9v7.8c-0.1,0.3-0.2,0.6-0.3,0.9v-7.8C1024.4,638.5,1024.5,638.2,1024.6,637.9"/>
							<path d="M1024.3,638.8v7.8c-0.1,0.3-0.1,0.6-0.1,0.9v-7.8C1024.2,639.3,1024.3,639.1,1024.3,638.8"/>
						</g>
					</g>
				</g>
				<g>
					<polygon fill="#303030" points="1078.3,638 1078.3,645.8 1028.5,644.2 1028.5,636.4 					"/>
				</g>
				<g enable-background="new    ">
					<g>
						<defs>
							<path id="SVGID_551_" d="M922.3,638v7.8c-2.7,0-4.6-1.3-4.6-3V635C917.7,636.6,919.7,638,922.3,638z"/>
						</defs>
						<clipPath id="SVGID_36_">
							<use xlink:href="#SVGID_551_"  overflow="visible"/>
						</clipPath>
						<g clip-path="url(#SVGID_36_)" enable-background="new    ">
							<path fill="#323232" d="M922.3,638v7.8c-2.7,0-4.6-1.3-4.6-3V635C917.7,636.6,919.7,638,922.3,638"/>
						</g>
					</g>
				</g>
				<g enable-background="new    ">
					<g>
						<defs>
							<path id="SVGID_553_" d="M976.1,639.7v7.8c0-1.1-0.4-2.2-1.2-3c-0.8-0.8-1.9-1.3-3.1-1.3v-7.8c1.2,0,2.3,0.5,3.1,1.3
								C975.7,637.5,976.1,638.5,976.1,639.7z"/>
						</defs>
						<clipPath id="SVGID_38_">
							<use xlink:href="#SVGID_553_"  overflow="visible"/>
						</clipPath>
						<g clip-path="url(#SVGID_38_)" enable-background="new    ">
							<path d="M976.1,639.7v7.8c0-1.1-0.4-2.2-1.2-3c-0.8-0.8-1.9-1.3-3.1-1.3v-7.8c1.2,0,2.3,0.5,3.1,1.3
								C975.7,637.5,976.1,638.5,976.1,639.7"/>
						</g>
					</g>
				</g>
				<g enable-background="new    ">
					<g>
						<defs>
							<path id="SVGID_555_" d="M975.1,639.7v7.8c0-0.9-0.3-1.7-0.9-2.3c-0.6-0.6-1.5-1-2.4-1v-7.8c0.9,0,1.8,0.3,2.4,1
								C974.8,638,975.1,638.8,975.1,639.7z"/>
						</defs>
						<clipPath id="SVGID_40_">
							<use xlink:href="#SVGID_555_"  overflow="visible"/>
						</clipPath>
						<g clip-path="url(#SVGID_40_)" enable-background="new    ">
							<path fill="#323232" d="M975.1,639.7v7.8c0-0.9-0.3-1.7-0.9-2.3c-0.6-0.6-1.5-1-2.4-1v-7.8c0.9,0,1.8,0.3,2.4,1
								C974.8,638,975.1,638.8,975.1,639.7"/>
						</g>
					</g>
				</g>
				<g enable-background="new    ">
					<g>
						<defs>
							<path id="SVGID_557_" d="M1025.2,647.5v-7.8c0-0.9,0.3-1.7,0.9-2.3c0.6-0.6,1.5-1,2.4-1v7.8c-0.9,0-1.8,0.3-2.4,1
								C1025.5,645.8,1025.2,646.6,1025.2,647.5z"/>
						</defs>
						<clipPath id="SVGID_42_">
							<use xlink:href="#SVGID_557_"  overflow="visible"/>
						</clipPath>
						<g clip-path="url(#SVGID_42_)" enable-background="new    ">
							<path fill="#323232" d="M1028.5,636.4v7.8c-0.9,0-1.8,0.3-2.4,1c-0.1,0.1-0.2,0.2-0.3,0.3v-7.8c0.1-0.1,0.2-0.2,0.3-0.3
								C1026.8,636.7,1027.6,636.4,1028.5,636.4"/>
							<path fill="#343434" d="M1025.9,637.7v7.8c-0.1,0.2-0.3,0.4-0.4,0.6v-7.8C1025.6,638.1,1025.7,637.9,1025.9,637.7"/>
							<path fill="#363636" d="M1025.5,638.3v7.8c-0.1,0.2-0.2,0.4-0.2,0.6v-7.8C1025.3,638.7,1025.4,638.5,1025.5,638.3"/>
							<path fill="#383838" d="M1025.3,639v7.8c0,0.2-0.1,0.5-0.1,0.7v-7.8C1025.2,639.4,1025.2,639.2,1025.3,639"/>
						</g>
					</g>
				</g>
				<g enable-background="new    ">
					<g>
						<defs>
							<path id="SVGID_559_" d="M1024.2,647.5v-7.8c0,0.1,0,0.1,0,0.2v7.8C1024.2,647.6,1024.2,647.5,1024.2,647.5z"/>
						</defs>
						<clipPath id="SVGID_44_">
							<use xlink:href="#SVGID_559_"  overflow="visible"/>
						</clipPath>
						<g clip-path="url(#SVGID_44_)" enable-background="new    ">
							<path fill="#323232" d="M1024.2,639.9v7.8c0-0.1,0-0.1,0-0.2v-7.8C1024.2,639.7,1024.2,639.8,1024.2,639.9"/>
						</g>
					</g>
				</g>
				<g enable-background="new    ">
					<g>
						<defs>
							<path id="SVGID_561_" d="M976.1,639.7v7.8c0,0.1,0,0.1,0,0.2v-7.8C976.1,639.8,976.1,639.7,976.1,639.7z"/>
						</defs>
						<clipPath id="SVGID_46_">
							<use xlink:href="#SVGID_561_"  overflow="visible"/>
						</clipPath>
						<g clip-path="url(#SVGID_46_)" enable-background="new    ">
							<path fill="#383838" d="M976.1,639.7v7.8c0,0.1,0,0.1,0,0.2v-7.8C976.1,639.8,976.1,639.7,976.1,639.7"/>
						</g>
					</g>
				</g>
				<g>
					<polygon fill="#373737" points="976.1,639.9 976.1,647.7 974.5,696.4 974.5,688.6 					"/>
				</g>
				<g>
					<polygon fill="#303030" points="1025.8,688.6 1025.8,696.4 1024.2,647.7 1024.2,639.9 					"/>
				</g>
				<g enable-background="new    ">
					<g>
						<defs>
							<path id="SVGID_563_" d="M974.5,696.6v-7.8c0-0.1,0-0.2,0-0.3v7.8C974.5,696.5,974.5,696.5,974.5,696.6z"/>
						</defs>
						<clipPath id="SVGID_48_">
							<use xlink:href="#SVGID_563_"  overflow="visible"/>
						</clipPath>
						<g clip-path="url(#SVGID_48_)" enable-background="new    ">
							<path fill="#383838" d="M974.5,688.6v7.8c0,0.1,0,0.2,0,0.3v-7.8C974.5,688.7,974.5,688.6,974.5,688.6"/>
						</g>
					</g>
				</g>
				<g enable-background="new    ">
					<g>
						<defs>
							<path id="SVGID_565_" d="M1025.8,688.8v7.8c0,1.1-0.4,2.2-1,2.8c-0.2,0.2-0.6,0.5-1,0.5v-7.8c0.5,0,0.8-0.3,1-0.5
								C1025.5,690.9,1025.8,689.9,1025.8,688.8z"/>
						</defs>
						<clipPath id="SVGID_50_">
							<use xlink:href="#SVGID_565_"  overflow="visible"/>
						</clipPath>
						<g clip-path="url(#SVGID_50_)" enable-background="new    ">
							<path d="M1025.8,688.8v7.8c0,0.3,0,0.7-0.1,1v-7.8C1025.8,689.5,1025.8,689.1,1025.8,688.8"/>
							<path d="M1025.7,689.8v7.8c-0.1,0.3-0.2,0.6-0.3,0.9v-7.8C1025.6,690.4,1025.7,690.1,1025.7,689.8"/>
							<path d="M1025.5,690.7v7.8c-0.1,0.2-0.2,0.5-0.4,0.7v-7.8C1025.2,691.1,1025.3,690.9,1025.5,690.7"/>
							<path d="M1025.1,691.3v7.8c-0.1,0.1-0.1,0.2-0.2,0.3c-0.2,0.2-0.6,0.5-1,0.5v-7.8c0.5,0,0.8-0.3,1-0.5
								C1024.9,691.5,1025,691.4,1025.1,691.3"/>
						</g>
					</g>
				</g>
				<g enable-background="new    ">
					<g>
						<defs>
							<path id="SVGID_567_" d="M974.5,696.6v-7.8c0,1.1,0.3,2.2,0.9,2.8c0.3,0.3,0.7,0.5,1.1,0.5v7.8c-0.4,0-0.8-0.2-1.1-0.5
								C974.9,698.8,974.5,697.8,974.5,696.6z"/>
						</defs>
						<clipPath id="SVGID_52_">
							<use xlink:href="#SVGID_567_"  overflow="visible"/>
						</clipPath>
						<g clip-path="url(#SVGID_52_)" enable-background="new    ">
							<path d="M976.5,692.1v7.8c-0.4,0-0.8-0.2-1.1-0.5c-0.6-0.6-0.9-1.6-0.9-2.8v-7.8c0,1.1,0.3,2.2,0.9,2.8
								C975.8,691.9,976.1,692.1,976.5,692.1"/>
						</g>
					</g>
				</g>
				<g>
					<rect x="976.5" y="692.1" width="47.3" height="7.8"/>
				</g>
				<g>
					<path d="M1023.8,531.2c0.4,0,0.8,0.2,1.1,0.5c0.6,0.6,1,1.8,0.9,3l-1.6,48.7c-0.1,1.2,0.4,2.3,1.2,3.2c0.8,0.8,1.9,1.3,3.1,1.3
						l49.5-1.6c2.1,0,3.6,1,3.6,2V635c0,1.1-1.5,2-3.3,2l-49.6-1.6c-1.4,0-2.5,0.5-3.3,1.3c-0.8,0.8-1.2,2-1.2,3.2l1.6,48.7
						c0.1,1.2-0.3,2.3-1,3c-0.2,0.2-0.6,0.5-1,0.5h-47.3c-0.4,0-0.8-0.2-1.1-0.5c-0.6-0.6-1-1.8-0.9-3l1.6-48.7
						c0-1.2-0.4-2.3-1.2-3.2c-0.8-0.8-1.9-1.3-3.1-1.3l-49.5,1.6c-2,0-3.6-0.9-3.6-2v-46.7c0-1.1,1.4-2,3.3-2l49.6,1.6
						c1.4,0,2.5-0.5,3.3-1.3s1.2-2,1.2-3.2l-1.6-48.7c-0.1-1.2,0.3-2.3,1-3c0.2-0.2,0.6-0.5,1-0.5H1023.8z"/>
				</g>
				<g>
					<path fill="#565656" d="M1078,585.3c2.6,0,4.6,1.4,4.6,3V635c0,1.7-1.9,3-4.3,3l-49.8-1.6c-0.9,0-1.8,0.3-2.4,1
						c-0.6,0.6-1,1.5-0.9,2.4l1.6,48.7c0.1,1.4-0.4,2.9-1.3,3.7c-0.5,0.5-1.1,0.8-1.8,0.8h-47.3c-0.7,0-1.3-0.3-1.8-0.8
						c-0.8-0.8-1.3-2.2-1.2-3.8l1.6-48.7c0-0.9-0.3-1.8-0.9-2.4c-0.6-0.6-1.5-1-2.4-1l-49.5,1.6c-2.7,0-4.6-1.3-4.6-3v-46.7
						c0-1.7,1.9-3,4.3-3l49.7,1.6c0.9,0,1.8-0.4,2.4-1c0.6-0.7,0.9-1.5,0.9-2.4l-1.6-48.7c-0.1-1.4,0.4-2.9,1.3-3.8
						c0.5-0.5,1.1-0.8,1.7-0.8h47.3c0.7,0,1.3,0.3,1.8,0.8c0.8,0.8,1.3,2.2,1.2,3.8l-1.6,48.7c0,0.9,0.3,1.8,0.9,2.4
						c0.6,0.6,1.5,1,2.4,1L1078,585.3z M1081.6,635v-46.7c0-0.9-1.5-2-3.4-2l-49.7,1.6c-1.2,0-2.3-0.5-3.1-1.3s-1.2-2-1.2-3.2
						l1.6-48.7c0.1-1.3-0.3-2.4-0.9-3c-0.3-0.3-0.7-0.5-1.1-0.5h-47.3c-0.4,0-0.8,0.3-1,0.5c-0.7,0.7-1,1.8-1,3l1.6,48.7
						c0,1.2-0.4,2.3-1.2,3.2c-0.8,0.8-1.9,1.3-3.1,1.3l-49.5-1.6c-2.1,0-3.6,0.9-3.6,2V635c0,1.1,1.6,2,3.4,2l49.7-1.6
						c1.2,0,2.3,0.5,3.1,1.3c0.8,0.8,1.2,2,1.2,3.2l-1.6,48.7c-0.1,1.3,0.3,2.4,0.9,3c0.3,0.3,0.7,0.5,1.1,0.5h47.3
						c0.5,0,0.8-0.3,1-0.5c0.7-0.7,1-1.8,1-3l-1.6-48.7c-0.1-1.2,0.4-2.3,1.2-3.2c0.8-0.8,1.9-1.3,3.1-1.3l49.5,1.6
						C1080.2,637,1081.6,636.1,1081.6,635"/>
				</g>
				<g enable-background="new    ">
					<g>
						<defs>
							<path id="SVGID_569_" d="M1026.8,688.8v7.8c0,1.4-0.5,2.7-1.3,3.5c-0.5,0.5-1.1,0.8-1.8,0.8v-7.8c0.6,0,1.2-0.3,1.8-0.8
								C1026.4,691.4,1026.8,690.1,1026.8,688.8z"/>
						</defs>
						<clipPath id="SVGID_54_">
							<use xlink:href="#SVGID_569_"  overflow="visible"/>
						</clipPath>
						<g clip-path="url(#SVGID_54_)" enable-background="new    ">
							<path fill="#383838" d="M1026.8,688.8v7.8c0,0.4,0,0.8-0.1,1.2V690C1026.8,689.6,1026.8,689.2,1026.8,688.8"/>
							<path fill="#363636" d="M1026.7,690v7.8c-0.1,0.4-0.2,0.8-0.3,1.1v-7.8C1026.5,690.7,1026.6,690.3,1026.7,690"/>
							<path fill="#343434" d="M1026.4,691.1v7.8c-0.1,0.3-0.3,0.6-0.5,0.9V692C1026.1,691.7,1026.2,691.4,1026.4,691.1"/>
							<path fill="#323232" d="M1025.9,691.9v7.8c-0.1,0.1-0.2,0.2-0.3,0.3c-0.5,0.5-1.1,0.8-1.8,0.8v-7.7c0.6,0,1.2-0.3,1.8-0.8
								C1025.7,692.2,1025.8,692,1025.9,691.9"/>
						</g>
					</g>
				</g>
				<g>
					<rect x="976.5" y="693.1" fill="#303030" width="47.3" height="7.8"/>
				</g>
				<g enable-background="new    ">
					<g>
						<defs>
							<path id="SVGID_571_" d="M973.5,696.6v-7.8c0,1.4,0.4,2.7,1.2,3.4c0.5,0.5,1.1,0.8,1.8,0.8v7.8c-0.7,0-1.3-0.3-1.8-0.8
								C974,699.3,973.5,698,973.5,696.6z"/>
						</defs>
						<clipPath id="SVGID_56_">
							<use xlink:href="#SVGID_571_"  overflow="visible"/>
						</clipPath>
						<g clip-path="url(#SVGID_56_)" enable-background="new    ">
							<path fill="#323232" d="M976.5,693.1v7.8c-0.7,0-1.3-0.3-1.8-0.8c-0.8-0.8-1.2-2-1.2-3.4v-7.8c0,1.4,0.4,2.7,1.2,3.4
								C975.2,692.8,975.9,693.1,976.5,693.1"/>
						</g>
					</g>
				</g>
			</g>
		</g>
	</g>
</g>
<g id="left">
	<g>
		<g>
			<g enable-background="new    ">
				<g>
					<rect x="915.8" y="591.8" fill="#303030" width="7.8" height="47.3"/>
				</g>
				<g enable-background="new    ">
					<g>
						<defs>
							<path id="SVGID_573_" d="M919.2,589.8h7.8c-1.2,0-2.2,0.3-2.8,0.9c-0.3,0.3-0.5,0.7-0.5,1.1h-7.8c0-0.4,0.2-0.8,0.5-1.1
								C916.9,590.1,917.9,589.8,919.2,589.8z"/>
						</defs>
						<clipPath id="SVGID_58_">
							<use xlink:href="#SVGID_573_"  overflow="visible"/>
						</clipPath>
						<g clip-path="url(#SVGID_58_)" enable-background="new    ">
							<path fill="#323232" d="M919.2,589.8h7.8c-1.2,0-2.2,0.3-2.8,0.9c-0.3,0.3-0.5,0.7-0.5,1.1h-7.8c0-0.4,0.2-0.8,0.5-1.1
								C916.9,590.1,917.9,589.8,919.2,589.8"/>
						</g>
					</g>
				</g>
				<g enable-background="new    ">
					<g>
						<defs>
							<path id="SVGID_575_" d="M926.9,641.1h-7.8c-1.1,0-2.2-0.4-2.8-1c-0.2-0.2-0.5-0.6-0.5-1h7.8c0,0.4,0.3,0.8,0.5,1
								C924.8,640.7,925.8,641.1,926.9,641.1z"/>
						</defs>
						<clipPath id="SVGID_60_">
							<use xlink:href="#SVGID_575_"  overflow="visible"/>
						</clipPath>
						<g clip-path="url(#SVGID_60_)" enable-background="new    ">
							<path fill="#323232" d="M915.8,639.1h7.8c0,0.4,0.3,0.8,0.5,1c0.1,0.1,0.2,0.1,0.3,0.2h-7.8c-0.1-0.1-0.2-0.1-0.3-0.2
								C916.2,639.9,915.8,639.5,915.8,639.1"/>
							<path fill="#343434" d="M916.7,640.3h7.8c0.2,0.1,0.4,0.3,0.7,0.4h-7.8C917,640.6,916.8,640.5,916.7,640.3"/>
							<path fill="#363636" d="M917.2,640.7h7.8c0.3,0.1,0.6,0.2,0.9,0.3h-7.8C917.8,640.9,917.5,640.8,917.2,640.7"/>
							<path fill="#383838" d="M918.2,641h7.8c0.3,0.1,0.7,0.1,1,0.1h-7.8C918.8,641.1,918.4,641,918.2,641"/>
						</g>
					</g>
				</g>
				<g enable-background="new    ">
					<g>
						<defs>
							<path id="SVGID_577_" d="M926.9,641.1h-7.8c0.1,0,0.2,0,0.2,0h7.8C927.2,641.1,927,641.1,926.9,641.1z"/>
						</defs>
						<clipPath id="SVGID_62_">
							<use xlink:href="#SVGID_577_"  overflow="visible"/>
						</clipPath>
						<g clip-path="url(#SVGID_62_)" enable-background="new    ">
							<path d="M919.3,641.1h7.8c-0.1,0-0.2,0-0.2,0h-7.8C919.2,641.1,919.2,641.1,919.3,641.1"/>
						</g>
					</g>
				</g>
				<g enable-background="new    ">
					<g>
						<defs>
							<path id="SVGID_579_" d="M919.2,589.8h7.8c0.1,0,0.2,0,0.3,0h-7.8C919.2,589.8,919.2,589.8,919.2,589.8z"/>
						</defs>
						<clipPath id="SVGID_64_">
							<use xlink:href="#SVGID_579_"  overflow="visible"/>
						</clipPath>
						<g clip-path="url(#SVGID_64_)" enable-background="new    ">
							<path d="M919.2,589.8h7.8c0.1,0,0.2,0,0.3,0h-7.8C919.2,589.8,919.2,589.8,919.2,589.8"/>
						</g>
					</g>
				</g>
				<g enable-background="new    ">
					<g>
						<defs>
							<path id="SVGID_581_" d="M919.2,588.8h7.8c0.1,0,0.2,0,0.3,0h-7.8C919.3,588.8,919.2,588.8,919.2,588.8z"/>
						</defs>
						<clipPath id="SVGID_66_">
							<use xlink:href="#SVGID_581_"  overflow="visible"/>
						</clipPath>
						<g clip-path="url(#SVGID_66_)" enable-background="new    ">
							<path fill="#383838" d="M919.2,588.8h7.8c0.1,0,0.2,0,0.3,0h-7.8C919.3,588.8,919.2,588.8,919.2,588.8"/>
						</g>
					</g>
				</g>
				<g enable-background="new    ">
					<g>
						<defs>
							<path id="SVGID_583_" d="M926.9,642.1h-7.8c0.1,0,0.2,0,0.3,0h7.8C927.2,642.1,927,642.1,926.9,642.1z"/>
						</defs>
						<clipPath id="SVGID_68_">
							<use xlink:href="#SVGID_583_"  overflow="visible"/>
						</clipPath>
						<g clip-path="url(#SVGID_68_)" enable-background="new    ">
							<path fill="#323232" d="M919.4,642.1h7.8c-0.1,0-0.2,0-0.3,0h-7.8C919.2,642.1,919.3,642.1,919.4,642.1"/>
						</g>
					</g>
				</g>
				<g>
					<polygon points="919.3,589.8 927.2,589.8 975.8,591.4 968,591.4 					"/>
				</g>
				<g>
					<polygon points="968,639.5 975.9,639.5 927.2,641.1 919.3,641.1 					"/>
				</g>
				<g>
					<polygon fill="#373737" points="919.4,588.8 927.2,588.8 975.9,590.4 968.2,590.4 					"/>
				</g>
				<g>
					<polygon fill="#303030" points="968.2,640.5 975.9,640.5 927.2,642.1 919.4,642.1 					"/>
				</g>
				<g enable-background="new    ">
					<g>
						<defs>
							<path id="SVGID_585_" d="M976,639.5c-0.1,0-0.1,0-0.2,0H968c0.1,0,0.1,0,0.2,0C970.7,639.5,973.8,639.5,976,639.5z"/>
						</defs>
						<clipPath id="SVGID_70_">
							<use xlink:href="#SVGID_585_"  overflow="visible"/>
						</clipPath>
						<g clip-path="url(#SVGID_70_)" enable-background="new    ">
							<path d="M968.2,639.5h7.8c-0.1,0-0.1,0-0.2,0H968C968.2,639.5,968.2,639.5,968.2,639.5"/>
						</g>
					</g>
				</g>
				<g enable-background="new    ">
					<g>
						<defs>
							<path id="SVGID_587_" d="M976.2,590.4h-7.8c-0.1,0-0.1,0-0.2,0h7.8C975.9,590.4,976,590.4,976.2,590.4z"/>
						</defs>
						<clipPath id="SVGID_72_">
							<use xlink:href="#SVGID_587_"  overflow="visible"/>
						</clipPath>
						<g clip-path="url(#SVGID_72_)" enable-background="new    ">
							<path fill="#383838" d="M968.2,590.4h7.8c0.1,0,0.1,0,0.2,0h-7.8C968.2,590.4,968.2,590.4,968.2,590.4"/>
						</g>
					</g>
				</g>
				<g enable-background="new    ">
					<g>
						<defs>
							<path id="SVGID_589_" d="M976,591.4h-7.8c1.1,0,2.2-0.4,3-1.2c0.8-0.8,1.3-1.9,1.3-3.1h7.8c0,1.2-0.5,2.3-1.3,3.1
								C978.2,591,977.2,591.4,976,591.4z"/>
						</defs>
						<clipPath id="SVGID_74_">
							<use xlink:href="#SVGID_589_"  overflow="visible"/>
						</clipPath>
						<g clip-path="url(#SVGID_74_)" enable-background="new    ">
							<path fill="#323232" d="M972.5,587.1h7.8c0,1.2-0.5,2.3-1.3,3.1c-0.8,0.8-1.8,1.2-3,1.2h-7.8c1.1,0,2.2-0.4,3-1.2
								C972,589.4,972.5,588.3,972.5,587.1"/>
						</g>
					</g>
				</g>
				<g enable-background="new    ">
					<g>
						<defs>
							<path id="SVGID_591_" d="M975.8,591.4c0.1,0,0.1,0,0.2,0h-7.8c-0.1,0-0.1,0-0.2,0c1.3,0,2.6,0,3.9,0c0.3,0,0.7,0,1,0
								c0.2,0,0.4,0,0.5,0C974.3,591.4,975.2,591.4,975.8,591.4z"/>
						</defs>
						<clipPath id="SVGID_76_">
							<use xlink:href="#SVGID_591_"  overflow="visible"/>
						</clipPath>
						<g clip-path="url(#SVGID_76_)" enable-background="new    ">
							<path d="M968,591.4h7.8c0.1,0,0.1,0,0.2,0h-7.8C968.2,591.4,968.2,591.4,968,591.4"/>
						</g>
					</g>
				</g>
				<g>
					<polygon fill="#303030" points="972.5,643.8 980.3,643.8 978.8,693.3 970.9,693.3 					"/>
				</g>
				<g>
					<polygon fill="#303030" points="970.9,537.3 978.8,537.3 980.3,587.1 972.5,587.1 					"/>
				</g>
				<g enable-background="new    ">
					<g>
						<defs>
							<path id="SVGID_593_" d="M968.2,639.5h7.8c1.1,0,2.2,0.4,3,1.2c0.8,0.8,1.3,1.9,1.3,3.1h-7.8c0-1.2-0.5-2.3-1.3-3.1
								C970.4,639.9,969.3,639.5,968.2,639.5z"/>
						</defs>
						<clipPath id="SVGID_78_">
							<use xlink:href="#SVGID_593_"  overflow="visible"/>
						</clipPath>
						<g clip-path="url(#SVGID_78_)" enable-background="new    ">
							<path fill="#383838" d="M968.2,639.5h7.8c0.3,0,0.6,0,0.9,0.1h-7.8C968.8,639.5,968.5,639.5,968.2,639.5"/>
							<path fill="#363636" d="M969.2,639.6h7.8c0.3,0.1,0.6,0.2,0.9,0.3H970C969.8,639.7,969.4,639.6,969.2,639.6"/>
							<path fill="#343434" d="M970,639.8h7.8c0.3,0.1,0.6,0.3,0.8,0.5h-7.8C970.5,640.1,970.3,640,970,639.8"/>
							<path fill="#323232" d="M970.8,640.3h7.8c0.1,0.1,0.3,0.2,0.4,0.3c0.8,0.8,1.3,1.9,1.3,3.1h-7.8c0-1.2-0.5-2.3-1.3-3.1
								C971.2,640.5,970.9,640.4,970.8,640.3"/>
						</g>
					</g>
				</g>
				<g enable-background="new    ">
					<g>
						<defs>
							<path id="SVGID_595_" d="M970.9,693.3h7.8c0,2.1,0.9,3.6,2,3.6h-7.8C971.8,696.9,970.9,695.4,970.9,693.3z"/>
						</defs>
						<clipPath id="SVGID_80_">
							<use xlink:href="#SVGID_595_"  overflow="visible"/>
						</clipPath>
						<g clip-path="url(#SVGID_80_)" enable-background="new    ">
							<path fill="#323232" d="M970.9,693.3h7.8c0,1.6,0.5,2.8,1.2,3.3h-7.8C971.4,696.1,970.9,694.9,970.9,693.3"/>
							<path fill="#343434" d="M972.2,696.6h7.8c0.1,0.1,0.2,0.1,0.3,0.2h-7.8C972.3,696.7,972.2,696.7,972.2,696.6"/>
							<path fill="#363636" d="M972.4,696.8h7.8c0.1,0,0.2,0.1,0.3,0.1h-7.8C972.5,696.8,972.5,696.8,972.4,696.8"/>
							<path fill="#383838" d="M972.7,696.8h7.8c0.1,0,0.2,0,0.3,0h-7.8C972.8,696.9,972.8,696.9,972.7,696.8"/>
						</g>
					</g>
				</g>
				<g enable-background="new    ">
					<g>
						<defs>
							<path id="SVGID_597_" d="M972.9,534h7.8c-0.9,0-2,1.5-2,3.4h-7.8C970.9,535.4,971.9,534,972.9,534z"/>
						</defs>
						<clipPath id="SVGID_82_">
							<use xlink:href="#SVGID_597_"  overflow="visible"/>
						</clipPath>
						<g clip-path="url(#SVGID_82_)" enable-background="new    ">
							<path fill="#323232" d="M972.9,534h7.8c-0.9,0-2,1.5-2,3.4h-7.8C970.9,535.4,971.9,534,972.9,534"/>
						</g>
					</g>
				</g>
				<g enable-background="new    ">
					<g>
						<defs>
							<path id="SVGID_599_" d="M1029.4,537c0,0-0.1,0-0.2,0c0,0-0.1,0-0.2,0c-0.1,0-0.1,0-0.2,0s-0.1,0-0.2,0c-0.1,0-0.1,0-0.2,0
								c0,0-0.1,0-0.2,0c0,0-0.1,0-0.2,0c0,0-0.1,0-0.2,0c-0.2,0-0.5,0-0.8,0c-0.2,0-0.6,0-0.8,0c-0.2,0-0.6,0-0.8,0
								c-0.3,0-0.6,0-0.9,0c-0.3,0-0.6,0-0.9,0c-0.3,0-0.6,0-0.8,0s-0.6,0-0.8,0c-0.2,0-0.5,0-0.8,0c-0.1-1.7-0.9-3-2-3h7.8
								C1028.5,534,1029.3,535.3,1029.4,537z"/>
						</defs>
						<clipPath id="SVGID_84_">
							<use xlink:href="#SVGID_599_"  overflow="visible"/>
						</clipPath>
						<g clip-path="url(#SVGID_84_)" enable-background="new    ">
							<path d="M1019.7,534h7.8c0.1,0,0.2,0,0.3,0h-7.8C1019.8,534,1019.8,534,1019.7,534"/>
							<path d="M1019.9,534h7.8c0.1,0,0.2,0,0.3,0.1h-7.8C1020,534,1019.9,534,1019.9,534"/>
							<path d="M1020.2,534.1h7.8c0.1,0,0.2,0.1,0.3,0.2h-7.8C1020.3,534.2,1020.2,534.1,1020.2,534.1"/>
							<path d="M1020.4,534.3h7.8c0.7,0.5,1.1,1.7,1.1,3h-7.8C1021.7,535.9,1021.2,534.8,1020.4,534.3"/>
						</g>
					</g>
				</g>
				<g>
					<polygon points="1020,643.8 1027.8,643.8 1029.4,693.3 1021.7,693.3 					"/>
				</g>
				<g>
					<polygon points="1021.7,537.3 1029.4,537.3 1027.8,586.9 1020,586.9 					"/>
				</g>
				<g enable-background="new    ">
					<g>
						<defs>
							<path id="SVGID_601_" d="M1021.7,693.3h7.8c0,2-0.9,3.6-2,3.6h-7.8C1020.8,696.9,1021.7,695.3,1021.7,693.3z"/>
						</defs>
						<clipPath id="SVGID_86_">
							<use xlink:href="#SVGID_601_"  overflow="visible"/>
						</clipPath>
						<g clip-path="url(#SVGID_86_)" enable-background="new    ">
							<path d="M1021.7,693.3h7.8c0,2-0.9,3.6-2,3.6h-7.8C1020.8,696.9,1021.7,695.3,1021.7,693.3"/>
						</g>
					</g>
				</g>
				<g>
					<polygon fill="#303030" points="1021,643.8 1028.8,643.8 1030.4,693.3 1022.7,693.3 					"/>
				</g>
				<g enable-background="new    ">
					<g>
						<defs>
							<path id="SVGID_603_" d="M1019.7,533h7.8c1.7,0,3,1.9,3,4.3h-7.8C1022.7,534.8,1021.3,533,1019.7,533z"/>
						</defs>
						<clipPath id="SVGID_88_">
							<use xlink:href="#SVGID_603_"  overflow="visible"/>
						</clipPath>
						<g clip-path="url(#SVGID_88_)" enable-background="new    ">
							<path fill="#383838" d="M1019.7,533h7.8c0.2,0,0.3,0,0.5,0h-7.8C1019.9,533,1019.8,533,1019.7,533"/>
							<path fill="#363636" d="M1020.2,533h7.8c0.2,0,0.3,0.1,0.5,0.1h-7.8C1020.4,533.1,1020.2,533.1,1020.2,533"/>
							<path fill="#343434" d="M1020.5,533.2h7.8c0.2,0.1,0.3,0.2,0.5,0.3h-7.8C1020.9,533.3,1020.8,533.2,1020.5,533.2"/>
							<path fill="#323232" d="M1021,533.5h7.8c0.9,0.7,1.6,2.1,1.6,3.8h-7.8C1022.7,535.6,1022,534.2,1021,533.5"/>
						</g>
					</g>
				</g>
				<g enable-background="new    ">
					<g>
						<defs>
							<path id="SVGID_605_" d="M1029.2,590.2c0.8,0.8,1.8,1.2,3,1.2h-7.8c-1.1,0-2.2-0.4-3-1.2l0,0c0.3,0,0.6,0,0.9,0
								c0.3,0,0.7,0,1,0c0.3,0,0.7,0,1,0c0.3,0,0.7,0,1,0c0.3,0,0.7,0,1,0c0.3,0,0.7,0,1,0c0.3,0,0.7,0,1,0
								C1028.5,590.2,1028.8,590.2,1029.2,590.2c-0.3,0-0.7,0-0.9,0c-0.3,0-0.7,0-1,0c-0.3,0-0.7,0-1,0c-0.3,0-0.7,0-1,0
								c-0.3,0-0.7,0-1,0c-0.3,0-0.7,0-1,0c-0.3,0-0.7,0-1,0c-0.3,0-0.6,0-0.9,0c-0.8-0.8-1.3-1.9-1.3-3.3h7.8
								C1027.8,588.3,1028.3,589.4,1029.2,590.2z"/>
						</defs>
						<clipPath id="SVGID_90_">
							<use xlink:href="#SVGID_605_"  overflow="visible"/>
						</clipPath>
						<g clip-path="url(#SVGID_90_)" enable-background="new    ">
							<path d="M1020,586.9h7.8c0,1.4,0.5,2.5,1.3,3.3c0.1,0.1,0.3,0.2,0.4,0.3h-7.8c-0.1-0.1-0.3-0.2-0.4-0.3
								C1020.5,589.4,1020,588.3,1020,586.9"/>
							<path d="M1021.8,590.5h7.8c0.3,0.2,0.5,0.4,0.8,0.5h-7.8C1022.2,590.9,1021.9,590.7,1021.8,590.5"/>
							<path d="M1022.5,591h7.8c0.3,0.1,0.6,0.2,0.9,0.3h-7.8C1023.2,591.2,1022.8,591.1,1022.5,591"/>
							<path d="M1023.4,591.3h7.8c0.3,0.1,0.6,0.1,0.9,0.1h-7.8C1023.9,591.4,1023.8,591.3,1023.4,591.3"/>
						</g>
					</g>
				</g>
				<g>
					<polygon fill="#303030" points="1022.7,537.3 1030.4,537.3 1028.8,587.1 1021,587.1 					"/>
				</g>
				<g enable-background="new    ">
					<g>
						<defs>
							<path id="SVGID_607_" d="M1022.7,693.3h7.8c0,2.7-1.3,4.6-3,4.6h-7.8C1021.2,697.9,1022.7,695.9,1022.7,693.3z"/>
						</defs>
						<clipPath id="SVGID_92_">
							<use xlink:href="#SVGID_607_"  overflow="visible"/>
						</clipPath>
						<g clip-path="url(#SVGID_92_)" enable-background="new    ">
							<path fill="#323232" d="M1022.7,693.3h7.8c0,2.7-1.3,4.6-3,4.6h-7.8C1021.2,697.9,1022.7,695.9,1022.7,693.3"/>
						</g>
					</g>
				</g>
				<g enable-background="new    ">
					<g>
						<defs>
							<path id="SVGID_609_" d="M1024.3,639.5h7.8c-1.1,0-2.2,0.4-3,1.2c-0.8,0.8-1.3,1.9-1.3,3.1h-7.8c0-1.2,0.5-2.3,1.3-3.1
								C1022.2,639.9,1023.2,639.5,1024.3,639.5z"/>
						</defs>
						<clipPath id="SVGID_94_">
							<use xlink:href="#SVGID_609_"  overflow="visible"/>
						</clipPath>
						<g clip-path="url(#SVGID_94_)" enable-background="new    ">
							<path d="M1024.3,639.5h7.8c-1.1,0-2.2,0.4-3,1.2c-0.8,0.8-1.3,1.9-1.3,3.1h-7.8c0-1.2,0.5-2.3,1.3-3.1
								C1022.2,639.9,1023.2,639.5,1024.3,639.5"/>
						</g>
					</g>
				</g>
				<g enable-background="new    ">
					<g>
						<defs>
							<path id="SVGID_611_" d="M1024.3,640.5h7.8c-0.9,0-1.7,0.3-2.3,0.9s-1,1.5-1,2.4h-7.8c0-0.9,0.3-1.8,1-2.4
								C1022.7,640.8,1023.4,640.5,1024.3,640.5z"/>
						</defs>
						<clipPath id="SVGID_96_">
							<use xlink:href="#SVGID_611_"  overflow="visible"/>
						</clipPath>
						<g clip-path="url(#SVGID_96_)" enable-background="new    ">
							<path fill="#323232" d="M1024.3,640.5h7.8c-0.9,0-1.7,0.3-2.3,0.9s-1,1.5-1,2.4h-7.8c0-0.9,0.3-1.8,1-2.4
								C1022.7,640.8,1023.4,640.5,1024.3,640.5"/>
						</g>
					</g>
				</g>
				<g enable-background="new    ">
					<g>
						<defs>
							<path id="SVGID_613_" d="M1032.2,590.4h-7.8c-0.9,0-1.7-0.3-2.3-0.9c-0.6-0.6-1-1.5-1-2.4h7.8c0,0.9,0.3,1.8,1,2.4
								C1030.4,590.1,1031.2,590.4,1032.2,590.4z"/>
						</defs>
						<clipPath id="SVGID_98_">
							<use xlink:href="#SVGID_613_"  overflow="visible"/>
						</clipPath>
						<g clip-path="url(#SVGID_98_)" enable-background="new    ">
							<path fill="#323232" d="M1021,587.1h7.8c0,0.9,0.3,1.8,1,2.4c0.1,0.1,0.2,0.2,0.3,0.3h-7.8c-0.1-0.1-0.2-0.2-0.3-0.3
								C1021.3,588.8,1021,588,1021,587.1"/>
							<path fill="#343434" d="M1022.3,589.7h7.8c0.2,0.1,0.4,0.3,0.6,0.4h-7.8C1022.8,590,1022.5,589.9,1022.3,589.7"/>
							<path fill="#363636" d="M1022.9,590.1h7.8c0.2,0.1,0.4,0.2,0.6,0.2h-7.8C1023.3,590.3,1023.2,590.2,1022.9,590.1"/>
							<path fill="#383838" d="M1023.7,590.3h7.8c0.2,0,0.5,0.1,0.7,0.1h-7.8C1024,590.4,1023.8,590.4,1023.7,590.3"/>
						</g>
					</g>
				</g>
				<g enable-background="new    ">
					<g>
						<defs>
							<path id="SVGID_615_" d="M1032.2,591.4h-7.8c0.1,0,0.1,0,0.2,0h7.8C1032.2,591.4,1032.2,591.4,1032.2,591.4z"/>
						</defs>
						<clipPath id="SVGID_100_">
							<use xlink:href="#SVGID_615_"  overflow="visible"/>
						</clipPath>
						<g clip-path="url(#SVGID_100_)" enable-background="new    ">
							<path fill="#323232" d="M1024.5,591.4h7.8c-0.1,0-0.1,0-0.2,0h-7.8C1024.3,591.4,1024.4,591.4,1024.5,591.4"/>
						</g>
					</g>
				</g>
				<g enable-background="new    ">
					<g>
						<defs>
							<path id="SVGID_617_" d="M1024.3,639.5h7.8c0.1,0,0.1,0,0.2,0h-7.8C1024.4,639.5,1024.3,639.5,1024.3,639.5z"/>
						</defs>
						<clipPath id="SVGID_102_">
							<use xlink:href="#SVGID_617_"  overflow="visible"/>
						</clipPath>
						<g clip-path="url(#SVGID_102_)" enable-background="new    ">
							<path fill="#383838" d="M1024.3,639.5h7.8c0.1,0,0.1,0,0.2,0h-7.8C1024.4,639.5,1024.3,639.5,1024.3,639.5"/>
						</g>
					</g>
				</g>
				<g>
					<polygon fill="#373737" points="1024.5,639.5 1032.3,639.5 1081,641.1 1073.2,641.1 					"/>
				</g>
				<g>
					<polygon fill="#303030" points="1073.2,589.8 1081,589.8 1032.3,591.4 1024.5,591.4 					"/>
				</g>
				<g enable-background="new    ">
					<g>
						<defs>
							<path id="SVGID_619_" d="M1081.2,641.1h-7.8c-0.1,0-0.2,0-0.3,0h7.8C1081.2,641.1,1081.2,641.1,1081.2,641.1z"/>
						</defs>
						<clipPath id="SVGID_104_">
							<use xlink:href="#SVGID_619_"  overflow="visible"/>
						</clipPath>
						<g clip-path="url(#SVGID_104_)" enable-background="new    ">
							<path fill="#383838" d="M1073.2,641.1h7.8c0.1,0,0.2,0,0.3,0h-7.8C1073.3,641.1,1073.2,641.1,1073.2,641.1"/>
						</g>
					</g>
				</g>
				<g enable-background="new    ">
					<g>
						<defs>
							<path id="SVGID_621_" d="M1073.4,589.8h7.8c1.1,0,2.2,0.4,2.8,1c0.2,0.2,0.5,0.6,0.5,1h-7.8c0-0.5-0.3-0.8-0.5-1
								C1075.5,590.1,1074.5,589.8,1073.4,589.8z"/>
						</defs>
						<clipPath id="SVGID_106_">
							<use xlink:href="#SVGID_621_"  overflow="visible"/>
						</clipPath>
						<g clip-path="url(#SVGID_106_)" enable-background="new    ">
							<path d="M1073.4,589.8h7.8c0.3,0,0.7,0,1,0.1h-7.8C1074.2,589.8,1073.8,589.8,1073.4,589.8"/>
							<path d="M1074.4,589.9h7.8c0.3,0.1,0.6,0.2,0.9,0.3h-7.8C1075,590,1074.8,589.9,1074.4,589.9"/>
							<path d="M1075.3,590.1h7.8c0.2,0.1,0.5,0.2,0.7,0.4h-7.8C1075.8,590.4,1075.5,590.3,1075.3,590.1"/>
							<path d="M1075.9,590.5h7.8c0.1,0.1,0.2,0.1,0.3,0.2c0.2,0.2,0.5,0.6,0.5,1h-7.8c0-0.5-0.3-0.8-0.5-1
								C1076.2,590.7,1076,590.6,1075.9,590.5"/>
						</g>
					</g>
				</g>
				<g enable-background="new    ">
					<g>
						<defs>
							<path id="SVGID_623_" d="M1081.2,641.1h-7.8c1.1,0,2.2-0.3,2.8-0.9c0.3-0.3,0.5-0.7,0.5-1.1h7.8c0,0.4-0.2,0.8-0.5,1.1
								C1083.4,640.7,1082.4,641.1,1081.2,641.1z"/>
						</defs>
						<clipPath id="SVGID_108_">
							<use xlink:href="#SVGID_623_"  overflow="visible"/>
						</clipPath>
						<g clip-path="url(#SVGID_108_)" enable-background="new    ">
							<path d="M1076.8,639.1h7.8c0,0.4-0.2,0.8-0.5,1.1c-0.6,0.6-1.6,0.9-2.8,0.9h-7.8c1.1,0,2.2-0.3,2.8-0.9
								C1076.5,639.8,1076.8,639.5,1076.8,639.1"/>
						</g>
					</g>
				</g>
				<g>
					<rect x="1076.8" y="591.8" width="7.8" height="47.3"/>
				</g>
				<g>
					<path d="M915.8,591.8c0-0.4,0.2-0.8,0.5-1.1c0.6-0.6,1.8-1,3-0.9l48.7,1.6c1.2,0.1,2.3-0.4,3.2-1.2c0.8-0.8,1.3-1.9,1.3-3.1
						l-1.6-49.5c0-2.1,1-3.6,2-3.6h46.7c1.1,0,2,1.5,2,3.3l-1.6,49.6c0,1.4,0.5,2.5,1.3,3.3s2,1.2,3.2,1.2l48.7-1.6
						c1.2-0.1,2.3,0.3,3,1c0.2,0.2,0.5,0.6,0.5,1v47.3c0,0.4-0.2,0.8-0.5,1.1c-0.6,0.6-1.8,1-3,0.9l-48.7-1.6
						c-1.2,0-2.3,0.4-3.2,1.2c-0.8,0.8-1.3,1.9-1.3,3.1l1.6,49.5c0,2-0.9,3.6-2,3.6h-46.7c-1.1,0-2-1.4-2-3.3l1.6-49.6
						c0-1.4-0.5-2.5-1.3-3.3c-0.8-0.8-2-1.2-3.2-1.2l-48.7,1.6c-1.2,0.1-2.3-0.3-3-1c-0.2-0.2-0.5-0.6-0.5-1V591.8z"/>
				</g>
				<g>
					<path fill="#565656" d="M969.9,537.6c0-2.6,1.4-4.6,3-4.6h46.7c1.7,0,3,1.9,3,4.3l-1.6,49.8c0,0.9,0.3,1.8,1,2.4
						c0.6,0.6,1.5,1,2.4,0.9l48.7-1.6c1.4-0.1,2.9,0.4,3.7,1.3c0.5,0.5,0.8,1.1,0.8,1.8v47.3c0,0.7-0.3,1.3-0.8,1.8
						c-0.8,0.8-2.2,1.3-3.8,1.2l-48.7-1.6c-0.9,0-1.8,0.3-2.4,0.9s-1,1.5-1,2.4l1.6,49.5c0,2.7-1.3,4.6-3,4.6h-46.7
						c-1.7,0-3-1.9-3-4.3l1.6-49.7c0-0.9-0.4-1.8-1-2.4c-0.7-0.6-1.5-0.9-2.4-0.9l-48.7,1.6c-1.4,0.1-2.9-0.4-3.8-1.3
						c-0.5-0.5-0.8-1.1-0.8-1.7V592c0-0.7,0.3-1.3,0.8-1.8c0.8-0.8,2.2-1.3,3.8-1.2l48.7,1.6c0.9,0,1.8-0.3,2.4-0.9s1-1.5,1-2.4
						L969.9,537.6z M1019.7,534h-46.7c-0.9,0-2,1.5-2,3.4l1.6,49.7c0,1.2-0.5,2.3-1.3,3.1c-0.8,0.8-2,1.2-3.2,1.2l-48.7-1.6
						c-1.3-0.1-2.4,0.3-3,0.9c-0.3,0.3-0.5,0.7-0.5,1.1v47.3c0,0.4,0.3,0.8,0.5,1c0.7,0.7,1.8,1,3,1l48.7-1.6c1.2,0,2.3,0.4,3.2,1.2
						c0.8,0.8,1.3,1.9,1.3,3.1l-1.6,49.5c0,2.1,0.9,3.6,2,3.6h46.7c1.1,0,2-1.6,2-3.4l-1.6-49.7c0-1.2,0.5-2.3,1.3-3.1
						c0.8-0.8,2-1.2,3.2-1.2l48.7,1.6c1.3,0.1,2.4-0.3,3-0.9c0.3-0.3,0.5-0.7,0.5-1.1v-47.3c0-0.5-0.3-0.8-0.5-1c-0.7-0.7-1.8-1-3-1
						l-48.7,1.6c-1.2,0.1-2.3-0.4-3.2-1.2c-0.8-0.8-1.3-1.9-1.3-3.1l1.6-49.5C1021.7,535.4,1020.8,534,1019.7,534"/>
				</g>
				<g enable-background="new    ">
					<g>
						<defs>
							<path id="SVGID_625_" d="M1073.4,588.8h7.8c1.4,0,2.7,0.5,3.5,1.3c0.5,0.5,0.8,1.1,0.8,1.8h-7.8c0-0.6-0.3-1.2-0.8-1.8
								C1076,589.2,1074.8,588.8,1073.4,588.8z"/>
						</defs>
						<clipPath id="SVGID_110_">
							<use xlink:href="#SVGID_625_"  overflow="visible"/>
						</clipPath>
						<g clip-path="url(#SVGID_110_)" enable-background="new    ">
							<path fill="#383838" d="M1073.4,588.8h7.8c0.4,0,0.8,0,1.2,0.1h-7.8C1074.2,588.8,1073.8,588.8,1073.4,588.8"/>
							<path fill="#363636" d="M1074.7,588.9h7.8c0.4,0.1,0.8,0.2,1.1,0.3h-7.8C1075.3,589.1,1074.9,589,1074.7,588.9"/>
							<path fill="#343434" d="M1075.8,589.2h7.8c0.3,0.1,0.6,0.3,0.9,0.5h-7.8C1076.3,589.5,1076,589.4,1075.8,589.2"/>
							<path fill="#323232" d="M1076.5,589.7h7.8c0.1,0.1,0.2,0.2,0.3,0.3c0.5,0.5,0.8,1.1,0.8,1.8h-7.7c0-0.6-0.3-1.2-0.8-1.8
								C1076.8,589.9,1076.7,589.8,1076.5,589.7"/>
						</g>
					</g>
				</g>
				<g>
					<rect x="1077.8" y="591.8" fill="#303030" width="7.8" height="47.3"/>
				</g>
				<g enable-background="new    ">
					<g>
						<defs>
							<path id="SVGID_627_" d="M1081.2,642.1h-7.8c1.4,0,2.7-0.4,3.4-1.2c0.5-0.5,0.8-1.1,0.8-1.8h7.8c0,0.7-0.3,1.3-0.8,1.8
								C1083.9,641.6,1082.7,642.1,1081.2,642.1z"/>
						</defs>
						<clipPath id="SVGID_112_">
							<use xlink:href="#SVGID_627_"  overflow="visible"/>
						</clipPath>
						<g clip-path="url(#SVGID_112_)" enable-background="new    ">
							<path fill="#323232" d="M1077.8,639.1h7.8c0,0.7-0.3,1.3-0.8,1.8c-0.8,0.8-2,1.2-3.4,1.2h-7.8c1.4,0,2.7-0.4,3.4-1.2
								C1077.4,640.4,1077.8,639.7,1077.8,639.1"/>
						</g>
					</g>
				</g>
			</g>
		</g>
	</g>
</g>
<g id="up">
	<g>
		<g>
			<g enable-background="new    ">
				<g>
					<rect x="976.5" y="692" fill="#303030" width="47.3" height="7.8"/>
				</g>
				<g enable-background="new    ">
					<g>
						<defs>
							<path id="SVGID_629_" d="M974.5,696.5v-7.8c0,1.2,0.3,2.2,0.9,2.8c0.3,0.3,0.7,0.5,1.1,0.5v7.8c-0.4,0-0.8-0.2-1.1-0.5
								C974.8,698.7,974.5,697.7,974.5,696.5z"/>
						</defs>
						<clipPath id="SVGID_114_">
							<use xlink:href="#SVGID_629_"  overflow="visible"/>
						</clipPath>
						<g clip-path="url(#SVGID_114_)" enable-background="new    ">
							<path fill="#323232" d="M974.5,696.5v-7.8c0,1.2,0.3,2.2,0.9,2.8c0.3,0.3,0.7,0.5,1.1,0.5v7.8c-0.4,0-0.8-0.2-1.1-0.5
								C974.8,698.7,974.5,697.7,974.5,696.5"/>
						</g>
					</g>
				</g>
				<g enable-background="new    ">
					<g>
						<defs>
							<path id="SVGID_631_" d="M1025.8,688.7v7.8c0,1.1-0.4,2.2-1,2.8c-0.2,0.2-0.6,0.5-1,0.5V692c0.4,0,0.8-0.3,1-0.5
								C1025.4,690.8,1025.8,689.8,1025.8,688.7z"/>
						</defs>
						<clipPath id="SVGID_116_">
							<use xlink:href="#SVGID_631_"  overflow="visible"/>
						</clipPath>
						<g clip-path="url(#SVGID_116_)" enable-background="new    ">
							<path fill="#323232" d="M1023.8,699.8V692c0.4,0,0.8-0.3,1-0.5c0.1-0.1,0.1-0.2,0.2-0.3v7.8c-0.1,0.1-0.1,0.2-0.2,0.3
								C1024.5,699.5,1024.1,699.8,1023.8,699.8"/>
							<path fill="#343434" d="M1025,699v-7.8c0.1-0.2,0.3-0.4,0.4-0.7v7.8C1025.3,698.6,1025.1,698.8,1025,699"/>
							<path fill="#363636" d="M1025.4,698.4v-7.8c0.1-0.3,0.2-0.6,0.3-0.9v7.8C1025.5,697.8,1025.5,698.1,1025.4,698.4"/>
							<path fill="#383838" d="M1025.6,697.5v-7.8c0.1-0.3,0.1-0.7,0.1-1v7.8C1025.8,696.8,1025.6,697.2,1025.6,697.5"/>
						</g>
					</g>
				</g>
				<g enable-background="new    ">
					<g>
						<defs>
							<path id="SVGID_633_" d="M1025.8,688.7v7.8c0-0.1,0-0.2,0-0.2v-7.8C1025.8,688.5,1025.8,688.6,1025.8,688.7z"/>
						</defs>
						<clipPath id="SVGID_118_">
							<use xlink:href="#SVGID_633_"  overflow="visible"/>
						</clipPath>
						<g clip-path="url(#SVGID_118_)" enable-background="new    ">
							<path d="M1025.8,696.3v-7.8c0,0.1,0,0.2,0,0.2v7.8C1025.8,696.4,1025.8,696.4,1025.8,696.3"/>
						</g>
					</g>
				</g>
				<g enable-background="new    ">
					<g>
						<defs>
							<path id="SVGID_635_" d="M974.5,696.5v-7.8c0-0.1,0-0.2,0-0.3v7.8C974.5,696.4,974.5,696.4,974.5,696.5z"/>
						</defs>
						<clipPath id="SVGID_120_">
							<use xlink:href="#SVGID_635_"  overflow="visible"/>
						</clipPath>
						<g clip-path="url(#SVGID_120_)" enable-background="new    ">
							<path d="M974.5,696.5v-7.8c0-0.1,0-0.2,0-0.3v7.8C974.5,696.4,974.5,696.4,974.5,696.5"/>
						</g>
					</g>
				</g>
				<g enable-background="new    ">
					<g>
						<defs>
							<path id="SVGID_637_" d="M973.5,696.5v-7.8c0-0.1,0-0.2,0-0.3v7.8C973.5,696.3,973.5,696.4,973.5,696.5z"/>
						</defs>
						<clipPath id="SVGID_122_">
							<use xlink:href="#SVGID_637_"  overflow="visible"/>
						</clipPath>
						<g clip-path="url(#SVGID_122_)" enable-background="new    ">
							<path fill="#383838" d="M973.5,696.5v-7.8c0-0.1,0-0.2,0-0.3v7.8C973.5,696.3,973.5,696.4,973.5,696.5"/>
						</g>
					</g>
				</g>
				<g enable-background="new    ">
					<g>
						<defs>
							<path id="SVGID_639_" d="M1026.8,688.7v7.8c0-0.1,0-0.2,0-0.3v-7.8C1026.8,688.5,1026.8,688.6,1026.8,688.7z"/>
						</defs>
						<clipPath id="SVGID_124_">
							<use xlink:href="#SVGID_639_"  overflow="visible"/>
						</clipPath>
						<g clip-path="url(#SVGID_124_)" enable-background="new    ">
							<path fill="#323232" d="M1026.8,696.2v-7.8c0,0.1,0,0.2,0,0.3v7.8C1026.8,696.4,1026.8,696.3,1026.8,696.2"/>
						</g>
					</g>
				</g>
				<g>
					<polygon points="974.5,696.3 974.5,688.4 976,639.8 976,647.6 					"/>
				</g>
				<g>
					<polygon points="1024.1,647.6 1024.1,639.7 1025.8,688.5 1025.8,696.3 					"/>
				</g>
				<g>
					<polygon fill="#373737" points="973.5,696.2 973.5,688.4 975,639.7 975,647.5 					"/>
				</g>
				<g>
					<polygon fill="#303030" points="1025.1,647.5 1025.1,639.7 1026.8,688.4 1026.8,696.2 					"/>
				</g>
				<g enable-background="new    ">
					<g>
						<defs>
							<path id="SVGID_641_" d="M1024.1,639.6c0,0.1,0,0.1,0,0.2v7.8c0-0.1,0-0.1,0-0.2C1024.1,645,1024.1,641.9,1024.1,639.6z"/>
						</defs>
						<clipPath id="SVGID_126_">
							<use xlink:href="#SVGID_641_"  overflow="visible"/>
						</clipPath>
						<g clip-path="url(#SVGID_126_)" enable-background="new    ">
							<path d="M1024.1,647.4v-7.8c0,0.1,0,0.1,0,0.2v7.8C1024.1,647.5,1024.1,647.5,1024.1,647.4"/>
						</g>
					</g>
				</g>
				<g enable-background="new    ">
					<g>
						<defs>
							<path id="SVGID_643_" d="M975,639.5v7.8c0,0.1,0,0.1,0,0.2v-7.8C975,639.7,975,639.6,975,639.5z"/>
						</defs>
						<clipPath id="SVGID_128_">
							<use xlink:href="#SVGID_643_"  overflow="visible"/>
						</clipPath>
						<g clip-path="url(#SVGID_128_)" enable-background="new    ">
							<path fill="#383838" d="M975,647.5v-7.8c0-0.1,0-0.1,0-0.2v7.8C975,647.4,975,647.5,975,647.5"/>
						</g>
					</g>
				</g>
				<g enable-background="new    ">
					<g>
						<defs>
							<path id="SVGID_645_" d="M976,639.6v7.8c0-1.1-0.4-2.2-1.2-3c-0.8-0.8-1.9-1.3-3.1-1.3v-7.8c1.2,0,2.3,0.5,3.1,1.3
								C975.6,637.4,976,638.4,976,639.6z"/>
						</defs>
						<clipPath id="SVGID_130_">
							<use xlink:href="#SVGID_645_"  overflow="visible"/>
						</clipPath>
						<g clip-path="url(#SVGID_130_)" enable-background="new    ">
							<path fill="#323232" d="M971.8,643.1v-7.8c1.2,0,2.3,0.5,3.1,1.3c0.8,0.8,1.2,1.8,1.2,3v7.8c0-1.1-0.4-2.2-1.2-3
								C974,643.6,973,643.1,971.8,643.1"/>
						</g>
					</g>
				</g>
				<g enable-background="new    ">
					<g>
						<defs>
							<path id="SVGID_647_" d="M976,639.8c0-0.1,0-0.1,0-0.2v7.8c0,0.1,0,0.1,0,0.2c0-1.3,0-2.6,0-3.9c0-0.3,0-0.7,0-1
								c0-0.2,0-0.4,0-0.5C976,641.3,976,640.5,976,639.8z"/>
						</defs>
						<clipPath id="SVGID_132_">
							<use xlink:href="#SVGID_647_"  overflow="visible"/>
						</clipPath>
						<g clip-path="url(#SVGID_132_)" enable-background="new    ">
							<path d="M976,647.6v-7.8c0-0.1,0-0.1,0-0.2v7.8C976,647.4,976,647.5,976,647.6"/>
						</g>
					</g>
				</g>
				<g>
					<polygon fill="#303030" points="1028.5,643.1 1028.5,635.3 1078,636.9 1078,644.7 					"/>
				</g>
				<g>
					<polygon fill="#303030" points="922,644.7 922,636.9 971.8,635.3 971.8,643.1 					"/>
				</g>
				<g enable-background="new    ">
					<g>
						<defs>
							<path id="SVGID_649_" d="M1024.1,647.4v-7.8c0-1.1,0.4-2.2,1.2-3c0.8-0.8,1.9-1.3,3.1-1.3v7.8c-1.2,0-2.3,0.5-3.1,1.3
								C1024.5,645.2,1024.1,646.3,1024.1,647.4z"/>
						</defs>
						<clipPath id="SVGID_134_">
							<use xlink:href="#SVGID_649_"  overflow="visible"/>
						</clipPath>
						<g clip-path="url(#SVGID_134_)" enable-background="new    ">
							<path fill="#383838" d="M1024.1,647.4v-7.8c0-0.3,0-0.6,0.1-0.9v7.8C1024.1,646.8,1024.1,647.1,1024.1,647.4"/>
							<path fill="#363636" d="M1024.3,646.5v-7.8c0.1-0.3,0.2-0.6,0.3-0.9v7.8C1024.4,645.9,1024.3,646.2,1024.3,646.5"/>
							<path fill="#343434" d="M1024.5,645.6v-7.8c0.1-0.3,0.3-0.6,0.5-0.8v7.8C1024.8,645.1,1024.6,645.3,1024.5,645.6"/>
							<path fill="#323232" d="M1025,644.8V637c0.1-0.1,0.2-0.3,0.3-0.4c0.8-0.8,1.9-1.3,3.1-1.3v7.8c-1.2,0-2.3,0.5-3.1,1.3
								C1025.1,644.5,1025,644.7,1025,644.8"/>
						</g>
					</g>
				</g>
				<g enable-background="new    ">
					<g>
						<defs>
							<path id="SVGID_651_" d="M1078,644.7v-7.8c2.1,0,3.6-0.9,3.6-2v7.8C1081.5,643.8,1080,644.7,1078,644.7z"/>
						</defs>
						<clipPath id="SVGID_136_">
							<use xlink:href="#SVGID_651_"  overflow="visible"/>
						</clipPath>
						<g clip-path="url(#SVGID_136_)" enable-background="new    ">
							<path fill="#323232" d="M1078,644.7v-7.8c1.6,0,2.8-0.5,3.3-1.2v7.8C1080.8,644.2,1079.5,644.7,1078,644.7"/>
							<path fill="#343434" d="M1081.3,643.5v-7.8c0.1-0.1,0.1-0.2,0.2-0.3v7.8C1081.4,643.3,1081.4,643.4,1081.3,643.5"/>
							<path fill="#363636" d="M1081.5,643.2v-7.8c0-0.1,0.1-0.2,0.1-0.3v7.8C1081.5,643.1,1081.5,643.1,1081.5,643.2"/>
							<path fill="#383838" d="M1081.5,643v-7.8c0-0.1,0-0.2,0-0.3v7.8C1081.5,642.8,1081.5,642.9,1081.5,643"/>
						</g>
					</g>
				</g>
				<g enable-background="new    ">
					<g>
						<defs>
							<path id="SVGID_653_" d="M918.6,642.7v-7.8c0,0.9,1.5,2,3.4,2v7.8C920,644.7,918.6,643.7,918.6,642.7z"/>
						</defs>
						<clipPath id="SVGID_138_">
							<use xlink:href="#SVGID_653_"  overflow="visible"/>
						</clipPath>
						<g clip-path="url(#SVGID_138_)" enable-background="new    ">
							<path fill="#323232" d="M918.6,642.7v-7.8c0,0.9,1.5,2,3.4,2v7.8C920,644.7,918.6,643.7,918.6,642.7"/>
						</g>
					</g>
				</g>
				<g enable-background="new    ">
					<g>
						<defs>
							<path id="SVGID_655_" d="M921.6,586.2c0,0,0,0.1,0,0.2c0,0,0,0.1,0,0.2c0,0.1,0,0.1,0,0.2s0,0.1,0,0.2c0,0.1,0,0.1,0,0.2
								c0,0,0,0.1,0,0.2c0,0,0,0.1,0,0.2c0,0,0,0.1,0,0.2c0,0.2,0,0.5,0,0.8c0,0.2,0,0.6,0,0.8c0,0.2,0,0.6,0,0.8c0,0.3,0,0.6,0,0.9
								c0,0.3,0,0.6,0,0.9c0,0.3,0,0.6,0,0.8s0,0.6,0,0.8c0,0.2,0,0.5,0,0.8c-1.7,0.1-3,0.9-3,2v-7.8
								C918.6,587.1,920,586.3,921.6,586.2z"/>
						</defs>
						<clipPath id="SVGID_140_">
							<use xlink:href="#SVGID_655_"  overflow="visible"/>
						</clipPath>
						<g clip-path="url(#SVGID_140_)" enable-background="new    ">
							<path d="M918.6,596v-7.8c0-0.1,0-0.2,0-0.3v7.8C918.6,595.8,918.6,595.9,918.6,596"/>
							<path d="M918.6,595.7v-7.8c0-0.1,0-0.2,0.1-0.3v7.8C918.6,595.6,918.6,595.7,918.6,595.7"/>
							<path d="M918.8,595.5v-7.8c0-0.1,0.1-0.2,0.2-0.3v7.8C918.9,595.3,918.8,595.4,918.8,595.5"/>
							<path d="M919,595.2v-7.8c0.5-0.7,1.7-1.1,3-1.1v7.8C920.5,594,919.5,594.5,919,595.2"/>
						</g>
					</g>
				</g>
				<g>
					<polygon points="1028.5,595.6 1028.5,587.8 1078,586.2 1078,594 					"/>
				</g>
				<g>
					<polygon points="922,594 922,586.2 971.5,587.8 971.5,595.6 					"/>
				</g>
				<g enable-background="new    ">
					<g>
						<defs>
							<path id="SVGID_657_" d="M1078,594v-7.8c2,0,3.6,0.9,3.6,2v7.8C1081.5,594.9,1080,594,1078,594z"/>
						</defs>
						<clipPath id="SVGID_142_">
							<use xlink:href="#SVGID_657_"  overflow="visible"/>
						</clipPath>
						<g clip-path="url(#SVGID_142_)" enable-background="new    ">
							<path d="M1078,594v-7.8c2,0,3.6,0.9,3.6,2v7.8C1081.5,594.9,1080,594,1078,594"/>
						</g>
					</g>
				</g>
				<g>
					<polygon fill="#303030" points="1028.5,594.6 1028.5,586.8 1078,585.2 1078,593 					"/>
				</g>
				<g enable-background="new    ">
					<g>
						<defs>
							<path id="SVGID_659_" d="M917.6,596v-7.8c0-1.7,1.9-3,4.3-3v7.8C919.5,593,917.6,594.3,917.6,596z"/>
						</defs>
						<clipPath id="SVGID_144_">
							<use xlink:href="#SVGID_659_"  overflow="visible"/>
						</clipPath>
						<g clip-path="url(#SVGID_144_)" enable-background="new    ">
							<path fill="#383838" d="M917.6,596v-7.8c0-0.2,0-0.3,0-0.5v7.8C917.6,595.7,917.6,595.8,917.6,596"/>
							<path fill="#363636" d="M917.6,595.5v-7.8c0-0.2,0.1-0.3,0.1-0.5v7.8C917.8,595.2,917.8,595.4,917.6,595.5"/>
							<path fill="#343434" d="M917.9,595.1v-7.8c0.1-0.2,0.2-0.3,0.3-0.5v7.8C918,594.7,917.9,594.9,917.9,595.1"/>
							<path fill="#323232" d="M918.1,594.6v-7.8c0.7-0.9,2.1-1.6,3.8-1.6v7.8C920.3,593,918.9,593.6,918.1,594.6"/>
						</g>
					</g>
				</g>
				<g enable-background="new    ">
					<g>
						<defs>
							<path id="SVGID_661_" d="M974.9,586.5c0.8-0.8,1.2-1.8,1.2-3v7.8c0,1.1-0.4,2.2-1.2,3l0,0c0-0.3,0-0.6,0-0.9c0-0.3,0-0.7,0-1
								c0-0.3,0-0.7,0-1c0-0.3,0-0.7,0-1c0-0.3,0-0.7,0-1c0-0.3,0-0.7,0-1c0-0.3,0-0.7,0-1C974.9,587.1,974.9,586.8,974.9,586.5
								c0,0.3,0,0.7,0,0.9c0,0.3,0,0.7,0,1c0,0.3,0,0.7,0,1c0,0.3,0,0.7,0,1c0,0.3,0,0.7,0,1c0,0.3,0,0.7,0,1c0,0.3,0,0.7,0,1
								c0,0.3,0,0.6,0,0.9c-0.8,0.8-1.9,1.3-3.3,1.3v-7.8C973,587.8,974,587.3,974.9,586.5z"/>
						</defs>
						<clipPath id="SVGID_146_">
							<use xlink:href="#SVGID_661_"  overflow="visible"/>
						</clipPath>
						<g clip-path="url(#SVGID_146_)" enable-background="new    ">
							<path d="M971.5,595.6v-7.8c1.4,0,2.5-0.5,3.3-1.3c0.1-0.1,0.2-0.3,0.3-0.4v7.8c-0.1,0.1-0.2,0.3-0.3,0.4
								C974,595.1,973,595.6,971.5,595.6"/>
							<path d="M975.1,593.9v-7.8c0.2-0.3,0.4-0.5,0.5-0.8v7.8C975.5,593.4,975.4,593.7,975.1,593.9"/>
							<path d="M975.6,593.1v-7.8c0.1-0.3,0.2-0.6,0.3-0.9v7.8C975.9,592.5,975.8,592.8,975.6,593.1"/>
							<path d="M976,592.2v-7.8c0.1-0.3,0.1-0.6,0.1-0.9v7.8C976,591.7,976,591.9,976,592.2"/>
						</g>
					</g>
				</g>
				<g>
					<polygon fill="#303030" points="922,593 922,585.2 971.8,586.8 971.8,594.6 					"/>
				</g>
				<g enable-background="new    ">
					<g>
						<defs>
							<path id="SVGID_663_" d="M1078,593v-7.8c2.7,0,4.6,1.3,4.6,3v7.8C1082.5,594.4,1080.5,593,1078,593z"/>
						</defs>
						<clipPath id="SVGID_148_">
							<use xlink:href="#SVGID_663_"  overflow="visible"/>
						</clipPath>
						<g clip-path="url(#SVGID_148_)" enable-background="new    ">
							<path fill="#323232" d="M1078,593v-7.8c2.7,0,4.6,1.3,4.6,3v7.8C1082.5,594.4,1080.5,593,1078,593"/>
						</g>
					</g>
				</g>
				<g enable-background="new    ">
					<g>
						<defs>
							<path id="SVGID_665_" d="M1024.1,591.3v-7.8c0,1.1,0.4,2.2,1.2,3c0.8,0.8,1.9,1.3,3.1,1.3v7.8c-1.2,0-2.3-0.5-3.1-1.3
								C1024.5,593.5,1024.1,592.5,1024.1,591.3z"/>
						</defs>
						<clipPath id="SVGID_150_">
							<use xlink:href="#SVGID_665_"  overflow="visible"/>
						</clipPath>
						<g clip-path="url(#SVGID_150_)" enable-background="new    ">
							<path d="M1024.1,591.3v-7.8c0,1.1,0.4,2.2,1.2,3c0.8,0.8,1.9,1.3,3.1,1.3v7.8c-1.2,0-2.3-0.5-3.1-1.3
								C1024.5,593.5,1024.1,592.5,1024.1,591.3"/>
						</g>
					</g>
				</g>
				<g enable-background="new    ">
					<g>
						<defs>
							<path id="SVGID_667_" d="M1025.1,591.3v-7.8c0,0.9,0.3,1.7,0.9,2.3s1.5,1,2.4,1v7.8c-0.9,0-1.8-0.3-2.4-1
								C1025.5,593,1025.1,592.2,1025.1,591.3z"/>
						</defs>
						<clipPath id="SVGID_152_">
							<use xlink:href="#SVGID_667_"  overflow="visible"/>
						</clipPath>
						<g clip-path="url(#SVGID_152_)" enable-background="new    ">
							<path fill="#323232" d="M1025.1,591.3v-7.8c0,0.9,0.3,1.7,0.9,2.3s1.5,1,2.4,1v7.8c-0.9,0-1.8-0.3-2.4-1
								C1025.5,593,1025.1,592.2,1025.1,591.3"/>
						</g>
					</g>
				</g>
				<g enable-background="new    ">
					<g>
						<defs>
							<path id="SVGID_669_" d="M975,583.5v7.8c0,0.9-0.3,1.7-0.9,2.3c-0.6,0.6-1.5,1-2.4,1v-7.8c0.9,0,1.8-0.3,2.4-1
								C974.8,585.2,975,584.4,975,583.5z"/>
						</defs>
						<clipPath id="SVGID_154_">
							<use xlink:href="#SVGID_669_"  overflow="visible"/>
						</clipPath>
						<g clip-path="url(#SVGID_154_)" enable-background="new    ">
							<path fill="#323232" d="M971.8,594.6v-7.8c0.9,0,1.8-0.3,2.4-1c0.1-0.1,0.2-0.2,0.3-0.3v7.8c-0.1,0.1-0.2,0.2-0.3,0.3
								C973.5,594.3,972.6,594.6,971.8,594.6"/>
							<path fill="#343434" d="M974.4,593.3v-7.8c0.1-0.2,0.3-0.4,0.4-0.6v7.8C974.6,592.9,974.5,593.1,974.4,593.3"/>
							<path fill="#363636" d="M974.8,592.7v-7.8c0.1-0.2,0.2-0.4,0.2-0.6v7.8C975,592.3,974.9,592.5,974.8,592.7"/>
							<path fill="#383838" d="M975,592v-7.8c0-0.2,0.1-0.5,0.1-0.7v7.8C975,591.6,975,591.8,975,592"/>
						</g>
					</g>
				</g>
				<g enable-background="new    ">
					<g>
						<defs>
							<path id="SVGID_671_" d="M976,583.5v7.8c0-0.1,0-0.1,0-0.2v-7.8C976,583.4,976,583.5,976,583.5z"/>
						</defs>
						<clipPath id="SVGID_156_">
							<use xlink:href="#SVGID_671_"  overflow="visible"/>
						</clipPath>
						<g clip-path="url(#SVGID_156_)" enable-background="new    ">
							<path fill="#323232" d="M976,591.1v-7.8c0,0.1,0,0.1,0,0.2v7.8C976,591.3,976,591.2,976,591.1"/>
						</g>
					</g>
				</g>
				<g enable-background="new    ">
					<g>
						<defs>
							<path id="SVGID_673_" d="M1024.1,591.3v-7.8c0-0.1,0-0.1,0-0.2v7.8C1024.1,591.2,1024.1,591.3,1024.1,591.3z"/>
						</defs>
						<clipPath id="SVGID_158_">
							<use xlink:href="#SVGID_673_"  overflow="visible"/>
						</clipPath>
						<g clip-path="url(#SVGID_158_)" enable-background="new    ">
							<path fill="#383838" d="M1024.1,591.3v-7.8c0-0.1,0-0.1,0-0.2v7.8C1024.1,591.2,1024.1,591.3,1024.1,591.3"/>
						</g>
					</g>
				</g>
				<g>
					<polygon fill="#373737" points="1024.1,591.1 1024.1,583.3 1025.8,534.6 1025.8,542.4 					"/>
				</g>
				<g>
					<polygon fill="#303030" points="974.5,542.4 974.5,534.6 976,583.3 976,591.1 					"/>
				</g>
				<g enable-background="new    ">
					<g>
						<defs>
							<path id="SVGID_675_" d="M1025.8,534.4v7.8c0,0.1,0,0.2,0,0.3v-7.8C1025.8,534.5,1025.8,534.5,1025.8,534.4z"/>
						</defs>
						<clipPath id="SVGID_160_">
							<use xlink:href="#SVGID_675_"  overflow="visible"/>
						</clipPath>
						<g clip-path="url(#SVGID_160_)" enable-background="new    ">
							<path fill="#383838" d="M1025.8,542.4v-7.8c0-0.1,0-0.2,0-0.3v7.8C1025.8,542.3,1025.8,542.4,1025.8,542.4"/>
						</g>
					</g>
				</g>
				<g enable-background="new    ">
					<g>
						<defs>
							<path id="SVGID_677_" d="M974.5,542.2v-7.8c0-1.1,0.4-2.2,1-2.8c0.2-0.2,0.6-0.5,1-0.5v7.8c-0.5,0-0.8,0.3-1,0.5
								C974.8,540.1,974.5,541.1,974.5,542.2z"/>
						</defs>
						<clipPath id="SVGID_162_">
							<use xlink:href="#SVGID_677_"  overflow="visible"/>
						</clipPath>
						<g clip-path="url(#SVGID_162_)" enable-background="new    ">
							<path d="M974.5,542.2v-7.8c0-0.3,0-0.7,0.1-1v7.8C974.5,541.5,974.5,541.9,974.5,542.2"/>
							<path d="M974.5,541.2v-7.8c0.1-0.3,0.2-0.6,0.3-0.9v7.8C974.6,540.6,974.5,540.9,974.5,541.2"/>
							<path d="M974.8,540.3v-7.8c0.1-0.2,0.2-0.5,0.4-0.7v7.8C975,539.9,975,540.1,974.8,540.3"/>
							<path d="M975.1,539.7v-7.8c0.1-0.1,0.1-0.2,0.2-0.3c0.2-0.2,0.6-0.5,1-0.5v7.8c-0.5,0-0.8,0.3-1,0.5
								C975.4,539.5,975.3,539.6,975.1,539.7"/>
						</g>
					</g>
				</g>
				<g enable-background="new    ">
					<g>
						<defs>
							<path id="SVGID_679_" d="M1025.8,534.4v7.8c0-1.1-0.3-2.2-0.9-2.8c-0.3-0.3-0.7-0.5-1.1-0.5v-7.8c0.4,0,0.8,0.2,1.1,0.5
								C1025.4,532.2,1025.8,533.2,1025.8,534.4z"/>
						</defs>
						<clipPath id="SVGID_164_">
							<use xlink:href="#SVGID_679_"  overflow="visible"/>
						</clipPath>
						<g clip-path="url(#SVGID_164_)" enable-background="new    ">
							<path d="M1023.8,538.9v-7.8c0.4,0,0.8,0.2,1.1,0.5c0.6,0.6,0.9,1.6,0.9,2.8v7.8c0-1.1-0.3-2.2-0.9-2.8
								C1024.5,539.1,1024.1,538.9,1023.8,538.9"/>
						</g>
					</g>
				</g>
				<g>
					<rect x="976.5" y="531.1" width="47.3" height="7.8"/>
				</g>
				<g>
					<path d="M976.5,699.8c-0.4,0-0.8-0.2-1.1-0.5c-0.6-0.6-1-1.8-0.9-3l1.6-48.7c0.1-1.2-0.4-2.3-1.2-3.2c-0.8-0.8-1.9-1.3-3.1-1.3
						l-49.5,1.6c-2.1,0-3.6-1-3.6-2V596c0-1.1,1.5-2,3.3-2l49.6,1.6c1.4,0,2.5-0.5,3.3-1.3s1.2-2,1.2-3.2l-1.6-48.7
						c-0.1-1.2,0.3-2.3,1-3c0.2-0.2,0.6-0.5,1-0.5h47.3c0.4,0,0.8,0.2,1.1,0.5c0.6,0.6,1,1.8,0.9,3l-1.6,48.7c0,1.2,0.4,2.3,1.2,3.2
						c0.8,0.8,1.9,1.3,3.1,1.3l49.5-1.6c2,0,3.6,0.9,3.6,2v46.7c0,1.1-1.4,2-3.3,2l-49.6-1.6c-1.4,0-2.5,0.5-3.3,1.3
						c-0.8,0.8-1.2,2-1.2,3.2l1.6,48.7c0.1,1.2-0.3,2.3-1,3c-0.2,0.2-0.6,0.5-1,0.5H976.5z"/>
				</g>
				<g>
					<path fill="#565656" d="M922.3,645.7c-2.6,0-4.6-1.4-4.6-3V596c0-1.7,1.9-3,4.3-3l49.8,1.6c0.9,0,1.8-0.3,2.4-1
						c0.6-0.6,1-1.5,0.9-2.4l-1.6-48.7c-0.1-1.4,0.4-2.9,1.3-3.7c0.5-0.5,1.1-0.8,1.8-0.8h47.3c0.7,0,1.3,0.3,1.8,0.8
						c0.8,0.8,1.3,2.2,1.2,3.8l-1.6,48.7c0,0.9,0.3,1.8,0.9,2.4s1.5,1,2.4,1l49.5-1.6c2.7,0,4.6,1.3,4.6,3v46.7c0,1.7-1.9,3-4.3,3
						l-49.7-1.6c-0.9,0-1.8,0.4-2.4,1c-0.6,0.7-0.9,1.5-0.9,2.4l1.6,48.7c0.1,1.4-0.4,2.9-1.3,3.8c-0.5,0.5-1.1,0.8-1.7,0.8h-47.3
						c-0.7,0-1.3-0.3-1.8-0.8c-0.8-0.8-1.3-2.2-1.2-3.8l1.6-48.7c0-0.9-0.3-1.8-0.9-2.4s-1.5-1-2.4-1L922.3,645.7z M918.6,596v46.7
						c0,0.9,1.5,2,3.4,2l49.7-1.6c1.2,0,2.3,0.5,3.1,1.3c0.8,0.8,1.2,2,1.2,3.2l-1.6,48.7c-0.1,1.3,0.3,2.4,0.9,3
						c0.3,0.3,0.7,0.5,1.1,0.5h47.3c0.4,0,0.8-0.3,1-0.5c0.7-0.7,1-1.8,1-3l-1.6-48.7c0-1.2,0.4-2.3,1.2-3.2
						c0.8-0.8,1.9-1.3,3.1-1.3l49.5,1.6c2.1,0,3.6-0.9,3.6-2V596c0-1.1-1.6-2-3.4-2l-49.7,1.6c-1.2,0-2.3-0.5-3.1-1.3
						c-0.8-0.8-1.2-2-1.2-3.2l1.6-48.7c0.1-1.3-0.3-2.4-0.9-3c-0.3-0.3-0.7-0.5-1.1-0.5h-47.3c-0.5,0-0.8,0.3-1,0.5
						c-0.7,0.7-1,1.8-1,3l1.6,48.7c0.1,1.2-0.4,2.3-1.2,3.2c-0.8,0.8-1.9,1.3-3.1,1.3l-49.5-1.6C920,594,918.6,594.9,918.6,596"/>
				</g>
				<g enable-background="new    ">
					<g>
						<defs>
							<path id="SVGID_681_" d="M973.5,542.2v-7.8c0-1.4,0.5-2.7,1.3-3.5c0.5-0.5,1.1-0.8,1.8-0.8v7.8c-0.6,0-1.2,0.3-1.8,0.8
								C973.9,539.6,973.5,540.9,973.5,542.2z"/>
						</defs>
						<clipPath id="SVGID_166_">
							<use xlink:href="#SVGID_681_"  overflow="visible"/>
						</clipPath>
						<g clip-path="url(#SVGID_166_)" enable-background="new    ">
							<path fill="#383838" d="M973.5,542.2v-7.8c0-0.4,0-0.8,0.1-1.2v7.8C973.5,541.4,973.5,541.8,973.5,542.2"/>
							<path fill="#363636" d="M973.5,541v-7.8c0.1-0.4,0.2-0.8,0.3-1.1v7.8C973.8,540.3,973.6,540.7,973.5,541"/>
							<path fill="#343434" d="M973.9,539.9v-7.8c0.1-0.3,0.3-0.6,0.5-0.9v7.8C974.1,539.3,974,539.6,973.9,539.9"/>
							<path fill="#323232" d="M974.4,539.1v-7.8c0.1-0.1,0.2-0.2,0.3-0.3c0.5-0.5,1.1-0.8,1.8-0.8v7.7c-0.6,0-1.2,0.3-1.8,0.8
								C974.5,538.8,974.5,539,974.4,539.1"/>
						</g>
					</g>
				</g>
				<g>
					<rect x="976.5" y="530.1" fill="#303030" width="47.3" height="7.8"/>
				</g>
				<g enable-background="new    ">
					<g>
						<defs>
							<path id="SVGID_683_" d="M1026.8,534.4v7.8c0-1.4-0.4-2.7-1.2-3.4c-0.5-0.5-1.1-0.8-1.8-0.8v-7.8c0.7,0,1.3,0.3,1.8,0.8
								C1026.3,531.7,1026.8,533,1026.8,534.4z"/>
						</defs>
						<clipPath id="SVGID_168_">
							<use xlink:href="#SVGID_683_"  overflow="visible"/>
						</clipPath>
						<g clip-path="url(#SVGID_168_)" enable-background="new    ">
							<path fill="#323232" d="M1023.8,537.9v-7.8c0.7,0,1.3,0.3,1.8,0.8c0.8,0.8,1.2,2,1.2,3.4v7.8c0-1.4-0.4-2.7-1.2-3.4
								C1025,538.2,1024.4,537.9,1023.8,537.9"/>
						</g>
					</g>
				</g>
			</g>
		</g>
	</g>
</g>
<g id="right">
	<g>
		<g>
			<g enable-background="new    ">
				<g>
					<rect x="1076.6" y="591.9" fill="#303030" width="7.8" height="47.3"/>
				</g>
				<g enable-background="new    ">
					<g>
						<defs>
							<path id="SVGID_685_" d="M1081.1,641.2h-7.8c1.2,0,2.2-0.3,2.8-0.9c0.3-0.3,0.5-0.7,0.5-1.1h7.8c0,0.4-0.2,0.8-0.5,1.1
								C1083.3,640.9,1082.3,641.2,1081.1,641.2z"/>
						</defs>
						<clipPath id="SVGID_170_">
							<use xlink:href="#SVGID_685_"  overflow="visible"/>
						</clipPath>
						<g clip-path="url(#SVGID_170_)" enable-background="new    ">
							<path fill="#323232" d="M1081.1,641.2h-7.8c1.2,0,2.2-0.3,2.8-0.9c0.3-0.3,0.5-0.7,0.5-1.1h7.8c0,0.4-0.2,0.8-0.5,1.1
								C1083.3,640.9,1082.3,641.2,1081.1,641.2"/>
						</g>
					</g>
				</g>
				<g enable-background="new    ">
					<g>
						<defs>
							<path id="SVGID_687_" d="M1073.3,589.9h7.8c1.1,0,2.2,0.4,2.8,1c0.2,0.2,0.5,0.6,0.5,1h-7.8c0-0.4-0.3-0.8-0.5-1
								C1075.4,590.3,1074.4,589.9,1073.3,589.9z"/>
						</defs>
						<clipPath id="SVGID_172_">
							<use xlink:href="#SVGID_687_"  overflow="visible"/>
						</clipPath>
						<g clip-path="url(#SVGID_172_)" enable-background="new    ">
							<path fill="#323232" d="M1084.4,591.9h-7.8c0-0.4-0.3-0.8-0.5-1c-0.1-0.1-0.2-0.1-0.3-0.2h7.8c0.1,0.1,0.2,0.1,0.3,0.2
								C1084.1,591.1,1084.4,591.5,1084.4,591.9"/>
							<path fill="#343434" d="M1083.6,590.7h-7.8c-0.2-0.1-0.4-0.3-0.7-0.4h7.8C1083.2,590.4,1083.4,590.5,1083.6,590.7"/>
							<path fill="#363636" d="M1083,590.3h-7.8c-0.3-0.1-0.6-0.2-0.9-0.3h7.8C1082.4,590.1,1082.8,590.2,1083,590.3"/>
							<path fill="#383838" d="M1082.1,590h-7.8c-0.3-0.1-0.7-0.1-1-0.1h7.8C1081.4,589.9,1081.8,590,1082.1,590"/>
						</g>
					</g>
				</g>
				<g enable-background="new    ">
					<g>
						<defs>
							<path id="SVGID_689_" d="M1073.3,589.9h7.8c-0.1,0-0.2,0-0.2,0h-7.8C1073.1,589.9,1073.2,589.9,1073.3,589.9z"/>
						</defs>
						<clipPath id="SVGID_174_">
							<use xlink:href="#SVGID_689_"  overflow="visible"/>
						</clipPath>
						<g clip-path="url(#SVGID_174_)" enable-background="new    ">
							<path d="M1080.9,589.9h-7.8c0.1,0,0.2,0,0.2,0h7.8C1081,589.9,1081,589.9,1080.9,589.9"/>
						</g>
					</g>
				</g>
				<g enable-background="new    ">
					<g>
						<defs>
							<path id="SVGID_691_" d="M1081.1,641.2h-7.8c-0.1,0-0.2,0-0.3,0h7.8C1081,641.2,1081,641.2,1081.1,641.2z"/>
						</defs>
						<clipPath id="SVGID_176_">
							<use xlink:href="#SVGID_691_"  overflow="visible"/>
						</clipPath>
						<g clip-path="url(#SVGID_176_)" enable-background="new    ">
							<path d="M1081.1,641.2h-7.8c-0.1,0-0.2,0-0.3,0h7.8C1081,641.2,1081,641.2,1081.1,641.2"/>
						</g>
					</g>
				</g>
				<g enable-background="new    ">
					<g>
						<defs>
							<path id="SVGID_693_" d="M1081.1,642.2h-7.8c-0.1,0-0.2,0-0.3,0h7.8C1080.9,642.2,1081,642.2,1081.1,642.2z"/>
						</defs>
						<clipPath id="SVGID_178_">
							<use xlink:href="#SVGID_693_"  overflow="visible"/>
						</clipPath>
						<g clip-path="url(#SVGID_178_)" enable-background="new    ">
							<path fill="#383838" d="M1081.1,642.2h-7.8c-0.1,0-0.2,0-0.3,0h7.8C1080.9,642.2,1081,642.2,1081.1,642.2"/>
						</g>
					</g>
				</g>
				<g enable-background="new    ">
					<g>
						<defs>
							<path id="SVGID_695_" d="M1073.3,588.9h7.8c-0.1,0-0.2,0-0.3,0h-7.8C1073.1,588.9,1073.2,588.9,1073.3,588.9z"/>
						</defs>
						<clipPath id="SVGID_180_">
							<use xlink:href="#SVGID_695_"  overflow="visible"/>
						</clipPath>
						<g clip-path="url(#SVGID_180_)" enable-background="new    ">
							<path fill="#323232" d="M1080.8,588.9h-7.8c0.1,0,0.2,0,0.3,0h7.8C1081,588.9,1080.9,588.9,1080.8,588.9"/>
						</g>
					</g>
				</g>
				<g>
					<polygon points="1080.9,641.2 1073,641.2 1024.4,639.6 1032.2,639.6 					"/>
				</g>
				<g>
					<polygon points="1032.2,591.5 1024.3,591.5 1073.1,589.9 1080.9,589.9 					"/>
				</g>
				<g>
					<polygon fill="#373737" points="1080.8,642.2 1073,642.2 1024.3,640.6 1032.1,640.6 					"/>
				</g>
				<g>
					<polygon fill="#303030" points="1032.1,590.5 1024.3,590.5 1073,588.9 1080.8,588.9 					"/>
				</g>
				<g enable-background="new    ">
					<g>
						<defs>
							<path id="SVGID_697_" d="M1024.2,591.5c0.1,0,0.1,0,0.2,0h7.8c-0.1,0-0.1,0-0.2,0C1029.6,591.5,1026.5,591.5,1024.2,591.5z"
								/>
						</defs>
						<clipPath id="SVGID_182_">
							<use xlink:href="#SVGID_697_"  overflow="visible"/>
						</clipPath>
						<g clip-path="url(#SVGID_182_)" enable-background="new    ">
							<path d="M1032,591.5h-7.8c0.1,0,0.1,0,0.2,0h7.8C1032.1,591.5,1032.1,591.5,1032,591.5"/>
						</g>
					</g>
				</g>
				<g enable-background="new    ">
					<g>
						<defs>
							<path id="SVGID_699_" d="M1024.1,640.6h7.8c0.1,0,0.1,0,0.2,0h-7.8C1024.3,640.6,1024.2,640.6,1024.1,640.6z"/>
						</defs>
						<clipPath id="SVGID_184_">
							<use xlink:href="#SVGID_699_"  overflow="visible"/>
						</clipPath>
						<g clip-path="url(#SVGID_184_)" enable-background="new    ">
							<path fill="#383838" d="M1032.1,640.6h-7.8c-0.1,0-0.1,0-0.2,0h7.8C1032,640.6,1032.1,640.6,1032.1,640.6"/>
						</g>
					</g>
				</g>
				<g enable-background="new    ">
					<g>
						<defs>
							<path id="SVGID_701_" d="M1024.2,639.6h7.8c-1.1,0-2.2,0.4-3,1.2c-0.8,0.8-1.3,1.9-1.3,3.1h-7.8c0-1.2,0.5-2.3,1.3-3.1
								C1022,640,1023,639.6,1024.2,639.6z"/>
						</defs>
						<clipPath id="SVGID_186_">
							<use xlink:href="#SVGID_701_"  overflow="visible"/>
						</clipPath>
						<g clip-path="url(#SVGID_186_)" enable-background="new    ">
							<path fill="#323232" d="M1027.8,643.9h-7.8c0-1.2,0.5-2.3,1.3-3.1c0.8-0.8,1.8-1.2,3-1.2h7.8c-1.1,0-2.2,0.4-3,1.2
								C1028.2,641.6,1027.8,642.7,1027.8,643.9"/>
						</g>
					</g>
				</g>
				<g enable-background="new    ">
					<g>
						<defs>
							<path id="SVGID_703_" d="M1024.4,639.6c-0.1,0-0.1,0-0.2,0h7.8c0.1,0,0.1,0,0.2,0c-1.3,0-2.6,0-3.9,0c-0.3,0-0.7,0-1,0
								c-0.2,0-0.4,0-0.5,0C1025.9,639.6,1025.1,639.6,1024.4,639.6z"/>
						</defs>
						<clipPath id="SVGID_188_">
							<use xlink:href="#SVGID_703_"  overflow="visible"/>
						</clipPath>
						<g clip-path="url(#SVGID_188_)" enable-background="new    ">
							<path d="M1032.2,639.6h-7.8c-0.1,0-0.1,0-0.2,0h7.8C1032,639.6,1032.1,639.6,1032.2,639.6"/>
						</g>
					</g>
				</g>
				<g>
					<polygon fill="#303030" points="1027.8,587.2 1019.9,587.2 1021.5,537.7 1029.3,537.7 					"/>
				</g>
				<g>
					<polygon fill="#303030" points="1029.3,693.7 1021.5,693.7 1019.9,643.9 1027.8,643.9 					"/>
				</g>
				<g enable-background="new    ">
					<g>
						<defs>
							<path id="SVGID_705_" d="M1032,591.5h-7.8c-1.1,0-2.2-0.4-3-1.2c-0.8-0.8-1.3-1.9-1.3-3.1h7.8c0,1.2,0.5,2.3,1.3,3.1
								C1029.8,591.1,1030.9,591.5,1032,591.5z"/>
						</defs>
						<clipPath id="SVGID_190_">
							<use xlink:href="#SVGID_705_"  overflow="visible"/>
						</clipPath>
						<g clip-path="url(#SVGID_190_)" enable-background="new    ">
							<path fill="#383838" d="M1032,591.5h-7.8c-0.3,0-0.6,0-0.9-0.1h7.8C1031.4,591.5,1031.8,591.5,1032,591.5"/>
							<path fill="#363636" d="M1031.1,591.4h-7.8c-0.3-0.1-0.6-0.2-0.9-0.3h7.8C1030.5,591.3,1030.8,591.4,1031.1,591.4"/>
							<path fill="#343434" d="M1030.2,591.2h-7.8c-0.3-0.1-0.6-0.3-0.8-0.5h7.8C1029.8,590.9,1029.9,591,1030.2,591.2"/>
							<path fill="#323232" d="M1029.4,590.7h-7.8c-0.1-0.1-0.3-0.2-0.4-0.3c-0.8-0.8-1.3-1.9-1.3-3.1h7.8c0,1.2,0.5,2.3,1.3,3.1
								C1029.1,590.5,1029.3,590.6,1029.4,590.7"/>
						</g>
					</g>
				</g>
				<g enable-background="new    ">
					<g>
						<defs>
							<path id="SVGID_707_" d="M1029.3,537.7h-7.8c0-2.1-0.9-3.6-2-3.6h7.8C1028.4,534.1,1029.3,535.6,1029.3,537.7z"/>
						</defs>
						<clipPath id="SVGID_192_">
							<use xlink:href="#SVGID_707_"  overflow="visible"/>
						</clipPath>
						<g clip-path="url(#SVGID_192_)" enable-background="new    ">
							<path fill="#323232" d="M1029.3,537.7h-7.8c0-1.6-0.5-2.8-1.2-3.3h7.8C1028.8,534.9,1029.3,536.1,1029.3,537.7"/>
							<path fill="#343434" d="M1028.1,534.4h-7.8c-0.1-0.1-0.2-0.1-0.3-0.2h7.8C1027.9,534.3,1028,534.3,1028.1,534.4"/>
							<path fill="#363636" d="M1027.8,534.2h-7.8c-0.1,0-0.2-0.1-0.3-0.1h7.8C1027.8,534.2,1027.8,534.2,1027.8,534.2"/>
							<path fill="#383838" d="M1027.6,534.2h-7.8c-0.1,0-0.2,0-0.3,0h7.8C1027.4,534.1,1027.5,534.1,1027.6,534.2"/>
						</g>
					</g>
				</g>
				<g enable-background="new    ">
					<g>
						<defs>
							<path id="SVGID_709_" d="M1027.3,697h-7.8c0.9,0,2-1.5,2-3.4h7.8C1029.3,695.6,1028.3,697,1027.3,697z"/>
						</defs>
						<clipPath id="SVGID_194_">
							<use xlink:href="#SVGID_709_"  overflow="visible"/>
						</clipPath>
						<g clip-path="url(#SVGID_194_)" enable-background="new    ">
							<path fill="#323232" d="M1027.3,697h-7.8c0.9,0,2-1.5,2-3.4h7.8C1029.3,695.6,1028.3,697,1027.3,697"/>
						</g>
					</g>
				</g>
				<g enable-background="new    ">
					<g>
						<defs>
							<path id="SVGID_711_" d="M970.8,694c0,0,0.1,0,0.2,0c0,0,0.1,0,0.2,0c0.1,0,0.1,0,0.2,0s0.1,0,0.2,0c0.1,0,0.1,0,0.2,0
								c0,0,0.1,0,0.2,0c0,0,0.1,0,0.2,0c0,0,0.1,0,0.2,0c0.2,0,0.5,0,0.8,0c0.2,0,0.6,0,0.8,0c0.2,0,0.6,0,0.8,0c0.3,0,0.6,0,0.9,0
								c0.3,0,0.6,0,0.9,0c0.3,0,0.6,0,0.8,0s0.6,0,0.8,0c0.2,0,0.5,0,0.8,0c0.1,1.7,0.9,3,2,3h-7.8
								C971.8,697,970.9,695.7,970.8,694z"/>
						</defs>
						<clipPath id="SVGID_196_">
							<use xlink:href="#SVGID_711_"  overflow="visible"/>
						</clipPath>
						<g clip-path="url(#SVGID_196_)" enable-background="new    ">
							<path d="M980.6,697h-7.8c-0.1,0-0.2,0-0.3,0h7.8C980.4,697,980.5,697,980.6,697"/>
							<path d="M980.3,697h-7.8c-0.1,0-0.2,0-0.3-0.1h7.8C980.2,697,980.3,697,980.3,697"/>
							<path d="M980.1,696.9h-7.8c-0.1,0-0.2-0.1-0.3-0.2h7.8C979.9,696.8,980,696.9,980.1,696.9"/>
							<path d="M979.8,696.7H972c-0.7-0.5-1.1-1.7-1.1-3h7.8C978.6,695.1,979.1,696.2,979.8,696.7"/>
						</g>
					</g>
				</g>
				<g>
					<polygon points="980.2,587.2 972.4,587.2 970.8,537.7 978.6,537.7 					"/>
				</g>
				<g>
					<polygon points="978.6,693.7 970.8,693.7 972.4,644.1 980.2,644.1 					"/>
				</g>
				<g enable-background="new    ">
					<g>
						<defs>
							<path id="SVGID_713_" d="M978.6,537.7h-7.8c0-2,0.9-3.6,2-3.6h7.8C979.5,534.1,978.6,535.7,978.6,537.7z"/>
						</defs>
						<clipPath id="SVGID_198_">
							<use xlink:href="#SVGID_713_"  overflow="visible"/>
						</clipPath>
						<g clip-path="url(#SVGID_198_)" enable-background="new    ">
							<path d="M978.6,537.7h-7.8c0-2,0.9-3.6,2-3.6h7.8C979.5,534.1,978.6,535.7,978.6,537.7"/>
						</g>
					</g>
				</g>
				<g>
					<polygon fill="#303030" points="979.2,587.2 971.4,587.2 969.8,537.7 977.6,537.7 					"/>
				</g>
				<g enable-background="new    ">
					<g>
						<defs>
							<path id="SVGID_715_" d="M980.6,698h-7.8c-1.7,0-3-1.9-3-4.3h7.8C977.6,696.2,978.9,698,980.6,698z"/>
						</defs>
						<clipPath id="SVGID_200_">
							<use xlink:href="#SVGID_715_"  overflow="visible"/>
						</clipPath>
						<g clip-path="url(#SVGID_200_)" enable-background="new    ">
							<path fill="#383838" d="M980.6,698h-7.8c-0.2,0-0.3,0-0.5,0h7.8C980.3,698,980.4,698,980.6,698"/>
							<path fill="#363636" d="M980.1,698h-7.8c-0.2,0-0.3-0.1-0.5-0.1h7.8C979.8,697.9,980,697.9,980.1,698"/>
							<path fill="#343434" d="M979.8,697.8h-7.8c-0.2-0.1-0.3-0.2-0.5-0.3h7.8C979.3,697.7,979.5,697.8,979.8,697.8"/>
							<path fill="#323232" d="M979.2,697.5h-7.8c-0.9-0.7-1.6-2.1-1.6-3.8h7.8C977.6,695.4,978.2,696.8,979.2,697.5"/>
						</g>
					</g>
				</g>
				<g enable-background="new    ">
					<g>
						<defs>
							<path id="SVGID_717_" d="M971.1,640.8c-0.8-0.8-1.8-1.2-3-1.2h7.8c1.1,0,2.2,0.4,3,1.2l0,0c-0.3,0-0.6,0-0.9,0
								c-0.3,0-0.7,0-1,0c-0.3,0-0.7,0-1,0c-0.3,0-0.7,0-1,0c-0.3,0-0.7,0-1,0c-0.3,0-0.7,0-1,0c-0.3,0-0.7,0-1,0
								C971.8,640.8,971.4,640.8,971.1,640.8c0.3,0,0.7,0,0.9,0c0.3,0,0.7,0,1,0c0.3,0,0.7,0,1,0c0.3,0,0.7,0,1,0c0.3,0,0.7,0,1,0
								c0.3,0,0.7,0,1,0c0.3,0,0.7,0,1,0c0.3,0,0.6,0,0.9,0c0.8,0.8,1.3,1.9,1.3,3.3h-7.8C972.4,642.7,971.9,641.6,971.1,640.8z"/>
						</defs>
						<clipPath id="SVGID_202_">
							<use xlink:href="#SVGID_717_"  overflow="visible"/>
						</clipPath>
						<g clip-path="url(#SVGID_202_)" enable-background="new    ">
							<path d="M980.2,644.1h-7.8c0-1.4-0.5-2.5-1.3-3.3c-0.1-0.1-0.3-0.2-0.4-0.3h7.8c0.1,0.1,0.3,0.2,0.4,0.3
								C979.8,641.6,980.2,642.7,980.2,644.1"/>
							<path d="M978.5,640.5h-7.8c-0.3-0.2-0.5-0.4-0.8-0.5h7.8C978,640.1,978.3,640.3,978.5,640.5"/>
							<path d="M977.8,640h-7.8c-0.3-0.1-0.6-0.2-0.9-0.3h7.8C977.1,639.8,977.4,639.9,977.8,640"/>
							<path d="M976.8,639.7H969c-0.3-0.1-0.6-0.1-0.9-0.1h7.8C976.3,639.6,976.5,639.7,976.8,639.7"/>
						</g>
					</g>
				</g>
				<g>
					<polygon fill="#303030" points="977.6,693.7 969.8,693.7 971.4,643.9 979.2,643.9 					"/>
				</g>
				<g enable-background="new    ">
					<g>
						<defs>
							<path id="SVGID_719_" d="M977.6,537.7h-7.8c0-2.7,1.3-4.6,3-4.6h7.8C979,533.1,977.6,535.1,977.6,537.7z"/>
						</defs>
						<clipPath id="SVGID_204_">
							<use xlink:href="#SVGID_719_"  overflow="visible"/>
						</clipPath>
						<g clip-path="url(#SVGID_204_)" enable-background="new    ">
							<path fill="#323232" d="M977.6,537.7h-7.8c0-2.7,1.3-4.6,3-4.6h7.8C979,533.1,977.6,535.1,977.6,537.7"/>
						</g>
					</g>
				</g>
				<g enable-background="new    ">
					<g>
						<defs>
							<path id="SVGID_721_" d="M975.9,591.5h-7.8c1.1,0,2.2-0.4,3-1.2c0.8-0.8,1.3-1.9,1.3-3.1h7.8c0,1.2-0.5,2.3-1.3,3.1
								C978.1,591.1,977.1,591.5,975.9,591.5z"/>
						</defs>
						<clipPath id="SVGID_206_">
							<use xlink:href="#SVGID_721_"  overflow="visible"/>
						</clipPath>
						<g clip-path="url(#SVGID_206_)" enable-background="new    ">
							<path d="M975.9,591.5h-7.8c1.1,0,2.2-0.4,3-1.2c0.8-0.8,1.3-1.9,1.3-3.1h7.8c0,1.2-0.5,2.3-1.3,3.1
								C978.1,591.1,977.1,591.5,975.9,591.5"/>
						</g>
					</g>
				</g>
				<g enable-background="new    ">
					<g>
						<defs>
							<path id="SVGID_723_" d="M975.9,590.5h-7.8c0.9,0,1.7-0.3,2.3-0.9s1-1.5,1-2.4h7.8c0,0.9-0.3,1.8-1,2.4
								C977.6,590.2,976.8,590.5,975.9,590.5z"/>
						</defs>
						<clipPath id="SVGID_208_">
							<use xlink:href="#SVGID_723_"  overflow="visible"/>
						</clipPath>
						<g clip-path="url(#SVGID_208_)" enable-background="new    ">
							<path fill="#323232" d="M975.9,590.5h-7.8c0.9,0,1.7-0.3,2.3-0.9s1-1.5,1-2.4h7.8c0,0.9-0.3,1.8-1,2.4
								C977.6,590.2,976.8,590.5,975.9,590.5"/>
						</g>
					</g>
				</g>
				<g enable-background="new    ">
					<g>
						<defs>
							<path id="SVGID_725_" d="M968.1,640.6h7.8c0.9,0,1.7,0.3,2.3,0.9c0.6,0.6,1,1.5,1,2.4h-7.8c0-0.9-0.3-1.8-1-2.4
								C969.8,640.9,969,640.6,968.1,640.6z"/>
						</defs>
						<clipPath id="SVGID_210_">
							<use xlink:href="#SVGID_725_"  overflow="visible"/>
						</clipPath>
						<g clip-path="url(#SVGID_210_)" enable-background="new    ">
							<path fill="#323232" d="M979.2,643.9h-7.8c0-0.9-0.3-1.8-1-2.4c-0.1-0.1-0.2-0.2-0.3-0.3h7.8c0.1,0.1,0.2,0.2,0.3,0.3
								C978.9,642.2,979.2,643,979.2,643.9"/>
							<path fill="#343434" d="M977.9,641.3h-7.8c-0.2-0.1-0.4-0.3-0.6-0.4h7.8C977.5,641,977.8,641.1,977.9,641.3"/>
							<path fill="#363636" d="M977.3,640.9h-7.8c-0.2-0.1-0.4-0.2-0.6-0.2h7.8C976.9,640.7,977.1,640.8,977.3,640.9"/>
							<path fill="#383838" d="M976.6,640.7h-7.8c-0.2,0-0.5-0.1-0.7-0.1h7.8C976.2,640.6,976.4,640.6,976.6,640.7"/>
						</g>
					</g>
				</g>
				<g enable-background="new    ">
					<g>
						<defs>
							<path id="SVGID_727_" d="M968.1,639.6h7.8c-0.1,0-0.1,0-0.2,0h-7.8C968,639.6,968.1,639.6,968.1,639.6z"/>
						</defs>
						<clipPath id="SVGID_212_">
							<use xlink:href="#SVGID_727_"  overflow="visible"/>
						</clipPath>
						<g clip-path="url(#SVGID_212_)" enable-background="new    ">
							<path fill="#323232" d="M975.8,639.6h-7.8c0.1,0,0.1,0,0.2,0h7.8C975.9,639.6,975.8,639.6,975.8,639.6"/>
						</g>
					</g>
				</g>
				<g enable-background="new    ">
					<g>
						<defs>
							<path id="SVGID_729_" d="M975.9,591.5h-7.8c-0.1,0-0.1,0-0.2,0h7.8C975.8,591.5,975.9,591.5,975.9,591.5z"/>
						</defs>
						<clipPath id="SVGID_214_">
							<use xlink:href="#SVGID_729_"  overflow="visible"/>
						</clipPath>
						<g clip-path="url(#SVGID_214_)" enable-background="new    ">
							<path fill="#383838" d="M975.9,591.5h-7.8c-0.1,0-0.1,0-0.2,0h7.8C975.8,591.5,975.9,591.5,975.9,591.5"/>
						</g>
					</g>
				</g>
				<g>
					<polygon fill="#373737" points="975.8,591.5 967.9,591.5 919.2,589.9 927,589.9 					"/>
				</g>
				<g>
					<polygon fill="#303030" points="927,641.2 919.2,641.2 967.9,639.6 975.8,639.6 					"/>
				</g>
				<g enable-background="new    ">
					<g>
						<defs>
							<path id="SVGID_731_" d="M919,589.9h7.8c0.1,0,0.2,0,0.3,0h-7.8C919.1,589.9,919.1,589.9,919,589.9z"/>
						</defs>
						<clipPath id="SVGID_216_">
							<use xlink:href="#SVGID_731_"  overflow="visible"/>
						</clipPath>
						<g clip-path="url(#SVGID_216_)" enable-background="new    ">
							<path fill="#383838" d="M927,589.9h-7.8c-0.1,0-0.2,0-0.3,0h7.8C926.9,589.9,927,589.9,927,589.9"/>
						</g>
					</g>
				</g>
				<g enable-background="new    ">
					<g>
						<defs>
							<path id="SVGID_733_" d="M926.8,641.2H919c-1.1,0-2.2-0.4-2.8-1c-0.2-0.2-0.5-0.6-0.5-1h7.8c0,0.5,0.3,0.8,0.5,1
								C924.8,640.9,925.8,641.2,926.8,641.2z"/>
						</defs>
						<clipPath id="SVGID_218_">
							<use xlink:href="#SVGID_733_"  overflow="visible"/>
						</clipPath>
						<g clip-path="url(#SVGID_218_)" enable-background="new    ">
							<path d="M926.8,641.2H919c-0.3,0-0.7,0-1-0.1h7.8C926.1,641.2,926.5,641.2,926.8,641.2"/>
							<path d="M925.8,641.1H918c-0.3-0.1-0.6-0.2-0.9-0.3h7.8C925.2,641,925.5,641.1,925.8,641.1"/>
							<path d="M924.9,640.9h-7.8c-0.2-0.1-0.5-0.2-0.7-0.4h7.8C924.5,640.6,924.8,640.7,924.9,640.9"/>
							<path d="M924.3,640.5h-7.8c-0.1-0.1-0.2-0.1-0.3-0.2c-0.2-0.2-0.5-0.6-0.5-1h7.8c0,0.5,0.3,0.8,0.5,1
								C924.1,640.3,924.2,640.4,924.3,640.5"/>
						</g>
					</g>
				</g>
				<g enable-background="new    ">
					<g>
						<defs>
							<path id="SVGID_735_" d="M919,589.9h7.8c-1.1,0-2.2,0.3-2.8,0.9c-0.3,0.3-0.5,0.7-0.5,1.1h-7.8c0-0.4,0.2-0.8,0.5-1.1
								C916.8,590.3,917.8,589.9,919,589.9z"/>
						</defs>
						<clipPath id="SVGID_220_">
							<use xlink:href="#SVGID_735_"  overflow="visible"/>
						</clipPath>
						<g clip-path="url(#SVGID_220_)" enable-background="new    ">
							<path d="M923.5,591.9h-7.8c0-0.4,0.2-0.8,0.5-1.1c0.6-0.6,1.6-0.9,2.8-0.9h7.8c-1.1,0-2.2,0.3-2.8,0.9
								C923.8,591.2,923.5,591.5,923.5,591.9"/>
						</g>
					</g>
				</g>
				<g>
					<rect x="915.8" y="591.9" width="7.8" height="47.3"/>
				</g>
				<g>
					<path d="M1084.4,639.2c0,0.4-0.2,0.8-0.5,1.1c-0.6,0.6-1.8,1-3,0.9l-48.7-1.6c-1.2-0.1-2.3,0.4-3.2,1.2
						c-0.8,0.8-1.3,1.9-1.3,3.1l1.6,49.5c0,2.1-1,3.6-2,3.6h-46.7c-1.1,0-2-1.5-2-3.3l1.6-49.6c0-1.4-0.5-2.5-1.3-3.3
						s-2-1.2-3.2-1.2l-48.7,1.6c-1.2,0.1-2.3-0.3-3-1c-0.2-0.2-0.5-0.6-0.5-1v-47.3c0-0.4,0.2-0.8,0.5-1.1c0.6-0.6,1.8-1,3-0.9
						l48.7,1.6c1.2,0,2.3-0.4,3.2-1.2c0.8-0.8,1.3-1.9,1.3-3.1l-1.6-49.5c0-2,0.9-3.6,2-3.6h46.7c1.1,0,2,1.4,2,3.3l-1.6,49.6
						c0,1.4,0.5,2.5,1.3,3.3c0.8,0.8,2,1.2,3.2,1.2l48.7-1.6c1.2-0.1,2.3,0.3,3,1c0.2,0.2,0.5,0.6,0.5,1V639.2z"/>
				</g>
				<g>
					<path fill="#565656" d="M1030.3,693.4c0,2.6-1.4,4.6-3,4.6h-46.7c-1.7,0-3-1.9-3-4.3l1.6-49.8c0-0.9-0.3-1.8-1-2.4
						c-0.6-0.6-1.5-1-2.4-0.9l-48.7,1.6c-1.4,0.1-2.9-0.4-3.7-1.3c-0.5-0.5-0.8-1.1-0.8-1.8v-47.3c0-0.7,0.3-1.3,0.8-1.8
						c0.8-0.8,2.2-1.3,3.8-1.2l48.7,1.6c0.9,0,1.8-0.3,2.4-0.9s1-1.5,1-2.4l-1.6-49.5c0-2.7,1.3-4.6,3-4.6h46.7c1.7,0,3,1.9,3,4.3
						l-1.6,49.7c0,0.9,0.4,1.8,1,2.4c0.7,0.6,1.5,0.9,2.4,0.9l48.7-1.6c1.4-0.1,2.9,0.4,3.8,1.3c0.5,0.5,0.8,1.1,0.8,1.7V639
						c0,0.7-0.3,1.3-0.8,1.8c-0.8,0.8-2.2,1.3-3.8,1.2l-48.7-1.6c-0.9,0-1.8,0.3-2.4,0.9s-1,1.5-1,2.4L1030.3,693.4z M980.6,697
						h46.7c0.9,0,2-1.5,2-3.4l-1.6-49.7c0-1.2,0.5-2.3,1.3-3.1c0.8-0.8,2-1.2,3.2-1.2l48.7,1.6c1.3,0.1,2.4-0.3,3-0.9
						c0.3-0.3,0.5-0.7,0.5-1.1v-47.3c0-0.4-0.3-0.8-0.5-1c-0.7-0.7-1.8-1-3-1l-48.7,1.6c-1.2,0-2.3-0.4-3.2-1.2
						c-0.8-0.8-1.3-1.9-1.3-3.1l1.6-49.5c0-2.1-0.9-3.6-2-3.6h-46.7c-1.1,0-2,1.6-2,3.4l1.6,49.7c0,1.2-0.5,2.3-1.3,3.1
						c-0.8,0.8-2,1.2-3.2,1.2l-48.7-1.6c-1.3-0.1-2.4,0.3-3,0.9c-0.3,0.3-0.5,0.7-0.5,1.1v47.3c0,0.5,0.3,0.8,0.5,1
						c0.7,0.7,1.8,1,3,1l48.7-1.6c1.2-0.1,2.3,0.4,3.2,1.2c0.8,0.8,1.3,1.9,1.3,3.1l-1.6,49.5C978.6,695.6,979.5,697,980.6,697"/>
				</g>
				<g enable-background="new    ">
					<g>
						<defs>
							<path id="SVGID_737_" d="M926.8,642.2H919c-1.4,0-2.7-0.5-3.5-1.3c-0.5-0.5-0.8-1.1-0.8-1.8h7.8c0,0.6,0.3,1.2,0.8,1.8
								C924.2,641.8,925.5,642.2,926.8,642.2z"/>
						</defs>
						<clipPath id="SVGID_222_">
							<use xlink:href="#SVGID_737_"  overflow="visible"/>
						</clipPath>
						<g clip-path="url(#SVGID_222_)" enable-background="new    ">
							<path fill="#383838" d="M926.8,642.2H919c-0.4,0-0.8,0-1.2-0.1h7.8C926,642.2,926.4,642.2,926.8,642.2"/>
							<path fill="#363636" d="M925.6,642.1h-7.8c-0.4-0.1-0.8-0.2-1.1-0.3h7.8C924.9,641.9,925.3,642,925.6,642.1"/>
							<path fill="#343434" d="M924.5,641.8h-7.8c-0.3-0.1-0.6-0.3-0.9-0.5h7.8C923.9,641.5,924.2,641.6,924.5,641.8"/>
							<path fill="#323232" d="M923.8,641.3h-7.8c-0.1-0.1-0.2-0.2-0.3-0.3c-0.5-0.5-0.8-1.1-0.8-1.8h7.7c0,0.6,0.3,1.2,0.8,1.8
								C923.4,641.1,923.6,641.2,923.8,641.3"/>
						</g>
					</g>
				</g>
				<g>
					<rect x="914.8" y="591.9" fill="#303030" width="7.8" height="47.3"/>
				</g>
				<g enable-background="new    ">
					<g>
						<defs>
							<path id="SVGID_739_" d="M919,588.9h7.8c-1.4,0-2.7,0.4-3.4,1.2c-0.5,0.5-0.8,1.1-0.8,1.8h-7.8c0-0.7,0.3-1.3,0.8-1.8
								C916.3,589.4,917.6,588.9,919,588.9z"/>
						</defs>
						<clipPath id="SVGID_224_">
							<use xlink:href="#SVGID_739_"  overflow="visible"/>
						</clipPath>
						<g clip-path="url(#SVGID_224_)" enable-background="new    ">
							<path fill="#323232" d="M922.5,591.9h-7.8c0-0.7,0.3-1.3,0.8-1.8c0.8-0.8,2-1.2,3.4-1.2h7.8c-1.4,0-2.7,0.4-3.4,1.2
								C922.8,590.6,922.5,591.3,922.5,591.9"/>
						</g>
					</g>
				</g>
			</g>
		</g>
	</g>
</g>
</svg>
