<?xml version="1.0" encoding="utf-8"?>
<!-- Generator: Adobe Illustrator 16.0.3, SVG Export Plug-In . SVG Version: 6.00 Build 0)  -->
<!DOCTYPE svg PUBLIC "-//W3C//DTD SVG 1.0//EN" "http://www.w3.org/TR/2001/REC-SVG-20010904/DTD/svg10.dtd">
<svg version="1.0" id="Layer_1" xmlns="http://www.w3.org/2000/svg" xmlns:xlink="http://www.w3.org/1999/xlink" x="0px" y="0px"
	 width="1167.5px" height="788px" viewBox="0 0 1167.5 788" enable-background="new 0 0 1167.5 788" xml:space="preserve">
<g>
	<path fill="#DC0A2D" d="M1139.5,744c0,7-5.7,12.7-12.7,12.7H601.6c-7,0-12.7-5.7-12.7-12.7V44c0-7,5.7-12.7,12.7-12.7h525.3
		c7,0,12.7,5.7,12.7,12.7V744z"/>
</g>
<g>
	<rect x="632" y="88.6" fill="#DEDEDE" width="464.5" height="360.9"/>
</g>
<g>
	<path fill="#DC0A2D" d="M589,743.9c0,7-5.8,12.8-12.8,12.8H40.8c-7,0-12.8-5.8-12.8-12.8V44.1c0-7,5.8-12.8,12.8-12.8h535.4
		c7,0,12.8,5.8,12.8,12.8V743.9z"/>
</g>
<rect x="83.1" y="118.2" fill="#232323" width="454.6" height="297.5"/>
</svg>
