<svg xmlns="http://www.w3.org/2000/svg" xmlns:xlink="http://www.w3.org/1999/xlink" version="1.1" id="Calque_1" x="0px" y="0px" width="100px" height="100px" viewBox="0 0 100 100" enable-background="new 0 0 100 100" xml:space="preserve">
<g>
	<g>
		<path d="M41.235,49.632c1.522,0,3.046-0.581,4.21-1.744c2.324-2.324,2.324-6.095,0-8.419c-1.164-1.163-2.688-1.745-4.21-1.745    c-1.524,0-3.048,0.582-4.21,1.745c-2.325,2.324-2.325,6.095,0,8.419C38.187,49.052,39.71,49.632,41.235,49.632z M38.514,40.958    c0.726-0.727,1.693-1.128,2.721-1.128c1.027,0,1.994,0.401,2.722,1.128c0.726,0.727,1.126,1.692,1.126,2.722    c0,1.027-0.4,1.993-1.126,2.721c-0.728,0.727-1.694,1.126-2.721,1.126c-1.028,0-1.995-0.399-2.722-1.126    c-0.728-0.728-1.128-1.694-1.128-2.721C37.385,42.65,37.786,41.685,38.514,40.958z M32.985,52.27    c-0.819-0.819-1.898-1.228-2.977-1.228c-1.08,0-2.158,0.408-2.978,1.228L6.673,72.629c-1.638,1.635-1.638,4.315,0,5.952    l13.692,13.691c0.818,0.82,1.898,1.23,2.976,1.23c1.08,0,2.159-0.41,2.978-1.23l20.357-20.356c1.638-1.639,1.638-4.316,0-5.954    L32.985,52.27z M24.83,90.786c-0.394,0.394-0.922,0.611-1.488,0.611c-0.565,0-1.093-0.218-1.488-0.611L8.161,77.092    c-0.393-0.395-0.61-0.921-0.61-1.487c0-0.565,0.218-1.095,0.611-1.489l9.435-9.435l2.721,2.721l-1.01,1.012l11.228,11.226    l1.01-1.012l2.722,2.723L24.83,90.786z M22.284,68.413l0.532-0.531l8.25,8.248l-0.531,0.532L22.284,68.413z M45.188,70.429    l-9.435,9.432l-2.722-2.721l1.01-1.01L22.816,64.904l-1.011,1.009l-2.721-2.721l9.434-9.436c0.394-0.395,0.923-0.61,1.489-0.61    c0.566,0,1.095,0.216,1.489,0.61l13.691,13.694C46.01,68.27,46.01,69.607,45.188,70.429z M99.387,6.406l-4.742-4.74    c-0.408-0.41-0.948-0.614-1.489-0.614c-0.537,0-1.079,0.205-1.487,0.614l-33.51,33.509c-0.028,0.028-0.048,0.062-0.075,0.094    l-2.116-2.114l-5.611,5.612l-1.679-1.679c-2.047-2.047-4.744-3.068-7.441-3.068c-2.698,0-5.396,1.021-7.442,3.068L3.068,67.811    c-4.091,4.093-4.091,10.792,0,14.886l13.183,13.182c2.046,2.045,4.744,3.07,7.442,3.07c2.697,0,5.396-1.025,7.441-3.07    l30.723-30.723c4.093-4.095,4.093-10.791,0-14.886l-1.679-1.678l5.613-5.615l-0.009-0.008c0.028-0.028,0.063-0.047,0.093-0.078    L99.387,9.382C100.204,8.564,100.204,7.224,99.387,6.406z M60.368,51.758c3.283,3.284,3.283,8.626,0.001,11.908L29.646,94.389    c-1.582,1.583-3.695,2.454-5.953,2.454s-4.372-0.871-5.954-2.454L4.557,81.207c-1.581-1.581-2.452-3.695-2.452-5.953    c0-2.257,0.871-4.374,2.452-5.954l30.724-30.724c1.582-1.582,3.696-2.452,5.954-2.452c2.256,0,4.371,0.871,5.953,2.452    L60.368,51.758z M58.776,47.017l-6.848-6.846l4.038-4.039l6.849,6.845L58.776,47.017z M64.385,41.404l-4.738-4.74L93.148,3.157    c0.002,0,0.005,0,0.007,0V3.154l1.979,1.977l-6.188,6.187l-1.403-1.403l-3.859,3.859v2.806l-4.996,4.998h-2.806l-2.02,2.02v2.805    l-8.771,8.772l-0.66-0.66l-1.489,1.488l2.147,2.151l10.877-10.878v-2.806l0.786-0.786h2.806l6.23-6.231v-2.806l1.754-1.754    l1.403,1.402l7.677-7.676l1.276,1.276L64.385,41.404z M16.677,75.254c-1.938,1.937-1.938,5.077,0,7.017    c0.968,0.969,2.238,1.453,3.508,1.453c1.271,0,2.54-0.484,3.509-1.453l-5.848-5.848c1.291-1.29,3.389-1.29,4.679-0.001    c1.29,1.29,1.29,3.389,0,4.677l1.17,1.172c1.938-1.939,1.937-5.08,0-7.017C21.755,73.316,18.614,73.316,16.677,75.254z     M20.062,81.616c-0.717-0.031-1.386-0.325-1.896-0.835c-0.526-0.526-0.804-1.206-0.833-1.895L20.062,81.616z M30.358,61.57    l1.171,1.17c1.29-1.289,3.387-1.289,4.677-0.001c1.29,1.29,1.29,3.39,0,4.679l-0.701,0.702l-5.848-5.849    c-1.937,1.94-1.937,5.082,0,7.018c0.97,0.969,2.238,1.454,3.509,1.454c1.06,0,2.109-0.359,2.994-1.034l0.047,0.048l0.466-0.465    c0-0.001,0.001-0.003,0.001-0.003l0.702-0.701c1.937-1.938,1.937-5.081,0-7.018C35.438,59.635,32.296,59.634,30.358,61.57z     M31.146,67.802c-0.511-0.512-0.804-1.181-0.834-1.898l2.731,2.732C32.325,68.606,31.656,68.313,31.146,67.802z"/>
	</g>
</g>
</svg>