<svg xmlns="http://www.w3.org/2000/svg" xmlns:xlink="http://www.w3.org/1999/xlink" version="1.1" id="Calque_1" x="0px" y="0px" width="100px" height="100px" viewBox="0 0 100 100" enable-background="new 0 0 100 100" xml:space="preserve">
<g>
	<path d="M90.776,10.999l1.419-1.419L86.52,3.902L34.724,55.697l-2.838-2.839l-4.966,4.968l2.838,2.838l-1.485,1.484   c-0.592-1.597-1.519-3.069-2.75-4.3c-2.338-2.338-5.414-3.505-8.501-3.505c-3.128,0-6.267,1.198-8.66,3.592   c-4.146,4.146-4.767,10.485-1.655,15.23c-1.146,0.582-2.19,1.341-3.114,2.265c-4.756,4.756-4.795,12.455-0.088,17.162   c2.338,2.338,5.415,3.505,8.501,3.505c3.128,0,6.268-1.198,8.661-3.592c0.924-0.924,1.682-1.968,2.265-3.115   c2.001,1.312,4.286,1.96,6.57,1.96c3.132,0,6.263-1.219,8.66-3.615c4.755-4.755,4.794-12.453,0.087-17.161   c-1.231-1.231-2.709-2.149-4.309-2.741l1.493-1.493l2.838,2.838l4.967-4.966L40.4,61.374l36.186-36.186l9.224,9.223l4.967-4.966   l-2.838-2.838l1.418-1.42l1.42,1.42l2.838-2.839l1.419,1.419L100,20.222L90.776,10.999z M97.171,20.222l-2.136,2.135l-7.809-7.809   l2.135-2.135L97.171,20.222z M40.393,52.856l0.714-0.714l2.848,2.848l-0.714,0.715L40.393,52.856z M41.827,57.119l-0.715,0.715   l-2.849-2.849l0.715-0.715L41.827,57.119z M42.521,50.729l0.714-0.715l2.849,2.849l-0.715,0.714L42.521,50.729z M36.748,86.321   c-1.954,1.953-4.527,3.029-7.246,3.029c-1.952,0-3.845-0.564-5.474-1.633l-1.868-1.225l-1.012,1.991   c-0.487,0.96-1.125,1.837-1.896,2.607c-1.938,1.938-4.512,3.006-7.247,3.006c-2.688,0-5.205-1.037-7.087-2.919   C3.023,89.282,1.986,86.747,2,84.04c0.014-2.715,1.082-5.271,3.007-7.195c0.772-0.771,1.649-1.409,2.605-1.896l1.993-1.012   l-1.226-1.868c-2.64-4.026-2.065-9.257,1.397-12.72c1.938-1.938,4.512-3.006,7.246-3.006c2.687,0,5.204,1.037,7.087,2.919   c2.018,2.019,3.076,4.827,2.903,7.706l-0.135,2.252l2.252-0.136c0.203-0.012,0.405-0.018,0.607-0.018   c2.655,0,5.242,1.064,7.098,2.921C40.762,75.916,40.723,82.346,36.748,86.321z M31.92,67.025l-2.511-0.336l-0.336-2.513l2.1-2.099   l2.848,2.848L31.92,67.025z M40.41,64.212l-2.138,2.138l-1.424-1.424l0.005-0.005l-5.676-5.676l-0.005,0.005l-1.424-1.424   l2.138-2.139l1.424,1.424l-0.005,0.005l5.677,5.677l0.005-0.005L40.41,64.212z M36.138,57.111l0.711-0.712l2.849,2.849   l-0.712,0.712L36.138,57.111z M47.499,51.448L44.65,48.6L86.52,6.731l2.848,2.848l-0.006,0.005l-0.005-0.005L75.167,23.77   l0.005,0.005L47.499,51.448z M78,23.774l2.136-2.136l7.81,7.81l-2.136,2.135L78,23.774z M86.523,25.194l-0.002,0.002l-4.972-4.972   l1.425-1.425l4.971,4.971l-0.004,0.003L86.523,25.194z M90.776,23.779l-0.006-0.005l-0.709-0.709l0.002-0.002l-5.675-5.676   l1.424-1.424l6.391,6.39L92.2,22.354L90.776,23.779z"/>
	<path d="M12.02,76.055c-2.056,0-4.112,0.782-5.677,2.347c-3.13,3.13-3.13,8.223,0,11.353c1.565,1.564,3.621,2.348,5.677,2.348   c2.056,0,4.111-0.783,5.676-2.348c3.13-3.13,3.13-8.223,0-11.353C16.131,76.837,14.075,76.055,12.02,76.055z M16.281,88.34   c-1.135,1.136-2.649,1.762-4.261,1.762c-1.613,0-3.126-0.626-4.263-1.762c-2.35-2.351-2.35-6.174,0-8.524   c1.136-1.136,2.65-1.761,4.263-1.761c1.612,0,3.126,0.625,4.262,1.761C18.631,82.166,18.631,85.989,16.281,88.34z"/>
	<path d="M24.082,84.788c1.564,1.565,3.62,2.347,5.675,2.347s4.112-0.782,5.676-2.347c3.13-3.13,3.13-8.223,0-11.353   c-1.565-1.564-3.621-2.348-5.676-2.348s-4.111,0.783-5.676,2.348C20.952,76.564,20.951,81.658,24.082,84.788z M29.757,73.088   c1.612,0,3.126,0.626,4.262,1.762c2.35,2.351,2.35,6.174,0,8.524c-1.136,1.136-2.649,1.761-4.262,1.761   c-1.612,0-3.125-0.625-4.261-1.761c-1.136-1.136-1.762-2.649-1.762-4.263c0-1.612,0.625-3.126,1.761-4.262   C26.631,73.714,28.145,73.088,29.757,73.088z"/>
	<path d="M22.662,60.664c-1.565-1.564-3.621-2.348-5.676-2.348s-4.111,0.783-5.676,2.348c-3.129,3.13-3.13,8.222,0,11.352   c1.565,1.564,3.621,2.348,5.677,2.348c2.056,0,4.111-0.783,5.676-2.348C25.792,68.886,25.792,63.794,22.662,60.664z M16.986,72.363   c-1.613,0-3.126-0.626-4.263-1.762c-2.349-2.35-2.349-6.173,0-8.523c1.136-1.136,2.65-1.762,4.262-1.762s3.126,0.626,4.262,1.762   c2.35,2.35,2.35,6.174,0,8.523C20.112,71.737,18.599,72.363,16.986,72.363z"/>
</g>
</svg>